<svg width="20" height="20" viewBox="0 0 20 20" fill="none" xmlns="http://www.w3.org/2000/svg">
    <path d="M14.6944 8.75346V5.20776H11.1389V3.54571H14.6944V0H16.3611V3.54571H19.9167V5.20776H16.3611V8.75346H14.6944ZM18.75 20C16.4907 20 14.2454 19.446 12.0139 18.338C9.78241 17.2299 7.77778 15.7895 6 14.0166C4.22222 12.2438 2.77778 10.2447 1.66667 8.01939C0.555556 5.79409 0 3.55494 0 1.30194C0 0.951062 0.12037 0.655586 0.361111 0.415512C0.601852 0.175439 0.898148 0.0554016 1.25 0.0554016H5.13889C5.39815 0.0554016 5.625 0.143121 5.81944 0.318559C6.01389 0.493998 6.13889 0.729455 6.19444 1.02493L6.94444 4.51524C6.98148 4.77378 6.97685 5.00923 6.93056 5.22161C6.88426 5.43398 6.78704 5.61404 6.63889 5.76177L3.86111 8.55956C4.89815 10.277 6.06019 11.7729 7.34722 13.0471C8.63426 14.3213 10.0926 15.4017 11.7222 16.2881L14.3611 13.5734C14.5463 13.3703 14.7593 13.2271 15 13.144C15.2407 13.0609 15.4815 13.0471 15.7222 13.1025L19.0278 13.8227C19.3056 13.8781 19.537 14.0166 19.7222 14.2382C19.9074 14.4598 20 14.7184 20 15.0139V18.7535C20 19.1043 19.8796 19.3998 19.6389 19.6399C19.3981 19.88 19.1019 20 18.75 20ZM3.02778 7.03601L5.27778 4.76454L4.63889 1.71745H1.66667C1.66667 2.43767 1.77778 3.22715 2 4.08587C2.22222 4.9446 2.56481 5.92798 3.02778 7.03601ZM13.2778 17.0914C14.037 17.4423 14.8611 17.7285 15.75 17.9501C16.6389 18.1717 17.5 18.301 18.3333 18.338V15.374L15.4722 14.7922L13.2778 17.0914Z" fill="black"/>
</svg>
