<svg width="24" height="24" viewBox="0 0 24 24" fill="none" xmlns="http://www.w3.org/2000/svg">
    <path fill-rule="evenodd" clip-rule="evenodd" d="M14.3516 3.09375C15.1348 3.32882 15.883 3.66777 16.5762 4.10156L17.7734 2.89844C18.0516 2.62173 18.428 2.4664 18.8203 2.4664C19.2127 2.4664 19.589 2.62173 19.8672 2.89844L21.0938 4.13086C21.3705 4.40901 21.5258 4.78539 21.5258 5.17773C21.5258 5.57008 21.3705 5.94646 21.0938 6.22461L19.8047 7.51367C20.1763 8.18661 20.4611 8.90391 20.6523 9.64844H22.5117C22.707 9.64792 22.9004 9.68594 23.081 9.76031C23.2615 9.83467 23.4256 9.94393 23.5639 10.0818C23.7021 10.2197 23.8118 10.3835 23.8866 10.5639C23.9615 10.7442 24 10.9376 24 11.1328V12.8711C23.999 13.2634 23.8427 13.6394 23.5652 13.9168C23.2878 14.1942 22.9119 14.3505 22.5195 14.3516H20.6426C20.4471 15.0881 20.1604 15.7974 19.7891 16.4629L21.0938 17.7734C21.3705 18.0516 21.5258 18.428 21.5258 18.8203C21.5258 19.2127 21.3705 19.589 21.0938 19.8672L19.8691 21.0938C19.5907 21.3706 19.214 21.526 18.8213 21.526C18.4286 21.526 18.0519 21.3706 17.7734 21.0938L16.5352 19.8535C15.8522 20.2726 15.1175 20.6009 14.3496 20.8301V22.5078C14.3486 22.9001 14.1923 23.2761 13.9149 23.5535C13.6374 23.8309 13.2615 23.9873 12.8691 23.9883H11.1328C10.7405 23.9873 10.3645 23.8309 10.0871 23.5535C9.80968 23.2761 9.65337 22.9001 9.65234 22.5078V20.9922C8.80958 20.8016 7.99767 20.4939 7.24023 20.0781L6.22461 21.0938C5.94596 21.3695 5.56976 21.5242 5.17773 21.5242C4.7857 21.5242 4.40951 21.3695 4.13086 21.0938L2.89844 19.8613C2.62221 19.5829 2.4672 19.2066 2.4672 18.8145C2.4672 18.4223 2.62221 18.046 2.89844 17.7676L3.82031 16.8457C3.33745 16.0724 2.97151 15.2319 2.73438 14.3516H1.48047C1.08814 14.3505 0.712177 14.1942 0.434758 13.9168C0.15734 13.6394 0.00103109 13.2634 0 12.8711L0 11.1328C-1.36081e-06 10.7398 0.155851 10.3628 0.433381 10.0846C0.710911 9.80632 1.08747 9.64947 1.48047 9.64844H2.7207C2.9512 8.75697 3.31395 7.90507 3.79688 7.12109L2.89844 6.22461C2.62268 5.94596 2.468 5.56976 2.468 5.17773C2.468 4.7857 2.62268 4.40951 2.89844 4.13086L4.13086 2.89844C4.40901 2.62173 4.78539 2.4664 5.17773 2.4664C5.57008 2.4664 5.94646 2.62173 6.22461 2.89844L7.20117 3.875C7.96699 3.44336 8.79131 3.12495 9.64844 2.92969V1.48047C9.64947 1.08747 9.80632 0.710911 10.0846 0.433381C10.3628 0.155851 10.7398 -1.36081e-06 11.1328 0L12.8711 0C13.2634 0.00103109 13.6394 0.15734 13.9168 0.434758C14.1942 0.712177 14.3505 1.08814 14.3516 1.48047V3.09375ZM11.6914 7.16406C12.6418 7.16406 13.5708 7.4459 14.361 7.97393C15.1511 8.50197 15.7669 9.25247 16.1305 10.1305C16.4941 11.0086 16.5892 11.9747 16.4036 12.9068C16.2181 13.8389 15.7603 14.695 15.0881 15.3669C14.416 16.0387 13.5597 16.4962 12.6276 16.6814C11.6954 16.8665 10.7293 16.7711 9.85138 16.4071C8.97347 16.0432 8.22322 15.4271 7.69551 14.6367C7.16779 13.8463 6.88633 12.9172 6.88672 11.9668C6.88672 11.3359 7.01101 10.7112 7.25249 10.1284C7.49397 9.5456 7.84792 9.01606 8.2941 8.57006C8.74028 8.12406 9.26996 7.77033 9.85288 7.52909C10.4358 7.28784 11.0605 7.16381 11.6914 7.16406V7.16406Z" fill="black"/>
</svg>
