<svg width="46" height="32" viewBox="0 0 46 32" fill="none" xmlns="http://www.w3.org/2000/svg">
    <path fill-rule="evenodd" clip-rule="evenodd" d="M42 32H4C1.791 32 0 30.209 0 28V4C0 1.791 1.791 0 4 0H42C44.209 0 46 1.791 46 4V28C46 30.209 44.209 32 42 32ZM2 13H44V9H2V13ZM44 4C44 2.896 43.104 2 42 2H4C2.896 2 2 2.896 2 4V7H44V4ZM44 15H2V28C2 29.104 2.896 30 4 30H42C43.104 30 44 29.104 44 28V15ZM25 21H21C20.447 21 20 20.553 20 20C20 19.448 20.447 19 21 19H25C25.553 19 26 19.448 26 20C26 20.553 25.553 21 25 21ZM16 21H7C6.447 21 6 20.553 6 20C6 19.448 6.447 19 7 19H16C16.553 19 17 19.448 17 20C17 20.553 16.553 21 16 21ZM7 24H13C13.553 24 14 24.448 14 25C14 25.553 13.553 26 13 26H7C6.447 26 6 25.553 6 25C6 24.448 6.447 24 7 24Z" fill="black"/>
</svg>
