<svg width="20" height="19" viewBox="0 0 20 19" fill="none" xmlns="http://www.w3.org/2000/svg">
   <path d="M7.86355 1.01117C9.0337 -0.0819585 10.944 -0.0819584 12.1241 1.00282L12.8542 1.67873C13.1342 1.93833 13.5143 2.08761 13.9143 2.08761H14.9445C16.6047 2.08761 17.9549 3.33835 17.9549 4.87744V5.83335C17.9549 6.20329 18.1149 6.55561 18.3949 6.81522L19.115 7.48277C19.6851 8.00199 19.9951 8.70663 19.9951 9.44836C20.0051 10.1901 19.6951 10.8957 19.135 11.4232L18.3949 12.1093C18.1149 12.3689 17.9549 12.7213 17.9549 13.093V14.0471C17.9549 15.5862 16.6047 16.8388 14.9445 16.8388H13.9143C13.5143 16.8388 13.1342 16.9862 12.8542 17.2458L12.1341 17.9134C11.544 18.4613 10.7739 18.7293 10.0038 18.7293C9.23373 18.7293 8.46363 18.4613 7.87355 17.9236L7.14345 17.2458C6.86342 16.9862 6.48337 16.8388 6.08331 16.8388H5.05318C3.39296 16.8388 2.04278 15.5862 2.04278 14.0471V13.093C2.04278 12.7213 1.88276 12.3689 1.60273 12.1001L0.882632 11.4418C-0.287522 10.3579 -0.297523 8.5861 0.872631 7.49297L1.60273 6.81522C1.88276 6.55561 2.04278 6.20329 2.04278 5.82315V4.87744C2.04278 3.33835 3.39296 2.08761 5.05318 2.08761H6.08331C6.48337 2.08761 6.86342 1.93833 7.14345 1.67873L7.86355 1.01117ZM12.5742 11.0338C12.0841 11.0338 11.6941 11.3963 11.6941 11.8404C11.6941 12.2948 12.0841 12.6564 12.5742 12.6564C13.0542 12.6564 13.4443 12.2948 13.4443 11.8404C13.4443 11.3963 13.0542 11.0338 12.5742 11.0338ZM13.1842 6.49998C12.8442 6.18567 12.2941 6.18567 11.9541 6.49998L6.81341 11.2656C6.47337 11.5808 6.47337 12.1001 6.81341 12.4153C6.97343 12.5729 7.19346 12.6564 7.42349 12.6564C7.66352 12.6564 7.88355 12.5729 8.04357 12.4153L13.1842 7.65059C13.5243 7.33535 13.5243 6.81522 13.1842 6.49998ZM7.43349 6.26819C6.95343 6.26819 6.55338 6.62978 6.55338 7.07482C6.55338 7.53006 6.95343 7.89073 7.43349 7.89073C7.91356 7.89073 8.30361 7.53006 8.30361 7.07482C8.30361 6.62978 7.91356 6.26819 7.43349 6.26819Z" fill="#D9D9D9"/>
</svg>
