<svg width="19" height="17" viewBox="0 0 19 17" fill="none" xmlns="http://www.w3.org/2000/svg">
   <path d="M13.3054 0.297769C16.4667 0.230141 18.3884 1.89009 18.484 4.79989L14.6056 4.88286L14.6066 4.91255C12.8066 4.95106 11.3911 6.31162 11.445 7.95146C11.4988 9.5913 13.0017 10.8894 14.8016 10.8509L18.68 10.768L18.6888 11.0352C18.7831 13.9079 16.9731 15.6477 13.8117 15.7153L5.53358 15.8924C2.37223 15.96 0.450556 14.3001 0.356202 11.4274L0.150185 5.15495C0.0558319 2.28226 1.86585 0.542483 5.02719 0.474856L13.3054 0.297769ZM17.8415 6.09129C18.2195 6.0832 18.5351 6.35581 18.5464 6.70017L18.6176 8.86768C18.6244 9.21047 18.3297 9.4938 17.9536 9.50585L14.833 9.57261C13.9222 9.60327 13.1067 9.05193 12.8734 8.24774C12.7534 7.748 12.8817 7.22693 13.2239 6.82417C13.5661 6.42142 14.0872 6.17817 14.6475 6.15961L17.8415 6.09129ZM15.1204 7.1523L14.819 7.15875C14.6338 7.16072 14.4577 7.23014 14.33 7.35149C14.2022 7.47285 14.1334 7.63606 14.139 7.80469C14.1506 8.15848 14.4725 8.43974 14.8609 8.4355L15.1624 8.42905C15.5494 8.42077 15.8537 8.12825 15.8421 7.77569C15.8305 7.42312 15.5074 7.14402 15.1204 7.1523ZM9.6261 3.71173L4.45225 3.82241C4.06841 3.8306 3.76524 4.1186 3.77226 4.46835C3.78388 4.82214 4.10574 5.1034 4.49418 5.09916L9.66804 4.98848C10.055 4.98021 10.3594 4.68768 10.3478 4.33512C10.3362 3.98255 10.0131 3.70345 9.6261 3.71173Z" fill="#D9D9D9"/>
</svg>
