<svg width="224" height="233" viewBox="0 0 224 233" fill="none" xmlns="http://www.w3.org/2000/svg">
    <path d="M21.1 27.0088C15.503 27.0114 10.1362 29.2367 6.17944 33.1953C2.22271 37.1539 -6.27983e-07 42.5218 0 48.1188V211.319C0 216.915 2.22303 222.282 6.18005 226.239C10.1371 230.196 15.5039 232.419 21.1 232.419H202.59C208.186 232.419 213.553 230.196 217.51 226.239C221.467 222.282 223.69 216.915 223.69 211.319V48.1188C223.69 42.5218 221.467 37.1539 217.511 33.1953C213.554 29.2367 208.187 27.0114 202.59 27.0088H195.2V40.3788C195.2 44.67 193.495 48.7854 190.461 51.8198C187.427 54.8541 183.311 56.5588 179.02 56.5588C174.729 56.5588 170.613 54.8541 167.579 51.8198C164.545 48.7854 162.84 44.67 162.84 40.3788V27.0088H60.84V40.3788C60.84 44.67 59.1353 48.7854 56.101 51.8198C53.0667 54.8541 48.9512 56.5588 44.66 56.5588C40.3688 56.5588 36.2533 54.8541 33.219 51.8198C30.1847 48.7854 28.48 44.67 28.48 40.3788V27.0088H21.1ZM34.47 86.0988H189.22C193.88 86.0988 197.66 89.5188 197.66 93.7488V199.459C197.66 203.679 193.88 207.089 189.22 207.089H34.47C29.81 207.089 26.03 203.679 26.03 199.459V93.7488C26.03 89.5188 29.81 86.0988 34.47 86.0988V86.0988Z" fill="white"/>
    <path d="M36.93 8.01816V40.3782C36.8926 41.4173 37.065 42.4534 37.4369 43.4245C37.8088 44.3955 38.3726 45.2817 39.0945 46.0301C39.8165 46.7785 40.6818 47.3737 41.6389 47.7803C42.596 48.1868 43.6251 48.3963 44.665 48.3963C45.7048 48.3963 46.734 48.1868 47.6911 47.7803C48.6482 47.3737 49.5135 46.7785 50.2355 46.0301C50.9574 45.2817 51.5212 44.3955 51.8931 43.4245C52.265 42.4534 52.4374 41.4173 52.4 40.3782V8.01816C52.4374 6.97899 52.265 5.94294 51.8931 4.97187C51.5212 4.0008 50.9574 3.11462 50.2355 2.36624C49.5135 1.61786 48.6482 1.02263 47.6911 0.616077C46.734 0.209528 45.7048 0 44.665 0C43.6251 0 42.596 0.209528 41.6389 0.616077C40.6818 1.02263 39.8165 1.61786 39.0945 2.36624C38.3726 3.11462 37.8088 4.0008 37.4369 4.97187C37.065 5.94294 36.8926 6.97899 36.93 8.01816V8.01816Z" fill="white"/>
    <path d="M171.28 8.01832V40.3783C171.28 41.3947 171.48 42.4012 171.869 43.3403C172.258 44.2794 172.828 45.1326 173.547 45.8513C174.266 46.57 175.119 47.1402 176.058 47.5291C176.997 47.9181 178.004 48.1183 179.02 48.1183C180.036 48.1183 181.043 47.9181 181.982 47.5291C182.921 47.1402 183.774 46.57 184.493 45.8513C185.212 45.1326 185.782 44.2794 186.171 43.3403C186.56 42.4012 186.76 41.3947 186.76 40.3783V8.01832C186.76 5.96554 185.944 3.99684 184.493 2.54531C183.041 1.09378 181.073 0.27832 179.02 0.27832C176.967 0.27832 174.998 1.09378 173.547 2.54531C172.095 3.99684 171.28 5.96554 171.28 8.01832V8.01832Z" fill="white"/>
    <path d="M81.76 99.2881H40.82V141.188H81.76V99.2881Z" fill="white"/>
    <path d="M133.3 99.2881H92.36V141.188H133.3V99.2881Z" fill="white"/>
    <path d="M81.76 150.788H40.82V192.688H81.76V150.788Z" fill="white"/>
    <path d="M133.3 150.788H92.36V192.688H133.3V150.788Z" fill="white"/>
    <path d="M186.76 99.2881H145.82V141.188H186.76V99.2881Z" fill="white"/>
    <path d="M186.76 150.788H145.82V192.688H186.76V150.788Z" fill="white"/>
    <path d="M55.29 137.978L42.99 125.678L47.42 121.258L55.29 129.128L75.17 109.248L79.59 113.678L55.29 137.978Z" fill="#1565C0"/>
</svg>
