<?xml version="1.0" ?><svg viewBox="0 0 512 512" xmlns="http://www.w3.org/2000/svg"><title/><g id="Cardiac_monitor"><path d="M135.998,267.68h39.1368a12.072,12.072,0,0,0,11.1914-7.6641L205.1074,211.5l30.4141,78.5625a12.0031,12.0031,0,0,0,22.3828,0l8.6641-22.3828h109.43a12,12,0,0,0,0-24H258.3457a12.0718,12.0718,0,0,0-11.1914,7.6641l-.4414,1.1484L216.2988,173.93a12.0031,12.0031,0,0,0-22.3828,0l-27.0039,69.75H135.998a12,12,0,1,0,0,24Z"/><path d="M336.2637,177.4316l20.8486,20.85,20.8486-20.85,1.7207-1.7187a14.7429,14.7429,0,1,0-20.85-20.85l-1.72,1.7207-1.72-1.7207a14.7429,14.7429,0,1,0-20.85,20.85Z"/><path d="M431.9707,78.5449H80.0293A24.0287,24.0287,0,0,0,56,102.5742v306.85a24.03,24.03,0,0,0,24.0293,24.0313H431.9707A24.031,24.031,0,0,0,456,409.4238v-306.85A24.0293,24.0293,0,0,0,431.9707,78.5449ZM136,405.4551a24,24,0,1,1,24-24A24,24,0,0,1,136,405.4551Zm72,0a24,24,0,1,1,24-24A24,24,0,0,1,208,405.4551Zm208-76H96v-210.91H416Z"/></g></svg>