<svg width="326" height="326" viewBox="0 0 326 326" fill="none" xmlns="http://www.w3.org/2000/svg">
    <g clip-path="url(#clip0_45_2)">
        <path d="M267.39 0H50.28C20.302 0 -4 24.302 -4 54.28V271.39C-4 301.368 20.302 325.67 50.28 325.67H267.39C297.368 325.67 321.67 301.368 321.67 271.39V54.28C321.67 24.302 297.368 0 267.39 0Z" fill="#1565C0"/>
        <path d="M213 326C212.344 326.002 211.695 325.866 211.087 325.603C210.481 325.338 209.93 324.949 209.465 324.459C209.001 323.968 208.632 323.387 208.381 322.745C208.129 322.103 208 321.415 208 320.721V287.294C208 285.891 208.528 284.544 209.465 283.55C210.403 282.557 211.674 282 213 282C214.327 282 215.597 282.557 216.536 283.55C217.474 284.544 218 285.891 218 287.294V320.721C218 321.415 217.871 322.103 217.619 322.745C217.368 323.387 217 323.968 216.535 324.459C216.07 324.949 215.519 325.338 214.913 325.603C214.307 325.866 213.656 326.002 213 326Z" fill="white"/>
        <path d="M104.5 326C103.91 326.002 103.325 325.866 102.778 325.603C102.233 325.338 101.737 324.949 101.319 324.459C100.901 323.968 100.569 323.387 100.343 322.745C100.116 322.103 100 321.415 100 320.721V287.294C100 285.891 100.475 284.544 101.319 283.55C102.162 282.557 103.307 282 104.5 282C105.694 282 106.838 282.557 107.683 283.55C108.526 284.544 109 285.891 109 287.294V320.721C109 321.415 108.884 322.103 108.657 322.745C108.431 323.387 108.1 323.968 107.681 324.459C107.263 324.949 106.767 325.338 106.222 325.603C105.676 325.866 105.09 326.002 104.5 326Z" fill="white"/>
        <path d="M196.172 55C195.622 54.9952 195.078 54.8931 194.559 54.6975C171.211 45.9639 145.815 45.9639 122.466 54.6975C121.302 55.1445 120.023 55.0926 118.893 54.5521C117.763 54.0116 116.868 53.0242 116.394 51.7932L109.383 33.7321C107.603 29.2181 107.539 24.1306 109.205 19.5664C110.871 15.0022 114.132 11.3269 118.287 9.33306C130.708 3.2826 144.163 0.103314 157.791 0H159.459C173.007 0.135987 186.378 3.31452 198.724 9.33306C202.876 11.3296 206.135 15.0061 207.799 19.5701C209.462 24.1341 209.396 29.22 207.615 33.7321L200.603 51.7932C200.237 52.7375 199.623 53.545 198.835 54.1151C198.047 54.6854 197.121 54.993 196.172 55ZM159.095 37.7407C170.726 37.9011 182.282 39.7844 193.438 43.3375L198.682 29.7236C199.458 27.7103 199.481 25.4519 198.749 23.4196C198.019 21.3875 196.587 19.7387 194.756 18.8174C183.366 13.2644 171.012 10.3925 158.513 10.3925C146.014 10.3925 133.66 13.2644 122.27 18.8174C120.436 19.7357 119.003 21.3844 118.271 23.4175C117.539 25.4508 117.565 27.7107 118.344 29.7236L123.574 43.3375C134.96 39.7072 146.76 37.8231 158.632 37.7407H159.095Z" fill="white"/>
        <path d="M101.611 111C100.45 111 99.3261 110.547 98.4443 109.721C97.5639 108.895 96.9817 107.754 96.8064 106.501C96.5521 104.73 90.9559 62.7783 113.242 36.6335C113.804 35.996 114.502 35.5211 115.274 35.2521C116.047 34.9831 116.868 34.9283 117.665 35.0928C118.466 35.2469 119.22 35.6203 119.851 36.1781C120.484 36.7359 120.978 37.4599 121.283 38.282L123.318 43.6126C146.268 36.0118 170.772 36.0118 193.722 43.6126L195.687 38.4669C196.008 37.6311 196.518 36.8986 197.171 36.3394C197.825 35.7801 198.598 35.4127 199.419 35.2722C200.239 35.1315 201.079 35.2224 201.858 35.5362C202.637 35.8501 203.329 36.3763 203.869 37.0649C223.343 61.9001 220.997 100.477 220.827 102.095C220.745 103.315 220.278 104.468 219.505 105.355C218.732 106.242 217.701 106.811 216.588 106.964C204.413 108.308 192.114 107.074 180.368 103.328C160.01 96.6828 138.197 97.6472 118.4 106.07C113.242 108.216 107.91 109.826 102.473 110.877C102.189 110.941 101.901 110.983 101.611 111ZM115.517 50.6072C105.625 67.4156 105.384 89.1228 105.936 99.2294C108.971 98.4129 111.954 97.3837 114.867 96.1481C136.702 86.8226 160.774 85.7441 183.237 93.0823C192.347 95.934 201.82 97.1619 211.288 96.7182C211.288 87.8286 210.129 67.5389 201.311 51.2696L200.972 52.1478C200.492 53.3991 199.59 54.4026 198.452 54.9524C197.315 55.5024 196.027 55.5573 194.853 55.1059C171.324 46.2106 145.732 46.2106 122.201 55.1059C121.028 55.5611 119.74 55.5081 118.601 54.9578C117.462 54.4073 116.561 53.4014 116.082 52.1478L115.517 50.6072Z" fill="white"/>
        <path d="M159.016 180C112.345 180 98.6588 109.03 98.099 106.011C97.9689 105.333 97.9675 104.635 98.092 103.957C98.218 103.279 98.4685 102.636 98.8281 102.063C99.1878 101.491 99.651 101.003 100.19 100.629C100.727 100.253 101.33 99.9992 101.961 99.8799C106.671 98.9875 111.29 97.618 115.76 95.7879C137.353 86.6388 161.157 85.5169 183.408 92.6018C193.813 95.8664 204.698 96.9687 215.483 95.8483C216.224 95.7471 216.977 95.8302 217.682 96.0929C218.387 96.3541 219.03 96.7875 219.556 97.3583C220.092 97.9245 220.498 98.6176 220.741 99.3832C220.985 100.149 221.057 100.966 220.955 101.767C220.451 104.999 209.466 180 159.016 180ZM108.637 109.03C112.485 124.372 126.591 169.611 159.016 169.626C193.54 169.626 206.597 123.874 210.194 106.705C200.23 106.983 190.284 105.609 180.707 102.628C160.501 96.1926 138.884 97.2073 119.272 105.512C115.82 106.942 112.281 108.112 108.679 109.015L108.637 109.03Z" fill="white"/>
        <path d="M267.23 326H49.8403C49.2053 326.003 48.5762 325.869 47.989 325.608C47.4018 325.347 46.8681 324.965 46.4185 324.481C45.9688 323.998 45.6121 323.423 45.3686 322.79C45.1252 322.158 45 321.48 45 320.794V245.861C45.0113 235.674 48.4725 225.841 54.7327 218.214C60.9924 210.586 69.6205 205.688 78.9943 204.441L112.187 200.069C119.827 199.052 130.014 188.322 131.632 179.564L133.222 169.38C133.352 168.556 133.662 167.777 134.128 167.109C134.595 166.44 135.203 165.902 135.903 165.541C136.602 165.18 137.371 165.005 138.147 165.031C138.921 165.057 139.679 165.285 140.356 165.691C145.742 168.994 151.833 170.726 158.028 170.715C164.552 170.779 170.978 169.021 176.686 165.616C177.361 165.227 178.111 165.016 178.877 165.001C179.642 164.986 180.399 165.168 181.087 165.532C181.774 165.895 182.372 166.429 182.829 167.091C183.288 167.751 183.593 168.521 183.721 169.334L185.339 179.716C186.943 188.322 197.116 199.052 204.757 200.069L237.949 204.441C247.333 205.674 255.975 210.566 262.246 218.196C268.517 225.825 271.987 235.664 272 245.861V320.733C272.007 321.418 271.89 322.096 271.654 322.731C271.419 323.365 271.07 323.943 270.626 324.434C270.183 324.922 269.656 325.312 269.073 325.581C268.491 325.85 267.864 325.992 267.23 326ZM54.765 315.573H262.319V245.861C262.311 238.222 259.715 230.85 255.019 225.131C250.324 219.412 243.853 215.74 236.823 214.807L203.645 210.421C191.826 208.903 178.318 194.863 175.884 181.583L175.279 177.758C169.769 180.015 163.921 181.156 158.028 181.127C152.448 181.141 146.913 180.035 141.707 177.864L141.144 181.431C138.667 194.833 125.174 208.842 113.354 210.39L80.1762 214.777C73.1423 215.71 66.6671 219.386 61.9717 225.111C57.2756 230.836 54.6824 238.217 54.6805 245.861L54.765 315.573Z" fill="white"/>
        <path d="M233.075 123H227.909C226.607 123 225.359 122.455 224.438 121.485C223.518 120.513 223 119.197 223 117.825C223 116.453 223.518 115.137 224.438 114.166C225.359 113.196 226.607 112.65 227.909 112.65H233.075C234.694 112.65 236.248 111.971 237.393 110.765C238.539 109.557 239.182 107.919 239.182 106.211V84.8038C239.184 83.9571 239.028 83.1183 238.721 82.3354C238.416 81.5524 237.966 80.8409 237.398 80.2414C236.831 79.6419 236.157 79.1663 235.415 78.8418C234.673 78.5173 233.878 78.3501 233.075 78.3501H227.909C227.264 78.3501 226.626 78.2164 226.031 77.9563C225.434 77.6962 224.894 77.315 224.438 76.8345C223.982 76.354 223.621 75.7834 223.374 75.1556C223.127 74.5277 223 73.8547 223 73.1751C223 72.4955 223.127 71.8226 223.374 71.1947C223.621 70.5668 223.982 69.9963 224.438 69.5158C224.894 69.0353 225.434 68.6541 226.031 68.394C226.626 68.1339 227.264 68 227.909 68H233.075C237.297 68.0041 241.346 69.7741 244.331 72.9217C247.318 76.0695 248.996 80.3374 249 84.7887V106.196C249 110.651 247.323 114.921 244.337 118.073C241.35 121.223 237.3 122.995 233.075 123Z" fill="white"/>
        <path d="M89.9023 123H84.5379C80.153 122.995 75.9488 121.226 72.8487 118.076C69.7471 114.928 68.0044 110.659 68 106.207V84.7935C68.0044 80.3407 69.7471 76.0715 72.8487 72.923C75.9488 69.7744 80.153 68.0039 84.5379 68H89.9023C91.2538 68 92.5504 68.5453 93.5063 69.5161C94.4621 70.4868 95 71.8035 95 73.1765C95 74.5493 94.4621 75.866 93.5063 76.8367C92.5504 77.8074 91.2538 78.3529 89.9023 78.3529H84.5379C82.8559 78.3529 81.2421 79.0314 80.0522 80.2392C78.8637 81.447 78.1954 83.0852 78.1954 84.7935V106.207C78.1954 107.915 78.8637 109.553 80.0522 110.76C81.2421 111.968 82.8559 112.647 84.5379 112.647H89.9023C91.2538 112.647 92.5504 113.192 93.5063 114.162C94.4621 115.134 95 116.451 95 117.824C95 119.196 94.4621 120.513 93.5063 121.483C92.5504 122.454 91.2538 123 89.9023 123Z" fill="white"/>
        <path d="M173.936 152C172.695 152.017 171.494 151.539 170.579 150.662C169.664 149.785 169.103 148.576 169.013 147.281C168.922 145.985 169.309 144.704 170.092 143.697C170.876 142.691 171.998 142.035 173.228 141.865L216.725 135.178C219.926 134.673 222.849 132.988 224.965 130.426C227.083 127.864 228.254 124.596 228.268 121.211V118.089C228.268 116.739 228.781 115.444 229.694 114.49C230.606 113.536 231.844 113 233.134 113C234.424 113 235.662 113.536 236.576 114.49C237.488 115.444 238 116.739 238 118.089V121.211C237.975 127.027 235.966 132.643 232.336 137.051C228.706 141.457 223.693 144.365 218.196 145.253L174.586 151.94C174.371 151.971 174.153 151.992 173.936 152Z" fill="white"/>
        <path d="M84.845 77.9999C84.2084 78.0039 83.5788 77.8706 82.9901 77.6075C82.4014 77.3444 81.8662 76.9568 81.4155 76.467C80.9662 75.9772 80.6084 75.395 80.3648 74.7539C80.1225 74.1129 79.9986 73.4258 80 72.732C80 71.0119 80.3662 30.3586 112.239 15.4304C113.419 14.8764 114.753 14.8565 115.947 15.375C117.142 15.8933 118.097 16.9077 118.605 18.1949C119.113 19.4821 119.132 20.9365 118.656 22.2384C118.181 23.5403 117.25 24.5828 116.07 25.1368C90.1125 37.3005 89.69 71.3037 89.69 72.7474C89.6829 74.1433 89.1689 75.4792 88.2618 76.4633C87.3534 77.4475 86.1253 77.9999 84.845 77.9999Z" fill="white"/>
        <path d="M233.013 77.9078C231.74 77.8844 230.525 77.332 229.622 76.3665C228.719 75.401 228.199 74.097 228.169 72.7278C228.169 72.3743 227.212 37.1905 200.835 25.0783C199.679 24.4973 198.778 23.455 198.323 22.172C197.868 20.8889 197.895 19.4659 198.398 18.2038C198.901 16.9417 199.841 15.9396 201.018 15.4097C202.196 14.8797 203.519 14.8634 204.707 15.364C236.999 30.289 237.971 70.8987 237.999 72.6202C238.011 73.3147 237.895 74.0047 237.658 74.6509C237.422 75.2971 237.069 75.8868 236.62 76.3864C236.172 76.8859 235.636 77.2856 235.044 77.5626C234.453 77.8394 233.816 77.988 233.17 78L233.013 77.9078Z" fill="white"/>
        <path d="M140.009 323C138.686 323 137.416 322.451 136.481 321.473C135.543 320.495 135.018 319.169 135.018 317.785V259.841C135.035 245.76 130.94 232.009 123.281 220.423L113.879 206.172C113.129 205.032 112.843 203.628 113.083 202.268C113.323 200.907 114.072 199.703 115.163 198.918C116.254 198.134 117.598 197.835 118.901 198.087C120.202 198.339 121.355 199.12 122.105 200.26L131.492 214.511C140.308 227.831 145.02 243.646 145 259.841V317.785C145 319.169 144.475 320.495 143.537 321.473C142.602 322.451 141.332 323 140.009 323Z" fill="white"/>
        <path d="M176.991 323C175.668 323 174.398 322.451 173.463 321.473C172.525 320.495 172 319.169 172 317.785V259.841C171.98 243.646 176.692 227.831 185.508 214.511L194.895 200.26C195.645 199.12 196.798 198.339 198.1 198.087C199.402 197.835 200.746 198.134 201.837 198.918C202.928 199.703 203.677 200.907 203.917 202.268C204.157 203.628 203.871 205.032 203.121 206.172L193.719 220.423C186.06 232.009 181.965 245.76 181.982 259.841V317.785C181.982 319.169 181.457 320.495 180.519 321.473C179.584 322.451 178.314 323 176.991 323Z" fill="white"/>
        <path d="M159.02 208C149.817 208.003 140.714 205.934 132.271 201.921L126.898 199.361C125.719 198.775 124.796 197.705 124.33 196.383C123.865 195.058 123.892 193.587 124.408 192.285C124.924 190.982 125.885 189.957 127.086 189.426C128.286 188.895 129.629 188.903 130.824 189.449L136.196 192.01C143.469 195.461 151.313 197.225 159.237 197.193C167.163 197.16 174.996 195.332 182.244 191.821L187.072 189.465C187.664 189.176 188.302 189.019 188.949 189.002C189.595 188.984 190.24 189.107 190.843 189.361C191.448 189.617 192 190.001 192.47 190.489C192.938 190.979 193.315 191.565 193.577 192.214C193.839 192.863 193.983 193.562 193.998 194.27C194.015 194.98 193.904 195.687 193.67 196.348C193.438 197.011 193.089 197.616 192.641 198.129C192.196 198.645 191.662 199.056 191.07 199.345L186.227 201.701C177.658 205.856 168.39 208.002 159.02 208Z" fill="white"/>
        <path d="M59.6621 218.1L99.9001 207.512L115.71 206L134.755 225.753L141 260.208V314.657L52.7249 318V245.113C51.6791 240.349 51.7661 235.379 52.978 230.66C54.19 225.941 56.488 221.623 59.6621 218.1Z" fill="white"/>
        <path d="M203.689 206L238.389 207.588L263.247 223.482L269 260.185V314.658L229.633 318H179V267.338V241.629L193.875 207.588L203.689 206Z" fill="white"/>
        <path d="M113 22.4784L123.628 47.3282H143.876L171.854 44.1668L197.087 49L200 26.1869L197.479 19.3323L180.802 11.0794L157.683 5L136.063 11.0794L113 22.4784Z" fill="white"/>
        <path d="M110.081 268.993H108.656C108.052 269.028 107.447 268.935 106.879 268.72C106.31 268.506 105.79 268.172 105.35 267.743C104.91 267.312 104.559 266.793 104.32 266.217C104.08 265.643 103.956 265.022 103.956 264.397C103.956 263.77 104.08 263.15 104.32 262.575C104.559 261.999 104.91 261.481 105.35 261.051C105.79 260.62 106.31 260.288 106.879 260.072C107.447 259.858 108.052 259.765 108.656 259.801H110.081C110.622 259.801 111.14 259.578 111.522 259.183C111.904 258.787 112.12 258.25 112.12 257.691V245.711C112.178 243.821 111.87 241.938 111.212 240.174C110.555 238.411 109.561 236.802 108.29 235.444C107.02 234.085 105.499 233.005 103.817 232.267C102.135 231.529 100.326 231.15 98.5 231.15C96.6741 231.15 94.8652 231.529 93.1832 232.267C91.5013 233.005 89.9804 234.085 88.7103 235.444C87.4389 236.802 86.4454 238.411 85.7882 240.174C85.1297 241.938 84.8218 243.821 84.8803 245.711V257.691C84.8845 258.252 85.1026 258.789 85.4861 259.184C85.8709 259.578 86.3912 259.801 86.9328 259.801H88.3582C88.9626 259.765 89.567 259.858 90.1357 260.072C90.7045 260.288 91.2247 260.62 91.6638 261.051C92.1042 261.481 92.4549 261.999 92.6943 262.575C92.9338 263.15 93.0578 263.77 93.0578 264.397C93.0578 265.022 92.9338 265.643 92.6943 266.217C92.4549 266.793 92.1042 267.312 91.6638 267.743C91.2247 268.172 90.7045 268.506 90.1357 268.72C89.567 268.935 88.9626 269.028 88.3582 268.993H86.9328C84.0364 268.988 81.2612 267.798 79.2114 265.679C77.1617 263.56 76.0071 260.688 76 257.691V245.711C76.1482 239.635 78.5828 233.86 82.7863 229.617C86.9899 225.375 92.6288 223 98.5 223C104.371 223 110.01 225.375 114.214 229.617C118.417 233.86 120.852 239.635 121 245.711V257.691C120.996 260.688 119.845 263.559 117.799 265.677C115.752 267.796 112.976 268.988 110.081 268.993Z" fill="#1565C0"/>
        <path d="M99.5072 232C98.3159 232 97.1735 231.488 96.3298 230.576C95.4875 229.664 95.0115 228.426 95.0072 227.133V203.159C94.9726 202.496 95.0634 201.832 95.2726 201.208C95.4831 200.584 95.8091 200.012 96.2288 199.529C96.65 199.047 97.1562 198.662 97.7187 198.399C98.2812 198.136 98.887 198 99.5 198C100.113 198 100.719 198.136 101.281 198.399C101.844 198.662 102.35 199.047 102.771 199.529C103.191 200.012 103.517 200.584 103.727 201.208C103.937 201.832 104.027 202.496 103.993 203.159V227.133C103.993 228.424 103.52 229.662 102.679 230.574C101.838 231.487 100.697 232 99.5072 232Z" fill="#1565C0"/>
        <path d="M215.5 219C214.837 219 214.2 218.731 213.732 218.253C213.264 217.774 213 217.126 213 216.45V201.55C213 200.874 213.264 200.224 213.732 199.747C214.2 199.269 214.837 199 215.5 199C216.163 199 216.798 199.269 217.268 199.747C217.736 200.224 218 200.874 218 201.55V216.527C217.98 217.189 217.708 217.819 217.241 218.28C216.774 218.742 216.151 219 215.5 219Z" fill="#1565C0"/>
        <path d="M208.001 196.13C206.943 196.132 205.907 195.82 205.026 195.233C204.145 194.646 203.458 193.811 203.051 192.834C202.645 191.857 202.537 190.781 202.743 189.742C202.948 188.704 203.457 187.749 204.205 187C204.952 186.251 205.906 185.74 206.944 185.533C207.982 185.326 209.058 185.431 210.036 185.836C211.014 186.241 211.851 186.926 212.439 187.806C213.027 188.686 213.341 189.721 213.341 190.78C213.339 192.196 212.775 193.554 211.775 194.556C210.774 195.559 209.418 196.124 208.001 196.13ZM208.001 188.76C207.606 188.76 207.219 188.877 206.89 189.097C206.561 189.317 206.305 189.629 206.153 189.994C206.002 190.36 205.962 190.762 206.04 191.15C206.117 191.538 206.307 191.894 206.587 192.174C206.867 192.454 207.223 192.644 207.611 192.721C207.999 192.798 208.401 192.759 208.767 192.607C209.132 192.456 209.444 192.2 209.664 191.871C209.884 191.542 210.001 191.155 210.001 190.76C210.001 190.229 209.79 189.721 209.415 189.345C209.04 188.97 208.532 188.76 208.001 188.76Z" fill="#1565C0"/>
    </g>
    <defs>
        <clipPath id="clip0_45_2">
            <rect width="326" height="326" fill="white"/>
        </clipPath>
    </defs>
</svg>
