<svg width="31" height="31" viewBox="0 0 31 31" fill="none" xmlns="http://www.w3.org/2000/svg">
    <g clip-path="url(#clip0_449_592)">
        <path d="M14.7244 2.71306L2.85072 14.5867C2.60857 14.8289 2.47253 15.1574 2.47253 15.4999C2.47253 15.8424 2.60857 16.1709 2.85072 16.4131L14.725 28.2874C14.9672 28.5296 15.2957 28.6656 15.6382 28.6656C15.9807 28.6656 16.3092 28.5296 16.5514 28.2874L28.4251 16.4138C28.6672 16.1715 28.8033 15.8431 28.8033 15.5006C28.8033 15.1581 28.6672 14.8296 28.4251 14.5873L16.5508 2.71241C16.3086 2.47026 15.9801 2.33423 15.6376 2.33423C15.2951 2.33423 14.9666 2.47026 14.7244 2.71241V2.71306Z" stroke="#0E5FD9" stroke-width="4" stroke-linejoin="round"/>
        <path d="M11.625 15.5H19.375M15.5 11.625V19.375" stroke="#0E5FD9" stroke-width="4" stroke-linecap="round"/>
    </g>
    <defs>
        <clipPath id="clip0_449_592">
            <rect width="31" height="31" fill="white"/>
        </clipPath>
    </defs>
</svg>
