<?xml version="1.0" encoding="utf-8"?>
<!DOCTYPE svg PUBLIC "-//W3C//DTD SVG 1.1//EN" "http://www.w3.org/Graphics/SVG/1.1/DTD/svg11.dtd">
<svg version="1.1" xmlns="http://www.w3.org/2000/svg" xmlns:xlink="http://www.w3.org/1999/xlink" x="0px" y="0px" viewBox="0 0 1000 1000" enable-background="new 0 0 1000 1000" xml:space="preserve">
<metadata> Svg Vector Icons : http://www.onlinewebfonts.com/icon </metadata>
	<g><g transform="translate(0.000000,511.000000) scale(0.100000,-0.100000)"><path d="M4462.2,4995.3c-273.4-28.1-610.6-92-850.8-158.4c-181.4-48.5-643.8-199.3-659.2-212.1c-5.1-5.1,38.3-319.4,97.1-702.6l104.8-694.9l-99.6-206.9c-56.2-115-155.8-357.7-222.3-541.6c-245.3-664.3-365.3-896.8-590.2-1136.9c-217.2-232.5-582.5-421.6-988.7-513.5c-81.8-17.9-153.3-40.9-161-53.7c-25.5-38.3,268.3-447.1,406.2-569.7C1846-101.8,2270.1-178.4,2653.3-2.1c255.5,117.5,416.4,309.1,526.3,636.2l66.4,201.9l76.7-138c209.5-367.9,590.2-781.8,886.5-963.2C4508.2-444.1,4643.6-485,4952.7-485c309.1,0,439.4,38.3,746,219.7c237.6,140.5,615.7,534,822.7,850.8c168.6,263.2,178.8,273.4,194.2,204.4c99.6-444.5,291.3-723,567.2-827.8c365.3-135.4,740.9,7.7,1014.3,390.9c112.4,155.8,217.2,357.7,219.7,416.5c0,12.8-61.3,40.9-132.9,58.8c-344.9,86.9-631.1,275.9-822.7,546.7c-163.5,227.4-268.3,462.4-477.8,1065.4c-99.6,288.7-212.1,592.7-250.4,677l-69,153.3l94.5,625.9c53.7,344.9,97.1,648.9,97.1,677.1c2.5,46-40.9,66.4-283.6,145.6c-618.3,201.8-1011.7,273.4-1604.5,288.7C4850.5,5013.2,4577.2,5008,4462.2,4995.3z M5389.6,2856.8c242.7-339.8,641.3-687.3,1019.4-891.7c99.6-51.1,184-99.6,189.1-102.2c20.4-17.9-135.4-498.2-224.8-687.3c-235-500.8-648.9-973.4-1011.7-1152.3c-183.9-92-219.7-99.6-408.8-99.6c-189.1,0-224.8,7.7-403.7,97.1c-454.8,224.8-909.5,825.2-1116.5,1469.1c-89.4,273.4-94.5,357.7-30.7,380.7c490.5,171.2,1167.6,625.9,1469.1,991.3c130.3,160.9,135.4,163.5,265.7,163.5l130.3,2.6L5389.6,2856.8z"/><path d="M3238.4-344.5C1840.9-661.3,962-1575.9,719.3-2963.2c-46-260.6-53.6-416.4-56.2-1060.3l-2.6-753.7l4340.8-7.7l4338.2-5.1l-12.8,797.1c-12.8,876.3-35.8,1085.8-176.3,1527.8C8797.9-1353.7,7952.2-607.6,6746.3-347c-135.4,30.7-263.2,53.7-281,53.7c-20.4,0-92-84.3-158.4-184c-329.6-498.2-687.3-878.9-965.7-1022c-132.9-69-186.5-81.7-337.3-84.3c-421.6,0-735.8,273.4-1405.2,1234C3550.1-283.1,3514.3-283.1,3238.4-344.5z M7341.6-2222.3v-319.4h319.4h319.4v-217.1V-2976h-319.4h-319.4v-319.4v-319.4h-217.2h-217.2v319.4v319.4h-319.4h-319.4v217.2v217.1h319.4h319.4v319.4v319.4h217.2h217.2V-2222.3z"/></g></g>
</svg>