<svg width="23" height="17" viewBox="0 0 23 17" fill="none" xmlns="http://www.w3.org/2000/svg">
    <path d="M20.08 0H2C1.46957 0 0.96086 0.210713 0.585787 0.585786C0.210714 0.960859 0 1.46957 0 2V14.56C0 15.0904 0.210714 15.5991 0.585787 15.9742C0.96086 16.3493 1.46957 16.56 2 16.56H20.08C20.6104 16.56 21.1191 16.3493 21.4942 15.9742C21.8693 15.5991 22.08 15.0904 22.08 14.56V2C22.08 1.46957 21.8693 0.960859 21.4942 0.585786C21.1191 0.210713 20.6104 0 20.08 0ZM17.35 11.64H4.73C4.46478 11.64 4.21043 11.5346 4.02289 11.3471C3.83536 11.1596 3.73 10.9052 3.73 10.64C3.73 10.3748 3.83536 10.1204 4.02289 9.93289C4.21043 9.74536 4.46478 9.64 4.73 9.64H17.35C17.6152 9.64 17.8696 9.74536 18.0571 9.93289C18.2446 10.1204 18.35 10.3748 18.35 10.64C18.35 10.9052 18.2446 11.1596 18.0571 11.3471C17.8696 11.5346 17.6152 11.64 17.35 11.64ZM17.35 6.91H4.73C4.46478 6.91 4.21043 6.80464 4.02289 6.61711C3.83536 6.42957 3.73 6.17522 3.73 5.91C3.73 5.64478 3.83536 5.39043 4.02289 5.20289C4.21043 5.01536 4.46478 4.91 4.73 4.91H17.35C17.6152 4.91 17.8696 5.01536 18.0571 5.20289C18.2446 5.39043 18.35 5.64478 18.35 5.91C18.35 6.17522 18.2446 6.42957 18.0571 6.61711C17.8696 6.80464 17.6152 6.91 17.35 6.91Z" fill="black"/>
</svg>
