<svg width="576" height="512" viewBox="0 0 576 512" fill="none" xmlns="http://www.w3.org/2000/svg">
    <path d="M292.7 342.3C289.7 345.3 288 349.4 288 353.7V416H350.34C354.604 416 358.69 414.297 361.69 411.273L518.59 253.273L450.71 185.393L292.7 342.3ZM568.5 167.4L536.6 135.5C526.725 125.5 510.6 125.5 500.6 135.5L473.35 162.75L541.23 230.63L568.48 203.38C578.5 193.4 578.5 177.3 568.5 167.4ZM256 0V128H384L256 0ZM256 448C239.93 447.715 225.38 438.641 218.12 424.12C215.245 418.245 210.12 417.62 208 417.62C205.88 417.62 200.75 418.245 198 423.745L190.251 439.125C187.6 444.6 181.1 448 176 448H174.9C168.4 447.5 162.9 443.25 160.9 437L144 386.6L133.4 418.5C127.5 436.1 111 448 92.45 448H80C71.13 448 64 440.9 64 432C64 423.1 71.13 416 80 416H92.4C97.275 416 101.502 412.875 103 408.375L121.25 353.745C124.5 343.9 133.6 337.3 144 337.3C154.4 337.3 163.5 343.925 166.75 353.8L180.63 395.43C200.38 379.18 234.76 385.68 246.63 409.55C248.5 413.2 252.2 415.6 256 415.9V347C256 338.477 259.402 330.3 265.451 324.29L384 206.5V160H256C238.33 160 224 145.67 224 128V0H48C21.49 0 0 21.49 0 48V464C0 490.5 21.49 512 48 512H336C362.51 512 384 490.51 384 464V448H256Z" fill="black"/>
</svg>
