<svg width="200" height="159" viewBox="0 0 200 159" fill="none" xmlns="http://www.w3.org/2000/svg">
    <path d="M150.555 140.26V84.6608C150.555 72.175 145.596 60.2006 136.767 51.3718C127.938 42.543 115.964 37.5831 103.478 37.5831C90.9937 37.5858 79.0219 42.5469 70.1954 51.3754C61.3688 60.2039 56.4102 72.1768 56.4102 84.6608V140.26H150.555Z" fill="#DF1F26"/>
    <g style="mix-blend-mode:darken" opacity="0.16">
        <path d="M114.472 129.509V116.529C114.469 113.615 113.31 110.821 111.248 108.761C109.187 106.702 106.392 105.545 103.478 105.545C100.565 105.545 97.7707 106.702 95.7108 108.762C93.6509 110.822 92.4936 113.616 92.4936 116.529V129.509H114.472Z" fill="#1A1A1A"/>
    </g>
    <path d="M162.198 146.056V134.15C162.198 132.844 161.679 131.591 160.756 130.668C159.832 129.744 158.58 129.226 157.274 129.226H51.1917C50.5446 129.224 49.9036 129.351 49.3056 129.598C48.7075 129.845 48.1641 130.207 47.7065 130.665C47.2489 131.122 46.8862 131.666 46.6392 132.264C46.3922 132.862 46.2657 133.503 46.2671 134.15V146.056H162.198Z" fill="#A71E22"/>
    <path d="M169.474 158.226V144.82C169.474 143.35 168.89 141.94 167.85 140.901C166.811 139.861 165.401 139.277 163.931 139.277H44.4837C43.0137 139.277 41.6038 139.861 40.5644 140.901C39.5249 141.94 38.941 143.35 38.941 144.82V158.226H169.474Z" fill="#1A1A1A"/>
    <path d="M64.5368 145.165H56.4304C55.9348 145.129 55.471 144.907 55.1324 144.543C54.7939 144.179 54.6057 143.701 54.6057 143.204C54.6057 142.707 54.7939 142.228 55.1324 141.865C55.471 141.501 55.9348 141.279 56.4304 141.243H64.5368C65.0325 141.279 65.4962 141.501 65.8348 141.865C66.1733 142.228 66.3615 142.707 66.3615 143.204C66.3615 143.701 66.1733 144.179 65.8348 144.543C65.4962 144.907 65.0325 145.129 64.5368 145.165V145.165Z" fill="#24252B"/>
    <path d="M105.058 145.165H77.4563C76.9606 145.129 76.4969 144.907 76.1583 144.543C75.8198 144.179 75.6316 143.701 75.6316 143.204C75.6316 142.707 75.8198 142.229 76.1583 141.865C76.4969 141.501 76.9606 141.279 77.4563 141.243H105.058C105.328 141.224 105.598 141.26 105.853 141.35C106.108 141.44 106.341 141.581 106.539 141.765C106.736 141.949 106.894 142.172 107.002 142.419C107.11 142.667 107.165 142.934 107.165 143.204C107.165 143.474 107.11 143.741 107.002 143.989C106.894 144.236 106.736 144.459 106.539 144.643C106.341 144.827 106.108 144.968 105.853 145.058C105.598 145.148 105.328 145.184 105.058 145.165V145.165Z" fill="#24252B"/>
    <path d="M78.7837 134.788H51.1916C50.9223 134.808 50.6519 134.772 50.3972 134.682C50.1425 134.592 49.909 134.451 49.7114 134.267C49.5137 134.083 49.356 133.86 49.2482 133.612C49.1404 133.365 49.0848 133.098 49.0848 132.828C49.0848 132.558 49.1404 132.291 49.2482 132.043C49.356 131.795 49.5137 131.573 49.7114 131.389C49.909 131.205 50.1425 131.063 50.3972 130.974C50.6519 130.884 50.9223 130.848 51.1916 130.867H78.7938C79.2895 130.903 79.7532 131.125 80.0918 131.489C80.4304 131.852 80.6186 132.331 80.6186 132.828C80.6186 133.325 80.4304 133.803 80.0918 134.167C79.7532 134.531 79.2895 134.753 78.7938 134.788H78.7837Z" fill="#DF1F26"/>
    <path d="M60.1695 123.328V83.6778C60.1592 82.9443 60.4275 82.2342 60.9202 81.6908C61.4129 81.1473 62.0934 80.8109 62.8243 80.7494C63.2122 80.7201 63.602 80.7712 63.9693 80.8995C64.3365 81.0278 64.6734 81.2304 64.9587 81.4948C65.244 81.7593 65.4717 82.0797 65.6275 82.4362C65.7834 82.7926 65.8639 83.1774 65.8642 83.5664V123.247C65.8745 123.981 65.6062 124.691 65.1135 125.234C64.6208 125.778 63.9404 126.114 63.2094 126.175C62.8189 126.205 62.4266 126.153 62.0572 126.023C61.6879 125.893 61.3496 125.687 61.0638 125.42C60.778 125.152 60.5509 124.828 60.397 124.468C60.2431 124.108 60.1656 123.72 60.1695 123.328Z" fill="#EF443C"/>
    <path d="M79.0269 50.5634C78.4654 50.091 77.7461 49.8483 77.0132 49.884C76.2803 49.9197 75.588 50.2311 75.0751 50.7559L73.4842 52.3974L71.6805 54.2011L69.9985 55.8832C69.7258 56.1556 69.5117 56.481 69.3694 56.8393C69.2271 57.1975 69.1596 57.5811 69.171 57.9664C69.1824 58.3517 69.2725 58.7306 69.4357 59.0799C69.5989 59.4291 69.8318 59.7412 70.1201 59.9971C70.6816 60.4695 71.4009 60.7122 72.1338 60.6765C72.8667 60.6408 73.559 60.3293 74.0719 59.8046L75.6729 58.1935L77.4766 56.3898L79.1587 54.7077C79.4356 54.4342 79.653 54.1063 79.7973 53.7448C79.9417 53.3833 80.0098 52.9959 79.9974 52.6068C79.985 52.2177 79.8925 51.8354 79.7255 51.4838C79.5585 51.1321 79.3207 50.8188 79.0269 50.5634V50.5634Z" fill="#EF443C"/>
    <path d="M42.8624 150.525C42.6047 150.525 42.3496 150.474 42.1116 150.375C41.8737 150.276 41.6577 150.131 41.4759 149.949C41.2942 149.766 41.1504 149.549 41.0527 149.311C40.955 149.072 40.9054 148.817 40.9067 148.559V146.533C40.9094 145.139 41.4643 143.803 42.45 142.817C43.4357 141.831 44.7718 141.276 46.1657 141.274H47.1385C47.6342 141.309 48.0979 141.531 48.4365 141.895C48.775 142.259 48.9632 142.737 48.9632 143.234C48.9632 143.731 48.775 144.21 48.4365 144.574C48.0979 144.937 47.6342 145.159 47.1385 145.195H46.1252C45.7705 145.195 45.4303 145.336 45.1794 145.587C44.9286 145.838 44.7877 146.178 44.7877 146.533V148.559C44.7878 149.074 44.5862 149.568 44.2263 149.935C43.8664 150.303 43.3767 150.514 42.8624 150.525V150.525Z" fill="#24252B"/>
    <g style="mix-blend-mode:multiply" opacity="0.29">
        <path d="M163.931 139.277H162.198V134.15C162.198 132.844 161.679 131.591 160.756 130.668C159.832 129.744 158.58 129.226 157.274 129.226H150.555V84.6405C150.55 72.1582 145.588 60.189 136.76 51.3646C127.931 42.5402 115.96 37.5831 103.478 37.5831V37.5831C99.6424 37.5833 95.8213 38.0494 92.0984 38.9713C102.291 41.5146 111.341 47.3933 117.808 55.6724C124.275 63.9515 127.787 74.1554 127.787 84.6608V129.246H134.515C135.161 129.246 135.801 129.373 136.398 129.621C136.995 129.868 137.537 130.231 137.994 130.689C138.45 131.146 138.812 131.689 139.058 132.287C139.305 132.884 139.431 133.524 139.429 134.17V139.298H141.172C142.641 139.3 144.048 139.886 145.085 140.925C146.122 141.964 146.705 143.372 146.705 144.84V158.246H169.474V144.82C169.474 143.35 168.89 141.94 167.85 140.901C166.811 139.861 165.401 139.277 163.931 139.277V139.277Z" fill="#1A1A1A"/>
    </g>
    <g style="mix-blend-mode:soft-light">
        <path d="M45.2436 56.9369L4.22544 8.9574L0 17.5299L45.2436 56.9369Z" fill="#F5F5F5"/>
    </g>
    <g style="mix-blend-mode:soft-light">
        <path d="M38.8295 66.2188L8.72446 47.3513L5.66431 53.198L38.8295 66.2188Z" fill="#F6E7E8"/>
    </g>
    <g style="mix-blend-mode:soft-light">
        <path d="M154.041 61.2232L195.069 13.2335L199.285 21.806L154.041 61.2232Z" fill="#F6E7E8"/>
    </g>
    <g style="mix-blend-mode:soft-light">
        <path d="M160.465 72.5215L190.57 53.6641L193.62 59.5006L160.465 72.5215Z" fill="#F5F5F5"/>
    </g>
    <g style="mix-blend-mode:soft-light">
        <path d="M133.714 17.2767L135.934 0H139.733L133.714 17.2767Z" fill="#F5F5F5"/>
    </g>
    <g style="mix-blend-mode:soft-light">
        <path d="M73.697 41.8693L68.9142 33.4894L71.3056 31.2804L73.697 41.8693Z" fill="#F6E7E8"/>
    </g>
</svg>
