<svg width="384" height="512" viewBox="0 0 384 512" fill="none" xmlns="http://www.w3.org/2000/svg">
    <path d="M224 128V0H48C21.49 0 0 21.49 0 48V464C0 490.5 21.49 512 48 512H336C362.51 512 384 490.51 384 464V160H256.9C238.3 160 224 145.7 224 128ZM272.1 264.4L224 344L272.99 423.61C279.6 434.3 271.9 448 259.4 448H232.97C227.413 448 222.26 445.117 219.34 440.383L192 396L164.69 440.38C161.8 445.1 156.6 448 151.1 448H124.6C112.08 448 104.41 434.27 110.97 423.61L160 344L111 264.4C104.4 253.7 112.1 240 124.6 240H151.03C156.587 240 161.74 242.883 164.66 247.613L192 292L219.31 247.61C222.2 242.9 227.4 240 232.9 240H259.33C271.9 240 279.6 253.7 272.1 264.4ZM256 0V128H384L256 0Z" fill="black"/>
</svg>
