<svg width="32" height="32" viewBox="0 0 32 32" fill="none" xmlns="http://www.w3.org/2000/svg">
    <path d="M16 0.166656C7.25996 0.166656 0.166626 7.25999 0.166626 16C0.166626 24.74 7.25996 31.8333 16 31.8333C24.74 31.8333 31.8333 24.74 31.8333 16C31.8333 7.25999 24.74 0.166656 16 0.166656ZM16 26.2917C14.6858 26.2917 13.625 25.2308 13.625 23.9167H18.375C18.375 25.2308 17.3141 26.2917 16 26.2917ZM23.9166 22.3333H8.08329V20.75L9.66663 19.1667V15.0342C9.66663 11.6775 11.2975 8.82749 14.4166 8.08332V7.29166C14.4166 6.38916 15.0975 5.70832 16 5.70832C16.9025 5.70832 17.5833 6.38916 17.5833 7.29166V8.08332C20.7025 8.82749 22.3333 11.6933 22.3333 15.0342V19.1667L23.9166 20.75V22.3333Z" fill="white"/>
</svg>
