<svg width="21" height="22" viewBox="0 0 21 20" fill="none" xmlns="http://www.w3.org/2000/svg">
<path fill-rule="evenodd" clip-rule="evenodd" d="M10.5 2.49992C9.17396 2.49992 7.90219 3.0267 6.96451 3.96438C6.02682 4.90207 5.50004 6.17384 5.50004 7.49992V11.6666C5.50004 12.2568 5.34352 12.8308 5.05347 13.3333H15.9466C15.6566 12.8308 15.5 12.2568 15.5 11.6666V7.49992C15.5 6.17384 14.9733 4.90207 14.0356 3.96438C13.0979 3.0267 11.8261 2.49992 10.5 2.49992ZM18.8334 13.3333C18.3913 13.3333 17.9674 13.1577 17.6549 12.8451C17.3423 12.5325 17.1667 12.1086 17.1667 11.6666V7.49992C17.1667 5.73181 16.4643 4.03612 15.2141 2.78587C13.9638 1.53563 12.2682 0.833252 10.5 0.833252C8.73193 0.833252 7.03624 1.53563 5.786 2.78587C4.53575 4.03612 3.83337 5.73181 3.83337 7.49992V11.6666C3.83337 12.1086 3.65778 12.5325 3.34522 12.8451C3.03266 13.1577 2.60874 13.3333 2.16671 13.3333C1.70647 13.3333 1.33337 13.7063 1.33337 14.1666C1.33337 14.6268 1.70647 14.9999 2.16671 14.9999H18.8334V13.3333ZM8.64023 16.7791C9.03834 16.5482 9.54827 16.6837 9.77921 17.0818C9.85246 17.2081 9.95761 17.3129 10.0841 17.3857C10.2106 17.4586 10.354 17.497 10.5 17.497C10.646 17.497 10.7895 17.4586 10.916 17.3857C11.0425 17.3129 11.1476 17.2081 11.2209 17.0818C11.4518 16.6837 11.9617 16.5482 12.3598 16.7791C12.758 17.01 12.8935 17.52 12.6625 17.9181C12.4428 18.2969 12.1273 18.6114 11.7478 18.83C11.3683 19.0486 10.938 19.1636 10.5 19.1636C10.0621 19.1636 9.63178 19.0486 9.25226 18.83C8.87274 18.6114 8.5573 18.2969 8.33754 17.9181C8.10661 17.52 8.24213 17.01 8.64023 16.7791Z" fill="#B7B7B5"/>
</svg>
