<svg width="16" height="16" viewBox="0 0 16 16" fill="none" xmlns="http://www.w3.org/2000/svg">
    <path d="M9.93417 2.79261C9.55335 2.72226 9.20361 2.96528 9.13111 3.33701C9.05861 3.70873 9.3024 4.07166 9.67286 4.14441C10.7882 4.36185 11.6494 5.22522 11.8677 6.34439V6.34519C11.9299 6.66735 12.2135 6.90158 12.5401 6.90158C12.5839 6.90158 12.6277 6.89758 12.6724 6.88959C13.0428 6.81524 13.2866 6.45311 13.2141 6.08059C12.8883 4.40902 11.6016 3.11797 9.93417 2.79261Z" fill="#D9D9D9"/>
    <path d="M9.88502 0.00719799C9.70656 -0.0183832 9.52731 0.034378 9.3847 0.147894C9.23811 0.26301 9.1465 0.429287 9.12658 0.61555C9.08436 0.992073 9.35602 1.33262 9.73206 1.37499C12.3253 1.66438 14.3409 3.68449 14.6324 6.28578C14.6715 6.63432 14.9639 6.89733 15.3128 6.89733C15.3391 6.89733 15.3646 6.89573 15.3909 6.89253C15.5733 6.87254 15.7359 6.78221 15.8506 6.63832C15.9645 6.49442 16.0163 6.31535 15.9956 6.13229C15.6323 2.88668 13.1203 0.367733 9.88502 0.00719799Z" fill="#D9D9D9"/>
    <path fill-rule="evenodd" clip-rule="evenodd" d="M7.22504 8.7783C10.4161 11.9685 11.1401 8.27779 13.1719 10.3082C15.1307 12.2664 16.2565 12.6588 13.7747 15.1399C13.4638 15.3897 11.4887 18.3953 4.54746 11.456C-2.39466 4.5158 0.609238 2.53865 0.859134 2.22787C3.34693 -0.26009 3.73251 0.872284 5.69131 2.83054C7.72311 4.86178 4.03393 5.58808 7.22504 8.7783Z" fill="#D9D9D9"/>
</svg>
