<svg width="16" height="18" viewBox="0 0 16 18" fill="none" xmlns="http://www.w3.org/2000/svg">
<path d="M10.9507 1.95235e-06C11.3183 -0.000861348 11.6089 0.284675 11.6097 0.66539L11.6106 1.31434C13.9953 1.50123 15.5705 3.12619 15.5731 5.61815L15.5825 12.9123C15.5859 15.6292 13.879 17.3009 11.1431 17.3052L4.45997 17.3139C1.74109 17.3173 0.0128324 15.6059 0.00941347 12.8812L5.7373e-06 5.67266C-0.00340741 3.16427 1.51629 1.54363 3.90098 1.32472L3.90012 0.675773C3.89927 0.295058 4.18132 0.00865653 4.5574 0.00865653C4.93348 0.00779127 5.21554 0.293328 5.2164 0.674043L5.21725 1.27973L10.2943 1.2728L10.2935 0.667121C10.2926 0.286405 10.5747 0.000869175 10.9507 1.95235e-06ZM11.2995 12.2859H11.2909C10.8978 12.2954 10.5824 12.625 10.5909 13.0231C10.5918 13.4211 10.9089 13.749 11.302 13.7577C11.7029 13.7568 12.0277 13.4271 12.0268 13.0205C12.0268 12.6138 11.7012 12.2859 11.2995 12.2859ZM4.25654 12.2867C3.86337 12.304 3.55567 12.6337 3.55652 13.0317C3.57447 13.4297 3.89927 13.7412 4.29244 13.7231C4.67792 13.7057 4.98477 13.3761 4.96682 12.9781C4.95827 12.5887 4.64117 12.2859 4.25654 12.2867ZM7.77801 12.2824C7.38483 12.3006 7.07799 12.6294 7.07799 13.0274C7.09594 13.4254 7.42073 13.736 7.81391 13.7187C8.19853 13.7006 8.50623 13.3718 8.48828 12.9729C8.47974 12.5844 8.16263 12.2815 7.77801 12.2824ZM4.25227 9.17177C3.85909 9.18908 3.55225 9.51875 3.5531 9.91677C3.5702 10.3148 3.89585 10.6263 4.28902 10.6081C4.67365 10.5908 4.98049 10.2611 4.96254 9.86312C4.954 9.47375 4.63775 9.17091 4.25227 9.17177ZM7.77459 9.14149C7.38141 9.1588 7.07371 9.48846 7.07457 9.88648C7.09166 10.2845 7.41731 10.5951 7.81049 10.5778C8.19511 10.5597 8.50196 10.2309 8.48486 9.83284C8.47546 9.44347 8.15921 9.14063 7.77459 9.14149ZM11.2961 9.14582C10.9029 9.15447 10.5952 9.47462 10.596 9.87264V9.88216C10.6046 10.2802 10.9294 10.5822 11.3234 10.5735C11.708 10.564 12.0149 10.2343 12.0063 9.8363C11.9884 9.45558 11.6798 9.14495 11.2961 9.14582ZM10.296 2.60531L5.21896 2.61223L5.21982 3.31223C5.21982 3.68515 4.93861 3.97934 4.56253 3.97934C4.18645 3.98021 3.90354 3.68688 3.90354 3.31396L3.90268 2.6477C2.23597 2.8147 1.31372 3.79418 1.31628 5.67093L1.31714 5.94002L14.2577 5.92272V5.61988C14.2209 3.75957 13.2876 2.78355 11.6123 2.63819L11.6132 3.30444C11.6132 3.6765 11.3234 3.97155 10.9559 3.97155C10.5798 3.97242 10.2969 3.67823 10.2969 3.30617L10.296 2.60531Z" fill="#D9D9D9"/>
</svg>
