<svg width="28" height="28" viewBox="0 0 28 28" fill="none" xmlns="http://www.w3.org/2000/svg">
    <g style="mix-blend-mode:darken">
        <path d="M23.7534 17.6633C22.518 17.5109 21.2914 17.2948 20.0784 17.0158C19.7822 16.9169 19.4655 16.896 19.1589 16.9553C18.8524 17.0145 18.5663 17.1519 18.3284 17.3542C18.0192 17.6692 17.1267 18.55 16.1992 19.46C12.8761 17.8264 10.1886 15.1369 8.55753 11.8125C9.46169 10.885 10.3075 9.99833 10.6517 9.68917C10.8539 9.45125 10.9913 9.16516 11.0506 8.85858C11.1099 8.552 11.089 8.23532 10.99 7.93917C10.7107 6.72423 10.4946 5.49564 10.3425 4.25833C10.3262 4.10077 10.278 3.94818 10.2008 3.80985C10.1237 3.67153 10.0191 3.55037 9.89357 3.45377C9.76804 3.35716 9.62415 3.28713 9.47067 3.24794C9.31719 3.20875 9.15734 3.20123 9.00086 3.22583H4.03086C3.82571 3.24435 3.63367 3.33466 3.48856 3.48084C3.34344 3.62703 3.25454 3.81972 3.23753 4.025C2.91669 8.51083 5.41919 13.3117 5.92669 14.2333V14.2683L5.99669 14.4025C7.8134 17.5533 10.4292 20.1691 13.58 21.9858V21.9858L13.8367 22.1317C15.0034 22.75 19.6409 25.0833 23.975 24.7625C24.1824 24.7481 24.3778 24.6604 24.5264 24.515C24.675 24.3697 24.767 24.1762 24.7859 23.9692V19.005C24.8105 18.8485 24.8029 18.6887 24.7638 18.5352C24.7246 18.3817 24.6545 18.2378 24.5579 18.1123C24.4613 17.9868 24.3402 17.8822 24.2018 17.805C24.0635 17.7278 23.9109 17.6796 23.7534 17.6633Z" stroke="black" stroke-linecap="round" stroke-linejoin="round"/>
    </g>
</svg>
