<svg width="28" height="28" viewBox="0 0 28 28" fill="none" xmlns="http://www.w3.org/2000/svg">
    <path d="M23.625 3.20834H4.37498C4.06556 3.20834 3.76881 3.33126 3.55002 3.55005C3.33123 3.76884 3.20831 4.06559 3.20831 4.37501V23.625C3.20831 23.9344 3.33123 24.2312 3.55002 24.45C3.76881 24.6688 4.06556 24.7917 4.37498 24.7917H23.625C23.9344 24.7917 24.2311 24.6688 24.4499 24.45C24.6687 24.2312 24.7916 23.9344 24.7916 23.625V4.37501C24.7916 4.06559 24.6687 3.76884 24.4499 3.55005C24.2311 3.33126 23.9344 3.20834 23.625 3.20834V3.20834Z" stroke="black" stroke-linecap="round" stroke-linejoin="round"/>
    <path d="M20.4167 16.0417C21.5442 16.0417 22.4583 15.1276 22.4583 14C22.4583 12.8724 21.5442 11.9583 20.4167 11.9583C19.2891 11.9583 18.375 12.8724 18.375 14C18.375 15.1276 19.2891 16.0417 20.4167 16.0417Z" stroke="black" stroke-linecap="round" stroke-linejoin="round"/>
    <path d="M5.54169 14H7.87502L10.2084 8.16666L13.7084 19.8333L16.0417 14H18.375" stroke="black" stroke-linecap="round" stroke-linejoin="round"/>
</svg>
