<svg width="28" height="28" viewBox="0 0 28 28" fill="none" xmlns="http://www.w3.org/2000/svg">
    <g style="mix-blend-mode:darken">
        <path d="M23.5421 7.33892L15.3784 3.52333C14.9349 3.31606 14.4514 3.20858 13.9618 3.20848C13.4723 3.20838 12.9887 3.31566 12.5451 3.52275L4.4584 7.29692C4.22756 7.40463 4.03225 7.57596 3.89539 7.79079C3.75852 8.00562 3.68579 8.25505 3.68573 8.50977C3.68567 8.7645 3.75828 9.01396 3.89504 9.22886C4.0318 9.44376 4.22703 9.61518 4.45781 9.723L12.6216 13.5386C13.065 13.746 13.5485 13.8535 14.0381 13.8537C14.5276 13.8539 15.0112 13.7468 15.4548 13.5398L23.5416 9.765C23.7724 9.65729 23.9677 9.48596 24.1046 9.27113C24.2414 9.05629 24.3142 8.80687 24.3142 8.55214C24.3143 8.29742 24.2417 8.04796 24.1049 7.83306C23.9682 7.61816 23.7729 7.44674 23.5421 7.33892V7.33892Z" stroke="black" stroke-linecap="round" stroke-linejoin="round"/>
        <path d="M7.71574 11.2455L4.45841 12.7657C4.22742 12.8733 4.03194 13.0446 3.89496 13.2595C3.75798 13.4744 3.68518 13.724 3.68512 13.9788C3.68506 14.2337 3.75774 14.4832 3.89462 14.6982C4.03149 14.9132 4.22688 15.0846 4.45783 15.1923L12.6216 19.0073C13.065 19.2147 13.5485 19.3223 14.0381 19.3225C14.5276 19.3227 15.0112 19.2155 15.4548 19.0085L23.5416 15.2343C23.7724 15.1266 23.9677 14.9553 24.1046 14.7405C24.2415 14.5256 24.3142 14.2762 24.3142 14.0215C24.3143 13.7667 24.2417 13.5173 24.1049 13.3024C23.9682 13.0875 23.7729 12.9161 23.5422 12.8082L20.2842 11.2857" stroke="black" stroke-linecap="round" stroke-linejoin="round"/>
        <path d="M7.71574 16.7148L4.45841 18.235C4.22742 18.3426 4.03194 18.514 3.89496 18.7289C3.75798 18.9438 3.68518 19.1933 3.68512 19.4481C3.68506 19.703 3.75774 19.9526 3.89462 20.1675C4.03149 20.3825 4.22688 20.5539 4.45783 20.6617L12.6216 24.4767C13.0651 24.6839 13.5486 24.7914 14.0381 24.7915C14.5277 24.7916 15.0113 24.6843 15.4548 24.4772L23.5416 20.7031C23.7724 20.5954 23.9677 20.424 24.1046 20.2092C24.2415 19.9944 24.3142 19.7449 24.3142 19.4902C24.3143 19.2355 24.2417 18.986 24.1049 18.7711C23.9682 18.5562 23.7729 18.3848 23.5422 18.277L20.2842 16.7545" stroke="black" stroke-linecap="round" stroke-linejoin="round"/>
    </g>
</svg>
