<svg width="28" height="28" viewBox="0 0 28 28" fill="none" xmlns="http://www.w3.org/2000/svg">
    <g style="mix-blend-mode:darken">
        <path d="M14 14.7467C13.5833 14.7483 13.1787 14.8867 12.8484 15.1407C12.518 15.3946 12.2802 15.7501 12.1715 16.1523C12.0629 16.5546 12.0893 16.9814 12.2468 17.3671C12.4043 17.7529 12.6842 18.0763 13.0433 18.2875V21H14.98V18.2875C15.2641 18.1194 15.5 17.8807 15.6645 17.5944C15.8291 17.3082 15.9168 16.9843 15.9191 16.6542V16.6542C15.9192 16.4027 15.8694 16.1537 15.7728 15.9215C15.6763 15.6893 15.5347 15.4785 15.3563 15.3012C15.178 15.1239 14.9663 14.9837 14.7335 14.8885C14.5008 14.7933 14.2515 14.7451 14 14.7467V14.7467Z" stroke="black" stroke-linecap="round" stroke-linejoin="round"/>
        <path d="M21.1692 10.3658H6.82499C5.43323 10.3658 4.30499 11.4941 4.30499 12.8858V22.855C4.30499 24.2468 5.43323 25.375 6.82499 25.375H21.1692C22.5609 25.375 23.6892 24.2468 23.6892 22.855V12.8858C23.6892 11.4941 22.5609 10.3658 21.1692 10.3658Z" stroke="black" stroke-linecap="round" stroke-linejoin="round"/>
        <path d="M7.78748 10.3658V8.84333C7.78748 7.19413 8.44262 5.61247 9.60878 4.44631C10.7749 3.28014 12.3566 2.625 14.0058 2.625C15.655 2.625 17.2367 3.28014 18.4028 4.44631C19.569 5.61247 20.2241 7.19413 20.2241 8.84333V10.3658" stroke="black" stroke-linecap="round" stroke-linejoin="round"/>
    </g>
</svg>
