<svg width="28" height="28" viewBox="0 0 28 28" fill="none" xmlns="http://www.w3.org/2000/svg">
    <path d="M18.8125 6.125C18.8125 6.00897 18.8586 5.89769 18.9406 5.81564C19.0227 5.73359 19.1339 5.6875 19.25 5.6875H21.4375V3.5C21.4375 3.38397 21.4836 3.27269 21.5656 3.19064C21.6477 3.10859 21.7589 3.0625 21.875 3.0625C21.991 3.0625 22.1023 3.10859 22.1843 3.19064C22.2664 3.27269 22.3125 3.38397 22.3125 3.5V5.6875H24.5C24.616 5.6875 24.7273 5.73359 24.8093 5.81564C24.8914 5.89769 24.9375 6.00897 24.9375 6.125C24.9375 6.24103 24.8914 6.35231 24.8093 6.43436C24.7273 6.51641 24.616 6.5625 24.5 6.5625H22.3125V8.75C22.3125 8.86603 22.2664 8.97731 22.1843 9.05936C22.1023 9.14141 21.991 9.1875 21.875 9.1875C21.7589 9.1875 21.6477 9.14141 21.5656 9.05936C21.4836 8.97731 21.4375 8.86603 21.4375 8.75V6.5625H19.25C19.1339 6.5625 19.0227 6.51641 18.9406 6.43436C18.8586 6.35231 18.8125 6.24103 18.8125 6.125ZM24.8062 12.2719C24.8938 12.8437 24.9377 13.4215 24.9375 14C24.9392 15.5224 24.6218 17.0282 24.0058 18.4204C23.3898 19.8126 22.4888 21.0602 21.3609 22.0828L21.2734 22.1703C19.2722 23.953 16.6856 24.9381 14.0054 24.9381C11.3253 24.9381 8.73871 23.953 6.73748 22.1703C6.69999 22.1469 6.66671 22.1173 6.63904 22.0828C5.00909 20.5969 3.86647 18.6529 3.36113 16.5059C2.8558 14.359 3.01136 12.1094 3.80741 10.0524C4.60346 7.99549 6.0028 6.22727 7.82177 4.97984C9.64075 3.73241 11.7944 3.06406 14 3.0625C14.5785 3.06228 15.1562 3.10616 15.7281 3.19375C15.7849 3.20304 15.8392 3.22344 15.8881 3.25376C15.937 3.28409 15.9794 3.32375 16.0129 3.37048C16.0464 3.41721 16.0704 3.47009 16.0835 3.5261C16.0965 3.5821 16.0984 3.64014 16.089 3.69688C16.0798 3.75363 16.0594 3.808 16.029 3.85686C15.9987 3.90573 15.959 3.94814 15.9123 3.98166C15.8656 4.01518 15.8127 4.03917 15.7567 4.05223C15.7007 4.0653 15.6427 4.0672 15.5859 4.05781C15.0609 3.97927 14.5308 3.93906 14 3.9375C12.0119 3.93766 10.0684 4.52673 8.4148 5.63037C6.76118 6.73401 5.47154 8.30276 4.70864 10.1386C3.94574 11.9745 3.74376 13.9952 4.1282 15.9458C4.51264 17.8964 5.46627 19.6893 6.86873 21.0984C7.95485 19.2789 9.69649 17.9443 11.7359 17.3688C10.7888 16.8638 10.0377 16.0567 9.60191 15.0758C9.16617 14.0949 9.07084 12.9965 9.33108 11.9552C9.59132 10.9139 10.1922 9.98953 11.0382 9.32896C11.8841 8.66839 12.9267 8.30958 14 8.30958C15.0733 8.30958 16.1158 8.66839 16.9618 9.32896C17.8078 9.98953 18.4086 10.9139 18.6689 11.9552C18.9291 12.9965 18.8338 14.0949 18.3981 15.0758C17.9623 16.0567 17.2112 16.8638 16.264 17.3688C18.3035 17.9443 20.0451 19.2789 21.1312 21.0984C23.0073 19.2122 24.0611 16.6604 24.0625 14C24.0613 13.4691 24.0211 12.939 23.9422 12.4141C23.9328 12.3573 23.9347 12.2993 23.9477 12.2433C23.9608 12.1873 23.9848 12.1344 24.0183 12.0877C24.0518 12.0409 24.0943 12.0013 24.1431 11.9709C24.192 11.9406 24.2463 11.9202 24.3031 11.9109C24.3598 11.9016 24.4179 11.9035 24.4739 11.9165C24.5299 11.9296 24.5828 11.9536 24.6295 11.9871C24.6762 12.0206 24.7159 12.063 24.7462 12.1119C24.7765 12.1608 24.7969 12.2151 24.8062 12.2719V12.2719ZM14 17.0625C14.7787 17.0625 15.54 16.8316 16.1875 16.3989C16.8351 15.9663 17.3397 15.3513 17.6378 14.6318C17.9358 13.9123 18.0138 13.1206 17.8618 12.3568C17.7099 11.593 17.3349 10.8914 16.7842 10.3408C16.2335 9.7901 15.5319 9.41509 14.7681 9.26316C14.0043 9.11123 13.2126 9.1892 12.4932 9.48722C11.7737 9.78524 11.1587 10.2899 10.7261 10.9374C10.2934 11.585 10.0625 12.3462 10.0625 13.125C10.0625 14.1693 10.4773 15.1708 11.2157 15.9092C11.9542 16.6477 12.9557 17.0625 14 17.0625ZM14 24.0625C16.3665 24.0658 18.6574 23.2286 20.464 21.7C19.8144 20.5585 18.8741 19.6094 17.7387 18.9492C16.6033 18.2889 15.3134 17.9411 14 17.9411C12.6866 17.9411 11.3966 18.2889 10.2612 18.9492C9.12584 19.6094 8.18553 20.5585 7.53592 21.7C9.34259 23.2286 11.6334 24.0658 14 24.0625V24.0625Z" fill="black"/>
</svg>
