<svg width="28" height="28" viewBox="0 0 28 28" fill="none" xmlns="http://www.w3.org/2000/svg">
    <g style="mix-blend-mode:darken">
        <path d="M8.03831 3.20834H3.20831V8.03834M24.7916 8.03834V3.20834H19.9616M19.9616 24.7917H24.7916V19.9617M6.15415 15.4058V21.8225H12.5708V15.4058H6.15415V15.4058ZM8.03248 17.2842H10.7158V19.9675H8.03248V17.2842ZM6.15415 6.15417V12.5708H12.5708V6.15417H6.15415ZM8.03248 8.0325H10.7158V10.7158H8.03248V8.0325ZM15.4058 6.15417V12.5708H21.8225V6.15417H15.4058ZM17.2841 8.0325H19.9675V10.7158H17.2841V8.0325ZM18.6258 21.8458C19.4262 21.6949 20.145 21.2599 20.65 20.6208C21.4525 19.6977 21.8792 18.5069 21.8458 17.2842V15.4058H15.4291V17.2842C15.3969 18.5067 15.8235 19.6971 16.625 20.6208C17.1241 21.2551 17.8339 21.6897 18.6258 21.8458V21.8458Z" stroke="black" stroke-linecap="round" stroke-linejoin="round"/>
        <path d="M3.20831 19.9617V24.7917H8.03831M18.6258 19.9675C18.3967 19.8259 18.1852 19.6575 17.9958 19.4658C17.4927 18.854 17.2386 18.075 17.2841 17.2842H19.9675C20.0114 18.0758 19.7552 18.8548 19.25 19.4658C19.0606 19.6575 18.8491 19.8259 18.62 19.9675H18.6258Z" stroke="black" stroke-linecap="round" stroke-linejoin="round"/>
    </g>
</svg>
