<svg width="28" height="28" viewBox="0 0 28 28" fill="none" xmlns="http://www.w3.org/2000/svg">
    <g style="mix-blend-mode:darken">
        <path d="M22.8842 15.1667C22.935 14.7798 22.9623 14.3902 22.9659 14C22.9623 13.6098 22.935 13.2202 22.8842 12.8333L25.41 10.8558C25.5241 10.7687 25.602 10.6426 25.6289 10.5016C25.6558 10.3606 25.6298 10.2147 25.5559 10.0917L23.1642 5.94418C23.0949 5.81977 22.9825 5.725 22.8482 5.67772C22.7139 5.63044 22.5669 5.63393 22.435 5.68751L19.4542 6.88918C18.8339 6.41579 18.1556 6.02372 17.4359 5.72251L16.9867 2.55501C16.9669 2.41485 16.8968 2.28667 16.7895 2.19437C16.6821 2.10207 16.5449 2.05195 16.4034 2.05334H11.6084C11.4668 2.05195 11.3296 2.10207 11.2223 2.19437C11.1149 2.28667 11.0448 2.41485 11.025 2.55501L10.5759 5.72251C9.85514 6.02184 9.17663 6.41405 8.55753 6.88918L5.56503 5.68751C5.4331 5.63393 5.28614 5.63044 5.15182 5.67772C5.01751 5.725 4.90513 5.81977 4.83586 5.94418L2.44419 10.0917C2.37023 10.2147 2.34422 10.3606 2.37112 10.5016C2.39803 10.6426 2.47596 10.7687 2.59003 10.8558L5.11003 12.8333C5.05941 13.2202 5.03214 13.6098 5.02836 14C5.03194 14.3902 5.05921 14.7798 5.11003 15.1667L2.59003 17.1442C2.47596 17.2313 2.39803 17.3574 2.37112 17.4984C2.34422 17.6394 2.37023 17.7853 2.44419 17.9083L4.83586 22.0558C4.90513 22.1802 5.01751 22.275 5.15182 22.3223C5.28614 22.3696 5.4331 22.3661 5.56503 22.3125L8.54586 21.1108C9.16612 21.5842 9.84441 21.9763 10.5642 22.2775L11.0134 25.445C11.0332 25.5852 11.1033 25.7133 11.2106 25.8056C11.3179 25.8979 11.4551 25.9481 11.5967 25.9467H16.38C16.5216 25.9481 16.6588 25.8979 16.7661 25.8056C16.8734 25.7133 16.9435 25.5852 16.9634 25.445L17.4125 22.2775C18.1332 21.9782 18.8118 21.586 19.4309 21.1108L22.4117 22.3125C22.5436 22.3661 22.6906 22.3696 22.8249 22.3223C22.9592 22.275 23.0716 22.1802 23.1409 22.0558L25.5325 17.9083C25.6065 17.7853 25.6325 17.6394 25.6056 17.4984C25.5787 17.3574 25.5008 17.2313 25.3867 17.1442L22.8842 15.1667ZM14 18.1883C13.1714 18.1895 12.3611 17.9448 11.6715 17.4853C10.982 17.0258 10.4443 16.3721 10.1264 15.6069C9.80845 14.8416 9.72468 13.9993 9.88563 13.1865C10.0466 12.3736 10.445 11.6268 11.0305 11.0405C11.616 10.4541 12.3623 10.0547 13.1749 9.89258C13.9876 9.7305 14.83 9.81311 15.5956 10.1299C16.3613 10.4468 17.0158 10.9836 17.4763 11.6725C17.9367 12.3614 18.1825 13.1714 18.1825 14C18.1833 14.5498 18.0757 15.0943 17.8658 15.6024C17.656 16.1105 17.348 16.5723 16.9596 16.9613C16.5711 17.3503 16.1098 17.6589 15.6019 17.8694C15.0941 18.08 14.5498 18.1883 14 18.1883V18.1883Z" stroke="black" stroke-linecap="round" stroke-linejoin="round"/>
    </g>
</svg>
