<svg width="17" height="18" viewBox="0 0 17 18" fill="none" xmlns="http://www.w3.org/2000/svg">
<path d="M9.05469 14C9.0625 15.9219 10.2891 17.5547 12.5781 17.5547C14.8438 17.5547 16.1094 15.9219 16.1016 14V13.1562C16.1094 11.2187 14.875 9.60156 12.5781 9.60156C10.3203 9.60156 9.0625 11.2344 9.05469 13.1562V14ZM0.84375 4.84375C0.851563 6.76562 2.07813 8.38281 4.35938 8.38281C6.63281 8.38281 7.89844 6.78125 7.89063 4.84375V4C7.89844 2.0625 6.66406 0.445312 4.35938 0.445312C2.125 0.445312 0.851563 2.0625 0.84375 4V4.84375ZM1.60938 17H3.64844L14.6484 1H12.6094L1.60938 17ZM11.3281 13.1562C11.3359 12.3906 11.6406 11.6016 12.5781 11.6016C13.5625 11.6016 13.8203 12.3906 13.8125 13.1562V14C13.8203 14.7656 13.5313 15.5391 12.5781 15.5391C11.625 15.5391 11.3359 14.7422 11.3281 14V13.1562ZM3.13281 4C3.14063 3.25781 3.42969 2.44531 4.35938 2.44531C5.34375 2.44531 5.60938 3.23437 5.60156 4V4.84375C5.60938 5.60937 5.3125 6.38281 4.35938 6.38281C3.4375 6.38281 3.14063 5.60937 3.13281 4.84375V4Z" fill="white"/>
</svg>
