<svg width="24" height="25" viewBox="0 0 24 25" fill="none" xmlns="http://www.w3.org/2000/svg">
<path d="M4.125 8C4.19917 8 4.27167 8.02199 4.33334 8.0632C4.39501 8.1044 4.44307 8.16297 4.47145 8.23149C4.49984 8.30002 4.50726 8.37542 4.49279 8.44816C4.47833 8.5209 4.44261 8.58772 4.39016 8.64017C4.33772 8.69261 4.2709 8.72832 4.19816 8.74279C4.12542 8.75726 4.05002 8.74984 3.98149 8.72145C3.91297 8.69307 3.8544 8.64501 3.8132 8.58334C3.77199 8.52167 3.75 8.44917 3.75 8.375C3.75 8.27554 3.78951 8.18016 3.85983 8.10984C3.93016 8.03951 4.02554 8 4.125 8Z" stroke="#00968C" stroke-width="1.5" stroke-linecap="round" stroke-linejoin="round"/>
<path d="M16.875 13.25C16.9492 13.25 17.0217 13.272 17.0833 13.3132C17.145 13.3544 17.1931 13.413 17.2215 13.4815C17.2498 13.55 17.2573 13.6254 17.2428 13.6982C17.2283 13.7709 17.1926 13.8377 17.1402 13.8902C17.0877 13.9426 17.0209 13.9783 16.9482 13.9928C16.8754 14.0073 16.8 13.9998 16.7315 13.9715C16.663 13.9431 16.6044 13.895 16.5632 13.8333C16.522 13.7717 16.5 13.6992 16.5 13.625C16.5 13.5255 16.5395 13.4302 16.6098 13.3598C16.6802 13.2895 16.7755 13.25 16.875 13.25Z" stroke="#00968C" stroke-width="1.5" stroke-linecap="round" stroke-linejoin="round"/>
<path d="M18.75 5H2.25C1.42157 5 0.75 5.67157 0.75 6.5V15.5C0.75 16.3284 1.42157 17 2.25 17H18.75C19.5784 17 20.25 16.3284 20.25 15.5V6.5C20.25 5.67157 19.5784 5 18.75 5Z" stroke="#00968C" stroke-width="1.5" stroke-linecap="round" stroke-linejoin="round"/>
<path d="M10.5 14C12.1569 14 13.5 12.6569 13.5 11C13.5 9.34315 12.1569 8 10.5 8C8.84315 8 7.5 9.34315 7.5 11C7.5 12.6569 8.84315 14 10.5 14Z" stroke="#00968C" stroke-width="1.5" stroke-linecap="round" stroke-linejoin="round"/>
<path d="M23.25 9.5V18.5C23.25 18.8978 23.092 19.2794 22.8107 19.5607C22.5294 19.842 22.1478 20 21.75 20H5.25" stroke="#00968C" stroke-width="1.5" stroke-linecap="round" stroke-linejoin="round"/>
</svg>
