<svg width="36" height="36" viewBox="0 0 36 36" fill="none" xmlns="http://www.w3.org/2000/svg">
<path d="M27.75 24.2205C27.75 26.9058 26.6833 29.4811 24.7845 31.3799C22.8856 33.2787 20.3103 34.3455 17.625 34.3455C14.9397 34.3455 12.3643 33.2787 10.4655 31.3799C8.56674 29.4811 7.5 26.9058 7.5 24.2205C7.5 16.9155 14.172 5.90245 16.683 2.02045C16.784 1.86219 16.9233 1.73193 17.0879 1.64169C17.2525 1.55145 17.4373 1.50415 17.625 1.50415C17.8127 1.50415 17.9975 1.55145 18.1621 1.64169C18.3267 1.73193 18.466 1.86219 18.567 2.02045C21.078 5.90245 27.75 16.9155 27.75 24.2205Z" stroke="#F46666" stroke-width="1.5" stroke-linecap="round" stroke-linejoin="round"/>
<path d="M17.625 29.85C16.8859 29.85 16.1541 29.7043 15.4714 29.4214C14.7886 29.1384 14.1683 28.7237 13.6459 28.2008C13.1235 27.678 12.7093 27.0574 12.4269 26.3744C12.1445 25.6915 11.9994 24.9595 12 24.2205" stroke="#F46666" stroke-width="1.5" stroke-linecap="round" stroke-linejoin="round"/>
</svg>
