<svg width="56" height="56" viewBox="0 0 56 56" fill="none" xmlns="http://www.w3.org/2000/svg">
    <g filter="url(#filter0_d_21_4)">
        <path d="M28 48C41.2548 48 52 37.2548 52 24C52 10.7452 41.2548 0 28 0C14.7452 0 4 10.7452 4 24C4 37.2548 14.7452 48 28 48Z" fill="#1565C0"/>
        <path fill-rule="evenodd" clip-rule="evenodd" d="M28.7071 16.2929C28.3166 15.9024 27.6834 15.9024 27.2929 16.2929C26.9024 16.6834 26.9024 17.3166 27.2929 17.7071L32.5858 23H21C20.4477 23 20 23.4477 20 24C20 24.5523 20.4477 25 21 25H32.5858L27.2929 30.2929C26.9024 30.6834 26.9024 31.3166 27.2929 31.7071C27.6834 32.0976 28.3166 32.0976 28.7071 31.7071L35.7071 24.7071C36.0976 24.3166 36.0976 23.6834 35.7071 23.2929L28.7071 16.2929Z" fill="#F9F9F8"/>
    </g>
    <defs>
        <filter id="filter0_d_21_4" x="0" y="0" width="56" height="56" filterUnits="userSpaceOnUse" color-interpolation-filters="sRGB">
            <feFlood flood-opacity="0" result="BackgroundImageFix"/>
            <feColorMatrix in="SourceAlpha" type="matrix" values="0 0 0 0 0 0 0 0 0 0 0 0 0 0 0 0 0 0 127 0" result="hardAlpha"/>
            <feOffset dy="4"/>
            <feGaussianBlur stdDeviation="2"/>
            <feComposite in2="hardAlpha" operator="out"/>
            <feColorMatrix type="matrix" values="0 0 0 0 0 0 0 0 0 0 0 0 0 0 0 0 0 0 0.25 0"/>
            <feBlend mode="normal" in2="BackgroundImageFix" result="effect1_dropShadow_21_4"/>
            <feBlend mode="normal" in="SourceGraphic" in2="effect1_dropShadow_21_4" result="shape"/>
        </filter>
    </defs>
</svg>
