me<svg width="17" height="16" viewBox="0 0 17 16" fill="none" xmlns="http://www.w3.org/2000/svg">
<path d="M13.6875 7.0645H10.25V4.0645H9.125C9.47323 3.59962 9.66033 3.03386 9.65794 2.45303C9.65794 1.58928 9.24922 0.777686 8.59128 0.335029L8.31216 0.147217L8.03306 0.335029C7.375 0.777748 6.96641 1.58931 6.96641 2.45303C6.96406 3.03387 7.15122 3.59962 7.4995 4.06447H6.25V7.06447H3.3125C2.83196 7.06501 2.37126 7.25615 2.03147 7.59594C1.69168 7.93573 1.50055 8.39643 1.5 8.87697V14.4999C1.5003 14.765 1.60575 15.0192 1.79322 15.2067C1.98069 15.3942 2.23487 15.4996 2.5 15.4999H14.5C14.7651 15.4996 15.0193 15.3942 15.2068 15.2067C15.3942 15.0192 15.4997 14.765 15.5 14.4999V8.877C15.4995 8.39646 15.3083 7.93576 14.9685 7.59597C14.6287 7.25618 14.168 7.06504 13.6875 7.0645ZM8.31216 1.42309C8.53059 1.69447 8.65794 2.06265 8.65794 2.45306C8.65794 2.84347 8.53059 3.21169 8.31216 3.48303C8.09375 3.21169 7.96641 2.84347 7.96641 2.45303C7.96641 2.06259 8.09375 1.69447 8.31216 1.42309ZM7.25 5.0645H9.25V7.0645H7.25V5.0645ZM2.5 8.877C2.50025 8.66159 2.58593 8.45507 2.73825 8.30275C2.89057 8.15043 3.09709 8.06475 3.3125 8.0645H13.6875C13.9029 8.06475 14.1094 8.15043 14.2618 8.30275C14.4141 8.45507 14.4998 8.66159 14.5 8.877V9.86378L13.825 10.1616C13.693 10.2197 13.5503 10.2497 13.4061 10.2497C13.2619 10.2497 13.1192 10.2197 12.9872 10.1616L11.8125 9.64328L10.6375 10.1616C10.5055 10.2197 10.3628 10.2497 10.2186 10.2497C10.0744 10.2497 9.9317 10.2197 9.79969 10.1616L8.625 9.64325L7.45 10.1616C7.31798 10.2197 7.17533 10.2497 7.03109 10.2497C6.88686 10.2497 6.7442 10.2197 6.61219 10.1616L5.4375 9.64328L4.26272 10.1616C4.1307 10.2197 3.98805 10.2497 3.84381 10.2497C3.69958 10.2497 3.55692 10.2197 3.42491 10.1616L2.5 9.75356V8.877ZM14.5 14.4999H2.5V10.8466L3.02119 11.0765C3.28042 11.1906 3.56054 11.2495 3.84375 11.2495C4.12696 11.2495 4.40708 11.1906 4.66631 11.0765L5.4375 10.7362L6.20872 11.0765C6.46794 11.1906 6.74806 11.2495 7.03127 11.2495C7.31448 11.2495 7.59459 11.1906 7.85381 11.0765L8.625 10.7362L9.39616 11.0765C9.65537 11.1906 9.93548 11.2495 10.2187 11.2495C10.5019 11.2495 10.782 11.1906 11.0412 11.0765L11.8125 10.7362L12.5837 11.0765C12.8429 11.1906 13.123 11.2495 13.4062 11.2495C13.6894 11.2495 13.9695 11.1906 14.2287 11.0765L14.5004 10.9567L14.5006 14.4999H14.5Z" fill="#979796"/>
</svg>
