<svg width="16" height="16" viewBox="0 0 16 16" fill="none" xmlns="http://www.w3.org/2000/svg">
<path d="M1.5 12C0.672667 12 0 11.3273 0 10.5V2.5C0 1.67267 0.672667 1 1.5 1H3V0.5C3 0.224 3.224 0 3.5 0C3.776 0 4 0.224 4 0.5V1H8V0.5C8 0.224 8.224 0 8.5 0C8.776 0 9 0.224 9 0.5V1H10.5C11.3273 1 12 1.67267 12 2.5V5.5C12 5.776 11.776 6 11.5 6C11.224 6 11 5.776 11 5.5V5H1V10.5C1 10.776 1.224 11 1.5 11H5.5C5.776 11 6 11.224 6 11.5C6 11.776 5.776 12 5.5 12H1.5ZM11 4V2.5C11 2.224 10.776 2 10.5 2H9V2.5C9 2.776 8.776 3 8.5 3C8.224 3 8 2.776 8 2.5V2H4V2.5C4 2.776 3.776 3 3.5 3C3.224 3 3 2.776 3 2.5V2H1.5C1.224 2 1 2.224 1 2.5V4H11Z" fill="#979796"/>
<path d="M11.5 16C9.01867 16 7 13.9813 7 11.5C7 9.01867 9.01867 7 11.5 7C13.9813 7 16 9.01867 16 11.5C16 13.9813 13.9813 16 11.5 16ZM11.5 8C9.57 8 8 9.57 8 11.5C8 13.43 9.57 15 11.5 15C13.43 15 15 13.43 15 11.5C15 9.57 13.43 8 11.5 8Z" fill="#979796"/>
<path d="M11.5 11.9998C11.224 11.9998 11 11.7758 11 11.4998V9.73242C11 9.45642 11.224 9.23242 11.5 9.23242C11.776 9.23242 12 9.45709 12 9.73242V10.9998H13.268C13.544 10.9998 13.768 11.2238 13.768 11.4998C13.768 11.7758 13.544 11.9998 13.268 11.9998H11.5Z" fill="#979796"/>
</svg>
