<svg width="16" height="16" xmlns="http://www.w3.org/2000/svg" fill="none">

    <g>
        <title>Layer 1</title>
        <path id="svg_1" fill="#206548" d="m3.33301,3.33317c-0.36819,0 -0.66667,0.29848 -0.66667,0.66667l0,9.33336c0,0.3682 0.29848,0.6666 0.66667,0.6666l9.33329,0c0.3682,0 0.6667,-0.2984 0.6667,-0.6666l0,-9.33336c0,-0.36819 -0.2985,-0.66667 -0.6667,-0.66667l-9.33329,0zm-2,0.66667c0,-1.10457 0.89543,-2 2,-2l9.33329,0c1.1046,0 2,0.89543 2,2l0,9.33336c0,1.1045 -0.8954,2 -2,2l-9.33329,0c-1.10457,0 -2,-0.8955 -2,-2l0,-9.33336z" clip-rule="evenodd" fill-rule="evenodd"/>
        <path id="svg_2" fill="#206548" d="m10.6663,0.6665c0.3682,0 0.6667,0.29848 0.6667,0.66667l0,2.66667c0,0.36819 -0.2985,0.66666 -0.6667,0.66666c-0.3681,0 -0.66663,-0.29847 -0.66663,-0.66666l0,-2.66667c0,-0.36819 0.29853,-0.66667 0.66663,-0.66667z" clip-rule="evenodd" fill-rule="evenodd"/>
        <path id="svg_3" fill="#206548" d="m5.33301,0.6665c0.36819,0 0.66666,0.29848 0.66666,0.66667l0,2.66667c0,0.36819 -0.29847,0.66666 -0.66666,0.66666c-0.36819,0 -0.66667,-0.29847 -0.66667,-0.66666l0,-2.66667c0,-0.36819 0.29848,-0.66667 0.66667,-0.66667z" clip-rule="evenodd" fill-rule="evenodd"/>
        <path id="svg_4" fill="#206548" d="m1.33301,6.6665c0,-0.36819 0.29847,-0.66666 0.66666,-0.66666l12.00003,0c0.3682,0 0.6666,0.29847 0.6666,0.66666c0,0.36819 -0.2984,0.66667 -0.6666,0.66667l-12.00003,0c-0.36819,0 -0.66666,-0.29848 -0.66666,-0.66667z" clip-rule="evenodd" fill-rule="evenodd"/>
    </g>
</svg>