<svg width="36" height="36" viewBox="0 0 36 36" fill="none" xmlns="http://www.w3.org/2000/svg">
<path fill-rule="evenodd" clip-rule="evenodd" d="M12.2519 3.66795C12.5301 3.25065 12.9985 3 13.5 3H22.5C23.0015 3 23.4699 3.25065 23.7481 3.66795L26.3028 7.5H31.5C32.6935 7.5 33.8381 7.97411 34.682 8.81802C35.5259 9.66193 36 10.8065 36 12V28.5C36 29.6935 35.5259 30.8381 34.682 31.682C33.8381 32.5259 32.6935 33 31.5 33H4.5C3.30652 33 2.16193 32.5259 1.31802 31.682C0.474106 30.8381 0 29.6935 0 28.5V12C0 10.8065 0.474106 9.66193 1.31802 8.81802C2.16193 7.97411 3.30653 7.5 4.5 7.5H9.69722L12.2519 3.66795ZM14.3028 6L11.7481 9.83205C11.4699 10.2493 11.0015 10.5 10.5 10.5H4.5C4.10218 10.5 3.72064 10.658 3.43934 10.9393C3.15804 11.2206 3 11.6022 3 12V28.5C3 28.8978 3.15804 29.2794 3.43934 29.5607C3.72065 29.842 4.10218 30 4.5 30H31.5C31.8978 30 32.2794 29.842 32.5607 29.5607C32.842 29.2794 33 28.8978 33 28.5V12C33 11.6022 32.842 11.2206 32.5607 10.9393C32.2794 10.658 31.8978 10.5 31.5 10.5H25.5C24.9985 10.5 24.5301 10.2493 24.2519 9.83205L21.6972 6H14.3028Z" fill="white"/>
<path fill-rule="evenodd" clip-rule="evenodd" d="M18 15C15.5147 15 13.5 17.0147 13.5 19.5C13.5 21.9853 15.5147 24 18 24C20.4853 24 22.5 21.9853 22.5 19.5C22.5 17.0147 20.4853 15 18 15ZM10.5 19.5C10.5 15.3579 13.8579 12 18 12C22.1421 12 25.5 15.3579 25.5 19.5C25.5 23.6421 22.1421 27 18 27C13.8579 27 10.5 23.6421 10.5 19.5Z" fill="white"/>
</svg>