<svg width="16" height="17" viewBox="0 0 16 17" fill="none" xmlns="http://www.w3.org/2000/svg">
<path fill-rule="evenodd" clip-rule="evenodd" d="M12.4714 4.02858C12.7318 4.28892 12.7318 4.71103 12.4714 4.97138L4.47141 12.9714C4.21107 13.2317 3.78896 13.2317 3.52861 12.9714C3.26826 12.711 3.26826 12.2889 3.52861 12.0286L11.5286 4.02858C11.789 3.76823 12.2111 3.76823 12.4714 4.02858Z" fill="#6F6F6D"/>
<path fill-rule="evenodd" clip-rule="evenodd" d="M3.52861 4.02858C3.78896 3.76823 4.21107 3.76823 4.47141 4.02858L12.4714 12.0286C12.7318 12.2889 12.7318 12.711 12.4714 12.9714C12.2111 13.2317 11.789 13.2317 11.5286 12.9714L3.52861 4.97138C3.26826 4.71103 3.26826 4.28892 3.52861 4.02858Z" fill="#6F6F6D"/>
</svg>
