<svg width="24" height="24" viewBox="0 0 24 24" fill="none" xmlns="http://www.w3.org/2000/svg">
<g clip-path="url(#clip0)">
<path d="M23.5 9.5C23.6326 9.5 23.7598 9.44732 23.8536 9.35355C23.9473 9.25979 24 9.13261 24 9V5.5C24 5.10218 23.842 4.72064 23.5607 4.43934C23.2794 4.15804 22.8978 4 22.5 4H1.5C1.10218 4 0.720644 4.15804 0.43934 4.43934C0.158035 4.72064 0 5.10218 0 5.5L0 9C0 9.13261 0.0526784 9.25979 0.146447 9.35355C0.240215 9.44732 0.367392 9.5 0.5 9.5C1.16304 9.5 1.79893 9.76339 2.26777 10.2322C2.73661 10.7011 3 11.337 3 12C3 12.663 2.73661 13.2989 2.26777 13.7678C1.79893 14.2366 1.16304 14.5 0.5 14.5C0.367392 14.5 0.240215 14.5527 0.146447 14.6464C0.0526784 14.7402 0 14.8674 0 15L0 18.5C0 18.8978 0.158035 19.2794 0.43934 19.5607C0.720644 19.842 1.10218 20 1.5 20H22.5C22.8978 20 23.2794 19.842 23.5607 19.5607C23.842 19.2794 24 18.8978 24 18.5V15C24 14.8674 23.9473 14.7402 23.8536 14.6464C23.7598 14.5527 23.6326 14.5 23.5 14.5C22.837 14.5 22.2011 14.2366 21.7322 13.7678C21.2634 13.2989 21 12.663 21 12C21 11.337 21.2634 10.7011 21.7322 10.2322C22.2011 9.76339 22.837 9.5 23.5 9.5ZM7.47 15.47L15.47 7.47C15.6122 7.33752 15.8002 7.2654 15.9945 7.26883C16.1888 7.27225 16.3742 7.35097 16.5116 7.48838C16.649 7.62579 16.7277 7.81118 16.7312 8.00548C16.7346 8.19978 16.6625 8.38783 16.53 8.53L8.53 16.53C8.38783 16.6625 8.19978 16.7346 8.00548 16.7312C7.81118 16.7277 7.62579 16.649 7.48838 16.5116C7.35097 16.3742 7.27225 16.1888 7.26883 15.9945C7.2654 15.8002 7.33752 15.6122 7.47 15.47ZM7 9C7 8.60444 7.1173 8.21776 7.33706 7.88886C7.55682 7.55996 7.86918 7.30362 8.23463 7.15224C8.60009 7.00087 9.00222 6.96126 9.39018 7.03843C9.77814 7.1156 10.1345 7.30608 10.4142 7.58579C10.6939 7.86549 10.8844 8.22186 10.9616 8.60982C11.0387 8.99778 10.9991 9.39991 10.8478 9.76537C10.6964 10.1308 10.44 10.4432 10.1111 10.6629C9.78224 10.8827 9.39556 11 9 11C8.46957 11 7.96086 10.7893 7.58579 10.4142C7.21071 10.0391 7 9.53043 7 9ZM15 13C15.3956 13 15.7822 13.1173 16.1111 13.3371C16.44 13.5568 16.6964 13.8692 16.8478 14.2346C16.9991 14.6001 17.0387 15.0022 16.9616 15.3902C16.8844 15.7781 16.6939 16.1345 16.4142 16.4142C16.1345 16.6939 15.7781 16.8844 15.3902 16.9616C15.0022 17.0387 14.6001 16.9991 14.2346 16.8478C13.8692 16.6964 13.5568 16.44 13.3371 16.1111C13.1173 15.7822 13 15.3956 13 15C13 14.4696 13.2107 13.9609 13.5858 13.5858C13.9609 13.2107 14.4696 13 15 13Z" fill="#FFBF40"/>
</g>
<defs>
<clipPath id="clip0">
<rect width="24" height="24" fill="white"/>
</clipPath>
</defs>
</svg>
