<svg width="24" height="24" viewBox="0 0 24 24" fill="none" xmlns="http://www.w3.org/2000/svg">
<g clip-path="url(#clip0)">
<path d="M6.74695 13.4971C3.66395 13.4971 0.974948 11.4111 0.207948 8.42507C0.206948 8.42107 0.204948 8.41407 0.203948 8.40607C0.0659482 7.86607 -0.00305176 7.30707 -0.00305176 6.74707C-0.00305176 6.18807 0.0659482 5.63007 0.202948 5.09007C0.203948 5.08507 0.204948 5.08107 0.205948 5.07807C0.974948 2.08307 3.66395 -0.00292969 6.74695 -0.00292969C9.82995 -0.00292969 12.5179 2.08207 13.2849 5.06807C13.2859 5.07207 13.2879 5.08007 13.2899 5.08807C13.4269 5.62907 13.4969 6.18707 13.4969 6.74707C13.4969 7.30507 13.4279 7.86207 13.2909 8.40207C13.2899 8.40707 13.2889 8.41107 13.2879 8.41407C12.5179 11.4121 9.82895 13.4971 6.74695 13.4971ZM2.00495 8.99707C2.86795 10.8111 4.71095 11.9971 6.74695 11.9971C8.78295 11.9971 10.6259 10.8111 11.4889 8.99707H2.00495ZM11.9429 7.49707C11.9789 7.24907 11.9969 6.99807 11.9969 6.74707C11.9969 6.49607 11.9789 6.24507 11.9429 5.99707H1.54995C1.51395 6.24507 1.49595 6.49607 1.49595 6.74707C1.49595 6.99807 1.51395 7.24907 1.54995 7.49707H11.9429ZM11.4889 4.49707C10.6259 2.68307 8.78295 1.49707 6.74695 1.49707C4.71095 1.49707 2.86795 2.68307 2.00495 4.49707H11.4889Z" fill="#034DA2"/>
<path d="M13.23 23.904C11.984 23.904 10.784 23.383 9.93699 22.474C8.33399 20.754 8.33399 18.059 9.93699 16.339L13.089 13.186C13.101 13.17 13.115 13.152 13.133 13.134C13.146 13.121 13.163 13.107 13.181 13.093L16.319 9.95502C17.123 9.09102 18.233 8.58701 19.434 8.54401C19.488 8.54201 19.543 8.54102 19.598 8.54102C20.737 8.54102 21.825 8.97001 22.661 9.74901C24.476 11.441 24.577 14.294 22.886 16.109C22.814 16.186 22.739 16.261 22.661 16.334C22.661 16.334 16.3 22.695 16.297 22.698C15.461 23.476 14.372 23.904 13.23 23.904ZM11.015 17.379C9.96099 18.511 9.96499 20.304 11.034 21.451C11.598 22.057 12.399 22.404 13.23 22.404C13.99 22.404 14.715 22.12 15.27 21.604L17.907 18.967L13.667 14.727L11.015 17.379ZM18.967 17.907L21.619 15.255C21.688 15.19 21.739 15.139 21.788 15.087C22.915 13.877 22.849 11.975 21.638 10.847C21.081 10.328 20.356 10.042 19.596 10.042C19.56 10.042 19.523 10.043 19.486 10.044C18.686 10.072 17.944 10.411 17.398 10.997L14.728 13.668L18.967 17.907Z" fill="#034DA2"/>
</g>
<defs>
<clipPath id="clip0">
<rect width="24" height="24" fill="white"/>
</clipPath>
</defs>
</svg>
