<svg width="56" height="56" viewBox="0 0 56 56" fill="none" xmlns="http://www.w3.org/2000/svg">
<path d="M55.499 41.5302V49.7802C55.5021 50.5461 55.3452 51.3041 55.0384 52.0059C54.7315 52.7076 54.2815 53.3375 53.7172 53.8553C53.1528 54.3731 52.4865 54.7673 51.761 55.0126C51.0355 55.258 50.2667 55.3491 49.504 55.2802C41.0418 54.3607 32.9132 51.4691 25.7715 46.8377C19.127 42.6155 13.4936 36.9822 9.27146 30.3377C4.6239 23.1635 1.73163 14.9954 0.828962 6.49517C0.76024 5.73471 0.850618 4.96827 1.09434 4.24464C1.33806 3.52102 1.72978 2.85607 2.24457 2.29213C2.75935 1.7282 3.38592 1.27763 4.08439 0.96911C4.78285 0.660595 5.5379 0.500894 6.30146 0.500175H14.5515C15.8861 0.48704 17.1799 0.959641 18.1918 1.82989C19.2037 2.70014 19.8647 3.90865 20.0515 5.23018C20.3997 7.87036 21.0454 10.4627 21.9765 12.9577C22.3465 13.942 22.4265 15.0117 22.2072 16.0401C21.9879 17.0685 21.4783 18.0125 20.739 18.7602L17.2465 22.2527C21.1612 29.1374 26.8617 34.8379 33.7465 38.7527L37.239 35.2602C37.9867 34.5208 38.9306 34.0113 39.959 33.7919C40.9874 33.5726 42.0572 33.6527 43.0415 34.0227C45.5365 34.9537 48.1288 35.5995 50.769 35.9477C52.1048 36.1361 53.3248 36.809 54.1969 37.8383C55.069 38.8676 55.5324 40.1815 55.499 41.5302Z" fill="#F9F9F8"/>
</svg>
