<svg width="16" height="17" viewBox="0 0 16 17" fill="none" xmlns="http://www.w3.org/2000/svg">
<g clip-path="url(#clip0)">
<path d="M8 14.5C3 14.5 0.2 9.03333 0.0666667 8.76667C-9.93411e-09 8.56667 -9.93411e-09 8.36667 0.0666667 8.16667C0.933333 6.56667 2.13333 5.16667 3.66667 4.03333C3.93333 3.76667 4.33333 3.83333 4.6 4.16667C4.8 4.43333 4.8 4.9 4.46667 5.1C3.2 6.03333 2.2 7.16667 1.4 8.5C2 9.56667 4.4 13.1667 8 13.1667C9.26667 13.1667 10.5333 12.7 11.5333 11.9C11.8 11.7 12.2667 11.7667 12.4667 12.0333C12.6667 12.3 12.6 12.7667 12.3333 12.9667C11.1333 13.9667 9.6 14.5 8 14.5ZM13.8667 11.3C13.7333 11.3 13.5333 11.2333 13.4667 11.1667C13.2 10.9 13.1333 10.5 13.4 10.2333C13.8667 9.7 14.2667 9.16667 14.6 8.56667C14 7.5 11.6 3.9 8 3.9C7.6 3.9 7.13333 3.96667 6.73333 4.03333C6.4 4.03333 6.06667 3.83333 5.93333 3.5C5.8 3.16667 6.06667 2.76667 6.4 2.7C6.93333 2.56667 7.46667 2.5 8 2.5C13 2.5 15.8 7.96667 15.9333 8.23333C16 8.43333 16 8.63333 15.9333 8.83333C15.5333 9.63333 15 10.3667 14.4 11.1C14.2667 11.2333 14.0667 11.3 13.8667 11.3ZM7.93333 11.2333C7.26667 11.2333 6.6 10.9667 6.13333 10.5C5.6 10.0333 5.33333 9.36667 5.26667 8.63333C5.26667 7.9 5.46667 7.23333 6 6.7C6.06667 6.63333 6.06667 6.63333 6.13333 6.56667C6.4 6.3 6.8 6.3 7.06667 6.56667C7.33333 6.83333 7.33333 7.23333 7.06667 7.5L7 7.56667C6.73333 7.83333 6.6 8.16667 6.66667 8.5C6.66667 8.83333 6.8 9.16667 7.06667 9.43333C7.6 9.96667 8.46667 9.9 8.93333 9.36667C9.2 9.1 9.6 9.1 9.86667 9.36667C10.1333 9.63333 10.1333 10.0333 9.86667 10.3C9.4 10.9 8.66667 11.2333 7.93333 11.2333Z" fill="#167CD3"/>
<path d="M15.3333 16.5C15.1333 16.5 15 16.4333 14.8667 16.3L0.2 1.63333C-0.0666667 1.36667 -0.0666667 0.966667 0.2 0.7C0.466667 0.433333 0.866667 0.433333 1.13333 0.7L15.8 15.3667C16.0667 15.6333 16.0667 16.0333 15.8 16.3C15.6667 16.4333 15.5333 16.5 15.3333 16.5Z" fill="#167CD3"/>
</g>
<defs>
<clipPath id="clip0">
<rect width="16" height="16" fill="white" transform="translate(0 0.5)"/>
</clipPath>
</defs>
</svg>
