<svg width="22" height="20" viewBox="0 0 22 20" fill="none" xmlns="http://www.w3.org/2000/svg">
<g opacity="0.5">
<path d="M16.4809 9.54297V8.28125C18.0545 8.28125 17.9514 8.28906 17.9514 8.28906C18.2302 8.33984 18.4594 8.57422 18.4594 8.91406C18.4594 9.25781 18.2302 9.48047 17.9514 9.53125C17.9056 9.54688 17.8253 9.54297 16.4809 9.54297ZM18.1156 10.332C18.0087 10.3047 17.9896 10.3125 16.4809 10.3125V11.6797C17.9934 11.6797 18.0087 11.6875 18.1156 11.6602C18.4021 11.6016 18.6312 11.3477 18.6312 10.9961C18.6312 10.6562 18.4021 10.3906 18.1156 10.332ZM22 3.125V16.875C22 17.9102 21.1788 18.75 20.1667 18.75H1.83333C0.821181 18.75 0 17.9102 0 16.875V3.125C0 2.08984 0.821181 1.25 1.83333 1.25H20.1667C21.1788 1.25 22 2.08984 22 3.125ZM6.95139 7.51172H4.77431C4.77431 10.1328 5.18299 11.7969 3.40694 11.7969C2.66215 11.7969 1.925 11.5742 1.22222 11.2188V12.3125C2.36806 12.6367 3.81944 12.6367 3.81944 12.6367C7.55868 12.6367 6.95139 10.7734 6.95139 7.51172ZM13.7691 7.6875C11.3476 7.0625 7.46701 7.10547 7.46701 10.0039C7.46701 13.0156 11.5997 12.8789 13.7691 12.3164V11.2109C11.951 12.1758 9.66319 12.0703 9.66319 10C9.66319 7.92969 11.9472 7.82812 13.7691 8.78125V7.6875ZM20.7778 11.1914C20.7778 10.4688 20.1476 10 19.3264 9.94141V9.91016C20.0712 9.80469 20.4837 9.30469 20.4837 8.73047C20.4837 7.98828 19.884 7.55859 19.0705 7.51953C19.0705 7.51953 19.3111 7.50781 14.4757 7.50781V12.4883H19.1622C20.0903 12.4922 20.7778 11.9844 20.7778 11.1914Z" fill="black"/>
</g>
</svg>
