<svg width="16" height="16" viewBox="0 0 16 16" fill="none" xmlns="http://www.w3.org/2000/svg">
    <path d="M5 0H1V16H5V0ZM4 14H2V13H4V14ZM4 12H2V11H4V12ZM4 10H2V9H4V10ZM3 3C2.448 3 2 2.552 2 2C2 1.448 2.448 1 3 1C3.552 1 4 1.448 4 2C4 2.552 3.552 3 3 3Z" fill="black"/>
    <path d="M6 16H10V0H6V16ZM8 1C8.552 1 9 1.448 9 2C9 2.552 8.552 3 8 3C7.448 3 7 2.552 7 2C7 1.448 7.448 1 8 1ZM7 9H9V10H7V9ZM7 11H9V12H7V11ZM7 13H9V14H7V13Z" fill="black"/>
    <path d="M15 0H11V16H15V0ZM14 14H12V13H14V14ZM14 12H12V11H14V12ZM14 10H12V9H14V10ZM13 3C12.448 3 12 2.552 12 2C12 1.448 12.448 1 13 1C13.552 1 14 1.448 14 2C14 2.552 13.552 3 13 3Z" fill="black"/>
</svg>
