<svg width="24" height="24" xmlns="http://www.w3.org/2000/svg" fill="none">
    <g>
        <title>Layer 1</title>
        <path d="m11.9999,6.56899c0.9836,0.78897 1.6936,1.86777 2.0292,3.08319c0.3357,1.21542 0.2799,2.50572 -0.1595,3.68762c-0.4393,1.1819 -1.2398,2.1954 -2.2878,2.8965c-1.048,0.7011 -2.29032,1.0542 -3.55043,1.0092c-1.26012,-0.0451 -2.47402,-0.4859 -3.46934,-1.26c-0.99532,-0.7742 -1.72146,-1.8422 -2.07531,-3.0524c-0.35386,-1.2103 -0.31744,-2.5012 0.10408,-3.6896c0.42152,-1.18837 1.20672,-2.21374 2.2441,-2.93051" stroke="#02754f" stroke-width="1.5" stroke-linecap="round" stroke-linejoin="round" id="svg_1"/>
        <path d="m8.25,17.25l0,6" stroke="#02754f" stroke-width="1.5" stroke-linecap="round" stroke-linejoin="round" id="svg_2"/>
        <path d="m9.63398,13.824c-0.89983,-0.7585 -1.55673,-1.7649 -1.88896,-2.8939c-0.33223,-1.12896 -0.3251,-2.33072 0.02049,-3.4557c0.34559,-1.12497 1.01438,-2.12347 1.92314,-2.87123c0.90875,-0.74776 2.01735,-1.21176 3.18785,-1.33425c1.1704,-0.12249 2.3511,0.10194 3.395,0.64535c1.0439,0.54341 1.9049,1.38182 2.4759,2.41087c0.571,1.02904 0.8268,2.2033 0.7355,3.37661c-0.0913,1.17335 -0.5256,2.29385 -1.2489,3.22225" stroke="#02754f" stroke-width="1.5" stroke-linecap="round" stroke-linejoin="round" id="svg_3"/>
        <path d="m17.7429,4.992l4.007,-4.242" stroke="#02754f" stroke-width="1.5" stroke-linecap="round" stroke-linejoin="round" id="svg_4"/>
        <path d="m18,0.75l3.75,0l0,3.75" stroke="#02754f" stroke-width="1.5" stroke-linecap="round" stroke-linejoin="round" id="svg_5"/>
        <path d="m5.25,20.25l6,0" stroke="#02754f" stroke-width="1.5" stroke-linecap="round" stroke-linejoin="round" id="svg_6"/>
    </g>

</svg>