<svg width="120" height="124" viewBox="0 0 120 124" fill="none" xmlns="http://www.w3.org/2000/svg">
<path d="M60.2062 111.056C93.2296 111.056 120 109.493 120 107.565C120 105.637 93.2296 104.074 60.2062 104.074C27.1828 104.074 0.412109 105.637 0.412109 107.565C0.412109 109.493 27.1828 111.056 60.2062 111.056Z" fill="#F5F5F5"/>
<path d="M32.2847 67.0929C24.7183 59.675 20.5399 49.7938 20.5399 39.3036C20.5399 28.7996 24.7042 18.9321 32.2847 11.5143C39.851 4.09643 49.9301 0 60.6303 0C71.3305 0 81.4095 4.08259 88.9759 11.5143C96.5423 18.946 100.721 28.7996 100.721 39.3036C100.721 48.133 97.7704 56.5196 92.3356 63.3701C91.3051 64.671 90.1899 65.9027 88.99 67.0929C87.7901 68.2692 86.5197 69.3625 85.2068 70.3728C79.6168 74.6353 73.0244 77.3478 65.9945 78.2612V93H90.0871C90.7082 93 91.2164 93.4982 91.2164 94.1071V102.411C91.2164 103.02 90.7082 103.518 90.0871 103.518H65.9945V122.893C65.9945 123.502 65.4863 124 64.8652 124H56.3954C55.7743 124 55.2661 123.502 55.2661 122.893V103.518H31.1734C30.5523 103.518 30.0441 103.02 30.0441 102.411V94.1071C30.0441 93.4982 30.5523 93 31.1734 93H55.2661V78.2612C46.5845 77.1263 38.5806 73.2652 32.2847 67.0929ZM60.6303 68.0893C68.479 68.0893 75.8336 65.1 81.3954 59.6612C86.9432 54.2223 89.9923 46.9982 89.9923 39.3036C89.9923 31.6089 86.9432 24.3987 81.3954 18.946C75.8477 13.4933 68.479 10.5179 60.6303 10.5179C52.7816 10.5179 45.427 13.5071 39.8651 18.946C34.3174 24.3848 31.2683 31.6089 31.2683 39.3036C31.2683 46.9982 34.3174 54.2085 39.8651 59.6612C45.427 65.1 52.7816 68.0893 60.6303 68.0893Z" fill="#FF7AAA"/>
<path d="M57.9541 61.2078C58.071 60.5267 57.813 58.0358 57.813 58.0358C57.813 58.0358 55.2013 57.7577 55.0441 55.1702C54.8869 52.5826 55.0441 46.6094 55.0441 46.6094L59.8001 44.2838L65.0397 48.2458L64.2336 61.1957L57.9541 61.2078Z" fill="#FBC5AE"/>
<path d="M55.7656 50.9387C55.7656 51.0263 55.8004 51.1104 55.8624 51.1723C55.9244 51.2343 56.0085 51.2691 56.0961 51.2691C56.1838 51.2691 56.2678 51.2343 56.3298 51.1723C56.3918 51.1104 56.4266 51.0263 56.4266 50.9387C56.4266 50.8953 56.4181 50.8523 56.4015 50.8122C56.3849 50.7721 56.3605 50.7356 56.3298 50.705C56.2991 50.6743 56.2627 50.6499 56.2226 50.6333C56.1825 50.6167 56.1395 50.6082 56.0961 50.6082C56.0527 50.6082 56.0097 50.6167 55.9696 50.6333C55.9295 50.6499 55.8931 50.6743 55.8624 50.705C55.8317 50.7356 55.8074 50.7721 55.7908 50.8122C55.7742 50.8523 55.7656 50.8953 55.7656 50.9387Z" fill="#263238"/>
<path d="M55.2818 50.7004C55.3222 50.7407 55.568 50.5352 55.9227 50.515C56.2774 50.4948 56.5474 50.6682 56.5877 50.6198C56.628 50.5714 56.5595 50.519 56.4426 50.4384C56.2852 50.3351 56.0985 50.2856 55.9106 50.2974C55.7226 50.3103 55.5435 50.3822 55.3987 50.5029C55.2939 50.5956 55.2577 50.6802 55.2818 50.7004Z" fill="#263238"/>
<path d="M59.9533 51.2086C60.1358 51.2086 60.2838 51.0606 60.2838 50.8781C60.2838 50.6956 60.1358 50.5476 59.9533 50.5476C59.7708 50.5476 59.6228 50.6956 59.6228 50.8781C59.6228 51.0606 59.7708 51.2086 59.9533 51.2086Z" fill="#263238"/>
<path d="M59.135 50.6356C59.1794 50.6799 59.4212 50.4703 59.7799 50.4542C60.1386 50.4381 60.4047 50.6073 60.4409 50.559C60.4772 50.5106 60.4167 50.4582 60.2999 50.3776C60.1422 50.2748 59.9557 50.2254 59.7678 50.2365C59.5794 50.2478 59.3998 50.3199 59.256 50.4421C59.1471 50.5348 59.1149 50.6194 59.135 50.6356Z" fill="#263238"/>
<path d="M57.9098 53.6143C57.719 53.5647 57.5226 53.5403 57.3254 53.5418C57.2367 53.5418 57.1481 53.5216 57.1279 53.4572C57.1168 53.3574 57.135 53.2565 57.1803 53.167L57.4221 52.4294C57.6531 51.8022 57.835 51.1581 57.9663 50.5028C57.6954 51.1135 57.4677 51.7424 57.2851 52.385C57.2005 52.643 57.1239 52.8929 57.0513 53.1267C56.996 53.2436 56.9832 53.3761 57.0151 53.5015C57.0287 53.5335 57.0496 53.5618 57.0762 53.5843C57.1029 53.6067 57.1344 53.6225 57.1682 53.6305C57.219 53.638 57.2706 53.638 57.3214 53.6305C57.5175 53.6488 57.715 53.6434 57.9098 53.6143Z" fill="#263238"/>
<path d="M59.0907 53.9528C58.5687 54.2831 57.9764 54.4861 57.3616 54.5452C57.4925 54.7264 57.6807 54.858 57.8958 54.9187C58.1109 54.9795 58.3402 54.9657 58.5465 54.8798C59.3083 54.5614 59.0907 53.9528 59.0907 53.9528Z" fill="white"/>
<path d="M57.813 58.0355C59.0437 57.9841 60.2339 57.5813 61.2429 56.8748C61.2429 56.8748 60.465 58.7771 57.8694 58.6723L57.813 58.0355Z" fill="#A36957" fill-opacity="0.5"/>
<path d="M68.4697 50.1656C68.4697 50.1656 69.5257 56.1347 64.4835 57.2109L64.6327 50.0205L68.4697 50.1656Z" fill="#263238"/>
<path d="M68.3043 48.8424C67.9896 47.565 67.401 46.3713 66.5793 45.344C67.3048 45.6463 67.7884 45.9485 67.8892 45.8518C67.99 45.7551 67.8045 45.5737 67.4861 45.3037C67.0726 44.9653 66.5997 44.707 66.0916 44.5419L65.8538 44.4774C66.1865 44.3449 66.4903 44.1491 66.7486 43.901C67.0577 43.6115 67.2715 43.2347 67.3615 42.8208C67.4515 42.4068 67.4134 41.9753 67.2524 41.5835C67.0704 41.2504 66.7936 40.9787 66.4571 40.8029C66.1206 40.6272 65.7395 40.5552 65.3621 40.5961C64.9871 40.649 64.6298 40.7893 64.319 41.0056C64.0082 41.222 63.7525 41.5083 63.5725 41.8415C63.4857 42.0009 63.4142 42.1683 63.3589 42.3412C63.3712 42.0549 63.4008 41.7696 63.4476 41.4868C63.6088 40.4913 63.9796 39.7456 63.9192 39.7134C63.5369 40.2196 63.2987 40.8199 63.23 41.4505C63.23 41.5472 63.2058 41.6399 63.1937 41.7326C63.1146 41.475 63.0176 41.2231 62.9035 40.9789C62.6576 40.459 62.4239 40.1729 62.3553 40.2172C62.2143 40.2857 62.6737 41.378 62.8632 42.8531C62.4098 42.7022 61.9379 42.6141 61.4606 42.5911C60.5819 42.5911 59.1229 42.1881 57.0593 43.8446C56.3606 44.2907 55.7566 44.87 55.2818 45.5495C54.5999 46.5476 54.2155 47.7189 54.1735 48.9271C54.161 49.2898 54.1839 49.6529 54.242 50.0113C54.2543 50.1436 54.2883 50.2729 54.3427 50.3942C54.383 50.3942 54.2662 49.8339 54.3427 48.9351C54.3881 48.2688 54.5363 47.6135 54.7821 46.9924C54.475 48.0671 54.5433 49.2143 54.9755 50.245L59.5904 49.5236C59.2922 48.5119 59.5098 46.9078 59.6509 46.1218C60.457 49.8903 63.7015 51.7 63.7015 51.7L68.5582 50.9383C68.4897 50.499 68.4091 49.2374 68.3043 48.8424Z" fill="#263238"/>
<path d="M79.4769 106.567C79.6261 106.639 91.5321 108.985 91.0928 107.373C90.6535 105.761 79.5817 103.229 79.5817 103.229L79.4769 106.567Z" fill="#FBA83A"/>
<path d="M84.8898 105.515C84.9462 105.515 85.0309 105.789 85.0268 106.148C85.0228 106.507 84.9382 106.789 84.8817 106.781C84.8253 106.773 84.8132 106.491 84.8172 106.148C84.8213 105.805 84.8334 105.519 84.8898 105.515Z" fill="#263238"/>
<path d="M84.257 105.298C84.3094 105.298 84.4142 105.616 84.3739 106.035C84.3336 106.455 84.1845 106.761 84.1321 106.741C84.0797 106.721 84.1321 106.406 84.1644 106.015C84.1966 105.624 84.1966 105.306 84.257 105.298Z" fill="#263238"/>
<path d="M83.4873 105.232C83.5438 105.232 83.6244 105.547 83.6324 105.95C83.6405 106.353 83.572 106.675 83.5155 106.671C83.4591 106.667 83.4309 106.349 83.4228 105.954C83.4148 105.559 83.4309 105.236 83.4873 105.232Z" fill="#263238"/>
<path d="M82.0363 104.068C82.0987 104.065 82.1613 104.072 82.2217 104.088C82.3426 104.088 82.5199 104.145 82.7456 104.197C83.2011 104.294 83.858 104.451 84.6601 104.673C85.4622 104.894 86.4134 105.172 87.4532 105.527C87.9732 105.705 88.5253 105.886 89.0654 106.124C89.6509 106.36 90.1889 106.7 90.6534 107.127C90.7259 107.185 90.785 107.258 90.8267 107.341C90.8523 107.4 90.8562 107.465 90.8378 107.527C90.8193 107.588 90.7797 107.641 90.726 107.675C90.5708 107.756 90.3968 107.794 90.2222 107.784C89.9118 107.808 89.6055 107.821 89.3072 107.829C88.7067 107.829 88.1263 107.829 87.5741 107.784C86.4738 107.716 85.4904 107.579 84.6682 107.45C83.8459 107.321 83.1849 107.192 82.7295 107.099L82.2055 106.99C82.1428 106.982 82.0817 106.964 82.0242 106.938C82.2651 106.946 82.5049 106.973 82.7416 107.018L84.6883 107.301C85.4944 107.413 86.494 107.534 87.5862 107.595C88.1344 107.623 88.7067 107.639 89.3032 107.623C89.5974 107.623 89.9038 107.603 90.2061 107.579C90.3446 107.587 90.4831 107.56 90.6091 107.502C90.6454 107.474 90.6494 107.458 90.6373 107.422C90.6037 107.367 90.5615 107.318 90.5124 107.276C90.0647 106.867 89.5473 106.541 88.9848 106.313C88.4447 106.079 87.8966 105.91 87.3726 105.709C86.3368 105.35 85.3937 105.052 84.5996 104.814C83.8056 104.576 83.1527 104.411 82.7053 104.274C82.4781 104.22 82.2546 104.151 82.0363 104.068Z" fill="#263238"/>
<path d="M88.36 105.837C88.4165 105.857 88.2996 106.309 88.36 106.865C88.4205 107.421 88.5736 107.852 88.5172 107.881C88.3026 107.588 88.1754 107.241 88.1504 106.879C88.1254 106.518 88.2037 106.156 88.3762 105.837H88.36Z" fill="#263238"/>
<path d="M40.1192 104.209C39.954 104.209 27.9391 105.866 28.8702 107.216C29.8012 108.566 41.1027 107.381 41.1027 107.381L40.1192 104.209Z" fill="#FBA83A"/>
<path d="M35.323 106.97C35.2747 106.994 35.1014 106.752 34.9885 106.414C34.8757 106.075 34.8797 105.785 34.92 105.785C34.9603 105.785 35.0772 106.039 35.186 106.365C35.2948 106.692 35.3754 106.942 35.323 106.97Z" fill="#263238"/>
<path d="M35.9961 106.966C35.9477 106.994 35.7421 106.716 35.6414 106.309C35.5406 105.902 35.5849 105.559 35.6414 105.559C35.6978 105.559 35.7502 105.877 35.8469 106.256C35.9437 106.635 36.0485 106.938 35.9961 106.966Z" fill="#263238"/>
<path d="M36.7418 106.776C36.6894 106.8 36.512 106.522 36.371 106.143C36.2299 105.764 36.1896 105.438 36.246 105.422C36.3025 105.405 36.4314 105.704 36.5685 106.07C36.7055 106.437 36.7942 106.752 36.7418 106.776Z" fill="#263238"/>
<path d="M38.5071 107.397C38.449 107.419 38.3879 107.433 38.3257 107.437L37.7937 107.505C37.3302 107.562 36.6611 107.626 35.8309 107.679C35.0006 107.731 34.0091 107.775 32.9088 107.784C32.3566 107.784 31.7802 107.784 31.1757 107.747C30.5458 107.72 29.9265 107.575 29.3498 107.32C29.2613 107.289 29.1803 107.239 29.112 107.175C29.0721 107.126 29.0503 107.065 29.0503 107.002C29.0503 106.938 29.0721 106.877 29.112 106.828C29.2307 106.699 29.3828 106.606 29.5514 106.558C29.8375 106.433 30.1197 106.325 30.4018 106.216C30.9661 106.01 31.5223 105.841 32.0543 105.692C33.1183 105.397 34.0937 105.208 34.9119 105.063C35.7301 104.918 36.3992 104.821 36.8586 104.761L37.3907 104.692C37.4521 104.682 37.5147 104.682 37.5761 104.692C37.3454 104.763 37.1096 104.816 36.8707 104.849L34.9401 105.216C34.134 105.381 33.1587 105.587 32.1188 105.885C31.5908 106.038 31.0426 106.208 30.5066 106.417C30.2285 106.526 29.9464 106.635 29.6642 106.756C29.5328 106.794 29.4125 106.863 29.3136 106.957C29.2894 106.998 29.2894 107.01 29.3136 107.042C29.364 107.084 29.4213 107.116 29.4829 107.139C30.0379 107.379 30.632 107.515 31.2361 107.542C31.8246 107.59 32.405 107.586 32.9531 107.59C34.0494 107.59 35.0369 107.566 35.8671 107.534C36.6974 107.501 37.3665 107.453 37.83 107.425C38.0548 107.4 38.281 107.391 38.5071 107.397Z" fill="#263238"/>
<path d="M31.9414 107.8C31.8769 107.8 31.8446 107.337 31.6189 106.825C31.3932 106.313 31.095 105.958 31.1393 105.918C31.1836 105.878 31.5786 106.18 31.8124 106.724C31.992 107.053 32.0382 107.438 31.9414 107.8Z" fill="#263238"/>
<path d="M77.373 89.6228H71.2587L48.688 90.2072L42.2392 89.3729C41.2356 89.1512 40.5746 89.0585 40.361 89.127C39.4948 89.4881 38.7357 90.0654 38.1564 90.8037C35.6978 93.7379 37.2455 98.2601 40.9455 99.2677L44.4197 100.211L36.8182 102.653L39.3857 109.94C39.3857 109.94 50.7355 107.486 61.7427 104.894L79.356 109.658L81.8952 101.48L78.9086 100.509C80.7827 99.9368 81.9677 99.4854 82.133 99.2113C83.2413 97.4943 85.2042 89.5099 77.3447 89.6308" fill="#1E8EE5"/>
<path opacity="0.2" d="M78.8119 100.537L65.7209 105.958L61.7629 104.886L78.8119 100.537Z" fill="black"/>
<path opacity="0.2" d="M44.4762 90.2346L61.2349 95.0349L73.9995 90.682L44.4762 90.2346Z" fill="black"/>
<path d="M42.0901 109.413C41.8761 109.082 41.6965 108.729 41.554 108.361C41.2558 107.696 40.8689 106.749 40.49 105.717C40.1111 104.685 39.8008 103.702 39.6033 103.009C39.4757 102.636 39.3853 102.251 39.3333 101.86C39.4974 102.217 39.6322 102.586 39.7363 102.964C39.9701 103.654 40.2965 104.605 40.6754 105.645C41.0543 106.684 41.421 107.624 41.683 108.301C41.8468 108.661 41.9829 109.032 42.0901 109.413Z" fill="#263238"/>
<path d="M82.4917 92.3397C82.4591 92.3594 82.4238 92.3743 82.3869 92.3841L82.0725 92.5009L80.8634 92.9282L76.3936 94.4477C72.6009 95.7132 67.3532 97.4262 61.5372 99.252C55.7212 101.078 50.4333 102.67 46.6003 103.798L42.0539 105.112L40.8165 105.455L40.4901 105.54C40.4535 105.551 40.4155 105.558 40.3772 105.56L40.486 105.519L40.8044 105.415L42.0136 105.032L46.5398 103.653C50.3647 102.493 55.6406 100.876 61.4526 99.0505C67.2645 97.2247 72.5203 95.5359 76.321 94.3066L80.8271 92.8516L82.0564 92.4486L82.3748 92.3518C82.413 92.3421 82.4524 92.338 82.4917 92.3397Z" fill="#263238"/>
<path d="M70.2873 92.0446C70.206 92.091 70.1194 92.1276 70.0294 92.1534L69.2797 92.4274C68.6268 92.6612 67.6675 92.9917 66.4987 93.3907C64.1449 94.1968 60.8842 95.2609 57.2769 96.4176C53.6697 97.5744 50.3888 98.5941 48.0068 99.3115C46.7977 99.6702 45.8505 99.9524 45.1855 100.142L44.4157 100.355C44.3258 100.382 44.2342 100.402 44.1416 100.416C44.2247 100.372 44.3126 100.338 44.4036 100.315L45.1613 100.065L47.9827 99.1704L57.2286 96.2201L66.4664 93.2497L69.2676 92.3509L70.0334 92.1131C70.1154 92.0812 70.2005 92.0583 70.2873 92.0446Z" fill="#263238"/>
<path d="M61.1502 95.0081C61.1502 95.0645 57.3898 94.0408 52.783 92.7228C48.1761 91.4048 44.46 90.3045 44.4761 90.236C44.4922 90.1675 48.2366 91.2033 52.8394 92.5213C57.4422 93.8392 61.1664 94.9517 61.1502 95.0081Z" fill="#263238"/>
<path d="M79.4527 100.924C79.0396 102.285 78.5581 103.623 78.0098 104.935C77.1594 107.127 76.4258 108.885 76.3734 108.864C76.7854 107.505 77.267 106.168 77.8163 104.858C78.6668 102.666 79.4003 100.904 79.4527 100.924Z" fill="#263238"/>
<path d="M77.8808 104.301C76.7691 104.109 75.6695 103.852 74.5879 103.531C73.4941 103.273 72.4172 102.947 71.3635 102.556C72.4755 102.747 73.5751 103.004 74.6564 103.326C75.7503 103.584 76.8271 103.91 77.8808 104.301Z" fill="#263238"/>
<path d="M52.8113 97.6195C52.6002 97.5941 52.3913 97.5523 52.1866 97.4946L50.5019 97.0916C49.0831 96.7288 47.1203 96.2371 44.9801 95.5922C43.1455 95.053 41.3482 94.3947 39.5994 93.6213C38.9344 93.315 38.3903 93.049 38.0436 92.8515C37.8508 92.7607 37.6672 92.6514 37.4955 92.525C37.6966 92.5944 37.892 92.6793 38.0799 92.7789C38.4507 92.9523 38.9868 93.182 39.6599 93.4843C41.4183 94.2148 43.2144 94.8512 45.0405 95.3907C47.1767 96.0356 49.1315 96.5474 50.5422 96.9465L52.2067 97.4261C52.4142 97.4702 52.6168 97.535 52.8113 97.6195Z" fill="#263238"/>
<path d="M65.2009 60.8494H64.7052L64.6326 59.1324L57.8251 59.5355C57.8251 59.5355 57.8936 60.3416 57.8896 60.9018C53.6979 61.3049 46.9791 63.4572 46.8179 72.8925L52.1945 73.0175C51.7391 77.3462 51.7915 79.9297 51.3522 81.554C50.6025 84.2383 48.2285 89.9052 48.7041 90.1914C49.1797 90.4775 71.2426 90.8846 72.2945 90.3123C73.3465 89.7399 71.432 82.344 70.9524 80.3368C70.6501 79.0551 70.5856 76.1209 70.5776 73.8518L76.7523 73.5737C76.7523 73.5737 77.1996 60.8132 65.2009 60.8494Z" fill="#00968C"/>
<path d="M64.6689 60.7808C64.3436 60.8769 64.008 60.9337 63.6693 60.9501C63.0446 61.0227 62.1821 61.0912 61.2268 61.1113C60.2716 61.1315 59.4091 61.1113 58.7844 61.0549C58.4447 61.0493 58.1068 61.0061 57.7767 60.9259C58.1125 60.886 58.4513 60.8793 58.7884 60.9058C59.4131 60.9058 60.2716 60.9058 61.2067 60.9058C62.1418 60.9058 63.0164 60.8413 63.625 60.809C63.9712 60.7662 64.3208 60.7567 64.6689 60.7808Z" fill="#263238"/>
<path d="M59.0626 59.4785C59.123 59.4785 59.1673 59.809 59.1673 60.2161C59.1673 60.6232 59.123 60.9577 59.0626 60.9577C59.0021 60.9577 58.9578 60.6272 58.9578 60.2161C58.9578 59.805 58.986 59.4785 59.0626 59.4785Z" fill="#263238"/>
<path d="M60.8641 59.3489C60.9205 59.3489 60.977 59.7116 60.9891 60.155C61.0259 60.4263 60.9983 60.7024 60.9085 60.9611C60.848 60.9611 60.7916 60.5983 60.7795 60.155C60.7413 59.8834 60.7704 59.6066 60.8641 59.3489Z" fill="#263238"/>
<path d="M62.7423 59.2854C62.7988 59.2854 62.8794 59.6401 62.8874 60.0915C62.8955 60.5429 62.835 60.8976 62.7746 60.8976C62.6866 60.6385 62.6537 60.364 62.6779 60.0915C62.6899 59.6562 62.6899 59.2894 62.7423 59.2854Z" fill="#263238"/>
<path d="M64.1047 59.2211C64.1651 59.2211 64.2055 59.5758 64.2619 60.0071C64.3183 60.4383 64.3626 60.793 64.3062 60.8131C64.2498 60.8333 64.1087 60.4867 64.0563 60.0353C64.0039 59.5838 64.0483 59.2171 64.1047 59.2211Z" fill="#263238"/>
<path d="M53.045 72.9159C52.9365 72.2499 52.896 71.5747 52.9241 70.9006C52.8813 70.2276 52.9111 69.552 53.0127 68.8854C53.1192 69.5515 53.1597 70.2265 53.1336 70.9006C53.1712 71.5736 53.1415 72.2487 53.045 72.9159Z" fill="#263238"/>
<path d="M70.3479 73.5896C70.1846 72.8746 70.0875 72.146 70.0577 71.4132C69.9605 70.6852 69.9348 69.9495 69.9811 69.2166C70.2398 70.6596 70.3626 72.1237 70.3479 73.5896Z" fill="#263238"/>
<path d="M53.045 72.9169C52.7377 72.9576 52.4272 72.9671 52.118 72.9452H49.8972H47.6724C47.3646 72.9672 47.0553 72.9578 46.7494 72.9169C47.0496 72.8398 47.3583 72.8005 47.6683 72.8001C48.2366 72.7557 49.0266 72.7235 49.8972 72.7275C50.7678 72.7315 51.5578 72.7598 52.1261 72.8041C52.4358 72.8052 52.7442 72.8431 53.045 72.9169Z" fill="#263238"/>
<path d="M76.7402 73.5891C75.6487 73.6952 74.5514 73.7302 73.4554 73.6939C72.358 73.7303 71.2594 73.6953 70.1665 73.5891C71.2595 73.4852 72.358 73.4502 73.4554 73.4843C74.5514 73.4503 75.6485 73.4853 76.7402 73.5891Z" fill="#263238"/>
<path d="M76.4703 73.6423C76.4703 73.6423 78.0825 88.6881 73.4716 90.1673C68.8607 91.6465 59.7679 84.6415 59.7679 84.6415L62.3878 79.3374C62.3878 79.3374 68.4335 83.5372 69.7394 82.59C71.0452 81.6428 70.3641 73.6423 70.3641 73.6423H76.4703Z" fill="#FBC5AE"/>
<path d="M46.8945 72.9164C46.8945 72.9164 45.2541 87.809 49.861 89.2922C54.4678 90.7754 63.5646 83.7624 63.5646 83.7624L60.9408 78.4583C60.9408 78.4583 54.8588 82.3477 53.5972 81.3642C52.8677 80.7919 52.8475 72.9929 52.8475 72.9929C50.7033 72.9002 48.7163 72.8075 46.8945 72.9164Z" fill="#FBC5AE"/>
<path d="M73.6004 76.0205L70.5413 91.0139C70.5413 91.0139 51.7431 90.8688 51.5497 90.8124C51.3562 90.756 49.5344 76.0205 49.5344 76.0205H73.6004Z" fill="#263238"/>
<path d="M60.0983 83.6174C60.0829 83.8432 60.1359 84.0685 60.2502 84.2638C60.3645 84.4592 60.5349 84.6157 60.7393 84.713C60.9437 84.8103 61.1726 84.8438 61.3963 84.8093C61.62 84.7748 61.8282 84.6738 61.9937 84.5195C62.1593 84.3651 62.2746 84.1646 62.3248 83.9438C62.3749 83.7231 62.3575 83.4924 62.2748 83.2817C62.1921 83.071 62.0479 82.89 61.861 82.7623C61.6742 82.6345 61.4532 82.566 61.2268 82.5654C60.9381 82.5567 60.6575 82.6623 60.4462 82.8593C60.2349 83.0563 60.1099 83.3287 60.0983 83.6174Z" fill="white"/>
<path d="M64.0481 50.7209C64.2184 50.6156 64.4121 50.5543 64.6118 50.5423C64.8116 50.5304 65.0112 50.5682 65.1928 50.6524C65.4247 50.8394 65.5773 51.1072 65.62 51.4021C65.6741 51.6407 65.6713 51.8887 65.6118 52.1261C65.5522 52.3635 65.4377 52.5835 65.2774 52.7684C65.1103 52.9468 64.8869 53.0623 64.6446 53.0953C64.4024 53.1283 64.1562 53.0769 63.9474 52.9498" fill="#FBC5AE"/>
<path d="M64.5319 52.5382C64.5319 52.506 64.6609 52.4858 64.81 52.373C64.9084 52.3092 64.988 52.2203 65.0404 52.1154C65.0929 52.0105 65.1163 51.8934 65.1082 51.7764C65.0968 51.6609 65.0554 51.5504 64.9883 51.4557C64.9211 51.361 64.8305 51.2854 64.7253 51.2364C64.5561 51.1558 64.4271 51.1598 64.4231 51.1275C64.419 51.0953 64.552 51.0348 64.7777 51.0913C64.9251 51.135 65.056 51.2218 65.1536 51.3406C65.2512 51.4593 65.3111 51.6046 65.3254 51.7577C65.3397 51.9107 65.3078 52.0646 65.2339 52.1994C65.16 52.3342 65.0475 52.4438 64.9107 52.514C64.677 52.6027 64.5319 52.5825 64.5319 52.5382Z" fill="#A36957" fill-opacity="0.5"/>
</svg>
