<svg width="120" height="108" viewBox="0 0 120 108" fill="none" xmlns="http://www.w3.org/2000/svg">
<path d="M59.7941 107.799C92.8175 107.799 119.588 106.236 119.588 104.308C119.588 102.38 92.8175 100.817 59.7941 100.817C26.7707 100.817 0 102.38 0 104.308C0 106.236 26.7707 107.799 59.7941 107.799Z" fill="#F5F5F5"/>
<path d="M104.667 0H70.8764C70.4339 0 70.0719 0.362041 70.0719 0.804536V8.31353C70.0719 8.75603 70.4339 9.11807 70.8764 9.11807H92.3843L65.6603 35.8421C58.9559 30.6796 50.7764 27.8906 42.1813 27.8906C31.8698 27.8906 22.1618 31.9132 14.8807 39.2077C7.59968 46.5022 3.5636 56.1968 3.5636 66.5083C3.5636 76.8197 7.58628 86.5278 14.8807 93.8088C22.1618 101.103 31.8698 105.126 42.1813 105.126C52.4928 105.126 62.2008 101.103 69.4819 93.8088C76.7763 86.5278 80.799 76.8197 80.799 66.5083C80.799 57.9132 78.01 49.7605 72.8609 43.0561L99.5715 16.3455V37.8132C99.5715 38.2557 99.9335 38.6177 100.376 38.6177H107.885C108.328 38.6177 108.69 38.2557 108.69 37.8132V4.02268C108.69 1.8102 106.879 0 104.667 0ZM42.1813 94.9352C26.5063 94.9352 13.7544 82.1833 13.7544 66.5083C13.7544 50.8332 26.5063 38.0813 42.1813 38.0813C57.8563 38.0813 70.6082 50.8332 70.6082 66.5083C70.6082 82.1833 57.8563 94.9352 42.1813 94.9352Z" fill="#B1E1F6"/>
<path d="M106.164 94.895L101.869 94.3839L100.859 102.433L107.143 103.244L107.237 102.751C107.641 100.543 109.123 91.5063 108.857 89.9644C108.56 88.2464 106.164 94.895 106.164 94.895Z" fill="#FBA83A"/>
<path d="M108.483 89.3898C108.56 89.3898 108.264 92.422 107.822 96.1372C107.379 99.8523 106.963 102.859 106.885 102.85C106.808 102.842 107.109 99.8437 107.547 96.1028C107.985 92.3619 108.406 89.3812 108.483 89.3898Z" fill="#263238"/>
<path d="M107.057 94.5169C107.014 94.577 106.791 94.4911 106.585 94.2936C106.379 94.096 106.293 93.8641 106.353 93.8254C106.413 93.7868 106.593 93.9113 106.782 94.096C106.971 94.2807 107.104 94.4654 107.057 94.5169Z" fill="#263238"/>
<path d="M107.401 94.0362C107.366 94.105 107.113 94.0362 106.864 93.8473C106.615 93.6583 106.477 93.4178 106.533 93.3748C106.589 93.3319 106.799 93.4478 107.031 93.6239C107.263 93.8 107.439 93.9675 107.401 94.0362Z" fill="#263238"/>
<path d="M107.147 100.419C107.147 100.453 107.04 100.56 106.825 100.715C106.552 100.901 106.298 101.112 106.065 101.346C105.845 101.579 105.686 101.862 105.601 102.171C105.541 102.412 105.558 102.57 105.515 102.579C105.472 102.588 105.395 102.429 105.408 102.15C105.438 101.783 105.589 101.437 105.837 101.166C106.083 100.91 106.374 100.701 106.696 100.552C106.967 100.432 107.126 100.384 107.147 100.419Z" fill="#263238"/>
<path d="M106.254 94.3957C106.323 94.3657 106.46 94.5246 106.512 94.7608C106.563 94.997 106.512 95.1903 106.434 95.1903C106.357 95.1903 106.288 95.0185 106.241 94.808C106.194 94.5976 106.181 94.4258 106.254 94.3957Z" fill="#263238"/>
<path d="M105.824 94.4658C105.897 94.4658 105.936 94.6892 105.91 94.964C105.885 95.2389 105.794 95.4451 105.721 95.4279C105.648 95.4107 105.605 95.1917 105.635 94.934C105.666 94.6763 105.747 94.4658 105.824 94.4658Z" fill="#263238"/>
<path d="M103.544 103.072L79.7368 100.658L30.3705 101.762L43.4959 91.1792L76.4426 89.5986L105.249 93.5672L103.544 103.072Z" fill="#1E8EE5"/>
<path d="M63.3045 96.462C63.3045 96.5264 58.6702 96.5737 52.9536 96.5737C47.237 96.5737 42.6071 96.5264 42.6071 96.462C42.6071 96.3976 47.237 96.3503 52.9536 96.3503C58.6702 96.3503 63.3045 96.4019 63.3045 96.462Z" fill="#00897E"/>
<path d="M61.0021 90.3379L62.6944 100.985H65.9413L63.4717 90.2219L61.0021 90.3379Z" fill="black"/>
<path d="M73.5692 101.127L73.0882 96.8318L65.0179 97.6908L65.6407 103.979H66.1432C68.3852 103.867 77.5206 103.257 78.9594 102.647C80.5829 101.947 73.5692 101.127 73.5692 101.127Z" fill="#FBA83A"/>
<path d="M79.127 102.196C79.127 102.274 76.1205 102.673 72.4054 103.09C68.6902 103.506 65.6666 103.781 65.658 103.704C65.6494 103.627 68.6645 103.231 72.3753 102.815C76.0862 102.398 79.1184 102.136 79.127 102.196Z" fill="#263238"/>
<path d="M73.8012 101.99C73.7282 101.96 73.7626 101.724 73.9086 101.479C74.0546 101.234 74.2565 101.097 74.3123 101.144C74.3682 101.191 74.2823 101.397 74.1491 101.621C74.016 101.844 73.8785 102.02 73.8012 101.99Z" fill="#263238"/>
<path d="M74.3553 102.197C74.2822 102.197 74.2908 101.918 74.4197 101.63C74.5485 101.342 74.7375 101.162 74.8019 101.2C74.8664 101.239 74.802 101.471 74.6731 101.737C74.5443 102.003 74.4283 102.235 74.3553 102.197Z" fill="#263238"/>
<path d="M68.0803 103.416C68.0545 103.442 67.9171 103.343 67.7195 103.171C67.4767 102.948 67.2135 102.749 66.9336 102.574C66.6563 102.413 66.3435 102.323 66.023 102.312C65.7782 102.312 65.6236 102.36 65.5935 102.312C65.5635 102.265 65.7095 102.162 65.993 102.111C66.3621 102.058 66.738 102.134 67.0581 102.325C67.3632 102.509 67.6313 102.748 67.8484 103.03C68.0288 103.249 68.1104 103.39 68.0803 103.416Z" fill="#263238"/>
<path d="M73.741 101.178C73.7883 101.238 73.6637 101.406 73.4447 101.513C73.2257 101.62 73.0152 101.612 73.0152 101.539C73.0152 101.466 73.1483 101.358 73.3416 101.264C73.5349 101.17 73.6981 101.114 73.741 101.178Z" fill="#263238"/>
<path d="M73.5692 100.776C73.5692 100.853 73.3759 100.939 73.1054 100.973C72.8348 101.008 72.6114 100.973 72.6071 100.896C72.6028 100.819 72.8133 100.733 73.071 100.698C73.3287 100.664 73.552 100.703 73.5692 100.776Z" fill="#263238"/>
<path d="M26.3504 51.9969L33.2223 51.8723C33.3168 51.0778 33.45 47.9811 33.45 47.9811C33.45 47.9811 36.3276 47.7105 36.538 44.8673C36.7485 42.024 36.6583 35.4441 36.6583 35.4441C35.0813 34.6481 33.3205 34.2873 31.5575 34.399C29.7946 34.5108 28.0934 35.091 26.6296 36.0798L26.2001 36.3804L26.3504 51.9969Z" fill="#FBC5AE"/>
<path d="M35.7092 40.3021C35.6343 40.2224 35.5927 40.1172 35.5927 40.0079C35.5927 39.8985 35.6343 39.7933 35.7092 39.7137C35.7682 39.651 35.8446 39.6074 35.9287 39.5887C36.0127 39.5699 36.1004 39.5769 36.1804 39.6086C36.2604 39.6403 36.329 39.6953 36.3774 39.7665C36.4258 39.8377 36.4516 39.9218 36.4516 40.0079C36.4516 40.0939 36.4258 40.178 36.3774 40.2492C36.329 40.3204 36.2604 40.3755 36.1804 40.4072C36.1004 40.4389 36.0127 40.4458 35.9287 40.4271C35.8446 40.4083 35.7682 40.3648 35.7092 40.3021Z" fill="#263238"/>
<path d="M36.4351 39.6919C36.3879 39.7392 36.1216 39.5072 35.7307 39.4815C35.3399 39.4557 35.0393 39.6404 35.0006 39.5888C34.9619 39.5373 35.0307 39.4772 35.1595 39.3913C35.335 39.281 35.5412 39.2298 35.7479 39.2452C35.9539 39.2581 36.15 39.3381 36.3063 39.4729C36.4351 39.5802 36.4652 39.6704 36.4351 39.6919Z" fill="#263238"/>
<path d="M31.8996 39.7567C31.9611 39.8294 31.9966 39.9205 32.0007 40.0157C32.0048 40.1108 31.9771 40.2047 31.922 40.2824C31.8669 40.3601 31.7876 40.4173 31.6964 40.4449C31.6053 40.4726 31.5075 40.4692 31.4185 40.4353C31.3573 40.4119 31.3022 40.3749 31.2575 40.327C31.2128 40.279 31.1797 40.2215 31.1606 40.1588C31.1416 40.0961 31.1371 40.0299 31.1476 39.9652C31.1581 39.9005 31.1833 39.8391 31.2212 39.7856C31.2591 39.7321 31.3087 39.6881 31.3663 39.6567C31.4238 39.6254 31.4878 39.6077 31.5533 39.6049C31.6188 39.6021 31.684 39.6143 31.744 39.6406C31.8041 39.6669 31.8573 39.7066 31.8996 39.7567Z" fill="#263238"/>
<path d="M32.14 39.7741C32.0928 39.8214 31.8265 39.5894 31.4314 39.5637C31.0362 39.5379 30.7442 39.7226 30.7012 39.671C30.6583 39.6195 30.7313 39.5594 30.8644 39.4735C31.0396 39.3631 31.2455 39.3118 31.452 39.3273C31.6584 39.3428 31.8545 39.4241 32.0112 39.5594C32.14 39.6625 32.1787 39.7569 32.14 39.7741Z" fill="#263238"/>
<path d="M33.5315 43.1104C33.7379 43.0427 33.9543 43.0107 34.1714 43.0159C34.2745 43.0159 34.3604 42.9902 34.369 42.9386C34.3794 42.8351 34.3601 42.7308 34.3132 42.638L34.0512 41.8219C33.7991 41.1261 33.6178 40.4066 33.51 39.6744C33.8326 40.3381 34.0859 41.0333 34.2659 41.7489C34.3518 42.0324 34.4291 42.303 34.5107 42.5693C34.5694 42.7048 34.58 42.8563 34.5408 42.9987C34.5231 43.0372 34.4968 43.071 34.4641 43.0978C34.4314 43.1246 34.393 43.1436 34.3518 43.1534C34.2934 43.1613 34.2342 43.1613 34.1757 43.1534C33.9601 43.1748 33.7424 43.1603 33.5315 43.1104Z" fill="#263238"/>
<path d="M32.2303 43.4674C31.8352 43.1968 33.3169 44.1331 34.1201 44.1417C33.9736 44.3398 33.7647 44.4827 33.527 44.5474C33.2893 44.6121 33.0367 44.5948 32.8101 44.4982C31.9769 44.1331 32.2303 43.4674 32.2303 43.4674Z" fill="white"/>
<path d="M33.4672 47.9377C32.1494 47.8798 30.8786 47.4313 29.8165 46.6492C29.8165 46.6492 30.5681 48.7537 33.4285 48.6721L33.4672 47.9377Z" fill="#A36957" fill-opacity="0.5"/>
<path d="M36.8645 34.4179C37.0278 34.4125 37.1878 34.3697 37.332 34.2929C37.4762 34.216 37.6009 34.1071 37.6965 33.9745C37.7921 33.842 37.856 33.6892 37.8834 33.5281C37.9107 33.367 37.9008 33.2017 37.8543 33.045C37.8078 32.8884 37.7261 32.7444 37.6153 32.6242C37.5045 32.5041 37.3677 32.4109 37.2153 32.3518C37.0629 32.2928 36.899 32.2695 36.7362 32.2837C36.5734 32.2979 36.416 32.3492 36.2761 32.4337C36.6173 32.1528 36.8954 31.803 37.0921 31.4072C37.1867 31.2082 37.218 30.9851 37.1819 30.7677C37.1458 30.5504 37.0441 30.3494 36.8902 30.1917C36.711 30.0686 36.5017 29.9963 36.2846 29.9827C36.0675 29.9691 35.8508 30.0146 35.6576 30.1144C35.052 30.3764 34.5753 30.8875 33.9396 31.1022C33.304 31.317 32.6253 31.2096 31.9596 31.2397C31.2177 31.2537 30.4992 31.5017 29.9066 31.9483C29.615 32.1739 29.3803 32.4647 29.2215 32.7973C29.0626 33.13 28.9839 33.4953 28.9918 33.8639C28.0598 33.7522 27.029 33.7393 26.2946 34.3192C25.9992 34.5821 25.7655 34.9072 25.6103 35.271C25.4551 35.6348 25.3823 36.0284 25.3969 36.4237C25.4686 37.213 25.6568 37.9873 25.9553 38.7215C26.0073 38.9367 26.1039 39.1386 26.2387 39.3142L26.5866 41.3586L27.8536 41.3328L27.772 37.0808C27.772 37.0808 27.6432 35.2855 29.1894 35.4444C30.7356 35.6033 32.8272 37.3428 35.8294 36.9004C36.3203 36.8746 36.7989 36.738 37.2296 36.501C37.4382 36.3697 37.608 36.1849 37.7212 35.9659C37.8345 35.7469 37.8872 35.5017 37.8738 35.2555C37.8477 35.0119 37.7277 34.7882 37.5392 34.6318C37.3507 34.4754 37.1086 34.3987 36.8645 34.4179Z" fill="#263238"/>
<path d="M26.7456 38.9058C26.6811 38.8843 24.6282 38.618 24.8214 41.0533C25.0147 43.4885 27.3984 42.4792 27.3984 42.4105C27.3984 42.3417 26.7456 38.9058 26.7456 38.9058Z" fill="#FBC5AE"/>
<path d="M26.591 41.6063C26.591 41.6063 26.5481 41.6364 26.4793 41.675C26.383 41.7258 26.2709 41.7381 26.1658 41.7094C26.0018 41.6223 25.8638 41.4934 25.7657 41.3358C25.6677 41.1781 25.6131 40.9973 25.6075 40.8117C25.5831 40.6045 25.6066 40.3944 25.6762 40.1976C25.6925 40.1195 25.7276 40.0467 25.7785 39.9853C25.8294 39.9239 25.8946 39.8759 25.9682 39.8454C26.0159 39.8289 26.0679 39.8298 26.115 39.8479C26.1622 39.866 26.2014 39.9 26.2259 39.9442C26.2646 40.0086 26.2517 40.0558 26.2646 40.0601C26.2775 40.0644 26.3161 40.0172 26.2861 39.9184C26.2695 39.8581 26.2313 39.8061 26.1787 39.7724C26.1442 39.7498 26.1055 39.7344 26.0649 39.727C26.0243 39.7197 25.9827 39.7205 25.9425 39.7294C25.8396 39.7572 25.7458 39.8115 25.6704 39.8869C25.5951 39.9623 25.5408 40.056 25.513 40.1589C25.4251 40.3766 25.394 40.6131 25.4228 40.8461C25.4274 41.0623 25.496 41.2724 25.6198 41.4497C25.7436 41.627 25.9172 41.7637 26.1186 41.8425C26.1853 41.8567 26.2543 41.8556 26.3205 41.8392C26.3867 41.8229 26.4484 41.7917 26.5008 41.7481C26.591 41.6622 26.5996 41.6106 26.591 41.6063Z" fill="#A36957" fill-opacity="0.5"/>
<path d="M20.7756 94.4654C22.0641 96.3852 29.8767 108.145 39.2053 99.5936C51.0895 88.7101 60.4868 79.1753 60.4868 79.1753L64.0173 100.715L75.0811 100.113C75.0811 100.113 70.7862 68.0428 68.046 65.1265C65.0008 61.8709 62.2005 62.1458 38.2862 81.0179L20.7756 94.4654Z" fill="#249CF3"/>
<path d="M60.3494 57.9405L70.683 50.3986L71.1898 51.2103L60.9249 58.8425L60.3494 57.9405Z" fill="#263238"/>
<path d="M62.9049 57.7096C62.9049 57.7096 64.2879 54.1018 64.6229 53.333C64.9579 52.5642 65.4604 51.2242 65.658 51.1855C65.8555 51.1469 66.5771 51.2714 65.658 53.5649C64.7388 55.8584 66.7747 54.4583 66.7747 54.4583L68.7632 53.0324C68.7632 53.0324 70.3352 57.7311 69.4418 59.1484C68.7395 60.2067 67.9508 61.2051 67.0839 62.1334L62.9049 57.7096Z" fill="#FBC5AE"/>
<path d="M63.0209 57.289C62.8147 56.8209 49.6721 68.4259 47.0565 68.821L39.3943 58.8438C39.3943 58.8438 37.8051 56.3184 34.3906 51.9976C32.183 49.2102 26.1014 49.79 24.5122 53.1874C21.7978 58.9598 21.7634 65.3765 20.316 77.8619L19.6847 86.3058C19.5486 88.1027 19.5759 89.9083 19.7663 91.7003C19.9982 93.7919 20.4707 95.9952 21.4413 95.6817L38.9691 81.1948L39.5317 74.6149C43.2168 78.3515 44.3635 79.1332 46.2791 78.8326C51.1023 78.0853 67.9858 62.9026 67.9858 62.9026C67.9858 62.9026 63.2227 57.7615 63.0209 57.289Z" fill="#00968C"/>
<path d="M65.7223 65.0111C65.3802 64.8053 65.0643 64.5587 64.7817 64.2766C64.0634 63.6353 63.3904 62.945 62.7674 62.2108C62.1405 61.4794 61.5663 60.7043 61.0494 59.8915C60.8193 59.5638 60.6249 59.2125 60.4696 58.8435C60.7297 59.1444 60.9666 59.4645 61.1783 59.8013C61.6078 60.3983 62.2091 61.2143 62.9349 62.0647C63.6608 62.9151 64.3651 63.6453 64.8891 64.1607C65.1865 64.4242 65.4649 64.7084 65.7223 65.0111Z" fill="#263238"/>
<path d="M46.3135 72.7769C46.3205 72.1044 46.4011 71.4347 46.5541 70.7798C46.6382 70.1123 46.7938 69.4557 47.0179 68.8213C47.0112 69.4938 46.9305 70.1636 46.7774 70.8184C46.6939 71.4861 46.5384 72.1428 46.3135 72.7769Z" fill="#263238"/>
<path d="M47.9884 72.3644C47.723 71.8182 47.5268 71.2411 47.4042 70.6464C47.2144 70.0712 47.0919 69.476 47.0392 68.8726C47.3046 69.4187 47.5008 69.9958 47.6233 70.5905C47.8124 71.1659 47.9349 71.7611 47.9884 72.3644Z" fill="#263238"/>
<path d="M29.0134 60.5966C29.1706 60.7699 29.3142 60.9551 29.4429 61.1506L30.5853 62.7054C31.5517 64.0153 32.9003 65.8192 34.4078 67.7906L38.2948 72.8329L39.4673 74.3662C39.6259 74.5475 39.7696 74.7414 39.8968 74.946C39.7245 74.7825 39.5651 74.6059 39.4201 74.4177C39.1237 74.0699 38.7071 73.5587 38.1917 72.9317C37.1652 71.6647 35.7608 69.9037 34.2532 67.9281C32.7457 65.9524 31.4143 64.1313 30.4822 62.7956C30.0141 62.1299 29.6233 61.5844 29.3913 61.2021C29.2493 61.0108 29.1229 60.8082 29.0134 60.5966Z" fill="#263238"/>
<path d="M26.7712 69.0827C26.317 68.8253 25.9019 68.5042 25.5386 68.1292C25.1259 67.8064 24.7601 67.4277 24.452 67.0039C24.9087 67.2613 25.3254 67.5839 25.6889 67.9617C26.1027 68.2802 26.4674 68.6579 26.7712 69.0827Z" fill="#263238"/>
<path d="M25.2682 73.9235C24.8201 74.8514 24.2415 75.7105 23.5502 76.4747C23.739 75.9926 23.9981 75.541 24.319 75.1346C24.5759 74.6876 24.8955 74.2798 25.2682 73.9235Z" fill="#263238"/>
<path d="M27.3813 80.6013C27.3341 80.64 26.9518 80.2534 26.5223 79.7423C26.2329 79.451 25.9973 79.1107 25.8265 78.7373C25.8738 78.6986 26.256 79.0852 26.6855 79.5963C26.9757 79.887 27.2113 80.2274 27.3813 80.6013Z" fill="#263238"/>
<path d="M23.2924 84.8827C23.0214 85.2002 22.6955 85.4664 22.3303 85.6687C22.0063 85.9314 21.6384 86.1349 21.2437 86.27C21.5147 85.9524 21.8406 85.6862 22.2058 85.484C22.5299 85.2213 22.8977 85.0178 23.2924 84.8827Z" fill="#263238"/>
<path d="M29.0091 86.0171C28.554 85.8186 28.1597 85.5029 27.8666 85.1023C27.518 84.7436 27.2706 84.299 27.1494 83.8138C27.2095 83.7837 27.523 84.3506 28.0341 84.9476C28.5452 85.5446 29.0477 85.9612 29.0091 86.0171Z" fill="#263238"/>
<path d="M34.339 81.9701C34.0252 82.3807 33.655 82.7451 33.2395 83.0524C32.8697 83.4136 32.4503 83.7202 31.994 83.9629C32.3076 83.5522 32.6778 83.1878 33.0935 82.8806C33.4624 82.5184 33.8819 82.2117 34.339 81.9701Z" fill="#263238"/>
<path d="M23.3698 89.7849C22.6359 89.4482 22.0529 88.8514 21.7334 88.1099C21.7849 88.0756 22.1071 88.4879 22.558 88.9431C23.009 89.3984 23.4084 89.742 23.3698 89.7849Z" fill="#263238"/>
<path d="M35.2883 78.144C34.5503 78.5664 33.6995 78.7495 32.8531 78.668C33.6557 78.4534 34.4684 78.2785 35.2883 78.144Z" fill="#263238"/>
<path d="M31.3198 73.6306C31.2309 74.154 31.0869 74.6665 30.8903 75.1596C30.7503 75.6554 30.5826 76.143 30.3878 76.6199H30.3405C30.3405 76.5941 30.3663 76.5856 30.3749 76.5856C30.3835 76.5856 30.3749 76.5856 30.3749 76.6328H30.3276C30.3781 76.1172 30.4906 75.6096 30.6626 75.121C30.7938 74.5899 31.0161 74.0856 31.3198 73.6306Z" fill="#263238"/>
<path d="M32.9989 70.7661C32.5327 70.5715 32.0984 70.308 31.7104 69.9844C31.2845 69.7215 30.9008 69.3957 30.5723 69.0181C31.0297 69.2169 31.4564 69.4801 31.8393 69.7998C32.272 70.062 32.663 70.3877 32.9989 70.7661Z" fill="#263238"/>
<path d="M29.563 64.4524C29.4332 64.8785 29.2168 65.2733 28.9274 65.612C28.6949 65.9916 28.3881 66.3204 28.0255 66.5784C28.2178 66.1825 28.4603 65.8129 28.747 65.4789C28.9713 65.1014 29.2458 64.7561 29.563 64.4524Z" fill="#263238"/>
<path d="M24.3317 63.5942C24.2598 63.1116 24.2598 62.6209 24.3317 62.1383C24.337 61.6512 24.4152 61.1677 24.5636 60.7037C24.6408 61.1846 24.6408 61.6746 24.5636 62.1554C24.5624 62.6442 24.4841 63.1298 24.3317 63.5942Z" fill="#263238"/>
<path d="M22.2917 73.0593C22.1752 72.5454 22.1289 72.018 22.1542 71.4916C22.1107 70.9676 22.1396 70.4401 22.2401 69.924C22.4062 70.9613 22.4236 72.017 22.2917 73.0593Z" fill="#263238"/>
<path d="M22.0083 82.1393C21.8133 81.8608 21.6828 81.5425 21.626 81.2073C21.4991 80.8925 21.4406 80.5544 21.4542 80.2152C21.782 80.8065 21.9714 81.4643 22.0083 82.1393Z" fill="#263238"/>
<path d="M29.241 56.5121C28.9 56.9034 28.5296 57.2682 28.133 57.603C27.7895 57.9925 27.4145 58.353 27.012 58.681C27.2454 58.2065 27.5744 57.7854 27.9783 57.4441C28.3292 57.0483 28.7594 56.7308 29.241 56.5121Z" fill="#263238"/>
<path d="M26.1701 55.4853C26.0771 55.0172 26.0597 54.5373 26.1185 54.0637C26.1011 53.5866 26.1591 53.1097 26.2903 52.6506C26.3808 53.119 26.3982 53.5986 26.3419 54.0723C26.3567 54.5493 26.2988 55.0257 26.1701 55.4853Z" fill="#263238"/>
<path d="M33.6949 54.4615C32.8875 53.9734 32.1075 53.4414 31.3584 52.868C32.2623 53.1874 33.0675 53.7366 33.6949 54.4615Z" fill="#263238"/>
<path d="M32.0584 59.8224C31.9395 59.3307 31.8917 58.8245 31.9167 58.3192C31.8703 57.8154 31.8978 57.3075 31.9983 56.8116C32.1667 57.8053 32.1869 58.8185 32.0584 59.8181V59.8224Z" fill="#263238"/>
<path d="M36.4652 62.9576C35.5984 62.7851 34.7388 62.5788 33.8882 62.3392C34.7896 62.2844 35.6868 62.4998 36.4652 62.9576Z" fill="#263238"/>
<path d="M36.7656 59.762C36.6139 58.9256 36.6139 58.0687 36.7656 57.2323C36.8785 57.6431 36.9206 58.0701 36.8902 58.495C36.9239 58.9214 36.8818 59.3504 36.7656 59.762Z" fill="#263238"/>
<path d="M40.1244 65.1279C39.9876 64.6083 39.9254 64.0717 39.9397 63.5345C39.8807 63.0011 39.8951 62.462 39.9827 61.9325C40.1757 62.9862 40.2234 64.0613 40.1244 65.1279Z" fill="#263238"/>
<path d="M37.5431 66.9386C37.4958 66.9815 37.1479 66.6637 36.7657 66.2342C36.3834 65.8047 36.1086 65.4182 36.1558 65.3752C36.203 65.3323 36.5509 65.6501 36.9332 66.0839C37.3154 66.5177 37.5903 66.8999 37.5431 66.9386Z" fill="#263238"/>
<path d="M40.8073 69.4119C40.4021 69.5498 39.9769 69.6195 39.5489 69.618C39.1226 69.6925 38.6866 69.6925 38.2604 69.618C38.6629 69.4754 39.0875 69.4056 39.5145 69.4119C39.9417 69.3321 40.38 69.3321 40.8073 69.4119Z" fill="#263238"/>
<path d="M43.264 70.6674C43.0823 69.7352 43.0461 68.7804 43.1567 67.837C43.3439 68.7687 43.3801 69.7243 43.264 70.6674Z" fill="#263238"/>
<path d="M45.6863 75.3697C45.1713 75.4683 44.6423 75.4683 44.1273 75.3697C43.6037 75.3493 43.089 75.2282 42.6111 75.0133C43.1283 75.0111 43.6444 75.0571 44.153 75.1507C44.6701 75.1728 45.1837 75.2462 45.6863 75.3697Z" fill="#263238"/>
<path d="M49.8524 73.2014C49.6753 74.1768 49.3509 75.1196 48.8904 75.9974C48.9408 75.5057 49.0668 75.0248 49.264 74.5715C49.3868 74.0867 49.5854 73.6243 49.8524 73.2014Z" fill="#263238"/>
<path d="M52.8547 69.4051C51.9617 69.3115 51.0907 69.0691 50.2777 68.6879C51.1697 68.7868 52.0399 69.029 52.8547 69.4051Z" fill="#263238"/>
<path d="M55.2684 70.8429C55.0129 71.2164 54.6981 71.5458 54.3364 71.8178C54.0221 72.1435 53.6582 72.4175 53.2584 72.6296C53.5113 72.2528 53.8265 71.9216 54.1904 71.6504C54.5045 71.3256 54.8684 71.053 55.2684 70.8429Z" fill="#263238"/>
<path d="M56.2347 67.292C55.9971 66.8674 55.8508 66.3978 55.8052 65.9134C55.682 65.4393 55.6615 64.9443 55.7451 64.4617C55.882 64.923 55.9754 65.396 56.0243 65.8747C56.1387 66.3395 56.2091 66.8141 56.2347 67.292Z" fill="#263238"/>
<path d="M60.8304 66.4758C59.9469 67.3578 59.0535 68.2297 58.1503 69.0915C58.8326 68.0267 59.7493 67.132 60.8304 66.4758Z" fill="#263238"/>
<path d="M61.2856 64.8312C60.7926 64.7617 60.3131 64.6168 59.864 64.4017C59.3874 64.2617 58.9354 64.0487 58.524 63.7704C59.0153 63.8418 59.493 63.9865 59.9413 64.1999C60.4182 64.3427 60.8712 64.5555 61.2856 64.8312Z" fill="#263238"/>
<path d="M60.8476 63.0651C60.6292 62.7086 60.4764 62.3159 60.3966 61.9055C60.2463 61.5146 60.1664 61.1002 60.1604 60.6814C60.3713 61.0394 60.5168 61.432 60.5899 61.841C60.745 62.2314 60.8322 62.6454 60.8476 63.0651Z" fill="#263238"/>
<path d="M36.8043 75.4383C36.7528 75.477 36.3748 75.0518 35.9969 74.4934C35.7248 74.1763 35.5123 73.8125 35.3698 73.4197C35.6931 73.684 35.9666 74.004 36.1773 74.3646C36.4457 74.6843 36.6577 75.0474 36.8043 75.4383Z" fill="#263238"/>
<path d="M69.5491 97.0774C69.5309 97.0172 69.5194 96.9553 69.5148 96.8927C69.4976 96.7638 69.4718 96.5834 69.4375 96.3515C69.3773 95.8662 69.2828 95.1661 69.1669 94.2727C68.9221 92.4689 68.5742 89.8532 68.0545 86.6363C67.5348 83.4194 66.8433 79.6012 65.8598 75.4093C65.7591 74.883 65.5871 74.373 65.3487 73.8932C65.0787 73.4196 64.7301 72.9955 64.3179 72.639C63.443 71.9149 62.3245 71.5523 61.1911 71.6254C60.613 71.6575 60.0481 71.8112 59.5333 72.0764C59.0161 72.3681 58.5234 72.7013 58.0601 73.0728L55.1052 75.2675C51.128 78.2525 47.4043 81.1774 44.08 83.9219C40.7557 86.6664 37.8566 89.2348 35.4299 91.4123C34.2016 92.4689 32.8916 93.315 31.5645 93.4524C30.9557 93.5215 30.3393 93.4464 29.7649 93.2334C29.2871 93.0532 28.8373 92.8059 28.4292 92.4989C27.8706 92.0742 27.353 91.5983 26.883 91.0773L26.5179 90.6736C26.4733 90.6288 26.4331 90.5799 26.3976 90.5275C26.4471 90.565 26.4918 90.6082 26.5308 90.6564L26.913 91.0472C27.3963 91.5509 27.9207 92.0135 28.4807 92.4302C28.8867 92.7231 29.3301 92.96 29.7992 93.1346C30.3605 93.334 30.9604 93.4002 31.5516 93.3279C32.8401 93.1861 34.1286 92.3486 35.3312 91.292C37.7406 89.1059 40.6312 86.5075 43.9555 83.763C47.2798 81.0185 50.9949 78.0722 54.9763 75.0872L57.9312 72.8924C58.4057 72.5146 58.9098 72.1756 59.4388 71.8788C59.98 71.5995 60.5744 71.4384 61.1825 71.4064C62.3714 71.3313 63.5439 71.7139 64.4596 72.4758C64.8935 72.8487 65.2584 73.295 65.5376 73.7944C65.7837 74.2907 65.9614 74.818 66.0659 75.362C67.0409 79.5668 67.7109 83.3936 68.2134 86.6105C68.7159 89.8275 69.038 92.4517 69.2571 94.2599C69.3558 95.1575 69.4332 95.8576 69.489 96.3472C69.489 96.5791 69.5277 96.7767 69.5405 96.8927C69.5491 96.9538 69.552 97.0157 69.5491 97.0774Z" fill="#263238"/>
<path d="M74.5657 96.8366C74.4265 96.8794 74.2819 96.9026 74.1362 96.9053C73.8571 96.9354 73.4533 96.9697 72.9551 97.0041C71.9544 97.0728 70.5757 97.1458 69.051 97.2102L65.1469 97.3777L63.9615 97.4207C63.8188 97.4374 63.6747 97.4374 63.532 97.4207C63.6708 97.375 63.8154 97.349 63.9615 97.3434C64.2407 97.309 64.6444 97.2704 65.1426 97.2274C66.1433 97.1458 67.522 97.0642 69.0467 96.9955L72.9551 96.8538L74.1405 96.828C74.2821 96.8132 74.4249 96.8161 74.5657 96.8366Z" fill="#263238"/>
<path d="M63.5577 75.8175C62.5798 77.4094 61.3055 78.7989 59.8039 79.9106C59.761 79.8591 60.6629 79.0216 61.7109 77.892C62.7588 76.7624 63.4933 75.7789 63.5577 75.8175Z" fill="#263238"/>
<path d="M63.9743 77.1216C63.3952 77.5635 62.7835 77.9612 62.1447 78.3113C61.544 78.7284 60.9122 79.0989 60.2549 79.4194C60.7863 78.9149 61.3812 78.4818 62.0244 78.1309C62.6282 77.7119 63.2836 77.3726 63.9743 77.1216Z" fill="#263238"/>
<path d="M100.159 97.9442C100.072 97.9537 99.9844 97.9537 99.8973 97.9442L99.1414 97.9013L96.3926 97.6393L87.3346 96.6944C83.7955 96.325 80.6001 95.9127 78.2765 95.7967C77.1169 95.7366 76.172 95.7409 75.5234 95.7667L74.7761 95.7967C74.6877 95.8078 74.5982 95.8078 74.5098 95.7967C74.5959 95.7754 74.6835 95.7611 74.7718 95.7538C74.9393 95.728 75.2013 95.7065 75.5191 95.6765C76.4398 95.6161 77.3631 95.6032 78.2851 95.6378C80.6215 95.7151 83.8213 96.1017 87.356 96.471L96.4141 97.4718L99.1586 97.8025L99.9016 97.9013C99.9889 97.9054 100.075 97.9198 100.159 97.9442Z" fill="#00897E"/>
<path d="M99.6139 102.748C99.5538 102.748 99.7471 100.6 100.043 97.9332C100.34 95.266 100.64 93.14 100.701 93.1486C100.761 93.1572 100.567 95.2961 100.271 97.9589C99.9747 100.622 99.6741 102.752 99.6139 102.748Z" fill="#00897E"/>
</svg>
