<svg width="55" height="44" viewBox="0 0 45 44" fill="none" xmlns="http://www.w3.org/2000/svg">
    <path d="M13.63 4.29004H8.14002C7.34437 4.29004 6.5813 4.60611 6.01869 5.16872C5.45609 5.73133 5.14001 6.49439 5.14001 7.29004V12.78C5.14001 13.5757 5.45609 14.3388 6.01869 14.9014C6.5813 15.464 7.34437 15.78 8.14002 15.78H13.63C14.4257 15.78 15.1887 15.464 15.7513 14.9014C16.3139 14.3388 16.63 13.5757 16.63 12.78V7.32004C16.634 6.92356 16.5593 6.53022 16.4103 6.16277C16.2613 5.79533 16.041 5.46106 15.762 5.1793C15.483 4.89754 15.151 4.67387 14.785 4.52124C14.4191 4.3686 14.0265 4.29002 13.63 4.29004V4.29004ZM13.1 14H8.67001C8.44683 13.9988 8.22614 13.9531 8.02082 13.8655C7.8155 13.778 7.62968 13.6505 7.47421 13.4904C7.31874 13.3302 7.19673 13.1407 7.11531 12.9329C7.03389 12.7251 6.9947 12.5032 7.00001 12.28V7.85004C7.00001 7.4062 7.17563 6.9804 7.48853 6.66562C7.80144 6.35085 8.22619 6.17268 8.67001 6.17004H13.1C13.5456 6.17004 13.9729 6.34704 14.288 6.6621C14.603 6.97716 14.78 7.40448 14.78 7.85004V12.28C14.7853 12.504 14.7458 12.7268 14.6638 12.9352C14.5818 13.1437 14.4589 13.3337 14.3023 13.4939C14.1458 13.6542 13.9588 13.7815 13.7523 13.8684C13.5458 13.9554 13.324 14.0001 13.1 14Z" fill="#1565C0"/>
    <path d="M11.46 7.81006H10.32C9.39218 7.81006 8.64001 8.56222 8.64001 9.49006V10.6301C8.64001 11.5579 9.39218 12.3101 10.32 12.3101H11.46C12.3879 12.3101 13.14 11.5579 13.14 10.6301V9.49006C13.14 8.56222 12.3879 7.81006 11.46 7.81006Z" fill="#1565C0"/>
    <path d="M27.9 7.32001V12.81C27.9 13.6057 28.2161 14.3687 28.7787 14.9313C29.3413 15.4939 30.1044 15.81 30.9 15.81H36.39C37.1857 15.81 37.9487 15.4939 38.5113 14.9313C39.074 14.3687 39.39 13.6057 39.39 12.81V7.32001C39.39 6.52436 39.074 5.7613 38.5113 5.19869C37.9487 4.63608 37.1857 4.32001 36.39 4.32001H30.92C30.5244 4.31738 30.1321 4.39303 29.7658 4.54261C29.3995 4.69219 29.0665 4.91275 28.7858 5.19159C28.5051 5.47043 28.2823 5.80204 28.1303 6.16732C27.9783 6.53261 27.9 6.92436 27.9 7.32001ZM35.9 13.96H31.45C31.0045 13.96 30.5771 13.783 30.2621 13.468C29.947 13.1529 29.77 12.7256 29.77 12.28V7.85001C29.77 7.40445 29.947 6.97713 30.2621 6.66207C30.5771 6.34701 31.0045 6.17001 31.45 6.17001H35.88C36.3256 6.17001 36.7529 6.34701 37.068 6.66207C37.383 6.97713 37.56 7.40445 37.56 7.85001V12.28C37.5654 12.504 37.5258 12.7267 37.4438 12.9352C37.3618 13.1437 37.2389 13.3336 37.0823 13.4939C36.9258 13.6542 36.7388 13.7815 36.5323 13.8684C36.3258 13.9553 36.1041 14.0001 35.88 14L35.9 13.96Z" fill="#1565C0"/>
    <path d="M34.24 7.81006H33.1C32.1721 7.81006 31.42 8.56222 31.42 9.49006V10.6301C31.42 11.5579 32.1721 12.3101 33.1 12.3101H34.24C35.1678 12.3101 35.92 11.5579 35.92 10.6301V9.49006C35.92 8.56222 35.1678 7.81006 34.24 7.81006Z" fill="#1565C0"/>
    <path d="M8.14002 38.61H13.63C14.4257 38.61 15.1887 38.2939 15.7513 37.7313C16.3139 37.1687 16.63 36.4056 16.63 35.61V30.1C16.63 29.3043 16.3139 28.5413 15.7513 27.9787C15.1887 27.416 14.4257 27.1 13.63 27.1H8.14002C7.34437 27.1 6.58131 27.416 6.0187 27.9787C5.45609 28.5413 5.14002 29.3043 5.14002 30.1V35.59C5.13738 35.9856 5.21303 36.3779 5.36262 36.7442C5.5122 37.1105 5.73276 37.4435 6.0116 37.7242C6.29044 38.0049 6.62205 38.2277 6.98733 38.3797C7.35262 38.5317 7.74437 38.61 8.14002 38.61V38.61ZM8.67002 29H13.1C13.5456 29 13.9729 29.177 14.288 29.492C14.603 29.8071 14.78 30.2344 14.78 30.68V35.11C14.78 35.5555 14.603 35.9829 14.288 36.2979C13.9729 36.613 13.5456 36.79 13.1 36.79H8.67002C8.44597 36.7887 8.22443 36.7427 8.01844 36.6546C7.81245 36.5664 7.62617 36.438 7.47056 36.2768C7.31495 36.1156 7.19316 35.9249 7.11235 35.7159C7.03154 35.507 6.99335 35.2839 7.00002 35.06V30.63C7.01297 30.1949 7.19431 29.7818 7.50582 29.4777C7.81734 29.1736 8.23472 29.0024 8.67002 29V29Z" fill="#1565C0"/>
    <path d="M11.46 30.59H10.32C9.39218 30.59 8.64001 31.3421 8.64001 32.27V33.41C8.64001 34.3378 9.39218 35.09 10.32 35.09H11.46C12.3879 35.09 13.14 34.3378 13.14 33.41V32.27C13.14 31.3421 12.3879 30.59 11.46 30.59Z" fill="#1565C0"/>
    <path d="M7.03 19.77H5.12V21.68H7.03V19.77Z" fill="#1565C0"/>
    <path d="M8.94003 19.58H7.03003V21.49H8.94003V19.58Z" fill="#1565C0"/>
    <path d="M8.94003 17.91H7.03003V19.82H8.94003V17.91Z" fill="#1565C0"/>
    <path d="M10.86 19.77H8.95001V21.68H10.86V19.77Z" fill="#1565C0"/>
    <path d="M7.03 23.38H5.12V25.29H7.03V23.38Z" fill="#1565C0"/>
    <path d="M12.77 23.38H10.86V25.29H12.77V23.38Z" fill="#1565C0"/>
    <path d="M14.69 21.47H12.78V23.38H14.69V21.47Z" fill="#1565C0"/>
    <path d="M16.6 23.38H14.69V25.29H16.6V23.38Z" fill="#1565C0"/>
    <path d="M18.52 23.38H16.61V25.29H18.52V23.38Z" fill="#1565C0"/>
    <path d="M18.52 21.47H16.61V23.38H18.52V21.47Z" fill="#1565C0"/>
    <path d="M18.52 19.5601H16.61V21.4701H18.52V19.5601Z" fill="#1565C0"/>
    <path d="M18.52 17.91H16.61V19.82H18.52V17.91Z" fill="#1565C0"/>
    <path d="M20.43 17.91H18.52V19.82H20.43V17.91Z" fill="#1565C0"/>
    <path d="M12.77 19.5601H10.86V21.4701H12.77V19.5601Z" fill="#1565C0"/>
    <path d="M12.77 17.91H10.86V19.82H12.77V17.91Z" fill="#1565C0"/>
    <path d="M14.69 17.91H12.78V19.82H14.69V17.91Z" fill="#1565C0"/>
    <path d="M8.94003 23.38H7.03003V25.29H8.94003V23.38Z" fill="#1565C0"/>
    <path d="M10.86 21.47H8.95001V23.38H10.86V21.47Z" fill="#1565C0"/>
    <path d="M7.03 21.47H5.12V23.38H7.03V21.47Z" fill="#1565C0"/>
    <path d="M10.86 23.38H8.95001V25.29H10.86V23.38Z" fill="#1565C0"/>
    <path d="M20.43 25.33H18.52V27.24H20.43V25.33Z" fill="#1565C0"/>
    <path d="M22.35 25.33H20.44V27.24H22.35V25.33Z" fill="#1565C0"/>
    <path d="M22.35 23.48H20.44V25.39H22.35V23.48Z" fill="#1565C0"/>
    <path d="M20.43 21.38H18.52V23.29H20.43V21.38Z" fill="#1565C0"/>
    <path d="M24.26 19.83H22.35V21.56H24.26V19.83Z" fill="#1565C0"/>
    <path d="M22.35 19.83H20.44V21.74H22.35V19.83Z" fill="#1565C0"/>
    <path d="M22.35 21.5601H20.44V23.4701H22.35V21.5601Z" fill="#1565C0"/>
    <path d="M24.26 25.33H22.35V27.24H24.26V25.33Z" fill="#1565C0"/>
    <path d="M20.43 29.13H18.52V31.04H20.43V29.13Z" fill="#1565C0"/>
    <path d="M26.17 29.13H24.26V31.04H26.17V29.13Z" fill="#1565C0"/>
    <path d="M28.09 27.21H26.18V29.12H28.09V27.21Z" fill="#1565C0"/>
    <path d="M30 29.13H28.09V31.04H30V29.13Z" fill="#1565C0"/>
    <path d="M31.92 29.13H30.01V31.04H31.92V29.13Z" fill="#1565C0"/>
    <path d="M31.92 27.21H30.01V29.12H31.92V27.21Z" fill="#1565C0"/>
    <path d="M31.92 25.3H30.01V27.21H31.92V25.3Z" fill="#1565C0"/>
    <path d="M31.92 23.5699H30.01V25.4799H31.92V23.5699Z" fill="#1565C0"/>
    <path d="M33.83 21.65H31.92V23.56H33.83V21.65Z" fill="#1565C0"/>
    <path d="M26.17 25.3H24.26V27.21H26.17V25.3Z" fill="#1565C0"/>
    <path d="M26.17 23.48H24.26V25.39H26.17V23.48Z" fill="#1565C0"/>
    <path d="M28.09 23.48H26.18V25.39H28.09V23.48Z" fill="#1565C0"/>
    <path d="M22.35 29.13H20.44V31.04H22.35V29.13Z" fill="#1565C0"/>
    <path d="M24.26 27.21H22.35V29.12H24.26V27.21Z" fill="#1565C0"/>
    <path d="M20.43 27.21H18.52V29.12H20.43V27.21Z" fill="#1565C0"/>
    <path d="M24.26 29.13H22.35V31.04H24.26V29.13Z" fill="#1565C0"/>
    <path d="M24.19 6.27999V4.37H22.28V6.27999H24.19Z" fill="#1565C0"/>
    <path d="M26.04 8.21005V6.30005H24.13V8.21005H26.04Z" fill="#1565C0"/>
    <path d="M26.04 10.12V8.20996H24.13V10.12H26.04Z" fill="#1565C0"/>
    <path d="M20.39 12.03V10.12H18.48V12.03H20.39Z" fill="#1565C0"/>
    <path d="M22.3 12.03V10.12H20.39V12.03H22.3Z" fill="#1565C0"/>
    <path d="M20.44 16.04V14.13H18.53V16.04H20.44Z" fill="#1565C0"/>
    <path d="M20.44 17.91V16H18.53V17.91H20.44Z" fill="#1565C0"/>
    <path d="M22.35 17.91V16H20.44V17.91H22.35Z" fill="#1565C0"/>
    <path d="M24.27 17.91V16H22.36V17.91H24.27Z" fill="#1565C0"/>
    <path d="M26.18 17.91V16H24.27V17.91H26.18Z" fill="#1565C0"/>
    <path d="M26.18 19.82V17.91H24.27V19.82H26.18Z" fill="#1565C0"/>
    <path d="M28.1 19.83V17.92H26.19V19.83H28.1Z" fill="#1565C0"/>
    <path d="M28.09 21.56V19.65H26.18V21.56H28.09Z" fill="#1565C0"/>
    <path d="M28.1 23.4701V21.5601H26.19V23.4701H28.1Z" fill="#1565C0"/>
    <path d="M31.92 29.14V31.05H33.83V29.14H31.92Z" fill="#1565C0"/>
    <path d="M28.1 29.14V31.05H30.01V29.14H28.1Z" fill="#1565C0"/>
    <path d="M33.83 27.22V29.13H35.74V27.22H33.83Z" fill="#1565C0"/>
    <path d="M33.87 25.3V27.21H35.78V25.3H33.87Z" fill="#1565C0"/>
    <path d="M32.01 25.31V27.22H33.92V25.31H32.01Z" fill="#1565C0"/>
    <path d="M30.97 25.3H32.01V27.21H30.1V25.3H30.97Z" fill="#1565C0"/>
    <path d="M33.84 23.57V25.48H35.75V23.57H33.84Z" fill="#1565C0"/>
    <path d="M37.53 27.22V29.13H39.44V27.22H37.53Z" fill="#1565C0"/>
    <path d="M35.75 19.74V21.65H37.66V19.74H35.75Z" fill="#1565C0"/>
    <path d="M35.75 23.57V25.48H37.66V23.57H35.75Z" fill="#1565C0"/>
    <path d="M37.52 21.6599V23.5699H39.43V21.6599H37.52Z" fill="#1565C0"/>
    <path d="M35.75 27.22V29.13H37.66V27.22H35.75Z" fill="#1565C0"/>
    <path d="M37.53 23.57V25.48H39.44V23.57H37.53Z" fill="#1565C0"/>
    <path d="M37.52 19.75V21.66H39.43V19.75H37.52Z" fill="#1565C0"/>
    <path d="M35.75 17.83V19.74H37.66V17.83H35.75Z" fill="#1565C0"/>
    <path d="M33.83 17.83V19.74H35.74V17.83H33.83Z" fill="#1565C0"/>
    <path d="M31.92 17.83V19.74H33.83V17.83H31.92Z" fill="#1565C0"/>
    <path d="M30.01 23.56V21.65H28.1V23.56H30.01Z" fill="#1565C0"/>
    <path d="M20.43 32.89H18.52V34.8H20.43V32.89Z" fill="#1565C0"/>
    <path d="M22.35 36.6899H20.44V38.5999H22.35V36.6899Z" fill="#1565C0"/>
    <path d="M24.26 34.78H22.35V36.69H24.26V34.78Z" fill="#1565C0"/>
    <path d="M26.17 36.6899H24.26V38.5999H26.17V36.6899Z" fill="#1565C0"/>
    <path d="M28.09 36.6899H26.18V38.5999H28.09V36.6899Z" fill="#1565C0"/>
    <path d="M28.09 34.78H26.18V36.69H28.09V34.78Z" fill="#1565C0"/>
    <path d="M28.09 32.87H26.18V34.78H28.09V32.87Z" fill="#1565C0"/>
    <path d="M22.35 32.87H20.44V34.78H22.35V32.87Z" fill="#1565C0"/>
    <path d="M22.35 31.04H20.44V32.95H22.35V31.04Z" fill="#1565C0"/>
    <path d="M24.26 31.04H22.35V32.95H24.26V31.04Z" fill="#1565C0"/>
    <path d="M20.43 34.78H18.52V36.69H20.43V34.78Z" fill="#1565C0"/>
    <path d="M20.43 36.6899H18.52V38.5999H20.43V36.6899Z" fill="#1565C0"/>
    <path d="M24.26 31.04V29.13H22.35V31.04H24.26Z" fill="#1565C0"/>
    <path d="M28.09 36.7V38.61H30V36.7H28.09Z" fill="#1565C0"/>
    <path d="M26.17 36.7V38.61H28.08V36.7H26.17Z" fill="#1565C0"/>
    <path d="M24.26 36.7V38.61H26.17V36.7H24.26Z" fill="#1565C0"/>
    <path d="M30.03 34.79V36.7H31.94V34.79H30.03Z" fill="#1565C0"/>
    <path d="M31.92 36.7V38.61H33.83V36.7H31.92Z" fill="#1565C0"/>
    <path d="M33.84 34.7799V36.6899H35.75V34.7799H33.84Z" fill="#1565C0"/>
    <path d="M35.75 36.7V38.61H37.66V36.7H35.75Z" fill="#1565C0"/>
    <path d="M37.52 36.7V38.61H39.43V36.7H37.52Z" fill="#1565C0"/>
    <path d="M37.52 34.79V36.7H39.43V34.79H37.52Z" fill="#1565C0"/>
    <path d="M37.53 32.87V34.78H39.44V32.87H37.53Z" fill="#1565C0"/>
    <path d="M35.76 32.87V34.78H37.67V32.87H35.76Z" fill="#1565C0"/>
    <path d="M37.52 29.14V31.05H39.43V29.14H37.52Z" fill="#1565C0"/>
    <path d="M35.75 30.96V32.87H37.66V30.96H35.75Z" fill="#1565C0"/>
    <path d="M35.75 34.79V36.7H37.66V34.79H35.75Z" fill="#1565C0"/>
    <path d="M30.04 32.87V34.78H31.95V32.87H30.04Z" fill="#1565C0"/>
    <path d="M31.92 31.05V32.96H33.83V31.05H31.92Z" fill="#1565C0"/>
    <path d="M28.19 32.88V34.79H30.1V32.88H28.19Z" fill="#1565C0"/>
    <path d="M26.27 34.79V36.7H28.18V34.79H26.27Z" fill="#1565C0"/>
    <path d="M26.27 32.87V34.78H28.18V32.87H26.27Z" fill="#1565C0"/>
    <path d="M26.18 31.12V29.21H24.27V31.12H26.18Z" fill="#1565C0"/>
    <path d="M30.01 21.64V19.73H28.1V21.64H30.01Z" fill="#1565C0"/>
    <path d="M31.92 21.65V19.74H30.01V21.65H31.92Z" fill="#1565C0"/>
    <path d="M26.05 6.29001V4.38H24.14V6.29001H26.05Z" fill="#1565C0"/>
    <path d="M26.04 13.95V12.04H24.13V13.95H26.04Z" fill="#1565C0"/>
    <path d="M20.39 8.20004V6.29004H18.48V8.20004H20.39Z" fill="#1565C0"/>
    <path d="M22.3 10.12V8.20996H20.39V10.12H22.3Z" fill="#1565C0"/>
    <path d="M22.3 6.29V4.38H20.39V6.29H22.3Z" fill="#1565C0"/>
</svg>
