<svg width="31" height="34" viewBox="0 0 31 34" fill="none" xmlns="http://www.w3.org/2000/svg">
    <path d="M19.9166 0.333252H14.0833C13.1609 0.33328 12.2709 0.673264 11.5834 1.2882C10.8959 1.90315 10.4591 2.7499 10.3566 3.66659H7.41665C6.42209 3.66659 5.46826 4.06167 4.765 4.76494C4.06174 5.4682 3.66665 6.42202 3.66665 7.41659V13.8333C5.43181 12.9312 7.44182 12.6256 9.39531 12.9624C11.3488 13.2992 13.1405 14.2601 14.5017 15.7011C15.8629 17.1422 16.7204 18.9856 16.9454 20.9551C17.1705 22.9246 16.751 24.914 15.75 26.6249L19.4783 30.3549C19.9041 30.7802 20.1879 31.3267 20.2908 31.9196C20.3938 32.5125 20.3108 33.1227 20.0533 33.6666H26.5833C27.0758 33.6666 27.5634 33.5696 28.0184 33.3811C28.4733 33.1927 28.8867 32.9165 29.235 32.5682C29.5832 32.22 29.8594 31.8066 30.0479 31.3517C30.2363 30.8967 30.3333 30.409 30.3333 29.9166V7.41659C30.3333 6.92413 30.2363 6.43649 30.0479 5.98152C29.8594 5.52655 29.5832 5.11316 29.235 4.76494C28.8867 4.41672 28.4733 4.14049 28.0184 3.95204C27.5634 3.76358 27.0758 3.66659 26.5833 3.66659H23.6433C23.5408 2.7499 23.1041 1.90315 22.4166 1.2882C21.7291 0.673264 20.839 0.33328 19.9166 0.333252V0.333252ZM14.0833 2.83325H19.9166C20.2482 2.83325 20.5661 2.96495 20.8005 3.19937C21.035 3.43379 21.1666 3.75173 21.1666 4.08325C21.1666 4.41477 21.035 4.73272 20.8005 4.96714C20.5661 5.20156 20.2482 5.33325 19.9166 5.33325H14.0833C13.7518 5.33325 13.4339 5.20156 13.1994 4.96714C12.965 4.73272 12.8333 4.41477 12.8333 4.08325C12.8333 3.75173 12.965 3.43379 13.1994 3.19937C13.4339 2.96495 13.7518 2.83325 14.0833 2.83325ZM13.5833 26.8166C14.7902 25.3748 15.4115 23.5324 15.3242 21.6542C15.2369 19.776 14.4473 17.9991 13.1119 16.6755C11.7764 15.352 9.99254 14.5783 8.11364 14.5077C6.23475 14.4372 4.3979 15.075 2.96698 16.2947C1.53606 17.5144 0.615474 19.2271 0.387588 21.0934C0.159701 22.9598 0.641141 24.8437 1.73653 26.3719C2.83192 27.9 4.46135 28.9611 6.30202 29.3447C8.14268 29.7283 10.0603 29.4066 11.675 28.4433L16.5333 33.2999C16.6478 33.4227 16.7858 33.5212 16.9391 33.5896C17.0924 33.6579 17.2579 33.6946 17.4258 33.6976C17.5936 33.7005 17.7603 33.6697 17.916 33.6068C18.0716 33.5439 18.213 33.4503 18.3317 33.3317C18.4504 33.213 18.544 33.0716 18.6069 32.9159C18.6697 32.7603 18.7006 32.5936 18.6976 32.4257C18.6947 32.2579 18.6579 32.0924 18.5896 31.939C18.5213 31.7857 18.4228 31.6477 18.3 31.5333L13.5833 26.8166ZM7.83332 26.9999C6.50723 26.9999 5.23546 26.4731 4.29778 25.5355C3.3601 24.5978 2.83332 23.326 2.83332 21.9999C2.83332 20.6738 3.3601 19.4021 4.29778 18.4644C5.23546 17.5267 6.50723 16.9999 7.83332 16.9999C9.1594 16.9999 10.4312 17.5267 11.3688 18.4644C12.3065 19.4021 12.8333 20.6738 12.8333 21.9999C12.8333 23.326 12.3065 24.5978 11.3688 25.5355C10.4312 26.4731 9.1594 26.9999 7.83332 26.9999Z" fill="#0E5FD9"/>
</svg>
