<svg width="51" height="52" viewBox="0 0 51 52" fill="none" xmlns="http://www.w3.org/2000/svg">
    <path d="M27.0001 42.61H24.8901C24.5323 42.6086 24.1802 42.7 23.8683 42.8753C23.5563 43.0505 23.2951 43.3037 23.1101 43.61H14.5501C14.1422 43.6113 13.738 43.5321 13.3607 43.3769C12.9835 43.2217 12.6405 42.9935 12.3516 42.7056C12.0627 42.4176 11.8335 42.0754 11.677 41.6986C11.5206 41.3218 11.4401 40.9179 11.4401 40.51C11.4401 40.2355 11.3311 39.9722 11.137 39.7781C10.9429 39.584 10.6796 39.475 10.4051 39.475C10.1306 39.475 9.86736 39.584 9.67326 39.7781C9.47916 39.9722 9.37012 40.2355 9.37012 40.51C9.37277 41.8821 9.91968 43.1971 10.8908 44.1663C11.862 45.1356 13.178 45.68 14.5501 45.68H23.1101C23.2943 45.987 23.5554 46.2407 23.8675 46.416C24.1797 46.5914 24.5321 46.6823 24.8901 46.68H27.0001C27.5491 46.68 28.0756 46.4619 28.4638 46.0737C28.852 45.6855 29.0701 45.159 29.0701 44.61C29.0701 44.061 28.852 43.5345 28.4638 43.1463C28.0756 42.7581 27.5491 42.54 27.0001 42.54V42.61Z" fill="#1565C0"/>
    <path d="M44.5499 30.77H44.2499V22.13C44.3028 20.0303 43.935 17.9412 43.168 15.9858C42.4011 14.0305 41.2505 12.2484 39.7842 10.7446C38.3178 9.24077 36.5653 8.04567 34.6299 7.22967C32.6945 6.41367 30.6153 5.99329 28.5149 5.99329C26.4145 5.99329 24.3354 6.41367 22.4 7.22967C20.4646 8.04567 18.712 9.24077 17.2457 10.7446C15.7793 12.2484 14.6287 14.0305 13.8618 15.9858C13.0948 17.9412 12.727 20.0303 12.7799 22.13V30.77H12.4799C12.2081 30.77 11.9389 30.8235 11.6878 30.9276C11.4366 31.0316 11.2084 31.1841 11.0162 31.3763C10.824 31.5685 10.6715 31.7967 10.5675 32.0478C10.4635 32.299 10.4099 32.5682 10.4099 32.84V36C10.4281 36.5368 10.6542 37.0455 11.0404 37.4187C11.4267 37.7918 11.9428 38.0003 12.4799 38H13.4799V39C13.4799 39.549 13.698 40.0755 14.0862 40.4637C14.4744 40.8519 15.0009 41.07 15.5499 41.07H19.6899C20.2389 41.07 20.7654 40.8519 21.1536 40.4637C21.5418 40.0755 21.7599 39.549 21.7599 39V29.74C21.7599 29.191 21.5418 28.6645 21.1536 28.2763C20.7654 27.8881 20.2389 27.67 19.6899 27.67H16.8899V22.13C16.8443 20.5787 17.1106 19.034 17.6728 17.5874C18.235 16.1408 19.0817 14.8217 20.1629 13.7083C21.2441 12.5949 22.5378 11.7097 23.9672 11.1053C25.3967 10.5009 26.9329 10.1894 28.4849 10.1894C30.0369 10.1894 31.5731 10.5009 33.0026 11.1053C34.432 11.7097 35.7257 12.5949 36.8069 13.7083C37.8881 14.8217 38.7349 16.1408 39.2971 17.5874C39.8593 19.034 40.1255 20.5787 40.0799 22.13V27.67H37.2799C36.7309 27.67 36.2044 27.8881 35.8162 28.2763C35.428 28.6645 35.2099 29.191 35.2099 29.74V39.05C35.2099 39.599 35.428 40.1255 35.8162 40.5137C36.2044 40.9019 36.7309 41.12 37.2799 41.12H41.4199C41.9689 41.12 42.4954 40.9019 42.8836 40.5137C43.2718 40.1255 43.4899 39.599 43.4899 39.05V38H44.4899C45.0373 38.0162 45.5688 37.8148 45.968 37.4399C46.3672 37.0651 46.6016 36.5473 46.6199 36V32.84C46.6199 32.291 46.4018 31.7645 46.0136 31.3763C45.6254 30.9881 45.0989 30.77 44.5499 30.77Z" fill="#1565C0"/>
</svg>
