<svg width="39" height="44" viewBox="0 0 39 44" fill="none" xmlns="http://www.w3.org/2000/svg">
    <path d="M10.1001 23.3802C10.1001 25.2868 10.6655 27.1506 11.7247 28.7359C12.784 30.3212 14.2895 31.5568 16.051 32.2864C17.8125 33.0161 19.7508 33.207 21.6208 32.835C23.4907 32.463 25.2084 31.5449 26.5566 30.1967C27.9048 28.8486 28.8229 27.1309 29.1949 25.2609C29.5668 23.3909 29.3759 21.4526 28.6463 19.6912C27.9167 17.9297 26.6811 16.4241 25.0958 15.3649C23.5105 14.3056 21.6467 13.7402 19.7401 13.7402C17.1842 13.7429 14.7338 14.7594 12.9265 16.5666C11.1192 18.3739 10.1027 20.8244 10.1001 23.3802V23.3802ZM26.4501 22.7902C26.5677 24.1184 26.2887 25.4517 25.6484 26.6213C25.0081 27.7909 24.0353 28.7443 22.853 29.3608C21.6707 29.9774 20.3321 30.2294 19.0065 30.0851C17.681 29.9407 16.428 29.4064 15.4062 28.5497C14.3844 27.6931 13.6396 26.5526 13.2662 25.2726C12.8927 23.9926 12.9073 22.6305 13.308 21.3588C13.7088 20.087 14.4778 18.9628 15.5177 18.1282C16.5577 17.2936 17.8218 16.7862 19.1501 16.6702C20.9295 16.5149 22.6977 17.0721 24.0665 18.2197C25.4353 19.3672 26.2926 21.0111 26.4501 22.7902V22.7902Z" fill="#1565C0"/>
    <path d="M33 28.7101L34.59 28.6401C34.7704 28.6172 34.9412 28.5455 35.0839 28.4327C35.2267 28.3199 35.3359 28.1704 35.4 28.0001L35.92 25.4701C35.9448 25.2715 35.9094 25.0701 35.8185 24.8918C35.7276 24.7135 35.5853 24.5666 35.41 24.4701L34 23.7901C33.8219 23.6887 33.6726 23.5437 33.5659 23.3688C33.4592 23.1939 33.3987 22.9948 33.39 22.7901C33.39 22.7901 33.39 22.6001 33.39 22.1701V22.0201C33.39 21.8501 33.6 21.5601 33.92 21.3601L35.27 20.5101C35.4251 20.399 35.5452 20.2457 35.6161 20.0686C35.687 19.8914 35.7057 19.6976 35.67 19.5101L34.87 17.0701C34.7889 16.895 34.659 16.747 34.4957 16.6441C34.3325 16.5412 34.1429 16.4877 33.95 16.4901L32.35 16.6001C32.1588 16.6162 31.9667 16.5833 31.7917 16.5045C31.6168 16.4258 31.4647 16.3038 31.35 16.1501C31.19 15.8801 30.84 14.9201 31.02 14.5901L31.76 13.1801C31.8387 13.0052 31.8655 12.8113 31.8372 12.6216C31.8088 12.4319 31.7265 12.2543 31.6 12.1101L29.62 10.4001C29.4578 10.2947 29.2684 10.2385 29.075 10.2385C28.8815 10.2385 28.6922 10.2947 28.53 10.4001L27.21 11.2901C27.0543 11.3951 26.8747 11.4593 26.6877 11.4768C26.5008 11.4943 26.3124 11.4645 26.14 11.3901C25.86 11.2401 25.08 10.5801 25.06 10.2101L25 8.5701C24.9808 8.37788 24.9064 8.19531 24.7858 8.04447C24.6651 7.89363 24.5033 7.78096 24.32 7.7201L21.8 7.2001C21.6014 7.17529 21.3999 7.21063 21.2217 7.30155C21.0434 7.39247 20.8965 7.53479 20.8 7.7101L20.11 9.1401C20.0091 9.31937 19.8645 9.47022 19.6896 9.57862C19.5148 9.68702 19.3154 9.74945 19.11 9.7601C19.11 9.7601 18.92 9.7601 18.49 9.7601H18.4C18.24 9.7601 17.95 9.5401 17.75 9.2301L16.9 7.9301C16.7888 7.77495 16.6356 7.65485 16.4584 7.58397C16.2812 7.51309 16.0874 7.4944 15.9 7.5301L13.45 8.3301C13.2767 8.41259 13.1308 8.54319 13.0297 8.70633C12.9287 8.86946 12.8767 9.05822 12.88 9.2501L12.99 10.8501C13.009 11.0416 12.9774 11.2347 12.8985 11.4102C12.8195 11.5856 12.6959 11.7373 12.54 11.8501C12.27 12.0201 11.31 12.3701 10.98 12.1901L9.56996 11.4501C9.3938 11.3692 9.19794 11.3413 9.0062 11.3697C8.81446 11.3981 8.63511 11.4816 8.48996 11.6101L6.75996 13.5001C6.65452 13.6623 6.5984 13.8516 6.5984 14.0451C6.5984 14.2386 6.65452 14.4279 6.75996 14.5901L7.64996 15.9101C7.75211 16.0716 7.81125 16.2565 7.82175 16.4473C7.83225 16.6381 7.79377 16.8284 7.70996 17.0001C7.55996 17.2801 6.89996 18.0601 6.52996 18.0701L4.92996 18.1401C4.73893 18.1584 4.55721 18.2314 4.40649 18.3502C4.25577 18.469 4.14242 18.6286 4.07996 18.8101L3.55996 21.3401C3.53515 21.5387 3.57049 21.7401 3.66141 21.9184C3.75233 22.0967 3.89465 22.2436 4.06996 22.3401L5.49996 23.0001C5.68048 23.0995 5.83234 23.2437 5.94094 23.4189C6.04953 23.594 6.11118 23.7942 6.11996 24.0001C6.11996 24.0001 6.11996 24.1901 6.11996 24.6201V24.7701C6.11996 24.9401 5.89996 25.2301 5.58996 25.4301L4.23996 26.2801C4.08482 26.3912 3.96471 26.5445 3.89383 26.7216C3.82296 26.8988 3.80426 27.0926 3.83996 27.2801L4.63996 29.7201C4.721 29.8952 4.85098 30.0432 5.01422 30.1461C5.17747 30.249 5.367 30.3025 5.55996 30.3001L7.14996 30.1801C7.34062 30.1686 7.53123 30.2035 7.70541 30.2819C7.87959 30.3603 8.03215 30.4798 8.14996 30.6301C8.31996 30.9101 8.65996 31.8701 8.48996 32.2001L7.74996 33.6101C7.67119 33.785 7.6444 33.9789 7.67277 34.1686C7.70114 34.3583 7.78347 34.5359 7.90996 34.6801L9.82996 36.4001C9.99218 36.5055 10.1815 36.5617 10.375 36.5617C10.5684 36.5617 10.7578 36.5055 10.92 36.4001L12.24 35.5001C12.3965 35.3967 12.5765 35.3342 12.7635 35.3185C12.9504 35.3028 13.1383 35.3343 13.31 35.4101C13.59 35.5601 14.37 36.2201 14.38 36.5901L14.44 38.1901C14.4591 38.3823 14.5335 38.5649 14.6542 38.7157C14.7748 38.8666 14.9366 38.9792 15.12 39.0401L17.64 39.5601C17.8385 39.5849 18.04 39.5496 18.2183 39.4586C18.3966 39.3677 18.5434 39.2254 18.64 39.0501L19.34 37.6201C19.4378 37.4383 19.5817 37.2854 19.7572 37.1766C19.9327 37.0678 20.1336 37.0069 20.34 37.0001C20.34 37.0001 20.53 37.0001 20.96 37.0001H21.11C21.27 37.0001 21.57 37.2201 21.77 37.5301L22.62 38.8801C22.7311 39.0352 22.8843 39.1553 23.0615 39.2262C23.2387 39.2971 23.4325 39.3158 23.62 39.2801L26.07 38.4801C26.2451 38.3991 26.3931 38.2691 26.496 38.1058C26.5989 37.9426 26.6524 37.7531 26.65 37.5601L26.53 35.9601C26.5158 35.7691 26.5495 35.5776 26.6281 35.403C26.7067 35.2284 26.8276 35.0761 26.98 34.9601C27.26 34.7901 28.22 34.4501 28.54 34.6201L29.96 35.3601C30.1329 35.4301 30.3219 35.4503 30.5056 35.4185C30.6894 35.3867 30.8606 35.3041 31 35.1801L32.72 33.2601C32.8254 33.0979 32.8815 32.9086 32.8815 32.7151C32.8815 32.5216 32.8254 32.3323 32.72 32.1701L31.82 30.8501C31.7198 30.6924 31.6585 30.5132 31.6411 30.3271C31.6237 30.1411 31.6507 29.9536 31.72 29.7801C31.92 29.5001 32.58 28.7201 33 28.7101ZM19.74 34.3601C17.5644 34.3601 15.4376 33.715 13.6287 32.5063C11.8198 31.2976 10.4099 29.5796 9.57729 27.5696C8.74472 25.5596 8.52689 23.3479 8.95132 21.2141C9.37576 19.0803 10.4234 17.1203 11.9618 15.5819C13.5002 14.0435 15.4602 12.9959 17.594 12.5715C19.7278 12.147 21.9395 12.3649 23.9495 13.1974C25.9595 14.03 27.6774 15.4399 28.8861 17.2488C30.0948 19.0578 30.74 21.1845 30.74 23.3601C30.74 26.2775 29.581 29.0754 27.5181 31.1383C25.4552 33.2012 22.6573 34.3601 19.74 34.3601Z" fill="#1565C0"/>
</svg>
