<svg width="32" height="32" viewBox="0 0 32 32" fill="none" xmlns="http://www.w3.org/2000/svg">
    <path d="M16.8801 15.53L7.00007 5.66001C6.80876 5.49619 6.56269 5.41058 6.31101 5.4203C6.05934 5.43002 5.8206 5.53436 5.6425 5.71245C5.46441 5.89054 5.36008 6.12928 5.35036 6.38096C5.34063 6.63264 5.42624 6.87871 5.59007 7.07001L14.6501 16.13L5.85007 24.93C5.66382 25.1174 5.55927 25.3708 5.55927 25.635C5.55927 25.8992 5.66382 26.1527 5.85007 26.34V26.34C5.94303 26.4337 6.05363 26.5081 6.17549 26.5589C6.29735 26.6097 6.42805 26.6358 6.56007 26.6358C6.69208 26.6358 6.82278 26.6097 6.94464 26.5589C7.0665 26.5081 7.1771 26.4337 7.27007 26.34L16.8801 16.73C17.0388 16.5707 17.128 16.3549 17.128 16.13C17.128 15.9051 17.0388 15.6893 16.8801 15.53V15.53Z" fill="#1565C0"/>
    <path d="M26.4601 15.53L16.5801 5.66001C16.3888 5.49619 16.1428 5.41058 15.8911 5.4203C15.6394 5.43002 15.4007 5.53436 15.2226 5.71245C15.0445 5.89054 14.9402 6.12928 14.9304 6.38096C14.9207 6.63264 15.0063 6.87871 15.1701 7.07001L24.2301 16.13L15.4301 24.93C15.2439 25.1174 15.1394 25.3708 15.1394 25.635C15.1394 25.8992 15.2439 26.1527 15.4301 26.34C15.6175 26.5263 15.871 26.6308 16.1351 26.6308C16.3993 26.6308 16.6528 26.5263 16.8401 26.34L26.4601 16.73C26.6189 16.5707 26.7081 16.3549 26.7081 16.13C26.7081 15.9051 26.6189 15.6893 26.4601 15.53V15.53Z" fill="#1565C0"/>
</svg>
