<svg width="42" height="39" viewBox="0 0 42 39" fill="none" xmlns="http://www.w3.org/2000/svg">
    <path d="M10.8501 19.3398L10.3501 19.3598L10.8501 19.3398Z" fill="#1565C0"/>
    <path d="M13 27.3202C10.9226 25.3041 9.64401 22.6049 9.40003 19.7202L6.40003 20.0602H6.32003C6.08003 20.0602 5.78003 20.0602 5.47003 20.1202H5.28003C5.58506 23.1849 6.73567 26.1046 8.60346 28.5534C10.4712 31.0023 12.9827 32.8839 15.8577 33.9885C18.7327 35.0931 21.858 35.377 24.885 34.8088C27.9119 34.2405 30.7214 32.8423 33 30.7702L30.08 27.8402C27.6978 29.9354 24.6085 31.0473 21.4374 30.9508C18.2663 30.8542 15.2504 29.5565 13 27.3202V27.3202Z" fill="#1565C0"/>
    <path d="M21.6899 2.00012C19.5066 1.99181 17.3432 2.41613 15.3247 3.24857C13.3062 4.08102 11.4727 5.3051 9.92993 6.85012C9.55993 7.22012 9.21993 7.61012 8.92993 8.00012L11.8299 11.0001C12.139 10.5868 12.4729 10.1928 12.8299 9.82012C14.5567 8.08862 16.7538 6.90209 19.1486 6.40771C21.5435 5.91332 24.0308 6.13283 26.3021 7.039C28.5734 7.94516 30.5287 9.49813 31.9256 11.5053C33.3224 13.5125 34.0993 15.8855 34.1599 18.3301L38.2699 17.6701C38.0251 13.4367 36.1724 9.45665 33.0905 6.54392C30.0086 3.63119 25.9304 2.0058 21.6899 2.00012V2.00012Z" fill="#1565C0"/>
    <path d="M5.84988 4.97021L4.12988 16.6102L15.7399 14.8602L11.8299 10.9502L8.88988 8.01022L5.84988 4.97021Z" fill="#1565C0"/>
    <path d="M30.1099 27.8402L33.0299 30.7702L36.0299 33.7602L37.7799 22.1602L26.1399 23.8802L30.1099 27.8402Z" fill="#1565C0"/>
</svg>
