<svg width="27" height="30" viewBox="0 0 27 30" fill="none" xmlns="http://www.w3.org/2000/svg">
    <g clip-path="url(#clip0_41_2)">
        <path d="M22.2797 3.22998H6.22973C4.01506 3.22998 2.21973 5.02532 2.21973 7.23998V23.29C2.21973 25.5046 4.01506 27.3 6.22973 27.3H22.2797C24.4944 27.3 26.2897 25.5046 26.2897 23.29V7.23998C26.2897 5.02532 24.4944 3.22998 22.2797 3.22998Z" fill="#1565C0"/>
        <g style="mix-blend-mode:screen">
            <path d="M2.62 23.6898V7.68981C2.62 6.62894 3.04143 5.61152 3.79157 4.86138C4.54172 4.11123 5.55913 3.6898 6.62 3.6898H22.62C23.5888 3.69363 24.5234 4.04896 25.25 4.6898C24.8779 4.25766 24.4178 3.91006 23.9003 3.67033C23.3829 3.43059 22.8202 3.30426 22.25 3.2998H6.25C5.18913 3.2998 4.17172 3.72123 3.42157 4.47138C2.67143 5.22152 2.25 6.23894 2.25 7.2998V23.2998C2.25321 23.8693 2.37799 24.4315 2.61597 24.9489C2.85396 25.4662 3.19968 25.9268 3.63 26.2998C2.99004 25.5798 2.63141 24.653 2.62 23.6898V23.6898Z" fill="#1565C0"/>
        </g>
        <path d="M6.99963 10.1601C6.91471 10.8441 6.91471 11.5361 6.99963 12.2201C7.04308 12.4194 7.10675 12.6137 7.18963 12.8001C7.26461 13.0021 7.41522 13.1671 7.60963 13.2601C7.69561 13.2943 7.76928 13.3536 7.82101 13.4303C7.87275 13.507 7.90015 13.5976 7.89963 13.6901C7.96248 14.1192 8.1119 14.5311 8.33881 14.9007C8.56572 15.2703 8.8654 15.5899 9.21963 15.8401C9.25457 15.8675 9.28192 15.9034 9.29906 15.9443C9.3162 15.9853 9.32256 16.03 9.31755 16.0741C9.31254 16.1182 9.29631 16.1603 9.27042 16.1963C9.24453 16.2324 9.20983 16.2612 9.16963 16.2801C8.9768 16.354 8.8051 16.4742 8.66963 16.6301C8.63435 16.6776 8.58696 16.7147 8.53243 16.7375C8.47789 16.7604 8.41821 16.7682 8.35963 16.7601C7.69991 16.7803 7.06141 16.9979 6.52663 17.3847C5.99184 17.7715 5.58533 18.3099 5.35963 18.9301C5.25653 19.2329 5.20251 19.5502 5.19963 19.8701V23.5401C5.19386 23.6248 5.20612 23.7097 5.2356 23.7893C5.26508 23.8689 5.31111 23.9413 5.37065 24.0018C5.43019 24.0623 5.50189 24.1095 5.58101 24.1402C5.66013 24.1709 5.74487 24.1845 5.82963 24.1801H16.4196C16.5043 24.1859 16.5893 24.1736 16.6689 24.1441C16.7484 24.1147 16.8209 24.0686 16.8814 24.0091C16.9419 23.9495 16.989 23.8778 17.0197 23.7987C17.0505 23.7196 17.0641 23.6349 17.0596 23.5501V23.1301L17.4396 23.2701C17.464 23.279 17.4858 23.2936 17.5032 23.3128C17.5206 23.3319 17.5331 23.355 17.5396 23.3801C17.5896 23.5201 17.6496 23.6701 17.7096 23.8101C17.7428 23.9038 17.8016 23.9864 17.8794 24.0483C17.9572 24.1101 18.0508 24.1489 18.1496 24.1601C18.4088 24.1901 18.6705 24.1901 18.9296 24.1601C19.0309 24.157 19.1284 24.1212 19.2077 24.0581C19.287 23.9951 19.3438 23.9081 19.3696 23.8101C19.4133 23.6378 19.5021 23.4803 19.6269 23.3537C19.7517 23.2272 19.908 23.1362 20.0796 23.0901C20.1598 23.048 20.2491 23.0261 20.3396 23.0261C20.4302 23.0261 20.5194 23.048 20.5996 23.0901L20.8496 23.2001C20.9474 23.2409 21.0547 23.2532 21.1591 23.2355C21.2635 23.2178 21.3608 23.1709 21.4396 23.1001C21.6209 22.9488 21.7883 22.7814 21.9396 22.6001C22.0121 22.5195 22.057 22.4178 22.0678 22.3099C22.0786 22.202 22.0547 22.0935 21.9996 22.0001C21.9119 21.8481 21.8657 21.6756 21.8657 21.5001C21.8657 21.3246 21.9119 21.1521 21.9996 21.0001C22.0896 20.8301 22.1596 20.7001 22.3496 20.6501C22.4861 20.6246 22.6145 20.5668 22.7241 20.4816C22.8337 20.3964 22.9213 20.2861 22.9796 20.1601V19.3301C22.9753 19.2014 22.9274 19.0779 22.8439 18.9798C22.7603 18.8818 22.646 18.8149 22.5196 18.7901L22.3396 18.7201C22.1896 18.6701 22.1296 18.5701 22.0496 18.4301C21.9619 18.2781 21.9157 18.1056 21.9157 17.9301C21.9157 17.7546 21.9619 17.5821 22.0496 17.4301C22.1056 17.3182 22.1232 17.191 22.0997 17.0681C22.0762 16.9452 22.0129 16.8335 21.9196 16.7501L21.4796 16.3201C21.3927 16.2389 21.2843 16.1844 21.1673 16.1631C21.0502 16.1419 20.9296 16.1547 20.8196 16.2001L20.6296 16.2801C20.5376 16.3244 20.4368 16.3474 20.3346 16.3474C20.2325 16.3474 20.1317 16.3244 20.0396 16.2801C19.8915 16.2413 19.7567 16.1632 19.6493 16.054C19.542 15.9449 19.4661 15.8088 19.4296 15.6601C19.3893 15.5239 19.3041 15.4054 19.188 15.3237C19.0718 15.242 18.9314 15.202 18.7896 15.2101H18.3596C18.1954 15.1897 18.0294 15.2289 17.8917 15.3207C17.754 15.4125 17.6539 15.5507 17.6096 15.7101L17.5496 15.8701C17.5249 15.9431 17.4843 16.0096 17.4306 16.065C17.377 16.1203 17.3118 16.1631 17.2396 16.1901C17.0876 16.2779 16.9152 16.3241 16.7396 16.3241C16.5641 16.3241 16.3917 16.2779 16.2396 16.1901C16.1304 16.1374 16.007 16.1215 15.8879 16.145C15.7689 16.1684 15.6607 16.2299 15.5796 16.3201C15.4196 16.4801 15.2396 16.6401 15.0996 16.8101C15.0749 16.8488 15.0369 16.8773 14.9928 16.8901C14.9486 16.903 14.9013 16.8994 14.8596 16.8801C14.5402 16.7603 14.2007 16.7026 13.8596 16.7101C13.8085 16.7117 13.7577 16.7017 13.7109 16.681C13.6642 16.6602 13.6227 16.6291 13.5896 16.5901C13.4535 16.4508 13.2945 16.3358 13.1196 16.2501C12.8996 16.1501 12.8896 15.9801 13.1196 15.8301C13.4749 15.5625 13.773 15.2264 13.9963 14.8417C14.2196 14.4569 14.3635 14.0314 14.4196 13.5901C14.424 13.5386 14.4421 13.4891 14.472 13.4469C14.5018 13.4048 14.5425 13.3713 14.5896 13.3501C14.8262 13.2262 15.0132 13.025 15.1196 12.7801C15.2209 12.5651 15.2883 12.3357 15.3196 12.1001C15.3996 11.4158 15.3996 10.7244 15.3196 10.0401C15.2443 9.3423 14.9915 8.67543 14.5854 8.10301C14.1793 7.53059 13.6334 7.07171 12.9996 6.7701C12.5387 6.52517 12.0306 6.38195 11.5096 6.3501H10.7096L10.1296 6.4901C9.28987 6.69809 8.53635 7.16393 7.97495 7.82218C7.41355 8.48044 7.07248 9.29803 6.99963 10.1601V10.1601ZM9.29963 16.8901C9.31483 16.8653 9.33614 16.8448 9.36152 16.8305C9.38691 16.8163 9.41553 16.8088 9.44463 16.8088C9.47374 16.8088 9.50235 16.8163 9.52774 16.8305C9.55313 16.8448 9.57444 16.8653 9.58963 16.8901C9.74615 17.0965 9.94801 17.2641 10.1796 17.3801C9.90683 17.5304 9.67638 17.747 9.50963 18.0101C9.2559 17.7939 9.09189 17.4908 9.04963 17.1601C8.99963 17.0001 9.18963 17.0001 9.29963 16.8901ZM11.1396 17.1201C10.9539 17.1231 10.7694 17.0884 10.5975 17.0179C10.4256 16.9474 10.2698 16.8427 10.1396 16.7101C10.0442 16.6312 9.96299 16.5365 9.89963 16.4301C9.88471 16.4043 9.87686 16.3749 9.87686 16.3451C9.87686 16.3153 9.88471 16.2859 9.89963 16.2601C9.89963 16.2001 9.99963 16.2601 10.0396 16.2601C10.719 16.5003 11.4602 16.5003 12.1396 16.2601H12.2396C12.2517 16.3011 12.2534 16.3445 12.2447 16.3864C12.236 16.4282 12.2171 16.4673 12.1896 16.5001C12.0678 16.6712 11.9114 16.8148 11.7305 16.9216C11.5496 17.0284 11.3483 17.096 11.1396 17.1201V17.1201ZM11.7996 18.1201C11.7169 18.2846 11.6467 18.4551 11.5896 18.6301C11.5896 18.7901 11.4696 18.8601 11.3096 18.8301H11.1196C10.7196 18.8301 10.7196 18.8301 10.5796 18.4601C10.549 18.3677 10.5123 18.2775 10.4696 18.1901C10.3596 18.0201 10.4696 17.9601 10.5896 17.8901C10.764 17.799 10.9579 17.7514 11.1546 17.7514C11.3514 17.7514 11.5452 17.799 11.7196 17.8901C11.8096 18.0001 11.8496 18.0001 11.7996 18.1201ZM10.1896 19.4501C10.1296 20.0401 10.0596 20.6201 9.97963 21.2101C9.54436 20.3895 9.26945 19.4936 9.16963 18.5701C9.64963 18.9201 9.74963 18.9101 9.96963 18.5701L10.2096 19.1601C10.2236 19.2571 10.2168 19.3559 10.1896 19.4501V19.4501ZM10.8296 23.2901C10.8296 23.5801 10.8296 23.5801 10.5196 23.5801H5.92963C5.79963 23.5801 5.76963 23.5801 5.76963 23.4201V20.0001C5.78166 19.3263 6.04998 18.6823 6.51999 18.1993C6.98999 17.7163 7.62637 17.4305 8.29963 17.4001C8.41963 17.4001 8.44963 17.4001 8.45963 17.5501C8.50525 18.7322 8.74862 19.8984 9.17963 21.0001C9.43238 21.7038 9.90147 22.3094 10.5196 22.7301C10.6233 22.7794 10.7089 22.8599 10.7645 22.9604C10.8201 23.0608 10.8429 23.1761 10.8296 23.2901ZM10.6696 22.0901C10.6178 22.0561 10.577 22.0077 10.5521 21.9509C10.5273 21.8941 10.5195 21.8313 10.5296 21.7701C10.6196 21.0301 10.6996 20.2801 10.7796 19.5301C10.7796 19.4401 10.7796 19.4201 10.8996 19.4201H11.1196C11.4496 19.4201 11.4496 19.4201 11.4796 19.7601C11.5496 20.4501 11.6296 21.1301 11.7096 21.8201C11.7096 21.9201 11.7096 21.9901 11.6296 22.0401L11.5696 22.0901C11.0696 22.4401 11.1696 22.4301 10.6696 22.0901V22.0901ZM15.5296 18.9001C15.5964 18.638 15.7044 18.3882 15.8496 18.1601C15.882 18.102 15.899 18.0366 15.899 17.9701C15.899 17.9036 15.882 17.8382 15.8496 17.7801C15.8 17.6359 15.7398 17.4955 15.6696 17.3601C15.5896 17.2301 15.6696 17.1601 15.7296 17.0701C15.9996 16.7901 15.9996 16.7801 16.3596 16.9401L16.5996 17.0401C16.6627 17.074 16.7345 17.0883 16.8057 17.0811C16.877 17.074 16.9445 17.0458 16.9996 17.0001C17.2427 16.8538 17.5053 16.7427 17.7796 16.6701C17.8421 16.6547 17.8997 16.6237 17.9469 16.58C17.9941 16.5362 18.0295 16.4812 18.0496 16.4201L18.2396 15.9401C18.2396 15.8601 18.3096 15.8201 18.3896 15.8301C18.8296 15.8301 18.8496 15.8301 18.9896 16.2201C19.0225 16.3517 19.093 16.4709 19.1924 16.5633C19.2918 16.6556 19.4159 16.717 19.5496 16.7401C19.7355 16.7794 19.912 16.8541 20.0696 16.9601C20.1421 17.0087 20.2274 17.0346 20.3146 17.0346C20.4019 17.0346 20.4872 17.0087 20.5596 16.9601C20.6996 16.8923 20.8431 16.8322 20.9896 16.7801C20.9896 16.7801 21.0596 16.7801 21.0996 16.7801C21.1396 16.7801 21.3396 17.0101 21.4496 17.1301C21.5596 17.2501 21.4496 17.1301 21.4496 17.1301L21.3496 17.3701L21.2596 17.5701C21.199 17.6584 21.1666 17.763 21.1666 17.8701C21.1666 17.9772 21.199 18.0818 21.2596 18.1701C21.3782 18.3643 21.4627 18.5774 21.5096 18.8001C21.5234 18.8751 21.5579 18.9448 21.6091 19.0014C21.6603 19.0579 21.7263 19.099 21.7996 19.1201C21.9096 19.1201 22.0196 19.2201 22.1396 19.2501C22.2596 19.2801 22.3796 19.4101 22.3696 19.6001C22.3596 19.7901 22.3696 19.9201 22.0696 20.0401H22.0196C21.8733 20.063 21.7385 20.133 21.6356 20.2395C21.5328 20.3459 21.4675 20.4831 21.4496 20.6301C21.412 20.8103 21.337 20.9806 21.2296 21.1301C21.1814 21.199 21.1556 21.281 21.1556 21.3651C21.1556 21.4492 21.1814 21.5312 21.2296 21.6001C21.2896 21.7101 21.3196 21.8301 21.3796 21.9401C21.3983 21.9676 21.4114 21.9985 21.418 22.0311C21.4246 22.0636 21.4246 22.0972 21.4181 22.1298C21.4116 22.1624 21.3986 22.1933 21.38 22.2209C21.3614 22.2484 21.3375 22.2719 21.3096 22.2901C21.0496 22.5401 21.0596 22.5501 20.7296 22.4101L20.4896 22.3001C20.4258 22.2632 20.3534 22.2438 20.2796 22.2438C20.2059 22.2438 20.1335 22.2632 20.0696 22.3001C19.8491 22.4347 19.6098 22.5358 19.3596 22.6001C19.2841 22.6127 19.2139 22.6468 19.1571 22.6982C19.1004 22.7496 19.0596 22.8162 19.0396 22.8901C19.0396 23.0501 18.9096 23.1901 18.8596 23.3401C18.8096 23.4901 18.7896 23.4601 18.7096 23.4501C18.2596 23.4501 18.2496 23.4501 18.1096 23.0701C18.0804 22.9367 18.0111 22.8154 17.911 22.7224C17.811 22.6295 17.6849 22.5694 17.5496 22.5501C17.3485 22.4988 17.1586 22.4106 16.9896 22.2901C16.9296 22.2529 16.8603 22.2332 16.7896 22.2332C16.719 22.2332 16.6497 22.2529 16.5896 22.2901C16.4296 22.3601 16.2696 22.4201 16.1096 22.5001C16.0883 22.5171 16.0619 22.5264 16.0346 22.5264C16.0074 22.5264 15.9809 22.5171 15.9596 22.5001L15.6796 22.2201C15.6592 22.1965 15.648 22.1663 15.648 22.1351C15.648 22.1039 15.6592 22.0737 15.6796 22.0501C15.7596 21.9001 15.8196 21.7301 15.8896 21.5801C15.924 21.5227 15.9421 21.457 15.9421 21.3901C15.9421 21.3232 15.924 21.2575 15.8896 21.2001C15.7528 20.9653 15.6485 20.713 15.5796 20.4501C15.5655 20.379 15.5317 20.3133 15.4823 20.2603C15.4328 20.2073 15.3696 20.1691 15.2996 20.1501C15.1696 20.1501 15.0396 20.0301 14.8996 19.9901C14.7596 19.9501 14.7296 19.8701 14.7296 19.7401C14.7296 19.3501 14.7296 19.3501 15.0796 19.2101L15.2996 19.1201C15.351 19.1011 15.3979 19.0718 15.4375 19.034C15.477 18.9961 15.5084 18.9506 15.5296 18.9001V18.9001ZM13.7396 18.0001C13.7396 17.8301 13.7396 17.6501 13.7396 17.4701C13.7396 17.2901 13.7396 17.3601 13.8496 17.3601C14.291 17.3753 14.7211 17.5026 15.0996 17.7301C15.1294 17.7421 15.156 17.7608 15.1775 17.7847C15.1989 17.8086 15.2145 17.8371 15.2232 17.868C15.2319 17.8989 15.2334 17.9314 15.2276 17.9629C15.2218 17.9945 15.2088 18.0243 15.1896 18.0501C15.1152 18.187 15.0549 18.331 15.0096 18.4801C14.9936 18.5519 14.958 18.618 14.9068 18.6709C14.8557 18.7238 14.7909 18.7616 14.7196 18.7801C14.1696 18.9801 14.0396 19.0101 14.0496 19.7801C14.0397 19.8899 14.0397 20.0003 14.0496 20.1101C14.0489 20.2135 14.083 20.3142 14.1465 20.3959C14.21 20.4775 14.2992 20.5354 14.3996 20.5601C14.5705 20.5977 14.7274 20.6822 14.8528 20.804C14.9783 20.9259 15.0672 21.0804 15.1096 21.2501C15.1543 21.3349 15.1776 21.4293 15.1776 21.5251C15.1776 21.6209 15.1543 21.7153 15.1096 21.8001C15.1096 21.8801 15.0396 21.9701 14.9996 22.0501C14.9625 22.1435 14.9522 22.2454 14.9699 22.3443C14.9876 22.4433 15.0325 22.5353 15.0996 22.6101C15.2491 22.7995 15.4202 22.9707 15.6096 23.1201C15.6966 23.1997 15.8072 23.2486 15.9245 23.2594C16.0419 23.2703 16.1596 23.2424 16.2596 23.1801C16.3896 23.1101 16.4196 23.1801 16.4196 23.2901C16.4196 23.5901 16.4196 23.5901 16.0996 23.5901H11.5596C11.4396 23.5901 11.4196 23.5901 11.4096 23.4301C11.3754 23.2749 11.3943 23.1127 11.4631 22.9694C11.532 22.8262 11.647 22.7102 11.7896 22.6401C12.3936 22.2162 12.8457 21.6099 13.0796 20.9101C13.4382 19.9768 13.6605 18.9968 13.7396 18.0001V18.0001ZM12.1296 18.9001C12.1896 18.7901 12.2196 18.6701 12.2796 18.5301C12.4396 18.9101 12.5596 18.9201 13.0496 18.5901C12.9634 19.5258 12.6879 20.4342 12.2396 21.2601C12.2396 20.9301 12.1696 20.6301 12.1396 20.3301C12.1096 20.0301 12.0896 19.7901 12.0496 19.5201C12.0071 19.307 12.0352 19.0858 12.1296 18.8901V18.9001ZM13.1296 17.2201C13.0908 17.5144 12.9575 17.7881 12.7496 18.0001C12.6996 18.0601 12.6696 18.0601 12.6296 18.0001C12.4675 17.772 12.2554 17.5839 12.0096 17.4501C12.2611 17.3039 12.4818 17.1103 12.6596 16.8801C12.8896 16.7901 13.1996 17.0701 13.1796 17.2101L13.1296 17.2201ZM14.4696 12.4901C14.4403 12.572 14.3926 12.6462 14.3302 12.7069C14.2678 12.7675 14.1924 12.8131 14.1096 12.8401C13.997 12.8727 13.898 12.941 13.8276 13.0348C13.7573 13.1287 13.7194 13.2428 13.7196 13.3601C13.6912 14.0353 13.406 14.6741 12.9222 15.1459C12.4385 15.6177 11.7927 15.8869 11.1171 15.8984C10.4414 15.9099 9.78687 15.6628 9.28733 15.2077C8.78779 14.7526 8.48098 14.1239 8.42963 13.4501C8.44074 13.3105 8.4043 13.1713 8.32622 13.0551C8.24814 12.9389 8.13304 12.8526 7.99963 12.8101C7.93209 12.7907 7.87034 12.755 7.81979 12.7062C7.76923 12.6574 7.73141 12.5969 7.70963 12.5301C7.53938 12.1403 7.47057 11.7137 7.50963 11.2901C7.50963 11.1901 7.50963 11.0901 7.66963 11.0701C7.82963 11.0501 7.80963 11.1501 7.83963 11.2301C7.86592 11.2899 7.9123 11.3387 7.97075 11.3679C8.02919 11.3971 8.09601 11.405 8.15963 11.3901C8.22592 11.3827 8.28712 11.351 8.33144 11.3011C8.37575 11.2513 8.40005 11.1868 8.39963 11.1201C8.39963 11.0101 8.39963 10.9101 8.39963 10.8001C8.39963 10.3801 8.30963 10.3701 8.85963 10.3101C9.98347 10.2573 11.0794 9.94223 12.0596 9.3901C12.0944 9.37524 12.1318 9.36759 12.1696 9.36759C12.2074 9.36759 12.2449 9.37524 12.2796 9.3901C12.6239 9.49547 12.9436 9.6689 13.2196 9.9001C13.39 10.03 13.5295 10.196 13.628 10.3862C13.7266 10.5764 13.7818 10.786 13.7896 11.0001V11.1401C13.7932 11.2082 13.82 11.2731 13.8654 11.324C13.9109 11.3749 13.9723 11.4088 14.0396 11.4201C14.1057 11.4337 14.1745 11.4229 14.2333 11.3899C14.292 11.3568 14.3369 11.3036 14.3596 11.2401C14.3596 11.1601 14.4196 11.0701 14.5196 11.0901C14.6196 11.1101 14.6696 11.2001 14.6796 11.3101C14.7186 11.7072 14.6638 12.108 14.5196 12.4801L14.4696 12.4901ZM11.2096 7.0001C12.0675 7.0345 12.885 7.37353 13.5155 7.95633C14.146 8.53914 14.5481 9.32756 14.6496 10.1801C14.664 10.2896 14.664 10.4006 14.6496 10.5101C14.3396 10.6201 14.2796 10.4201 14.1796 10.2001C14.0001 9.84084 13.7396 9.52824 13.4185 9.287C13.0974 9.04577 12.7247 8.8825 12.3296 8.8101C12.2439 8.7922 12.1553 8.79184 12.0694 8.80902C11.9835 8.82621 11.9019 8.86059 11.8296 8.9101C11.0753 9.33938 10.2419 9.61151 9.37963 9.7101L8.50963 9.8001C8.34734 9.81359 8.19423 9.88096 8.07463 9.99149C7.95504 10.102 7.87584 10.2494 7.84963 10.4101C7.84963 10.6101 7.67963 10.5101 7.59963 10.5201C7.51963 10.5301 7.59963 10.4301 7.59963 10.3801C7.65582 9.46222 8.06113 8.60065 8.73241 7.97214C9.4037 7.34362 10.2901 6.99583 11.2096 7.0001V7.0001Z" fill="url(#paint0_linear_41_2)"/>
    </g>
    <defs>
        <linearGradient id="paint0_linear_41_2" x1="-0.200367" y1="16.4501" x2="37.6296" y2="13.4501" gradientUnits="userSpaceOnUse">
            <stop stop-color="#EAC240"/>
            <stop offset="0.32" stop-color="#FFF888"/>
            <stop offset="0.68" stop-color="#DBAA17"/>
            <stop offset="1" stop-color="#FFFF93"/>
        </linearGradient>
        <clipPath id="clip0_41_2">
            <rect width="26.28" height="29.17" fill="white"/>
        </clipPath>
    </defs>
</svg>