<svg width="38" height="57" viewBox="0 0 38 57" fill="none" xmlns="http://www.w3.org/2000/svg">
    <path d="M14.85 32.55H11.32C11.2168 32.5514 11.1143 32.5322 11.0185 32.4936C10.9227 32.455 10.8355 32.3977 10.762 32.3252C10.6885 32.2526 10.6302 32.1662 10.5904 32.0709C10.5505 31.9756 10.53 31.8733 10.53 31.77V29.26H8.00004C7.89676 29.2601 7.79451 29.2396 7.69921 29.1997C7.60392 29.1599 7.51749 29.1016 7.44493 29.0281C7.37236 28.9546 7.31512 28.8674 7.27651 28.7716C7.23791 28.6758 7.21871 28.5733 7.22003 28.47V24.94C7.22003 24.8376 7.24021 24.7362 7.27941 24.6416C7.31861 24.5469 7.37606 24.4609 7.44849 24.3885C7.52092 24.3161 7.60691 24.2586 7.70154 24.2194C7.79618 24.1802 7.8976 24.16 8.00004 24.16H10.51V21.64C10.51 21.5368 10.5305 21.4345 10.5704 21.3392C10.6102 21.2439 10.6685 21.1575 10.742 21.0849C10.8155 21.0124 10.9027 20.9551 10.9985 20.9165C11.0943 20.8779 11.1968 20.8587 11.3 20.86H14.83C15.0369 20.86 15.2353 20.9422 15.3816 21.0885C15.5279 21.2348 15.61 21.4332 15.61 21.64V24.16H18.13C18.2325 24.16 18.3339 24.1802 18.4285 24.2194C18.5232 24.2586 18.6091 24.3161 18.6816 24.3885C18.754 24.4609 18.8115 24.5469 18.8507 24.6416C18.8899 24.7362 18.91 24.8376 18.91 24.94V28.47C18.9114 28.5733 18.8922 28.6758 18.8536 28.7716C18.815 28.8674 18.7577 28.9546 18.6851 29.0281C18.6126 29.1016 18.5261 29.1599 18.4309 29.1997C18.3356 29.2396 18.2333 29.2601 18.13 29.26H15.63V31.77C15.63 31.9769 15.5479 32.1753 15.4016 32.3216C15.2553 32.4679 15.0569 32.55 14.85 32.55ZM12.1 31H14.1V28.47C14.1 28.2632 14.1822 28.0648 14.3285 27.9185C14.4748 27.7722 14.6732 27.69 14.88 27.69H17.4V25.69H14.85C14.7476 25.69 14.6462 25.6699 14.5515 25.6307C14.4569 25.5915 14.3709 25.534 14.2985 25.4616C14.2261 25.3892 14.1686 25.3032 14.1294 25.2085C14.0902 25.1139 14.07 25.0125 14.07 24.91V22.42H12.07V24.94C12.07 25.0425 12.0499 25.1439 12.0107 25.2385C11.9715 25.3332 11.914 25.4192 11.8416 25.4916C11.7691 25.564 11.6832 25.6215 11.5885 25.6607C11.4939 25.6999 11.3925 25.72 11.29 25.72H8.80004V27.72H11.32C11.5269 27.72 11.7253 27.8022 11.8716 27.9485C12.0179 28.0948 12.1 28.2932 12.1 28.5V31Z" fill="#1565C0"/>
    <path d="M29.6701 36.87H8.00009C7.80716 36.8482 7.62902 36.7561 7.49967 36.6114C7.37033 36.4666 7.29883 36.2792 7.29883 36.085C7.29883 35.8909 7.37033 35.7035 7.49967 35.5587C7.62902 35.4139 7.80716 35.3219 8.00009 35.3H29.6701C29.863 35.3219 30.0412 35.4139 30.1705 35.5587C30.2999 35.7035 30.3713 35.8909 30.3713 36.085C30.3713 36.2792 30.2999 36.4666 30.1705 36.6114C30.0412 36.7561 29.863 36.8482 29.6701 36.87Z" fill="#1565C0"/>
    <path d="M29.6701 42.67H8.00009C7.80716 42.6482 7.62902 42.5561 7.49967 42.4113C7.37033 42.2665 7.29883 42.0791 7.29883 41.885C7.29883 41.6908 7.37033 41.5035 7.49967 41.3587C7.62902 41.2139 7.80716 41.1218 8.00009 41.1H29.6701C29.863 41.1218 30.0412 41.2139 30.1705 41.3587C30.2999 41.5035 30.3713 41.6908 30.3713 41.885C30.3713 42.0791 30.2999 42.2665 30.1705 42.4113C30.0412 42.5561 29.863 42.6482 29.6701 42.67Z" fill="#1565C0"/>
    <path d="M29.6701 48.47H8.00009C7.80716 48.4482 7.62902 48.3561 7.49967 48.2113C7.37033 48.0665 7.29883 47.8792 7.29883 47.685C7.29883 47.4909 7.37033 47.3035 7.49967 47.1587C7.62902 47.0139 7.80716 46.9218 8.00009 46.9H29.6701C29.863 46.9218 30.0412 47.0139 30.1705 47.1587C30.2999 47.3035 30.3713 47.4909 30.3713 47.685C30.3713 47.8792 30.2999 48.0665 30.1705 48.2113C30.0412 48.3561 29.863 48.4482 29.6701 48.47Z" fill="#1565C0"/>
    <path d="M32.2199 54.6401H5.46994C5.03921 54.6401 4.61269 54.5552 4.21474 54.3904C3.81679 54.2255 3.45521 53.9839 3.15063 53.6794C2.84606 53.3748 2.60445 53.0132 2.43962 52.6153C2.27478 52.2173 2.18994 51.7908 2.18994 51.3601V17.1001C2.18994 16.2292 2.53519 15.3939 3.15002 14.7772C3.76486 14.1605 4.59911 13.8127 5.46994 13.8101H9.85994C10.0668 13.8101 10.2652 13.8922 10.4115 14.0385C10.5578 14.1848 10.6399 14.3832 10.6399 14.5901V16.3901H27.0499V14.5901C27.0499 14.3832 27.1321 14.1848 27.2784 14.0385C27.4247 13.8922 27.6231 13.8101 27.8299 13.8101H32.2199C33.0908 13.8127 33.925 14.1605 34.5399 14.7772C35.1547 15.3939 35.4999 16.2292 35.4999 17.1001V51.3601C35.4999 51.7908 35.4151 52.2173 35.2503 52.6153C35.0854 53.0132 34.8438 53.3748 34.5393 53.6794C34.2347 53.9839 33.8731 54.2255 33.4751 54.3904C33.0772 54.5552 32.6507 54.6401 32.2199 54.6401ZM5.46994 15.3801C5.01458 15.3827 4.57861 15.5647 4.25662 15.8867C3.93462 16.2087 3.75257 16.6447 3.74994 17.1001V51.3601C3.75257 51.8154 3.93462 52.2514 4.25662 52.5734C4.57861 52.8954 5.01458 53.0774 5.46994 53.0801H32.2199C32.6753 53.0774 33.1113 52.8954 33.4333 52.5734C33.7553 52.2514 33.9373 51.8154 33.9399 51.3601V17.1001C33.9399 16.6439 33.7587 16.2064 33.4362 15.8838C33.1136 15.5613 32.6761 15.3801 32.2199 15.3801H28.6099V17.1701C28.6099 17.3769 28.5278 17.5753 28.3815 17.7216C28.2352 17.8679 28.0368 17.9501 27.8299 17.9501H9.82994C9.62307 17.9501 9.42468 17.8679 9.2784 17.7216C9.13212 17.5753 9.04994 17.3769 9.04994 17.1701V15.3801H5.46994Z" fill="#1565C0"/>
    <path d="M27.83 18H9.83005C9.62318 18 9.42478 17.9178 9.27851 17.7716C9.13223 17.6253 9.05005 17.4269 9.05005 17.22V11.5C9.05005 10.9696 9.26076 10.4609 9.63583 10.0858C10.0109 9.71073 10.5196 9.50002 11.05 9.50002H11.37C11.3832 8.6388 11.7345 7.81731 12.3482 7.21297C12.9619 6.60862 13.7887 6.26992 14.65 6.27002H23C23.8606 6.27249 24.6859 6.61203 25.299 7.21583C25.9122 7.81963 26.2644 8.63963 26.28 9.50002H26.59C27.1205 9.50002 27.6292 9.71073 28.0043 10.0858C28.3793 10.4609 28.59 10.9696 28.59 11.5V17.17C28.5968 17.2749 28.5823 17.3801 28.5474 17.4792C28.5125 17.5784 28.4579 17.6695 28.3869 17.747C28.316 17.8245 28.23 17.8869 28.1343 17.9304C28.0386 17.9739 27.9351 17.9975 27.83 18ZM10.64 16.39H27.05V11.5C27.05 11.3754 27.0005 11.2558 26.9124 11.1677C26.8242 11.0795 26.7047 11.03 26.58 11.03H25.49C25.2832 11.03 25.0848 10.9478 24.9385 10.8016C24.7922 10.6553 24.71 10.4569 24.71 10.25V9.52002C24.7101 9.06557 24.5302 8.62959 24.2098 8.30732C23.8894 7.98504 23.4545 7.80266 23 7.80002H14.71C14.2556 7.80266 13.8207 7.98504 13.5003 8.30732C13.1799 8.62959 13 9.06557 13 9.52002V10.25C13 10.4569 12.9179 10.6553 12.7716 10.8016C12.6253 10.9478 12.4269 11.03 12.22 11.03H11.12C10.9954 11.03 10.8759 11.0795 10.7877 11.1677C10.6996 11.2558 10.65 11.3754 10.65 11.5L10.64 16.39Z" fill="#1565C0"/>
    <path d="M22.8999 10.9999H12.2099C12.0031 10.9999 11.8047 10.9178 11.6584 10.7715C11.5121 10.6252 11.4299 10.4268 11.4299 10.2199C11.4299 10.0131 11.5121 9.81468 11.6584 9.6684C11.8047 9.52212 12.0031 9.43994 12.2099 9.43994H22.8999C23.1068 9.43994 23.3052 9.52212 23.4515 9.6684C23.5978 9.81468 23.6799 10.0131 23.6799 10.2199C23.6799 10.4268 23.5978 10.6252 23.4515 10.7715C23.3052 10.9178 23.1068 10.9999 22.8999 10.9999Z" fill="#1565C0"/>
    <path d="M29.6699 27.49H21.5999C21.407 27.4682 21.2289 27.3761 21.0995 27.2313C20.9702 27.0866 20.8987 26.8992 20.8987 26.705C20.8987 26.5109 20.9702 26.3235 21.0995 26.1787C21.2289 26.0339 21.407 25.9419 21.5999 25.92H29.6699C29.8629 25.9419 30.041 26.0339 30.1704 26.1787C30.2997 26.3235 30.3712 26.5109 30.3712 26.705C30.3712 26.8992 30.2997 27.0866 30.1704 27.2313C30.041 27.3761 29.8629 27.4682 29.6699 27.49Z" fill="#1565C0"/>
    <path d="M29.6699 23.6399H21.5999C21.407 23.6181 21.2289 23.526 21.0995 23.3813C20.9702 23.2365 20.8987 23.0491 20.8987 22.8549C20.8987 22.6608 20.9702 22.4734 21.0995 22.3286C21.2289 22.1838 21.407 22.0918 21.5999 22.0699H29.6699C29.8629 22.0918 30.041 22.1838 30.1704 22.3286C30.2997 22.4734 30.3712 22.6608 30.3712 22.8549C30.3712 23.0491 30.2997 23.2365 30.1704 23.3813C30.041 23.526 29.8629 23.6181 29.6699 23.6399Z" fill="#1565C0"/>
    <path d="M29.6699 31.34H21.5999C21.407 31.3182 21.2289 31.2261 21.0995 31.0813C20.9702 30.9365 20.8987 30.7492 20.8987 30.555C20.8987 30.3609 20.9702 30.1735 21.0995 30.0287C21.2289 29.8839 21.407 29.7918 21.5999 29.77H29.6699C29.8629 29.7918 30.041 29.8839 30.1704 30.0287C30.2997 30.1735 30.3712 30.3609 30.3712 30.555C30.3712 30.7492 30.2997 30.9365 30.1704 31.0813C30.041 31.2261 29.8629 31.3182 29.6699 31.34Z" fill="#1565C0"/>
</svg>
