<svg width="29" height="28" viewBox="0 0 29 28" fill="none" xmlns="http://www.w3.org/2000/svg">
<path d="M0 6.99996L13.267 4.15696C13.7502 4.05347 14.2498 4.05347 14.733 4.15696L28 6.99996V22.8C28 24.1791 27.4521 25.5017 26.477 26.4769C25.5018 27.4521 24.1791 28 22.8 28H5.2C3.82087 28 2.49823 27.4521 1.52304 26.4769C0.547856 25.5017 0 24.1791 0 22.8V6.99996Z" fill="#B4ACBC"/>
<path d="M1 8.884V22.5C1 23.6935 1.47411 24.8381 2.31802 25.682C3.16193 26.5259 4.30653 27 5.5 27H21.5L27 21.326V8.884L14.464 6.5L1 8.884Z" fill="#F3EEF8"/>
<path d="M6.2 11C6.14696 11 6.09609 11.0211 6.05858 11.0586C6.02107 11.0961 6 11.147 6 11.2V13.8C6 13.91 6.09 14 6.2 14H8.8C8.85304 14 8.90391 13.9789 8.94142 13.9414C8.97893 13.9039 9 13.853 9 13.8V11.2C9 11.147 8.97893 11.0961 8.94142 11.0586C8.90391 11.0211 8.85304 11 8.8 11H6.2ZM12.7 11C12.647 11 12.5961 11.0211 12.5586 11.0586C12.5211 11.0961 12.5 11.147 12.5 11.2V13.8C12.5 13.91 12.59 14 12.7 14H15.3C15.353 14 15.4039 13.9789 15.4414 13.9414C15.4789 13.9039 15.5 13.853 15.5 13.8V11.2C15.5 11.147 15.4789 11.0961 15.4414 11.0586C15.4039 11.0211 15.353 11 15.3 11H12.7V11ZM19 11.2C19 11.09 19.09 11 19.2 11H21.8C21.91 11 22 11.09 22 11.2V13.8C22 13.853 21.9789 13.9039 21.9414 13.9414C21.9039 13.9789 21.853 14 21.8 14H19.2C19.147 14 19.0961 13.9789 19.0586 13.9414C19.0211 13.9039 19 13.853 19 13.8V11.2ZM6.2 16C6.14696 16 6.09609 16.0211 6.05858 16.0586C6.02107 16.0961 6 16.147 6 16.2V18.8C6 18.91 6.09 19 6.2 19H8.8C8.85304 19 8.90391 18.9789 8.94142 18.9414C8.97893 18.9039 9 18.853 9 18.8V16.2C9 16.147 8.97893 16.0961 8.94142 16.0586C8.90391 16.0211 8.85304 16 8.8 16H6.2ZM12.5 16.2C12.5 16.09 12.59 16 12.7 16H15.3C15.41 16 15.5 16.09 15.5 16.2V18.8C15.5 18.853 15.4789 18.9039 15.4414 18.9414C15.4039 18.9789 15.353 19 15.3 19H12.7C12.647 19 12.5961 18.9789 12.5586 18.9414C12.5211 18.9039 12.5 18.853 12.5 18.8V16.2V16.2ZM6.2 21C6.14696 21 6.09609 21.0211 6.05858 21.0586C6.02107 21.0961 6 21.147 6 21.2V23.8C6 23.91 6.09 24 6.2 24H8.8C8.85304 24 8.90391 23.9789 8.94142 23.9414C8.97893 23.9039 9 23.853 9 23.8V21.2C9 21.147 8.97893 21.0961 8.94142 21.0586C8.90391 21.0211 8.85304 21 8.8 21H6.2ZM12.5 21.2C12.5 21.09 12.59 21 12.7 21H15.3C15.41 21 15.5 21.09 15.5 21.2V23.8C15.5 23.853 15.4789 23.9039 15.4414 23.9414C15.4039 23.9789 15.353 24 15.3 24H12.7C12.647 24 12.5961 23.9789 12.5586 23.9414C12.5211 23.9039 12.5 23.853 12.5 23.8V21.2V21.2ZM19.2 21C19.147 21 19.0961 21.0211 19.0586 21.0586C19.0211 21.0961 19 21.147 19 21.2V23.8C19 23.91 19.09 24 19.2 24H21.8C21.853 24 21.9039 23.9789 21.9414 23.9414C21.9789 23.9039 22 23.853 22 23.8V21.2C22 21.147 21.9789 21.0961 21.9414 21.0586C21.9039 21.0211 21.853 21 21.8 21H19.2ZM28.01 24.24V21L23.5 23.5L21.01 28H24.25C26.33 28 28.01 26.31 28.01 24.24Z" fill="#998EA4"/>
<path d="M21.01 24.76V28L28.01 21H24.77C22.7 21 21.01 22.69 21.01 24.76V24.76Z" fill="#E1D8EC"/>
<path d="M28 6.78504V9.00004H0V6.78504C0 4.69104 1.69 2.99004 3.759 3.00004H24.24C26.311 3.00004 28 4.69104 28 6.78504ZM19.2 16C19.147 16 19.0961 16.0211 19.0586 16.0586C19.0211 16.0961 19 16.147 19 16.2V18.8C19 18.91 19.09 19 19.2 19H21.8C21.853 19 21.9039 18.979 21.9414 18.9415C21.9789 18.904 22 18.8531 22 18.8V16.2C22 16.147 21.9789 16.0961 21.9414 16.0586C21.9039 16.0211 21.853 16 21.8 16H19.2Z" fill="#0084CE"/>
<path d="M6 4.696C6 5.418 6.558 6 7.25 6C7.942 6 8.5 5.418 8.5 4.696V1.304C8.5 0.582 7.942 0 7.25 0C6.558 0 6 0.582 6 1.304V4.696ZM19.5 4.696C19.5 5.418 20.058 6 20.75 6C21.442 6 22 5.418 22 4.696V1.304C22 0.582 21.442 0 20.75 0C20.058 0 19.5 0.582 19.5 1.304V4.696Z" fill="#CDC4D6"/>
</svg>
