<svg width="26" height="25" viewBox="0 0 26 25" fill="none" xmlns="http://www.w3.org/2000/svg">
    <g clip-path="url(#clip0_41_19)">
        <path d="M21.81 0H5.76C3.54534 0 1.75 1.79534 1.75 4.01V20.06C1.75 22.2747 3.54534 24.07 5.76 24.07H21.81C24.0247 24.07 25.82 22.2747 25.82 20.06V4.01C25.82 1.79534 24.0247 0 21.81 0Z" fill="#1565C0"/>
        <g style="mix-blend-mode:screen">
            <path d="M2.1498 20.46V4.46C2.1498 3.39913 2.57123 2.38172 3.32138 1.63157C4.07152 0.881427 5.08894 0.46 6.14981 0.46H22.2098C23.1752 0.466238 24.1058 0.821416 24.8298 1.46C24.461 1.01125 23.999 0.648184 23.4757 0.396054C22.9525 0.143923 22.3806 0.00877401 21.7998 0L5.7998 0C4.73894 0 3.72152 0.421427 2.97138 1.17157C2.22123 1.92172 1.7998 2.93913 1.7998 4V20C1.80426 20.5702 1.93059 21.1329 2.17033 21.6503C2.41006 22.1678 2.75766 22.6279 3.1898 23C2.55442 22.3025 2.18605 21.4028 2.1498 20.46V20.46Z" fill="#1565C0"/>
        </g>
        <path d="M21.7698 9.1V13.1C21.7704 13.5092 21.6143 13.9031 21.3334 14.2007C21.0525 14.4983 20.6683 14.677 20.2598 14.7H7.25977C6.85299 14.6745 6.47126 14.4948 6.19251 14.1974C5.91375 13.9001 5.75897 13.5076 5.75977 13.1V9.1C5.75977 8.67565 5.92834 8.26869 6.2284 7.96863C6.52846 7.66857 6.93542 7.5 7.35977 7.5H20.1598C20.585 7.49999 20.993 7.66824 21.2947 7.96802C21.5963 8.26779 21.7671 8.67474 21.7698 9.1Z" fill="url(#paint0_linear_41_19)"/>
        <path d="M21.7698 9.1V13.1C21.7704 13.5092 21.6143 13.9031 21.3334 14.2007C21.0525 14.4983 20.6683 14.677 20.2598 14.7H7.25977C6.85299 14.6745 6.47126 14.4948 6.19251 14.1974C5.91375 13.9001 5.75897 13.5076 5.75977 13.1V9.1C5.75977 8.67565 5.92834 8.26869 6.2284 7.96863C6.52846 7.66857 6.93542 7.5 7.35977 7.5H20.1598C20.585 7.49999 20.993 7.66824 21.2947 7.96802C21.5963 8.26779 21.7671 8.67474 21.7698 9.1Z" fill="url(#paint1_linear_41_19)"/>
        <path d="M20.1605 15.5198H20.2605V17.1298C20.2605 17.3399 20.2191 17.5479 20.1387 17.7421C20.0583 17.9362 19.9404 18.1126 19.7918 18.2611C19.6433 18.4097 19.4669 18.5276 19.2728 18.608C19.0786 18.6884 18.8706 18.7298 18.6605 18.7298H8.83047C8.62035 18.7298 8.4123 18.6884 8.21818 18.608C8.02405 18.5276 7.84767 18.4097 7.6991 18.2611C7.55052 18.1126 7.43267 17.9362 7.35226 17.7421C7.27185 17.5479 7.23047 17.3399 7.23047 17.1298V15.5098H20.1605V15.5198Z" fill="url(#paint2_linear_41_19)"/>
        <path d="M16.52 7.99994H15.71V7.12994C15.6288 6.66642 15.3867 6.24636 15.0264 5.94368C14.6661 5.64099 14.2106 5.47505 13.74 5.47505C13.2694 5.47505 12.8139 5.64099 12.4536 5.94368C12.0933 6.24636 11.8512 6.66642 11.77 7.12994V7.99994H11V7.12994C11.0425 6.42277 11.3533 5.75848 11.8691 5.27278C12.3848 4.78708 13.0665 4.5166 13.775 4.5166C14.4835 4.5166 15.1652 4.78708 15.6809 5.27278C16.1967 5.75848 16.5075 6.42277 16.55 7.12994L16.52 7.99994Z" fill="url(#paint3_linear_41_19)"/>
    </g>
    <defs>
        <linearGradient id="paint0_linear_41_19" x1="-14.7902" y1="10.98" x2="81.8598" y2="11.4" gradientUnits="userSpaceOnUse">
            <stop stop-color="#EAC240"/>
            <stop offset="0.32" stop-color="#FFF888"/>
            <stop offset="0.68" stop-color="#DBAA17"/>
            <stop offset="1" stop-color="#FFFF93"/>
        </linearGradient>
        <linearGradient id="paint1_linear_41_19" x1="-14.7902" y1="10.98" x2="81.8598" y2="11.4" gradientUnits="userSpaceOnUse">
            <stop stop-color="#EAC240"/>
            <stop offset="0.32" stop-color="#FFF888"/>
            <stop offset="0.68" stop-color="#DBAA17"/>
            <stop offset="1" stop-color="#FFFF93"/>
        </linearGradient>
        <linearGradient id="paint2_linear_41_19" x1="-14.8195" y1="16.9898" x2="81.8405" y2="17.4098" gradientUnits="userSpaceOnUse">
            <stop stop-color="#EAC240"/>
            <stop offset="0.32" stop-color="#FFF888"/>
            <stop offset="0.68" stop-color="#DBAA17"/>
            <stop offset="1" stop-color="#FFFF93"/>
        </linearGradient>
        <linearGradient id="paint3_linear_41_19" x1="-14.77" y1="6.02994" x2="81.88" y2="6.44994" gradientUnits="userSpaceOnUse">
            <stop stop-color="#EAC240"/>
            <stop offset="0.32" stop-color="#FFF888"/>
            <stop offset="0.68" stop-color="#DBAA17"/>
            <stop offset="1" stop-color="#FFFF93"/>
        </linearGradient>
        <clipPath id="clip0_41_19">
            <rect width="25.98" height="24.07" fill="white"/>
        </clipPath>
    </defs>
</svg>