<svg width="44" height="48" viewBox="0 0 44 48" fill="none" xmlns="http://www.w3.org/2000/svg">
    <path d="M3.92004 32.81H14.78V43.67C14.7787 43.8187 14.807 43.9663 14.8633 44.104C14.9197 44.2417 15.0028 44.3668 15.108 44.472C15.2132 44.5772 15.3383 44.6603 15.476 44.7167C15.6137 44.773 15.7613 44.8013 15.91 44.8H28.07C28.3697 44.8 28.6572 44.6809 28.8691 44.469C29.081 44.2571 29.2 43.9697 29.2 43.67V32.81H40.06C40.358 32.81 40.6439 32.6923 40.8556 32.4825C41.0672 32.2728 41.1874 31.9879 41.19 31.69V19.52C41.1874 19.2211 41.0675 18.9352 40.8562 18.7238C40.6448 18.5125 40.3589 18.3926 40.06 18.39H29.2V7.52996C29.1974 7.232 29.0772 6.94714 28.8656 6.73738C28.6539 6.52762 28.368 6.40995 28.07 6.40996H15.91C15.7621 6.40864 15.6154 6.43663 15.4784 6.49232C15.3413 6.54802 15.2167 6.63031 15.1116 6.73444C15.0065 6.83857 14.9232 6.96249 14.8662 7.09903C14.8093 7.23557 14.78 7.38203 14.78 7.52996V18.39H3.92004C3.62115 18.3926 3.33525 18.5125 3.12389 18.7238C2.91254 18.9352 2.79265 19.2211 2.79004 19.52V31.69C2.79268 31.9879 2.91289 32.2728 3.12452 32.4825C3.33615 32.6923 3.62207 32.81 3.92004 32.81ZM5.00004 20.65H15.91C16.2027 20.6396 16.48 20.516 16.6833 20.3052C16.8867 20.0944 17.0002 19.8128 17 19.52V8.65996H26.91V19.52C26.9126 19.8188 27.0325 20.1047 27.2439 20.3161C27.4552 20.5275 27.7412 20.6473 28.04 20.65H38.93V30.56H28.07C27.7712 30.5626 27.4852 30.6825 27.2739 30.8938C27.0625 31.1052 26.9427 31.3911 26.94 31.69V42.55H17V31.69C17.0001 31.392 16.8824 31.1061 16.6726 30.8944C16.4629 30.6828 16.178 30.5626 15.88 30.56H5.00004V20.65Z" fill="#1565C0"/>
</svg>
