<svg width="45" height="44" viewBox="0 0 45 44" fill="none" xmlns="http://www.w3.org/2000/svg">
    <path d="M13.63 4.29004H8.14002C7.34437 4.29004 6.5813 4.60611 6.01869 5.16872C5.45609 5.73133 5.14001 6.49439 5.14001 7.29004V12.78C5.14001 13.5757 5.45609 14.3388 6.01869 14.9014C6.5813 15.464 7.34437 15.78 8.14002 15.78H13.63C14.4257 15.78 15.1887 15.464 15.7513 14.9014C16.3139 14.3388 16.63 13.5757 16.63 12.78V7.32004C16.634 6.92356 16.5593 6.53022 16.4103 6.16277C16.2613 5.79533 16.041 5.46106 15.762 5.1793C15.483 4.89754 15.151 4.67387 14.785 4.52124C14.4191 4.3686 14.0265 4.29002 13.63 4.29004V4.29004ZM13.1 14H8.67001C8.44683 13.9988 8.22614 13.9531 8.02082 13.8655C7.8155 13.778 7.62968 13.6505 7.47421 13.4904C7.31874 13.3302 7.19673 13.1407 7.11531 12.9329C7.03389 12.7251 6.9947 12.5032 7.00001 12.28V7.85004C7.00001 7.4062 7.17563 6.9804 7.48853 6.66562C7.80144 6.35085 8.22619 6.17268 8.67001 6.17004H13.1C13.5456 6.17004 13.9729 6.34704 14.288 6.6621C14.603 6.97716 14.78 7.40448 14.78 7.85004V12.28C14.7853 12.504 14.7458 12.7268 14.6638 12.9352C14.5818 13.1437 14.4589 13.3337 14.3023 13.4939C14.1458 13.6542 13.9588 13.7815 13.7523 13.8684C13.5458 13.9554 13.324 14.0001 13.1 14Z" fill="#1565C0"/>
    <path d="M11.46 7.81006H10.32C9.39218 7.81006 8.64001 8.56222 8.64001 9.49006V10.6301C8.64001 11.5579 9.39218 12.3101 10.32 12.3101H11.46C12.3879 12.3101 13.14 11.5579 13.14 10.6301V9.49006C13.14 8.56222 12.3879 7.81006 11.46 7.81006Z" fill="#1565C0"/>
    <path d="M27.9 7.31989V12.8099C27.9 13.6055 28.2161 14.3686 28.7787 14.9312C29.3413 15.4938 30.1043 15.8099 30.9 15.8099H36.39C37.1856 15.8099 37.9487 15.4938 38.5113 14.9312C39.0739 14.3686 39.39 13.6055 39.39 12.8099V7.31989C39.39 6.52424 39.0739 5.76118 38.5113 5.19857C37.9487 4.63596 37.1856 4.31989 36.39 4.31989H30.92C30.5243 4.31725 30.1321 4.3929 29.7658 4.54249C29.3995 4.69207 29.0664 4.91263 28.7857 5.19147C28.505 5.47031 28.2823 5.80192 28.1303 6.1672C27.9782 6.53249 27.9 6.92424 27.9 7.31989ZM35.9 13.9599H31.45C31.0044 13.9599 30.5771 13.7829 30.2621 13.4678C29.947 13.1528 29.77 12.7255 29.77 12.2799V7.84989C29.77 7.40433 29.947 6.97701 30.2621 6.66195C30.5771 6.34689 31.0044 6.16989 31.45 6.16989H35.88C36.3256 6.16989 36.7529 6.34689 37.0679 6.66195C37.383 6.97701 37.56 7.40433 37.56 7.84989V12.2799C37.5653 12.5039 37.5258 12.7266 37.4438 12.9351C37.3617 13.1436 37.2388 13.3335 37.0823 13.4938C36.9258 13.654 36.7388 13.7814 36.5323 13.8683C36.3258 13.9552 36.104 14 35.88 13.9999L35.9 13.9599Z" fill="#1565C0"/>
    <path d="M34.24 7.81006H33.1C32.1722 7.81006 31.42 8.56222 31.42 9.49006V10.6301C31.42 11.5579 32.1722 12.3101 33.1 12.3101H34.24C35.1679 12.3101 35.92 11.5579 35.92 10.6301V9.49006C35.92 8.56222 35.1679 7.81006 34.24 7.81006Z" fill="#1565C0"/>
    <path d="M8.13999 38.6101H13.63C14.4256 38.6101 15.1887 38.294 15.7513 37.7314C16.3139 37.1688 16.63 36.4057 16.63 35.6101V30.1001C16.63 29.3044 16.3139 28.5414 15.7513 27.9788C15.1887 27.4162 14.4256 27.1001 13.63 27.1001H8.13999C7.34434 27.1001 6.58128 27.4162 6.01867 27.9788C5.45606 28.5414 5.13999 29.3044 5.13999 30.1001V35.5901C5.13735 35.9857 5.213 36.378 5.36259 36.7443C5.51217 37.1106 5.73273 37.4437 6.01157 37.7244C6.29041 38.0051 6.62201 38.2278 6.9873 38.3798C7.35259 38.5319 7.74434 38.6101 8.13999 38.6101V38.6101ZM8.66999 29.0001H13.1C13.5456 29.0001 13.9729 29.1771 14.2879 29.4922C14.603 29.8072 14.78 30.2345 14.78 30.6801V35.1101C14.78 35.5557 14.603 35.983 14.2879 36.298C13.9729 36.6131 13.5456 36.7901 13.1 36.7901H8.66999C8.44594 36.7889 8.2244 36.7428 8.01841 36.6547C7.81242 36.5666 7.62614 36.4381 7.47053 36.2769C7.31492 36.1157 7.19313 35.925 7.11232 35.716C7.03151 35.5071 6.99332 35.2841 6.99999 35.0601V30.6301C7.01294 30.195 7.19427 29.7819 7.50579 29.4778C7.81731 29.1738 8.23469 29.0025 8.66999 29.0001V29.0001Z" fill="#1565C0"/>
    <path d="M11.46 30.5898H10.32C9.39218 30.5898 8.64001 31.342 8.64001 32.2698V33.4098C8.64001 34.3377 9.39218 35.0898 10.32 35.0898H11.46C12.3879 35.0898 13.14 34.3377 13.14 33.4098V32.2698C13.14 31.342 12.3879 30.5898 11.46 30.5898Z" fill="#1565C0"/>
    <path d="M7.03 19.77H5.12V21.68H7.03V19.77Z" fill="#1565C0"/>
    <path d="M8.94 19.5801H7.03V21.4901H8.94V19.5801Z" fill="#1565C0"/>
    <path d="M8.94 17.9102H7.03V19.8202H8.94V17.9102Z" fill="#1565C0"/>
    <path d="M10.86 19.77H8.95001V21.68H10.86V19.77Z" fill="#1565C0"/>
    <path d="M7.03 23.3799H5.12V25.2899H7.03V23.3799Z" fill="#1565C0"/>
    <path d="M12.77 23.3799H10.86V25.2899H12.77V23.3799Z" fill="#1565C0"/>
    <path d="M14.69 21.4702H12.78V23.3802H14.69V21.4702Z" fill="#1565C0"/>
    <path d="M16.6 23.3799H14.69V25.2899H16.6V23.3799Z" fill="#1565C0"/>
    <path d="M18.52 23.3799H16.61V25.2899H18.52V23.3799Z" fill="#1565C0"/>
    <path d="M18.52 21.4702H16.61V23.3802H18.52V21.4702Z" fill="#1565C0"/>
    <path d="M18.52 19.5601H16.61V21.4701H18.52V19.5601Z" fill="#1565C0"/>
    <path d="M18.52 17.9102H16.61V19.8202H18.52V17.9102Z" fill="#1565C0"/>
    <path d="M20.43 17.9102H18.52V19.8202H20.43V17.9102Z" fill="#1565C0"/>
    <path d="M12.77 19.5601H10.86V21.4701H12.77V19.5601Z" fill="#1565C0"/>
    <path d="M12.77 17.9102H10.86V19.8202H12.77V17.9102Z" fill="#1565C0"/>
    <path d="M14.69 17.9102H12.78V19.8202H14.69V17.9102Z" fill="#1565C0"/>
    <path d="M8.94 23.3799H7.03V25.2899H8.94V23.3799Z" fill="#1565C0"/>
    <path d="M10.86 21.4702H8.95001V23.3802H10.86V21.4702Z" fill="#1565C0"/>
    <path d="M7.03 21.4702H5.12V23.3802H7.03V21.4702Z" fill="#1565C0"/>
    <path d="M10.86 23.3799H8.95001V25.2899H10.86V23.3799Z" fill="#1565C0"/>
    <path d="M20.43 25.3301H18.52V27.2401H20.43V25.3301Z" fill="#1565C0"/>
    <path d="M22.35 25.3301H20.44V27.2401H22.35V25.3301Z" fill="#1565C0"/>
    <path d="M22.35 23.48H20.44V25.39H22.35V23.48Z" fill="#1565C0"/>
    <path d="M20.43 21.3799H18.52V23.2899H20.43V21.3799Z" fill="#1565C0"/>
    <path d="M24.26 19.8301H22.35V21.5601H24.26V19.8301Z" fill="#1565C0"/>
    <path d="M22.35 19.8301H20.44V21.7401H22.35V19.8301Z" fill="#1565C0"/>
    <path d="M22.35 21.5601H20.44V23.4701H22.35V21.5601Z" fill="#1565C0"/>
    <path d="M24.26 25.3301H22.35V27.2401H24.26V25.3301Z" fill="#1565C0"/>
    <path d="M20.43 29.1299H18.52V31.0399H20.43V29.1299Z" fill="#1565C0"/>
    <path d="M26.17 29.1299H24.26V31.0399H26.17V29.1299Z" fill="#1565C0"/>
    <path d="M28.09 27.21H26.18V29.12H28.09V27.21Z" fill="#1565C0"/>
    <path d="M30 29.1299H28.09V31.0399H30V29.1299Z" fill="#1565C0"/>
    <path d="M31.92 29.1299H30.01V31.0399H31.92V29.1299Z" fill="#1565C0"/>
    <path d="M31.92 27.21H30.01V29.12H31.92V27.21Z" fill="#1565C0"/>
    <path d="M31.92 25.2998H30.01V27.2098H31.92V25.2998Z" fill="#1565C0"/>
    <path d="M31.92 23.5698H30.01V25.4798H31.92V23.5698Z" fill="#1565C0"/>
    <path d="M33.83 21.6499H31.92V23.5599H33.83V21.6499Z" fill="#1565C0"/>
    <path d="M26.17 25.2998H24.26V27.2098H26.17V25.2998Z" fill="#1565C0"/>
    <path d="M26.17 23.48H24.26V25.39H26.17V23.48Z" fill="#1565C0"/>
    <path d="M28.09 23.48H26.18V25.39H28.09V23.48Z" fill="#1565C0"/>
    <path d="M22.35 29.1299H20.44V31.0399H22.35V29.1299Z" fill="#1565C0"/>
    <path d="M24.26 27.21H22.35V29.12H24.26V27.21Z" fill="#1565C0"/>
    <path d="M20.43 27.21H18.52V29.12H20.43V27.21Z" fill="#1565C0"/>
    <path d="M24.26 29.1299H22.35V31.0399H24.26V29.1299Z" fill="#1565C0"/>
    <path d="M24.19 6.28012V4.37012H22.28V6.28012H24.19Z" fill="#1565C0"/>
    <path d="M26.04 8.20981V6.2998H24.13V8.20981H26.04Z" fill="#1565C0"/>
    <path d="M26.04 10.12V8.20996H24.13V10.12H26.04Z" fill="#1565C0"/>
    <path d="M20.39 12.0301V10.1201H18.48V12.0301H20.39Z" fill="#1565C0"/>
    <path d="M22.3 12.0301V10.1201H20.39V12.0301H22.3Z" fill="#1565C0"/>
    <path d="M20.44 16.0399V14.1299H18.53V16.0399H20.44Z" fill="#1565C0"/>
    <path d="M20.44 17.91V16H18.53V17.91H20.44Z" fill="#1565C0"/>
    <path d="M22.35 17.91V16H20.44V17.91H22.35Z" fill="#1565C0"/>
    <path d="M24.27 17.91V16H22.36V17.91H24.27Z" fill="#1565C0"/>
    <path d="M26.18 17.91V16H24.27V17.91H26.18Z" fill="#1565C0"/>
    <path d="M26.18 19.8202V17.9102H24.27V19.8202H26.18Z" fill="#1565C0"/>
    <path d="M28.1 19.8299V17.9199H26.19V19.8299H28.1Z" fill="#1565C0"/>
    <path d="M28.09 21.5599V19.6499H26.18V21.5599H28.09Z" fill="#1565C0"/>
    <path d="M28.1 23.4701V21.5601H26.19V23.4701H28.1Z" fill="#1565C0"/>
    <path d="M31.92 29.1398V31.0498H33.83V29.1398H31.92Z" fill="#1565C0"/>
    <path d="M28.1 29.1398V31.0498H30.01V29.1398H28.1Z" fill="#1565C0"/>
    <path d="M33.83 27.2199V29.1299H35.74V27.2199H33.83Z" fill="#1565C0"/>
    <path d="M33.87 25.3V27.21H35.78V25.3H33.87Z" fill="#1565C0"/>
    <path d="M32.01 25.3102V27.2202H33.92V25.3102H32.01Z" fill="#1565C0"/>
    <path d="M30.97 25.2998H32.01V27.2098H30.1V25.2998H30.97Z" fill="#1565C0"/>
    <path d="M33.84 23.57V25.48H35.75V23.57H33.84Z" fill="#1565C0"/>
    <path d="M37.53 27.2199V29.1299H39.44V27.2199H37.53Z" fill="#1565C0"/>
    <path d="M35.75 19.7399V21.6499H37.66V19.7399H35.75Z" fill="#1565C0"/>
    <path d="M35.75 23.57V25.48H37.66V23.57H35.75Z" fill="#1565C0"/>
    <path d="M37.52 21.6598V23.5698H39.43V21.6598H37.52Z" fill="#1565C0"/>
    <path d="M35.75 27.2199V29.1299H37.66V27.2199H35.75Z" fill="#1565C0"/>
    <path d="M37.53 23.57V25.48H39.44V23.57H37.53Z" fill="#1565C0"/>
    <path d="M37.52 19.7502V21.6602H39.43V19.7502H37.52Z" fill="#1565C0"/>
    <path d="M35.75 17.8302V19.7402H37.66V17.8302H35.75Z" fill="#1565C0"/>
    <path d="M33.83 17.8302V19.7402H35.74V17.8302H33.83Z" fill="#1565C0"/>
    <path d="M31.92 17.8302V19.7402H33.83V17.8302H31.92Z" fill="#1565C0"/>
    <path d="M30.01 23.5599V21.6499H28.1V23.5599H30.01Z" fill="#1565C0"/>
    <path d="M20.43 32.8901H18.52V34.8001H20.43V32.8901Z" fill="#1565C0"/>
    <path d="M22.35 36.6899H20.44V38.5999H22.35V36.6899Z" fill="#1565C0"/>
    <path d="M24.26 34.7798H22.35V36.6898H24.26V34.7798Z" fill="#1565C0"/>
    <path d="M26.17 36.6899H24.26V38.5999H26.17V36.6899Z" fill="#1565C0"/>
    <path d="M28.09 36.6899H26.18V38.5999H28.09V36.6899Z" fill="#1565C0"/>
    <path d="M28.09 34.7798H26.18V36.6898H28.09V34.7798Z" fill="#1565C0"/>
    <path d="M28.09 32.8701H26.18V34.7801H28.09V32.8701Z" fill="#1565C0"/>
    <path d="M22.35 32.8701H20.44V34.7801H22.35V32.8701Z" fill="#1565C0"/>
    <path d="M22.35 31.04H20.44V32.95H22.35V31.04Z" fill="#1565C0"/>
    <path d="M24.26 31.04H22.35V32.95H24.26V31.04Z" fill="#1565C0"/>
    <path d="M20.43 34.7798H18.52V36.6898H20.43V34.7798Z" fill="#1565C0"/>
    <path d="M20.43 36.6899H18.52V38.5999H20.43V36.6899Z" fill="#1565C0"/>
    <path d="M24.26 31.0399V29.1299H22.35V31.0399H24.26Z" fill="#1565C0"/>
    <path d="M28.09 36.6999V38.6099H30V36.6999H28.09Z" fill="#1565C0"/>
    <path d="M26.17 36.6999V38.6099H28.08V36.6999H26.17Z" fill="#1565C0"/>
    <path d="M24.26 36.6999V38.6099H26.17V36.6999H24.26Z" fill="#1565C0"/>
    <path d="M30.03 34.7902V36.7002H31.94V34.7902H30.03Z" fill="#1565C0"/>
    <path d="M31.92 36.6999V38.6099H33.83V36.6999H31.92Z" fill="#1565C0"/>
    <path d="M33.84 34.7799V36.6899H35.75V34.7799H33.84Z" fill="#1565C0"/>
    <path d="M35.75 36.6999V38.6099H37.66V36.6999H35.75Z" fill="#1565C0"/>
    <path d="M37.52 36.6999V38.6099H39.43V36.6999H37.52Z" fill="#1565C0"/>
    <path d="M37.52 34.7902V36.7002H39.43V34.7902H37.52Z" fill="#1565C0"/>
    <path d="M37.53 32.8698V34.7798H39.44V32.8698H37.53Z" fill="#1565C0"/>
    <path d="M35.76 32.8698V34.7798H37.67V32.8698H35.76Z" fill="#1565C0"/>
    <path d="M37.52 29.1398V31.0498H39.43V29.1398H37.52Z" fill="#1565C0"/>
    <path d="M35.75 30.9601V32.8701H37.66V30.9601H35.75Z" fill="#1565C0"/>
    <path d="M35.75 34.7902V36.7002H37.66V34.7902H35.75Z" fill="#1565C0"/>
    <path d="M30.04 32.8698V34.7798H31.95V32.8698H30.04Z" fill="#1565C0"/>
    <path d="M31.92 31.05V32.96H33.83V31.05H31.92Z" fill="#1565C0"/>
    <path d="M28.19 32.88V34.79H30.1V32.88H28.19Z" fill="#1565C0"/>
    <path d="M26.27 34.7902V36.7002H28.18V34.7902H26.27Z" fill="#1565C0"/>
    <path d="M26.27 32.8698V34.7798H28.18V32.8698H26.27Z" fill="#1565C0"/>
    <path d="M26.18 31.12V29.21H24.27V31.12H26.18Z" fill="#1565C0"/>
    <path d="M30.01 21.64V19.73H28.1V21.64H30.01Z" fill="#1565C0"/>
    <path d="M31.92 21.6502V19.7402H30.01V21.6502H31.92Z" fill="#1565C0"/>
    <path d="M26.05 6.28988V4.37988H24.14V6.28988H26.05Z" fill="#1565C0"/>
    <path d="M26.04 13.95V12.04H24.13V13.95H26.04Z" fill="#1565C0"/>
    <path d="M20.39 8.20004V6.29004H18.48V8.20004H20.39Z" fill="#1565C0"/>
    <path d="M22.3 10.12V8.20996H20.39V10.12H22.3Z" fill="#1565C0"/>
    <path d="M22.3 6.28988V4.37988H20.39V6.28988H22.3Z" fill="#1565C0"/>
</svg>
