<svg width="36" height="36" viewBox="0 0 36 36" fill="none" xmlns="http://www.w3.org/2000/svg">
<defs>
<linearGradient id="paint0_linear" x1="24.1355" y1="19.9188" x2="34.0242" y2="19.9188" gradientUnits="userSpaceOnUse">
<stop stop-color="#007940"/>
<stop offset="0.2285" stop-color="#00873F"/>
<stop offset="0.7433" stop-color="#40A737"/>
<stop offset="1" stop-color="#5CB531"/>
</linearGradient>
<linearGradient id="paint1_linear" x1="24.1352" y1="15.758" x2="34.0244" y2="15.758" gradientUnits="userSpaceOnUse">
<stop stop-color="#007940"/>
<stop offset="0.2285" stop-color="#00873F"/>
<stop offset="0.7433" stop-color="#40A737"/>
<stop offset="1" stop-color="#5CB531"/>
</linearGradient>
<linearGradient id="paint2_linear" x1="24.1353" y1="17.9077" x2="34.0245" y2="17.9077" gradientUnits="userSpaceOnUse">
<stop stop-color="#007940"/>
<stop offset="0.2285" stop-color="#00873F"/>
<stop offset="0.7433" stop-color="#40A737"/>
<stop offset="1" stop-color="#5CB531"/>
</linearGradient>
<linearGradient id="paint3_linear" x1="1.99786" y1="17.9077" x2="12.0394" y2="17.9077" gradientUnits="userSpaceOnUse">
<stop stop-color="#1F286F"/>
<stop offset="0.4751" stop-color="#004E94"/>
<stop offset="0.8261" stop-color="#0066B1"/>
<stop offset="1" stop-color="#006FBC"/>
</linearGradient>
<linearGradient id="paint4_linear" x1="13.0134" y1="17.9076" x2="22.7662" y2="17.9076" gradientUnits="userSpaceOnUse">
<stop stop-color="#6C2C2F"/>
<stop offset="0.1735" stop-color="#882730"/>
<stop offset="0.5731" stop-color="#BE1833"/>
<stop offset="0.8585" stop-color="#DC0436"/>
<stop offset="1" stop-color="#E60039"/>
</linearGradient>
</defs>
<path d="M26.0977 21.2811H28.4081C28.4742 21.2811 28.6282 21.2527 28.6943 21.2527C29.1345 21.1389 29.5085 20.6267 29.5085 19.9154C29.5085 19.2327 29.1345 18.7205 28.6943 18.5783C28.6282 18.5498 28.4963 18.5498 28.4083 18.5498H26.0978V21.2811H26.0977Z" fill="url(#paint0_linear)"/>
<path d="M29.2223 15.7618C29.2223 15.0789 28.8483 14.6236 28.4081 14.5381C28.3642 14.5381 28.2541 14.5098 28.1882 14.5098H26.0977V17.0134H28.1882C28.2543 17.0134 28.3862 17.0134 28.4083 16.985C28.8484 16.8996 29.2225 16.4445 29.2225 15.7616L29.2223 15.7618Z" fill="url(#paint1_linear)"/>
<path d="M28.1441 5.87598C25.9436 5.87598 24.1391 7.66413 24.1391 9.89353V14.0656H29.7945C29.9265 14.0656 30.0805 14.0656 30.1905 14.0876C31.4668 14.1539 32.4131 14.816 32.4131 15.9637C32.4131 16.8688 31.7749 17.6414 30.5866 17.796V17.8401C31.8849 17.9284 32.8752 18.6568 32.8752 19.7825C32.8752 20.9967 31.7749 21.7913 30.3225 21.7913H24.1172V29.9587H29.9925C32.193 29.9587 33.9975 28.1707 33.9975 25.9412V5.87598H28.1441Z" fill="url(#paint2_linear)"/>
<path d="M6.00741 5.87598C3.80691 5.87598 2.00241 7.66413 2.00241 9.89353V19.8048C3.12473 20.3565 4.29094 20.7098 5.45728 20.7098C6.84356 20.7098 7.59169 19.871 7.59169 18.7231V14.0434H11.0245V18.701C11.0245 20.511 9.9023 21.9901 6.09544 21.9901C3.78497 21.9901 1.98047 21.4822 1.98047 21.4822V29.9366H7.85578C10.0563 29.9366 11.8608 28.1486 11.8608 25.919V5.87626H6.00727L6.00741 5.87598Z" fill="url(#paint3_linear)"/>
<path d="M17.0753 5.87598C14.8748 5.87598 13.0703 7.66413 13.0703 9.89353V15.1471C14.0827 14.2862 15.843 13.7343 18.6817 13.8668C20.2 13.9331 21.8283 14.3525 21.8283 14.3525V16.0522C21.0141 15.6328 20.046 15.2574 18.7916 15.1691C16.6352 15.0146 15.3369 16.0742 15.3369 17.9284C15.3369 19.8047 16.6352 20.8642 18.7916 20.6876C20.046 20.5993 21.0142 20.2021 21.8283 19.8047V21.5044C21.8283 21.5044 20.2219 21.9238 18.6817 21.9901C15.843 22.1224 14.0827 21.5705 13.0705 20.7098V29.9807H18.9458C21.1463 29.9807 22.9506 28.1927 22.9506 25.9632V5.87626H17.0753V5.87598Z" fill="url(#paint4_linear)"/>
</svg>
