<?xml version="1.0" encoding="utf-8"?>
<svg viewBox="346.384 155.443 12.667 16" xmlns="http://www.w3.org/2000/svg">
    <defs>
        <clipPath id="clip0">
            <rect width="16" height="16" fill="white"/>
        </clipPath>
    </defs>
    <g clip-path="url(#clip0)" transform="matrix(1, 0, 0, 1, 344.717651, 155.443375)">
        <path d="M11 6L5 6C4.86739 6 4.74021 6.05268 4.64645 6.14645C4.55268 6.24022 4.5 6.36739 4.5 6.5C4.5 6.63261 4.55268 6.75978 4.64645 6.85355C4.74021 6.94732 4.86739 7 5 7L11 7C11.1326 7 11.2598 6.94732 11.3536 6.85355C11.4473 6.75978 11.5 6.63261 11.5 6.5C11.5 6.36739 11.4473 6.24022 11.3536 6.14645C11.2598 6.05268 11.1326 6 11 6Z" style="fill: rgb(32, 101, 72);"/>
        <path d="M11.5 8.83276C11.5 8.70016 11.4473 8.57298 11.3536 8.47921C11.2598 8.38544 11.1326 8.33276 11 8.33276L5 8.33276C4.86739 8.33276 4.74021 8.38544 4.64645 8.47921C4.55268 8.57298 4.5 8.70016 4.5 8.83276C4.5 8.96537 4.55268 9.09255 4.64645 9.18632C4.74021 9.28009 4.86739 9.33276 5 9.33276L11 9.33276C11.1326 9.33276 11.2598 9.28009 11.3536 9.18632C11.4473 9.09255 11.5 8.96537 11.5 8.83276Z" style="fill: rgb(32, 101, 72);"/>
        <path d="M6.66653 4.33321L9.3332 4.33321C9.51001 4.33321 9.67958 4.26297 9.8046 4.13795C9.92963 4.01293 9.99986 3.84336 9.99986 3.66655L9.99986 1.99988C9.99932 1.69136 9.92757 1.38714 9.7902 1.11089C9.65284 0.834639 9.45357 0.593822 9.2079 0.407188C8.96224 0.220554 8.67682 0.0931397 8.37385 0.0348653C8.07089 -0.0234091 7.75857 -0.0109708 7.4612 0.0712118C7.0333 0.195995 6.65836 0.458141 6.39426 0.817191C6.13015 1.17624 5.99156 1.61223 5.99986 2.05788L5.99986 3.66655C5.99986 3.84336 6.0701 4.01293 6.19513 4.13795C6.32015 4.26297 6.48972 4.33321 6.66653 4.33321ZM7.49986 1.83321C7.49986 1.73432 7.52919 1.63765 7.58413 1.55543C7.63907 1.4732 7.71716 1.40912 7.80852 1.37127C7.89989 1.33343 8.00042 1.32353 8.09741 1.34282C8.1944 1.36211 8.28349 1.40973 8.35342 1.47966C8.42334 1.54958 8.47096 1.63868 8.49026 1.73567C8.50955 1.83266 8.49965 1.93319 8.4618 2.02455C8.42396 2.11592 8.35987 2.19401 8.27765 2.24895C8.19543 2.30389 8.09876 2.33321 7.99986 2.33321C7.93415 2.33321 7.86908 2.32026 7.80837 2.29509C7.74766 2.26992 7.69251 2.23303 7.64608 2.18653C7.59964 2.14003 7.56282 2.08483 7.53773 2.02409C7.51265 1.96335 7.49978 1.89826 7.49986 1.83255L7.49986 1.83321Z" style="fill: rgb(32, 101, 72);"/>
        <path d="M13.0001 2L11.1667 2C11.1225 2 11.0802 2.01756 11.0489 2.04882C11.0176 2.08007 11.0001 2.12246 11.0001 2.16667L11.0001 3.16667C11.0001 3.21087 11.0176 3.25326 11.0489 3.28452C11.0802 3.31577 11.1225 3.33333 11.1667 3.33333L12.6667 3.33333C12.7552 3.33333 12.8399 3.36845 12.9024 3.43096C12.965 3.49348 13.0001 3.57826 13.0001 3.66667L13.0001 12.1947C13.0002 12.2385 12.9916 12.2819 12.9749 12.3224C12.9582 12.3628 12.9337 12.3997 12.9027 12.4307L10.7641 14.5687C10.7016 14.631 10.617 14.666 10.5287 14.666L3.33341 14.666C3.24501 14.666 3.16022 14.6309 3.09771 14.5684C3.0352 14.5059 3.00008 14.4211 3.00008 14.3327L3.00008 3.66667C3.00008 3.57826 3.0352 3.49348 3.09771 3.43096C3.16022 3.36845 3.24501 3.33333 3.33341 3.33333L4.83341 3.33333C4.87762 3.33333 4.92001 3.31577 4.95127 3.28452C4.98252 3.25326 5.00008 3.21087 5.00008 3.16667L5.00008 2.16667C5.00008 2.12246 4.98252 2.08007 4.95127 2.04882C4.92001 2.01756 4.87762 2 4.83341 2L3.00008 2C2.64646 2 2.30732 2.14048 2.05727 2.39052C1.80722 2.64057 1.66675 2.97971 1.66675 3.33333L1.66675 14.6667C1.66675 15.0203 1.80722 15.3594 2.05727 15.6095C2.30732 15.8595 2.64646 16 3.00008 16L13.0001 16C13.3537 16 13.6928 15.8595 13.9429 15.6095C14.1929 15.3594 14.3334 15.0203 14.3334 14.6667L14.3334 3.33333C14.3334 2.97971 14.1929 2.64057 13.9429 2.39052C13.6928 2.14048 13.3537 2 13.0001 2Z" style="fill: rgb(32, 101, 72);"/>
        <path d="M5 10.6667C4.86739 10.6667 4.74021 10.7194 4.64645 10.8132C4.55268 10.907 4.5 11.0341 4.5 11.1667C4.5 11.2994 4.55268 11.4265 4.64645 11.5203C4.74021 11.6141 4.86739 11.6667 5 11.6667L7.5 11.6667C7.63261 11.6667 7.75978 11.6141 7.85355 11.5203C7.94732 11.4265 8 11.2994 8 11.1667C8 11.0341 7.94732 10.907 7.85355 10.8132C7.75978 10.7194 7.63261 10.6667 7.5 10.6667L5 10.6667Z" style="fill: rgb(32, 101, 72);"/>
    </g>
</svg>