<svg width="16" height="17" viewBox="0 0 16 17" fill="none" xmlns="http://www.w3.org/2000/svg">
<path fill-rule="evenodd" clip-rule="evenodd" d="M3.33333 8.50002C2.96514 8.50002 2.66667 8.7985 2.66667 9.16669V13.8334C2.66667 14.2015 2.96514 14.5 3.33333 14.5H12.6667C13.0349 14.5 13.3333 14.2015 13.3333 13.8334V9.16669C13.3333 8.7985 13.0349 8.50002 12.6667 8.50002H3.33333ZM1.33333 9.16669C1.33333 8.06212 2.22876 7.16669 3.33333 7.16669H12.6667C13.7712 7.16669 14.6667 8.06212 14.6667 9.16669V13.8334C14.6667 14.9379 13.7712 15.8334 12.6667 15.8334H3.33333C2.22876 15.8334 1.33333 14.9379 1.33333 13.8334V9.16669Z" fill="#979796"/>
<path fill-rule="evenodd" clip-rule="evenodd" d="M8 2.50002C7.29276 2.50002 6.61448 2.78097 6.11438 3.28107C5.61428 3.78117 5.33333 4.45944 5.33333 5.16669V7.83335C5.33333 8.20154 5.03486 8.50002 4.66667 8.50002C4.29848 8.50002 4 8.20154 4 7.83335V5.16669C4 4.10582 4.42143 3.08841 5.17157 2.33826C5.92172 1.58811 6.93913 1.16669 8 1.16669C9.06087 1.16669 10.0783 1.58811 10.8284 2.33826C11.5786 3.08841 12 4.10582 12 5.16669V7.83335C12 8.20154 11.7015 8.50002 11.3333 8.50002C10.9651 8.50002 10.6667 8.20154 10.6667 7.83335V5.16669C10.6667 4.45944 10.3857 3.78117 9.88562 3.28107C9.38552 2.78097 8.70724 2.50002 8 2.50002Z" fill="#979796"/>
</svg>
