<svg width="12" height="12" viewBox="0 0 12 12" fill="none" xmlns="http://www.w3.org/2000/svg">
<path d="M11.65 2.53807C11.4148 2.08019 11.0756 1.68385 10.6595 1.38088C10.2434 1.07792 9.76201 0.876776 9.25405 0.793624C8.74609 0.710471 8.22571 0.747625 7.73472 0.902099C7.24373 1.05657 6.79581 1.32406 6.42697 1.68307L5.99997 2.07357L5.58647 1.69707C5.21848 1.3311 4.76846 1.05825 4.27381 0.901198C3.77916 0.744142 3.25417 0.707414 2.74247 0.794069C2.23373 0.873388 1.75127 1.07295 1.33515 1.37619C0.919041 1.67943 0.581292 2.07758 0.349966 2.53757C0.0407535 3.14353 -0.0672993 3.83226 0.0414917 4.5038C0.150283 5.17534 0.470256 5.79473 0.954966 6.27207L5.64147 11.1001C5.68806 11.148 5.7438 11.1861 5.80537 11.2121C5.86695 11.2381 5.93312 11.2515 5.99997 11.2515C6.06681 11.2515 6.13298 11.2381 6.19456 11.2121C6.25613 11.1861 6.31187 11.148 6.35847 11.1001L11.0385 6.28107C11.5252 5.80327 11.8468 5.18275 11.9568 4.50965C12.0668 3.83655 11.9593 3.14592 11.65 2.53807Z" fill="#F5802F"/>
</svg>
