<svg width="17" height="16" viewBox="0 0 17 16" fill="none" xmlns="http://www.w3.org/2000/svg">
<path fill-rule="evenodd" clip-rule="evenodd" d="M3.16669 3.33333C2.80154 3.33333 2.50002 3.63486 2.50002 4V12C2.50002 12.3651 2.80154 12.6667 3.16669 12.6667H13.8334C14.1985 12.6667 14.5 12.3651 14.5 12V4C14.5 3.63486 14.1985 3.33333 13.8334 3.33333H3.16669ZM1.16669 4C1.16669 2.89848 2.06516 2 3.16669 2H13.8334C14.9349 2 15.8334 2.89848 15.8334 4V12C15.8334 13.1015 14.9349 14 13.8334 14H3.16669C2.06516 14 1.16669 13.1015 1.16669 12V4Z" fill="#979796"/>
<path fill-rule="evenodd" clip-rule="evenodd" d="M1.28713 3.61767C1.49828 3.31603 1.91396 3.24268 2.2156 3.45382L8.49996 7.85287L14.7843 3.45382C15.0859 3.24268 15.5016 3.31603 15.7128 3.61767C15.9239 3.9193 15.8506 4.33499 15.5489 4.54613L8.88226 9.2128C8.65272 9.37348 8.34719 9.37348 8.11765 9.2128L1.45098 4.54613C1.14935 4.33499 1.07599 3.9193 1.28713 3.61767Z" fill="#979796"/>
</svg>
