<svg width="17" height="16" viewBox="0 0 17 16" fill="none" xmlns="http://www.w3.org/2000/svg">
<path fill-rule="evenodd" clip-rule="evenodd" d="M8.49992 1.33333C7.08543 1.33333 5.72888 1.89524 4.72868 2.89543C3.72849 3.89562 3.16659 5.25218 3.16659 6.66667C3.16659 8.73204 4.51041 10.7362 5.98389 12.2915C6.70699 13.0548 7.43236 13.6796 7.9777 14.1139C8.18066 14.2755 8.35793 14.4101 8.49992 14.5151C8.6419 14.4101 8.81918 14.2755 9.02213 14.1139C9.56747 13.6796 10.2928 13.0548 11.016 12.2915C12.4894 10.7362 13.8333 8.73204 13.8333 6.66667C13.8333 5.25218 13.2713 3.89562 12.2712 2.89543C11.271 1.89524 9.91441 1.33333 8.49992 1.33333ZM8.49992 15.3333C8.13012 15.888 8.12995 15.8879 8.12976 15.8878L8.12785 15.8865L8.12341 15.8835L8.10813 15.8732C8.09515 15.8644 8.07664 15.8517 8.05296 15.8353C8.00561 15.8025 7.93756 15.7547 7.85178 15.6928C7.68028 15.5689 7.43749 15.3881 7.14713 15.1569C6.56747 14.6954 5.79284 14.0286 5.01595 13.2085C3.48943 11.5972 1.83325 9.26796 1.83325 6.66667C1.83325 4.89856 2.53563 3.20286 3.78587 1.95262C5.03612 0.702379 6.73181 0 8.49992 0C10.268 0 11.9637 0.702379 13.214 1.95262C14.4642 3.20286 15.1666 4.89856 15.1666 6.66667C15.1666 9.26796 13.5104 11.5972 11.9839 13.2085C11.207 14.0286 10.4324 14.6954 9.8527 15.1569C9.56235 15.3881 9.31955 15.5689 9.14806 15.6928C9.06228 15.7547 8.99423 15.8025 8.94688 15.8353C8.9232 15.8517 8.90469 15.8644 8.89171 15.8732L8.87643 15.8835L8.87199 15.8865L8.87058 15.8875C8.87039 15.8876 8.86972 15.888 8.49992 15.3333ZM8.49992 15.3333L8.86972 15.888C8.64579 16.0373 8.35369 16.0371 8.12976 15.8878L8.49992 15.3333Z" fill="#034DA2"/>
<path fill-rule="evenodd" clip-rule="evenodd" d="M8.49992 5.33333C7.76354 5.33333 7.16659 5.93029 7.16659 6.66667C7.16659 7.40305 7.76354 8 8.49992 8C9.2363 8 9.83325 7.40305 9.83325 6.66667C9.83325 5.93029 9.2363 5.33333 8.49992 5.33333ZM5.83325 6.66667C5.83325 5.19391 7.02716 4 8.49992 4C9.97268 4 11.1666 5.19391 11.1666 6.66667C11.1666 8.13943 9.97268 9.33333 8.49992 9.33333C7.02716 9.33333 5.83325 8.13943 5.83325 6.66667Z" fill="#034DA2"/>
</svg>
