<svg width="16" height="16" viewBox="0 0 16 16" fill="none" xmlns="http://www.w3.org/2000/svg">
<path fill-rule="evenodd" clip-rule="evenodd" d="M5.00257 0.754586C5.19611 0.643996 5.43211 0.637445 5.63148 0.73713L10.6457 3.24424L15.0026 0.754586C15.2089 0.63668 15.4624 0.637527 15.668 0.756808C15.8735 0.87609 16 1.09577 16 1.33341V12.0001C16 12.2393 15.8718 12.4602 15.6641 12.5789L10.9974 15.2456C10.8039 15.3562 10.5679 15.3627 10.3685 15.263L5.35431 12.7559L0.997426 15.2456C0.791091 15.3635 0.537592 15.3626 0.332049 15.2434C0.126506 15.1241 0 14.9044 0 14.6667V4.00008C0 3.76084 0.128191 3.53995 0.335907 3.42125L5.00257 0.754586ZM5.35431 2.08926L1.33333 4.38696V13.518L5.00257 11.4213C5.19611 11.3107 5.43211 11.3041 5.63148 11.4038L10.6457 13.9109L14.6667 11.6132V2.4822L10.9974 4.57891C10.8039 4.6895 10.5679 4.69605 10.3685 4.59637L5.35431 2.08926Z" fill="#979796"/>
<path fill-rule="evenodd" clip-rule="evenodd" d="M5.33317 0.666748C5.70136 0.666748 5.99984 0.965225 5.99984 1.33341V12.0001C5.99984 12.3683 5.70136 12.6667 5.33317 12.6667C4.96498 12.6667 4.6665 12.3683 4.6665 12.0001V1.33341C4.6665 0.965225 4.96498 0.666748 5.33317 0.666748Z" fill="#979796"/>
<path fill-rule="evenodd" clip-rule="evenodd" d="M10.6667 3.33325C11.0349 3.33325 11.3333 3.63173 11.3333 3.99992V14.6666C11.3333 15.0348 11.0349 15.3333 10.6667 15.3333C10.2985 15.3333 10 15.0348 10 14.6666V3.99992C10 3.63173 10.2985 3.33325 10.6667 3.33325Z" fill="#979796"/>
</svg>
