<svg width="16" height="16" viewBox="0 0 16 16" fill="none" xmlns="http://www.w3.org/2000/svg">
<path fill-rule="evenodd" clip-rule="evenodd" d="M8.29289 7.29289C8.48043 7.10536 8.73478 7 9 7H10C10.2652 7 10.5196 7.10536 10.7071 7.29289C10.8946 7.48043 11 7.73478 11 8V8.5H11.5C11.7652 8.5 12.0196 8.60536 12.2071 8.79289C12.3946 8.98043 12.5 9.23478 12.5 9.5V10.5C12.5 10.7652 12.3946 11.0196 12.2071 11.2071C12.0196 11.3946 11.7652 11.5 11.5 11.5H11V12C11 12.2652 10.8946 12.5196 10.7071 12.7071C10.5196 12.8946 10.2652 13 10 13H9C8.73478 13 8.48043 12.8946 8.29289 12.7071C8.10536 12.5196 8 12.2652 8 12V11.5H7.5C7.23478 11.5 6.98043 11.3946 6.79289 11.2071C6.60536 11.0196 6.5 10.7652 6.5 10.5V9.5C6.5 9.23478 6.60536 8.98043 6.79289 8.79289C6.98043 8.60536 7.23478 8.5 7.5 8.5H8V8C8 7.73478 8.10536 7.48043 8.29289 7.29289ZM10 8L9 8L9 9C9 9.27614 8.77614 9.5 8.5 9.5L7.5 9.5L7.5 10.5H8.5C8.77614 10.5 9 10.7239 9 11V12H10V11C10 10.7239 10.2239 10.5 10.5 10.5H11.5L11.5 9.5L10.5 9.5C10.2239 9.5 10 9.27614 10 9V8Z" fill="#6F6F6D"/>
<path fill-rule="evenodd" clip-rule="evenodd" d="M1.5 2C1.36739 2 1.24021 2.05268 1.14645 2.14645C1.05268 2.24021 1 2.36739 1 2.5V13C1 13.2652 1.10536 13.5196 1.29289 13.7071C1.48043 13.8946 1.73478 14 2 14C2.26522 14 2.51957 13.8946 2.70711 13.7071C2.89464 13.5196 3 13.2652 3 13V5.5C3 5.22386 3.22386 5 3.5 5H15.5C15.7761 5 16 5.22386 16 5.5V13C16 13.5304 15.7893 14.0391 15.4142 14.4142C15.0391 14.7893 14.5304 15 14 15H2C1.46957 15 0.960859 14.7893 0.585786 14.4142C0.210714 14.0391 0 13.5304 0 13V2.5C0 2.10218 0.158035 1.72064 0.43934 1.43934C0.720644 1.15804 1.10218 1 1.5 1H5.5C5.89782 1 6.27936 1.15804 6.56066 1.43934C6.84196 1.72064 7 2.10218 7 2.5V3H13.5C13.7761 3 14 3.22386 14 3.5C14 3.77614 13.7761 4 13.5 4H7C6.73478 4 6.48043 3.89464 6.29289 3.70711C6.10536 3.51957 6 3.26522 6 3V2.5C6 2.36739 5.94732 2.24021 5.85355 2.14645C5.75979 2.05268 5.63261 2 5.5 2H1.5ZM3.73206 14H14C14.2652 14 14.5196 13.8946 14.7071 13.7071C14.8946 13.5196 15 13.2652 15 13V6H4V13C4 13.3541 3.90609 13.6985 3.73206 14Z" fill="#6F6F6D"/>
</svg>
