<svg width="24" height="24" viewBox="0 0 24 24" fill="none" xmlns="http://www.w3.org/2000/svg">
<g clip-path="url(#clip0)">
<path fill-rule="evenodd" clip-rule="evenodd" d="M3.75006 7.25C3.15332 7.25 2.58103 7.48705 2.15907 7.90901C1.73711 8.33097 1.50006 8.90326 1.50006 9.5L1.50006 20C1.50006 20.5967 1.73711 21.169 2.15907 21.591C2.58103 22.0129 3.15332 22.25 3.75006 22.25L18.7501 22.25C19.3468 22.25 19.9191 22.0129 20.3411 21.591C20.763 21.169 21.0001 20.5967 21.0001 20L21.0001 18.5C21.0001 18.0858 21.3358 17.75 21.7501 17.75C22.1643 17.75 22.5001 18.0858 22.5001 18.5L22.5001 20C22.5001 20.9946 22.105 21.9484 21.4017 22.6517C20.6985 23.3549 19.7446 23.75 18.7501 23.75L3.75006 23.75C2.7555 23.75 1.80167 23.3549 1.09841 22.6517C0.395149 21.9484 6.10352e-05 20.9946 6.10352e-05 20L6.10352e-05 9.5C6.10352e-05 8.50544 0.395149 7.55161 1.09841 6.84835C1.80167 6.14509 2.7555 5.75 3.75006 5.75L18.7501 5.75C19.7446 5.75 20.6985 6.14509 21.4017 6.84835C22.105 7.55161 22.5001 8.50544 22.5001 9.5L22.5001 11C22.5001 11.4142 22.1643 11.75 21.7501 11.75C21.3358 11.75 21.0001 11.4142 21.0001 11L21.0001 9.5C21.0001 8.90326 20.763 8.33097 20.3411 7.90901C19.9191 7.48705 19.3468 7.25 18.7501 7.25L3.75006 7.25Z" fill="#034DA2"/>
<path fill-rule="evenodd" clip-rule="evenodd" d="M14.9194 0.268133C15.2142 0.247141 15.5103 0.284445 15.7907 0.377914C16.0711 0.471383 16.3304 0.619186 16.5537 0.812877C16.7769 1.00653 16.9598 1.24225 17.0919 1.50658C17.0919 1.50664 17.0918 1.50652 17.0919 1.50658L19.4209 6.16458C19.6061 6.53506 19.4559 6.98557 19.0855 7.17081C18.715 7.35605 18.2645 7.20588 18.0792 6.8354L15.7502 2.1774C15.7062 2.08926 15.6451 2.01049 15.5707 1.94593C15.4963 1.88136 15.4099 1.8321 15.3164 1.80094C15.2229 1.76978 15.1242 1.75735 15.026 1.76435C14.9277 1.77134 14.8317 1.79764 14.7436 1.84172L4.08545 7.17081C3.71497 7.35605 3.26446 7.20588 3.07922 6.8354C2.89398 6.46492 3.04415 6.01441 3.41463 5.82917L14.0725 0.50026C14.0725 0.50023 14.0724 0.50029 14.0725 0.50026C14.3367 0.368057 14.6247 0.289121 14.9194 0.268133Z" fill="#034DA2"/>
<path fill-rule="evenodd" clip-rule="evenodd" d="M14.8181 11.568C15.662 10.7241 16.8066 10.25 18.0001 10.25L21.7501 10.25C22.3468 10.25 22.9191 10.4871 23.3411 10.909C23.763 11.331 24.0001 11.9033 24.0001 12.5L24.0001 17C24.0001 17.5967 23.763 18.169 23.3411 18.591C22.9191 19.0129 22.3468 19.25 21.7501 19.25L18.0001 19.25C16.8066 19.25 15.662 18.7759 14.8181 17.932C13.9742 17.0881 13.5001 15.9435 13.5001 14.75C13.5001 13.5565 13.9742 12.4119 14.8181 11.568ZM18.0001 11.75C17.2044 11.75 16.4413 12.0661 15.8787 12.6287C15.3161 13.1913 15.0001 13.9544 15.0001 14.75C15.0001 15.5456 15.3161 16.3087 15.8787 16.8713C16.4413 17.4339 17.2044 17.75 18.0001 17.75L21.7501 17.75C21.949 17.75 22.1397 17.671 22.2804 17.5303C22.421 17.3897 22.5001 17.1989 22.5001 17L22.5001 12.5C22.5001 12.3011 22.421 12.1103 22.2804 11.9697C22.1397 11.829 21.949 11.75 21.7501 11.75L18.0001 11.75Z" fill="#034DA2"/>
<path fill-rule="evenodd" clip-rule="evenodd" d="M18.0001 13.625C17.7017 13.625 17.4155 13.7435 17.2046 13.9545C16.9936 14.1655 16.8751 14.4516 16.8751 14.75C16.8751 14.9725 16.941 15.19 17.0647 15.375C17.1883 15.56 17.364 15.7042 17.5695 15.7894C17.7751 15.8745 18.0013 15.8968 18.2195 15.8534C18.4378 15.81 18.6382 15.7028 18.7956 15.5455C18.9529 15.3882 19.06 15.1877 19.1034 14.9695C19.1469 14.7513 19.1246 14.525 19.0394 14.3195C18.9543 14.1139 18.8101 13.9382 18.6251 13.8146C18.4401 13.691 18.2226 13.625 18.0001 13.625Z" fill="#034DA2"/>
</g>
<defs>
<clipPath id="clip0">
<rect width="24" height="24" fill="white"/>
</clipPath>
</defs>
</svg>
