<svg width="36" height="36" viewBox="0 0 36 36" fill="none" xmlns="http://www.w3.org/2000/svg">
<path d="M23.625 32.625H12.375L13.5 25.875H22.5L23.625 32.625Z" stroke="#00968C" stroke-width="1.5" stroke-linecap="round" stroke-linejoin="round"/>
<path d="M9 32.625H27" stroke="#00968C" stroke-width="1.5" stroke-linecap="round" stroke-linejoin="round"/>
<path d="M31.5 3.375H4.5C2.63604 3.375 1.125 4.88604 1.125 6.75V22.5C1.125 24.364 2.63604 25.875 4.5 25.875H31.5C33.364 25.875 34.875 24.364 34.875 22.5V6.75C34.875 4.88604 33.364 3.375 31.5 3.375Z" stroke="#00968C" stroke-width="1.5" stroke-linecap="round" stroke-linejoin="round"/>
<path d="M29.8994 14.625H26.1764C26.0838 14.6251 25.9926 14.6023 25.9109 14.5586C25.8292 14.5149 25.7597 14.4517 25.7084 14.3745L21.9119 8.68201C21.8573 8.60017 21.7821 8.5341 21.6939 8.49039C21.6057 8.44669 21.5076 8.42688 21.4094 8.43296C21.3112 8.43903 21.2163 8.47077 21.1341 8.525C21.052 8.57923 20.9856 8.65406 20.9414 8.74201L15.0584 20.508C15.0143 20.596 14.9478 20.6708 14.8657 20.725C14.7836 20.7793 14.6886 20.811 14.5904 20.8171C14.4922 20.8231 14.3941 20.8033 14.3059 20.7596C14.2177 20.7159 14.1426 20.6499 14.0879 20.568L10.2914 14.8755C10.2401 14.7984 10.1706 14.7351 10.0889 14.6914C10.0073 14.6477 9.91604 14.6249 9.82341 14.625H5.14941" stroke="#00968C" stroke-width="1.5" stroke-linecap="round" stroke-linejoin="round"/>
</svg>
