<svg width="60" height="60" viewBox="0 0 60 60" fill="none" xmlns="http://www.w3.org/2000/svg">
<path d="M42.5 0H17.5C15.5109 0 13.6032 0.790176 12.1967 2.1967C10.7902 3.60322 10 5.51088 10 7.5V52.5C10 54.4891 10.7902 56.3968 12.1967 57.8033C13.6032 59.2098 15.5109 60 17.5 60H42.5C44.4891 60 46.3968 59.2098 47.8033 57.8033C49.2098 56.3968 50 54.4891 50 52.5V7.5C50 5.51088 49.2098 3.60322 47.8033 2.1967C46.3968 0.790176 44.4891 0 42.5 0V0ZM45 47.5C45 47.8315 44.8683 48.1495 44.6339 48.3839C44.3995 48.6183 44.0815 48.75 43.75 48.75H16.25C15.9185 48.75 15.6005 48.6183 15.3661 48.3839C15.1317 48.1495 15 47.8315 15 47.5V8.75C15 8.41848 15.1317 8.10054 15.3661 7.86612C15.6005 7.6317 15.9185 7.5 16.25 7.5H43.75C44.0815 7.5 44.3995 7.6317 44.6339 7.86612C44.8683 8.10054 45 8.41848 45 8.75V47.5Z" fill="white"/>
<path d="M30 16.25C27.775 16.25 25.5999 16.9098 23.7498 18.146C21.8998 19.3821 20.4578 21.1391 19.6064 23.1948C18.7549 25.2505 18.5321 27.5125 18.9662 29.6948C19.4003 31.8771 20.4717 33.8816 22.0451 35.455C23.6184 37.0283 25.623 38.0998 27.8052 38.5338C29.9875 38.9679 32.2495 38.7451 34.3052 37.8936C36.3609 37.0422 38.1179 35.6002 39.354 33.7502C40.5902 31.9001 41.25 29.725 41.25 27.5C41.2467 24.5173 40.0604 21.6578 37.9513 19.5487C35.8422 17.4396 32.9827 16.2533 30 16.25ZM35.955 25.7175L31.1125 32.1725C30.8392 32.5244 30.4946 32.8147 30.1014 33.0244C29.7083 33.234 29.2753 33.3584 28.8307 33.3893C28.3862 33.4202 27.9402 33.357 27.5217 33.2037C27.1033 33.0505 26.7219 32.8107 26.4025 32.5L23.9025 30C23.5608 29.6465 23.3716 29.173 23.3756 28.6814C23.3796 28.1897 23.5766 27.7194 23.9241 27.3716C24.2716 27.0238 24.7418 26.8264 25.2334 26.8218C25.725 26.8173 26.1987 27.0061 26.5525 27.3475L28.5525 29.3475L32.9625 23.47C33.1102 23.273 33.2953 23.1071 33.5072 22.9816C33.7191 22.8562 33.9536 22.7737 34.1973 22.7388C34.4411 22.704 34.6893 22.7176 34.9278 22.7787C35.1664 22.8398 35.3905 22.9473 35.5875 23.095C35.7845 23.2427 35.9504 23.4278 36.0759 23.6397C36.2013 23.8516 36.2838 24.0861 36.3187 24.3298C36.3535 24.5736 36.34 24.8218 36.2788 25.0603C36.2177 25.2989 36.1102 25.523 35.9625 25.72L35.955 25.7175Z" fill="white"/>
</svg>
