<svg width="20" height="20" viewBox="0 0 20 20" fill="none" xmlns="http://www.w3.org/2000/svg">
<defs>
<clipPath id="clip0">
<rect width="20" height="20" fill="white"/>
</clipPath>
</defs>
<g clip-path="url(#clip0)">
<path d="M16.6667 19.0834C16.5834 19.0834 16.5001 19.0834 16.4167 19.0834C13.7501 18.7501 11.0834 17.8334 8.83341 16.4167C6.75008 15.0834 4.91675 13.2501 3.58341 11.1667C2.08341 8.91675 1.16675 6.25008 0.916748 3.58341C0.916748 2.91675 1.08341 2.25008 1.50008 1.75008C1.91675 1.25008 2.50008 0.916748 3.16675 0.833415C3.25008 0.833415 3.33341 0.833415 3.41675 0.833415H5.91675C7.16675 0.833415 8.25008 1.75008 8.41675 3.00008C8.50008 3.75008 8.66675 4.50008 8.91675 5.16675C9.25008 6.08341 9.00008 7.08341 8.33341 7.83341L7.75008 8.41675C8.75008 9.91675 10.0001 11.2501 11.5834 12.2501L12.1667 11.6667C12.8334 11.0001 13.9167 10.7501 14.8334 11.0834C15.5001 11.3334 16.2501 11.5001 17.0001 11.5834C18.2501 11.7501 19.1667 12.8334 19.1667 14.0834V16.5834C19.1667 17.2501 18.9167 17.9167 18.4167 18.3334C17.9167 18.7501 17.3334 19.0834 16.6667 19.0834ZM5.91675 2.50008H3.41675C3.16675 2.50008 2.91675 2.66675 2.75008 2.83341C2.66675 3.00008 2.58341 3.16675 2.58341 3.41675C2.83341 5.83341 3.66675 8.16675 5.00008 10.2501C6.25008 12.1667 7.83341 13.8334 9.75008 15.0001C11.8334 16.3334 14.1667 17.1667 16.5834 17.4167C16.9167 17.4167 17.0834 17.3334 17.2501 17.1667C17.4167 17.0001 17.5001 16.8334 17.5001 16.5834V14.0834C17.5001 13.6667 17.1667 13.3334 16.7501 13.2501C15.9167 13.1667 15.0834 12.9167 14.2501 12.5834C13.9167 12.5001 13.5834 12.5001 13.3334 12.7501L12.2501 13.8334C12.0001 14.0834 11.5834 14.1667 11.2501 14.0001C9.00008 12.7501 7.16675 10.9167 5.91675 8.66675C5.83341 8.33341 5.91675 7.91675 6.16675 7.66675L7.25008 6.58341C7.41675 6.41675 7.50008 6.00008 7.41675 5.75008C7.08341 4.91675 6.91675 4.08341 6.75008 3.25008C6.75008 2.83341 6.33341 2.50008 5.91675 2.50008ZM15.8334 8.33342C15.4167 8.33342 15.0834 8.08342 15.0001 7.66675C14.7501 6.33341 13.6667 5.33341 12.3334 5.00008C11.9167 4.91675 11.5834 4.50008 11.6667 4.00008C11.7501 3.58341 12.1667 3.25008 12.6667 3.33341C14.6667 3.75008 16.2501 5.25008 16.5834 7.25008C16.6667 7.66675 16.4167 8.16675 15.9167 8.25008C15.9167 8.25008 15.9167 8.33342 15.8334 8.33342ZM19.1667 8.25008C18.7501 8.25008 18.4167 7.91675 18.3334 7.50008C18.0001 4.41675 15.5834 2.00008 12.4167 1.58341C12.0001 1.50008 11.6667 1.08341 11.6667 0.666748C11.6667 0.250081 12.1667 -0.083252 12.5834 -0.083252C16.5001 0.333415 19.5001 3.33342 19.9167 7.25008C20.0001 7.66675 19.6667 8.08342 19.1667 8.16675C19.2501 8.25008 19.1667 8.25008 19.1667 8.25008Z" fill="#FFFFFF"/>
</g>
</svg>
