<svg width="16" height="17" viewBox="0 0 16 17" fill="none" xmlns="http://www.w3.org/2000/svg">
<path d="M14.6669 11.78V13.78C14.6676 13.9657 14.6296 14.1494 14.5552 14.3195C14.4808 14.4897 14.3717 14.6424 14.2349 14.7679C14.0981 14.8934 13.9366 14.989 13.7607 15.0485C13.5848 15.1079 13.3984 15.13 13.2135 15.1133C11.1621 14.8904 9.19152 14.1894 7.46019 13.0666C5.8494 12.0431 4.48374 10.6774 3.46019 9.06665C2.3335 7.32745 1.63235 5.34731 1.41352 3.28665C1.39686 3.10229 1.41877 2.91649 1.47785 2.74107C1.53694 2.56564 1.6319 2.40444 1.7567 2.26773C1.88149 2.13102 2.03339 2.02179 2.20271 1.947C2.37204 1.87221 2.55508 1.83349 2.74019 1.83332H4.74019C5.06372 1.83013 5.37738 1.9447 5.62269 2.15567C5.86801 2.36664 6.02824 2.65961 6.07352 2.97998C6.15793 3.62003 6.31449 4.24847 6.54019 4.85332C6.62988 5.09193 6.64929 5.35126 6.59612 5.60057C6.54295 5.84988 6.41943 6.07872 6.24019 6.25998L5.39352 7.10665C6.34256 8.77568 7.72449 10.1576 9.39352 11.1066L10.2402 10.26C10.4214 10.0807 10.6503 9.95722 10.8996 9.90405C11.1489 9.85087 11.4082 9.87029 11.6469 9.95998C12.2517 10.1857 12.8801 10.3422 13.5202 10.4266C13.844 10.4723 14.1398 10.6355 14.3512 10.885C14.5626 11.1345 14.675 11.453 14.6669 11.78Z" stroke="#6F6F6D" stroke-width="1.5" stroke-linecap="round" stroke-linejoin="round"/>
</svg>
