<svg width="16" height="16" viewBox="0 0 16 16" fill="none" xmlns="http://www.w3.org/2000/svg">
<path d="M4.19835 15.8214C3.15501 15.8214 2.16435 15.4154 1.40768 14.6781C-0.171653 13.1387 -0.204986 10.6014 1.33435 9.02138L9.11701 1.23872C9.87301 0.483383 10.877 0.0673828 11.9457 0.0673828C13.0157 0.0673828 14.0203 0.48405 14.7757 1.24005C15.5303 1.99472 15.9457 3.00005 15.945 4.07005C15.945 5.14005 15.5283 6.14472 14.7737 6.89938L6.99568 14.6734C6.23501 15.4147 5.24301 15.8214 4.19835 15.8214ZM2.04635 9.72405C0.895681 10.9054 0.921014 12.8074 2.10568 13.9621C2.67368 14.5154 3.41768 14.8207 4.19968 14.8207C4.98168 14.8207 5.72501 14.5154 6.29368 13.9621L9.47235 10.7854L5.22835 6.54205L2.04635 9.72405ZM10.1783 10.0787L14.067 6.19205C14.633 5.62605 14.945 4.87272 14.9457 4.07005C14.9457 3.26738 14.6343 2.51338 14.069 1.94738C13.5023 1.38072 12.749 1.06805 11.947 1.06738C11.145 1.06738 10.3917 1.37938 9.82501 1.94605L5.93501 5.83472L10.1783 10.0787Z" fill="#167CD3"/>
<path d="M10.5345 3.85992C10.4012 3.85992 10.2752 3.80792 10.1812 3.71326C9.98649 3.51859 9.98649 3.20126 10.1812 3.00659C10.5585 2.62859 11.0605 2.42059 11.5945 2.41992C12.1292 2.41992 12.6312 2.62792 13.0085 3.00459C13.1058 3.10192 13.1058 3.25992 13.0092 3.35792L12.6558 3.71326C12.6092 3.76059 12.5452 3.78659 12.4792 3.78726C12.4792 3.78726 12.4792 3.78726 12.4785 3.78726C12.4125 3.78726 12.3485 3.76126 12.3018 3.71392C12.1125 3.52459 11.8612 3.42059 11.5945 3.42059C11.3272 3.42059 11.0765 3.52459 10.8878 3.71326C10.7938 3.80792 10.6678 3.85992 10.5345 3.85992Z" fill="#167CD3"/>
</svg>
