<svg width="36" height="36" viewBox="0 0 36 36" fill="none" xmlns="http://www.w3.org/2000/svg">
<path d="M23.625 34.875C29.8382 34.875 34.875 31.3492 34.875 27C34.875 22.6508 29.8382 19.125 23.625 19.125C17.4118 19.125 12.375 22.6508 12.375 27C12.375 31.3492 17.4118 34.875 23.625 34.875Z" stroke="#106BC1" stroke-width="1.5" stroke-linecap="round" stroke-linejoin="round"/>
<path d="M29.25 25.875C29.25 28.3605 26.7315 30.375 23.625 30.375C20.5185 30.375 18 28.3605 18 25.875" stroke="#106BC1" stroke-width="1.5" stroke-linecap="round" stroke-linejoin="round"/>
<path d="M2.48106 17.709C-0.299943 14.3625 1.32756 8.43305 6.10956 4.46405C10.8916 0.495047 17.0176 4.70877e-05 19.8001 3.33905C22.5826 6.67805 20.9536 12.6165 16.1731 16.584C11.3926 20.5515 5.25906 21.0555 2.48106 17.709V17.709Z" stroke="#106BC1" stroke-width="1.5" stroke-linecap="round" stroke-linejoin="round"/>
<path d="M14.7482 6.06616C16.3352 7.97866 15.6842 11.1377 13.2947 13.1162C10.9052 15.0947 7.67873 15.1577 6.09473 13.2452" stroke="#106BC1" stroke-width="1.5" stroke-linecap="round" stroke-linejoin="round"/>
</svg>
