<svg width="16" height="16" viewBox="0 0 16 16" fill="none" xmlns="http://www.w3.org/2000/svg">
<g clip-path="url(#clip0)">
<path d="M5.46484 14.9355C5.18884 14.9355 4.96484 14.7115 4.96484 14.4355V13.9355H4.46484C4.18884 13.9355 3.96484 13.7115 3.96484 13.4355C3.96484 13.1595 4.18884 12.9355 4.46484 12.9355H4.96484V12.4355C4.96484 12.1595 5.18884 11.9355 5.46484 11.9355C5.74084 11.9355 5.96484 12.1595 5.96484 12.4355V12.9355H6.46484C6.74084 12.9355 6.96484 13.1595 6.96484 13.4355C6.96484 13.7115 6.74084 13.9355 6.46484 13.9355H5.96484V14.4355C5.96484 14.7115 5.74018 14.9355 5.46484 14.9355Z" fill="#979796"/>
<path d="M7.96484 4C6.86218 4 5.96484 3.10267 5.96484 2C5.96484 0.897333 6.86218 0 7.96484 0C9.06751 0 9.96484 0.897333 9.96484 2C9.96484 3.10267 9.06751 4 7.96484 4ZM7.96484 1C7.41351 1 6.96484 1.44867 6.96484 2C6.96484 2.55133 7.41351 3 7.96484 3C8.51618 3 8.96484 2.55133 8.96484 2C8.96484 1.44867 8.51618 1 7.96484 1Z" fill="#979796"/>
<path d="M7.97151 8.93619C6.34551 8.93619 4.89284 7.96753 4.27151 6.46753C4.08951 6.02886 3.98884 5.56219 3.97084 5.07952C3.96684 5.05286 3.96484 5.02686 3.96484 5.00019C3.96484 4.99286 3.96551 4.97886 3.96684 4.96752C3.96218 4.42952 4.06484 3.90352 4.27151 3.40486C4.34884 3.21752 4.53018 3.09619 4.73351 3.09619C4.79951 3.09619 4.86351 3.10886 4.92484 3.13419C5.04818 3.18552 5.14418 3.28152 5.19551 3.40486C5.24684 3.52819 5.24684 3.66419 5.19551 3.78752C5.10151 4.01486 5.03618 4.25352 5.00018 4.50019H10.9335C10.8982 4.25352 10.8328 4.01486 10.7388 3.78752C10.6875 3.66419 10.6875 3.52819 10.7388 3.40486C10.7902 3.28152 10.8862 3.18552 11.0095 3.13419C11.0702 3.10886 11.1348 3.09619 11.2008 3.09619C11.4035 3.09619 11.5848 3.21752 11.6628 3.40486C12.0722 4.39219 12.0722 5.47886 11.6635 6.46619C11.2548 7.45353 10.4862 8.22219 9.49884 8.63152C9.01018 8.83352 8.49684 8.93619 7.97151 8.93619ZM5.01951 5.50019C5.05818 5.69952 5.11684 5.89486 5.19551 6.08486C5.66151 7.20952 6.75084 7.93619 7.97084 7.93619C8.36418 7.93619 8.74951 7.85952 9.11551 7.70752C9.85551 7.40086 10.4322 6.82419 10.7388 6.08352C10.8175 5.89419 10.8762 5.69886 10.9142 5.50019H5.01951Z" fill="#979796"/>
<path d="M1.53976 16.0009C1.51576 16.0009 1.49109 15.9989 1.46642 15.9955C1.33509 15.9769 1.21842 15.9075 1.13842 15.8002C1.05842 15.6935 1.02509 15.5615 1.04442 15.4295C1.48442 12.3835 3.91909 9.94888 6.96509 9.50888C7.30109 9.46021 7.64242 9.43555 7.97909 9.43555C9.48976 9.43555 10.9318 9.91755 12.1511 10.8289C13.6471 11.9469 14.6178 13.5809 14.8844 15.4295C14.9238 15.7022 14.7338 15.9569 14.4611 15.9955C14.4371 15.9989 14.4131 16.0002 14.3891 16.0002C14.1424 16.0002 13.9298 15.8162 13.8944 15.5715C13.6651 13.9875 12.8338 12.5869 11.5518 11.6289C10.7864 11.0569 9.89709 10.6762 8.96376 10.5189V15.5002C8.96376 15.7762 8.73976 16.0002 8.46376 16.0002C8.18776 16.0002 7.96376 15.7762 7.96376 15.5002V10.4362C7.67576 10.4362 7.38709 10.4569 7.10709 10.4975C4.49642 10.8749 2.41042 12.9615 2.03309 15.5715C1.99842 15.8162 1.78642 16.0009 1.53976 16.0009Z" fill="#979796"/>
</g>
<defs>
<clipPath id="clip0">
<rect width="16" height="16" fill="white"/>
</clipPath>
</defs>
</svg>
