<svg width="55" height="55" viewBox="0 0 24 24" fill="none" xmlns="http://www.w3.org/2000/svg">
<path d="M1.40625 1.40625H3.9308V0H0V3.9308H1.40625V1.40625Z" fill="white"/>
<path d="M20.0691 0V1.40625H22.5936V3.9308H23.9999V0H20.0691Z" fill="white"/>
<path d="M1.40625 20.0692H0V24H3.9308V22.5937H1.40625V20.0692Z" fill="white"/>
<path d="M22.5936 22.5937H20.0691V24H23.9999V20.0692H22.5936V22.5937Z" fill="white"/>
<path d="M3.22778 11.0893H11.0894V3.22772H3.22778V11.0893ZM4.63403 4.63397H9.68313V9.68307H4.63403V4.63397Z" fill="white"/>
<path d="M20.7722 12.9108H12.9106V20.7724H20.7722V12.9108ZM14.3169 14.317H19.366V16.1384H16.1384V19.3661H14.3169V14.317H14.3169ZM17.5446 19.3661V17.5447H19.3659V19.3661H17.5446Z" fill="white"/>
<path d="M9.68313 16.1384H7.86171V12.9108H3.22778V20.7724H11.0894V13.6139H9.68313V16.1384ZM9.68313 19.3661H4.63403V14.317H6.45546V17.5447H9.68313V19.3661Z" fill="white"/>
<path d="M6.45532 6.45526H7.86157V7.86151H6.45532V6.45526Z" fill="white"/>
<path d="M14.3169 4.63397H16.1383V7.8616H19.3659V9.68302H12.911V11.0893H20.7722V3.22772H12.9106V7.85161H14.3169V4.63397ZM17.5446 4.63397H19.3659V6.45535H17.5446V4.63397Z" fill="white"/>
</svg>
