<svg width="21" height="20" viewBox="0 0 21 20" fill="none" xmlns="http://www.w3.org/2000/svg">
<path fill-rule="evenodd" clip-rule="evenodd" d="M4.66699 3.33317C4.44598 3.33317 4.23402 3.42097 4.07774 3.57725C3.92146 3.73353 3.83366 3.94549 3.83366 4.1665V15.8332C3.83366 16.0542 3.92146 16.2661 4.07774 16.4224C4.23402 16.5787 4.44598 16.6665 4.66699 16.6665H16.3337C16.5547 16.6665 16.7666 16.5787 16.9229 16.4224C17.0792 16.2661 17.167 16.0542 17.167 15.8332V7.01168L13.4885 3.33317H4.66699ZM2.89923 2.39874C3.36807 1.9299 4.00395 1.6665 4.66699 1.6665H13.8337C14.0547 1.6665 14.2666 1.7543 14.4229 1.91058L18.5896 6.07725C18.7459 6.23353 18.8337 6.44549 18.8337 6.6665V15.8332C18.8337 16.4962 18.5703 17.1321 18.1014 17.6009C17.6326 18.0698 16.9967 18.3332 16.3337 18.3332H4.66699C4.00395 18.3332 3.36807 18.0698 2.89923 17.6009C2.43038 17.1321 2.16699 16.4962 2.16699 15.8332V4.1665C2.16699 3.50346 2.43038 2.86758 2.89923 2.39874Z" fill="#F9F9F8"/>
<path fill-rule="evenodd" clip-rule="evenodd" d="M5.50033 10.8332C5.50033 10.3729 5.87342 9.99984 6.33366 9.99984H14.667C15.1272 9.99984 15.5003 10.3729 15.5003 10.8332V17.4998C15.5003 17.9601 15.1272 18.3332 14.667 18.3332C14.2068 18.3332 13.8337 17.9601 13.8337 17.4998V11.6665H7.16699V17.4998C7.16699 17.9601 6.7939 18.3332 6.33366 18.3332C5.87342 18.3332 5.50033 17.9601 5.50033 17.4998V10.8332Z" fill="#F9F9F8"/>
<path fill-rule="evenodd" clip-rule="evenodd" d="M6.33366 1.6665C6.7939 1.6665 7.16699 2.0396 7.16699 2.49984V5.83317H13.0003C13.4606 5.83317 13.8337 6.20627 13.8337 6.6665C13.8337 7.12674 13.4606 7.49984 13.0003 7.49984H6.33366C5.87342 7.49984 5.50033 7.12674 5.50033 6.6665V2.49984C5.50033 2.0396 5.87342 1.6665 6.33366 1.6665Z" fill="#F9F9F8"/>
</svg>
