<svg width="32" height="37" viewBox="0 0 32 37" fill="none" xmlns="http://www.w3.org/2000/svg">
    <path d="M16 18.5C21.05 18.5 25.1429 14.3592 25.1429 9.25C25.1429 4.14082 21.05 0 16 0C10.95 0 6.85714 4.14082 6.85714 9.25C6.85714 14.3592 10.95 18.5 16 18.5ZM9.14286 22.4891C3.85714 24.0572 0 29.0002 0 34.8537C0 36.0389 0.95 37 2.12143 37H29.8786C31.05 37 32 36.0389 32 34.8537C32 29.0002 28.1429 24.0572 22.8571 22.4891V26.1602C24.8286 26.6732 26.2857 28.4871 26.2857 30.6406V33.5312C26.2857 34.1672 25.7714 34.6875 25.1429 34.6875H24C23.3714 34.6875 22.8571 34.1672 22.8571 33.5312C22.8571 32.8953 23.3714 32.375 24 32.375V30.6406C24 29.3615 22.9786 28.3281 21.7143 28.3281C20.45 28.3281 19.4286 29.3615 19.4286 30.6406V32.375C20.0571 32.375 20.5714 32.8953 20.5714 33.5312C20.5714 34.1672 20.0571 34.6875 19.4286 34.6875H18.2857C17.6571 34.6875 17.1429 34.1672 17.1429 33.5312V30.6406C17.1429 28.4871 18.6 26.6732 20.5714 26.1602V22.0338C20.1429 21.9904 19.7071 21.9688 19.2643 21.9688H12.7357C12.2929 21.9688 11.8571 21.9904 11.4286 22.0338V26.76C13.0786 27.2586 14.2857 28.8051 14.2857 30.6406C14.2857 32.8736 12.4929 34.6875 10.2857 34.6875C8.07857 34.6875 6.28571 32.8736 6.28571 30.6406C6.28571 28.8051 7.49286 27.2586 9.14286 26.76V22.4891V22.4891ZM10.2857 32.375C11.2357 32.375 12 31.6018 12 30.6406C12 29.6795 11.2357 28.9062 10.2857 28.9062C9.33571 28.9062 8.57143 29.6795 8.57143 30.6406C8.57143 31.6018 9.33571 32.375 10.2857 32.375Z" fill="#0E5FD9"/>
</svg>
