<svg width="21" height="20" viewBox="0 0 21 20" fill="none" xmlns="http://www.w3.org/2000/svg">
<path fill-rule="evenodd" clip-rule="evenodd" d="M19.4228 1.07711C19.7482 1.40255 19.7482 1.93018 19.4228 2.25562L10.2561 11.4223C9.93065 11.7477 9.40301 11.7477 9.07758 11.4223C8.75214 11.0969 8.75214 10.5692 9.07758 10.2438L18.2442 1.07711C18.5697 0.751672 19.0973 0.751672 19.4228 1.07711Z" fill="white"/>
<path fill-rule="evenodd" clip-rule="evenodd" d="M19.4228 1.07711C19.6491 1.30347 19.7258 1.6395 19.62 1.94166L13.7867 18.6083C13.6738 18.9308 13.3755 19.1517 13.0341 19.1657C12.6927 19.1796 12.3774 18.9837 12.2387 18.6715L9.0355 11.4644L1.82838 8.26121C1.51615 8.12244 1.32026 7.80713 1.33419 7.46573C1.34812 7.12433 1.56904 6.82602 1.89154 6.71315L18.5582 0.879816C18.8604 0.774061 19.1964 0.850744 19.4228 1.07711ZM4.42606 7.59187L10.0053 10.0715C10.1938 10.1553 10.3446 10.3061 10.4283 10.4946L12.908 16.0738L17.4752 3.02467L4.42606 7.59187Z" fill="white"/>
</svg>
