<svg width="19" height="22" viewBox="0 0 19 22" fill="none" xmlns="http://www.w3.org/2000/svg">
<path d="M10.6906 4.19141H7.57024C6.59886 5.21105 5.37938 5.9965 4.00848 6.48746V10.2515C4.00848 13.4347 6.00961 16.2894 9.13043 17.5961C12.2513 16.2894 14.2524 13.4347 14.2524 10.2515V6.48787C12.881 5.99691 11.662 5.21146 10.6906 4.19141ZM12.7207 9.48365L8.56346 13.3117C8.43296 13.4319 8.26193 13.4921 8.09135 13.4921C7.92032 13.4921 7.74929 13.4318 7.61879 13.3117L5.54017 11.3979C5.27962 11.1575 5.27962 10.7679 5.54017 10.5275C5.80117 10.2876 6.22428 10.2876 6.48528 10.5275L8.09135 12.0066L11.776 8.61375C12.0366 8.3734 12.4597 8.3734 12.7207 8.61375C12.9813 8.85406 12.9813 9.2433 12.7207 9.48365ZM17.5888 3.37109C15.6629 3.37109 13.909 2.39656 13.0102 0.828125C12.8948 0.626328 12.6673 0.5 12.4196 0.5H5.84121C5.59357 0.5 5.36598 0.626328 5.25018 0.828125C4.35188 2.39656 2.59794 3.37109 0.668081 3.37109C0.2993 3.37109 0 3.64672 0 3.98633V10.2515C0 12.7702 0.854698 15.1754 2.47145 17.2069C4.08821 19.2384 6.32093 20.7129 8.92912 21.4713C8.99459 21.4906 9.06274 21.5 9.13043 21.5C9.19813 21.5 9.26628 21.4906 9.33175 21.4713C11.94 20.7129 14.1727 19.2384 15.7894 17.2069C17.4062 15.1753 18.2609 12.7702 18.2609 10.2515V3.98633C18.2609 3.64672 17.9576 3.37109 17.5888 3.37109ZM15.5885 10.2236C15.5885 13.9913 13.1545 17.3607 9.38742 18.8073C9.30503 18.8389 9.21773 18.8545 9.13043 18.8545C9.04314 18.8545 8.9554 18.8389 8.87345 18.8073C5.10636 17.3607 2.67232 13.9912 2.67232 10.2236V6.02686C2.67232 5.76107 2.8576 5.52523 3.13196 5.44238C4.54963 5.01295 5.79849 4.2234 6.74316 3.15904C6.8701 3.0159 7.06028 2.93305 7.2607 2.93305H11.0002C11.205 2.93305 11.4464 3.07906 11.5177 3.15904C12.4623 4.2234 13.7112 5.01295 15.1289 5.44238C15.3244 5.50145 15.474 5.63803 15.5444 5.80824C15.5453 5.80988 15.5457 5.81193 15.5466 5.81357C15.5636 5.85582 15.5756 5.90012 15.5823 5.94564C15.5828 5.95016 15.5836 5.95508 15.5841 5.95959C15.5868 5.98174 15.5885 6.00389 15.5885 6.02686V10.2236Z" fill="#FFBF40"/>
</svg>
