<svg width="16" height="16" viewBox="0 0 16 16" fill="none" xmlns="http://www.w3.org/2000/svg">
<path fill-rule="evenodd" clip-rule="evenodd" d="M3.33301 2.66683C2.96482 2.66683 2.66634 2.96531 2.66634 3.3335V12.6668C2.66634 13.035 2.96482 13.3335 3.33301 13.3335H12.6663C13.0345 13.3335 13.333 13.035 13.333 12.6668V3.3335C13.333 2.96531 13.0345 2.66683 12.6663 2.66683H3.33301ZM1.33301 3.3335C1.33301 2.22893 2.22844 1.3335 3.33301 1.3335H12.6663C13.7709 1.3335 14.6663 2.22893 14.6663 3.3335V12.6668C14.6663 13.7714 13.7709 14.6668 12.6663 14.6668H3.33301C2.22844 14.6668 1.33301 13.7714 1.33301 12.6668V3.3335Z" fill="#979796"/>
<path fill-rule="evenodd" clip-rule="evenodd" d="M5.99967 1.3335C6.36786 1.3335 6.66634 1.63197 6.66634 2.00016V14.0002C6.66634 14.3684 6.36786 14.6668 5.99967 14.6668C5.63148 14.6668 5.33301 14.3684 5.33301 14.0002V2.00016C5.33301 1.63197 5.63148 1.3335 5.99967 1.3335Z" fill="#979796"/>
</svg>
