<svg width="21" height="20" viewBox="0 0 21 20" fill="none" xmlns="http://www.w3.org/2000/svg">
<defs>
<clipPath id="clip0">
<rect width="20" height="20" fill="white" transform="translate(0.5)"/>
</clipPath>
</defs>
<g clip-path="url(#clip0)">
<path d="M1.125 6.87501L5.4775 2.52251C5.68146 2.31182 5.92531 2.14383 6.19484 2.02832C6.46437 1.91281 6.7542 1.85209 7.04743 1.84971C7.34066 1.84733 7.63144 1.90333 7.90281 2.01445C8.17418 2.12557 8.42073 2.28958 8.62808 2.49693C8.83543 2.70429 8.99944 2.95083 9.11056 3.2222C9.22168 3.49358 9.27768 3.78435 9.2753 4.07758C9.27292 4.37081 9.21221 4.66064 9.0967 4.93017C8.98119 5.1997 8.81319 5.44355 8.6025 5.64751L7.375 6.87501H17.375C18.038 6.87501 18.6739 7.1384 19.1428 7.60724C19.6116 8.07609 19.875 8.71197 19.875 9.37501C19.875 10.0381 19.6116 10.6739 19.1428 11.1428C18.6739 11.6116 18.038 11.875 17.375 11.875H11.125V13.125C11.125 14.4511 10.5982 15.7229 9.66053 16.6605C8.72285 17.5982 7.45108 18.125 6.125 18.125H1.125" stroke="white" stroke-width="1.5" stroke-linecap="round" stroke-linejoin="round"/>
<path d="M14.875 11.875V6.875" stroke="white" stroke-width="1.5" stroke-linecap="round" stroke-linejoin="round"/>
<path d="M11.125 11.875V6.875" stroke="white" stroke-width="1.5" stroke-linecap="round" stroke-linejoin="round"/>
</g>
</svg>
