<svg width="64" height="64" viewBox="0 0 64 64" fill="none" xmlns="http://www.w3.org/2000/svg">
    <path d="M21.9999 18.8601C21.1203 18.4227 20.1595 18.1728 19.1782 18.1263C18.197 18.0799 17.2169 18.2378 16.2999 18.5901C13.4399 19.8501 11.2999 25.4401 11.5499 29.2901C11.7999 33.1401 16.1499 44.5501 21.4699 48.8201C26.7899 53.0901 36.1999 55.1501 39.2699 51.1601C42.3399 47.1701 39.8099 46.3501 39.8099 46.3501C39.8099 46.3501 31.2299 41.6701 30.4199 42.4301C29.6099 43.1901 29.1999 45.1401 27.8999 45.1501C26.5999 45.1601 20.8999 40.9001 18.8399 34.8001C16.7799 28.7001 21.2199 30.1001 21.9199 29.4101C22.6199 28.7201 23.9999 19.5001 21.9999 18.8601Z" fill="white"/>
    <path d="M19.5001 30.0001C20.4201 29.5901 21.5901 29.7301 21.9201 29.4001C22.6201 28.7101 24.0001 19.4801 22.0001 18.8401C20.9798 18.3477 19.8629 18.0882 18.7301 18.0801C18.4501 21.0001 18.2101 26.1401 19.5001 30.0001Z" fill="white"/>
    <path d="M39.8199 46.3499C39.8199 46.3499 31.2399 41.6699 30.4299 42.4299C29.8899 42.9399 29.5199 43.9799 28.9399 44.6099C30.6757 46.4119 32.7304 47.8766 34.9999 48.9299C36.4731 49.7065 38.0538 50.2593 39.6899 50.5699C42.0799 47.0799 39.8199 46.3499 39.8199 46.3499Z" fill="white"/>
    <path d="M55.01 29.9299H30.01V34.9299H55.01V29.9299Z" fill="white"/>
    <path d="M50.01 29.9299H30.01V34.9299H50.01V29.9299Z" fill="white"/>
    <path d="M42.51 9.42994C41.1303 9.42862 39.7638 9.69924 38.4888 10.2263C37.2137 10.7534 36.055 11.5266 35.0789 12.5018C34.1028 13.4769 33.3285 14.6349 32.8002 15.9094C32.2719 17.184 32 18.5502 32 19.9299V29.9299H53V19.9299C53 17.1469 51.8951 14.4777 49.9282 12.5088C47.9612 10.54 45.293 9.43259 42.51 9.42994V9.42994Z" fill="#D83C39"/>
    <path d="M41 9.55005C38.5022 9.90846 36.2174 11.1552 34.5643 13.0617C32.9113 14.9682 32.0009 17.4067 32 19.93V29.93H50V19.93C49.9991 17.4067 49.0887 14.9682 47.4357 13.0617C45.7826 11.1552 43.4978 9.90846 41 9.55005V9.55005Z" fill="#ED4F45"/>
    <path d="M46 18.4299H44.5V16.9299C44.5 16.6647 44.3946 16.4104 44.2071 16.2228C44.0196 16.0353 43.7652 15.9299 43.5 15.9299H41.5C41.2348 15.9299 40.9804 16.0353 40.7929 16.2228C40.6054 16.4104 40.5 16.6647 40.5 16.9299V18.4299H39C38.7348 18.4299 38.4804 18.5353 38.2929 18.7228C38.1054 18.9104 38 19.1647 38 19.4299V21.4299C38 21.6951 38.1054 21.9495 38.2929 22.137C38.4804 22.3246 38.7348 22.4299 39 22.4299H40.5V23.9299C40.5 24.1951 40.6054 24.4495 40.7929 24.637C40.9804 24.8246 41.2348 24.9299 41.5 24.9299H43.5C43.7652 24.9299 44.0196 24.8246 44.2071 24.637C44.3946 24.4495 44.5 24.1951 44.5 23.9299V22.4299H46C46.2652 22.4299 46.5196 22.3246 46.7071 22.137C46.8946 21.9495 47 21.6951 47 21.4299V19.4299C47 19.1647 46.8946 18.9104 46.7071 18.7228C46.5196 18.5353 46.2652 18.4299 46 18.4299Z" fill="white"/>
</svg>
