<svg width="46" height="46" viewBox="0 0 46 46" fill="none" xmlns="http://www.w3.org/2000/svg">
<path d="M21.365 1.32103C22.1616 0.190092 23.8384 0.190093 24.635 1.32103L26.6978 4.24926C27.2543 5.03924 28.296 5.31836 29.173 4.91247L32.4235 3.40794C33.6789 2.82686 35.131 3.66522 35.2555 5.04298L35.5778 8.6103C35.6647 9.57268 36.4273 10.3353 37.3897 10.4222L40.957 10.7445C42.3348 10.869 43.1731 12.3211 42.5921 13.5765L41.0875 16.827C40.6816 17.704 40.9608 18.7457 41.7507 19.3022L44.679 21.365C45.8099 22.1616 45.8099 23.8384 44.679 24.635L41.7507 26.6978C40.9608 27.2543 40.6816 28.296 41.0875 29.173L42.5921 32.4235C43.1731 33.6789 42.3348 35.131 40.957 35.2555L37.3897 35.5778C36.4273 35.6647 35.6647 36.4273 35.5778 37.3897L35.2555 40.957C35.131 42.3348 33.6789 43.1731 32.4235 42.5921L29.173 41.0875C28.296 40.6816 27.2543 40.9608 26.6978 41.7507L24.635 44.679C23.8384 45.8099 22.1616 45.8099 21.365 44.679L19.3022 41.7507C18.7457 40.9608 17.704 40.6816 16.827 41.0875L13.5765 42.5921C12.3211 43.1731 10.869 42.3348 10.7445 40.957L10.4222 37.3897C10.3353 36.4273 9.57268 35.6647 8.6103 35.5778L5.04298 35.2555C3.66522 35.131 2.82686 33.6789 3.40794 32.4235L4.91247 29.173C5.31836 28.296 5.03924 27.2543 4.24926 26.6978L1.32103 24.635C0.190092 23.8384 0.190093 22.1616 1.32103 21.365L4.24926 19.3022C5.03924 18.7457 5.31836 17.704 4.91247 16.827L3.40794 13.5765C2.82686 12.3211 3.66522 10.869 5.04298 10.7445L8.6103 10.4222C9.57268 10.3353 10.3353 9.57268 10.4222 8.6103L10.7445 5.04298C10.869 3.66522 12.3211 2.82686 13.5765 3.40794L16.827 4.91247C17.704 5.31836 18.7457 5.03924 19.3022 4.24926L21.365 1.32103Z" fill="#FFBF40"/>
</svg>
