<svg width="16" height="16" viewBox="0 0 16 16" fill="none" xmlns="http://www.w3.org/2000/svg">
<path d="M7.5 9.99951C6.94867 9.99951 6.5 9.55085 6.5 8.99951V7.99951H5.5C4.94867 7.99951 4.5 7.55084 4.5 6.99951V5.99951C4.5 5.44818 4.94867 4.99951 5.5 4.99951H6.5V3.99951C6.5 3.44818 6.94867 2.99951 7.5 2.99951H8.5C9.05133 2.99951 9.5 3.44818 9.5 3.99951V4.99951H10.5C11.0513 4.99951 11.5 5.44818 11.5 5.99951V6.99951C11.5 7.55084 11.0513 7.99951 10.5 7.99951H9.5V8.99951C9.5 9.55085 9.05133 9.99951 8.5 9.99951H7.5ZM5.5 6.99951H7C7.276 6.99951 7.5 7.22351 7.5 7.49951V8.99951H8.5V7.49951C8.5 7.22351 8.724 6.99951 9 6.99951H10.5V5.99951H9C8.724 5.99951 8.5 5.77551 8.5 5.49951V3.99951H7.5V5.49951C7.5 5.77551 7.276 5.99951 7 5.99951H5.5V6.99951Z" fill="#979796"/>
<path d="M7.99933 15.9341C7.82533 15.9341 7.654 15.8888 7.504 15.8028C6.92067 15.4695 5.42 14.5288 4.076 12.9968C2.36667 11.0488 1.5 8.86347 1.5 6.50146C1.5 2.91746 4.416 0.00146484 8 0.00146484C11.584 0.00146484 14.5 2.91746 14.5 6.50146C14.5 8.86413 13.6333 11.0495 11.9233 12.9975C10.5787 14.5301 9.078 15.4695 8.49533 15.8028C8.34533 15.8888 8.17333 15.9341 7.99933 15.9341ZM8 1.00213C4.96733 1.00213 2.5 3.46947 2.5 6.50213C2.5 7.7428 2.89667 12.0168 8 14.9348C13.1033 12.0201 13.5 7.74347 13.5 6.50213C13.5 3.46947 11.0327 1.00213 8 1.00213Z" fill="#979796"/>
</svg>
