<svg width="16" height="16" viewBox="0 0 16 16" fill="none" xmlns="http://www.w3.org/2000/svg">
    <path d="M7.29878 1.27838H8.70085C8.75897 1.27221 8.81741 1.28682 8.86579 1.31962C8.92392 1.31345 8.98236 1.32806 9.03074 1.36086C9.08887 1.35469 9.14731 1.3693 9.19569 1.40209C9.23693 1.40209 9.3194 1.44333 9.36064 1.44333C9.40188 1.44333 9.48435 1.48457 9.52559 1.48457C9.56682 1.48457 9.6493 1.52581 9.69054 1.52581C9.73177 1.52581 9.81425 1.56704 9.85548 1.56704C9.89672 1.56704 9.9792 1.60828 10.0204 1.60828C10.0617 1.60828 10.1441 1.64952 10.1854 1.64952C10.2266 1.64952 10.3091 1.69075 10.3503 1.69075C10.3916 1.69075 10.4328 1.73199 10.5153 1.73199C10.5978 1.73199 10.5978 1.77323 10.6802 1.81447C10.7215 1.8557 10.7627 1.8557 10.8452 1.89694C10.9277 1.93818 10.9276 1.93818 11.0101 1.97941C11.0926 2.02065 11.0926 2.02065 11.1338 2.06189C11.1751 2.10313 11.2163 2.10313 11.2575 2.14436C11.2988 2.1856 11.34 2.1856 11.3813 2.22684C11.4225 2.26807 11.4637 2.26807 11.505 2.30931C11.5462 2.35055 11.5874 2.35055 11.6287 2.39179C11.6699 2.43302 11.7112 2.43302 11.7524 2.47426C11.7936 2.5155 11.8349 2.55673 11.8761 2.55673C11.9173 2.55673 11.9586 2.63921 11.9998 2.63921C12.0411 2.63921 12.0823 2.72168 12.1235 2.72168C12.1648 2.72168 12.206 2.80416 12.2472 2.80416L12.3709 2.92787L12.4947 3.05158L12.6184 3.17529L12.7421 3.299L12.8658 3.42271L12.9895 3.54642L13.1132 3.67014L13.2369 3.79385L13.3606 3.91756C13.4116 3.96455 13.4535 4.02045 13.4844 4.08251C13.5095 4.10213 13.53 4.12713 13.5442 4.15566C13.5585 4.1842 13.5662 4.21556 13.5668 4.24746C13.592 4.26708 13.6124 4.29207 13.6267 4.32061C13.641 4.34915 13.6487 4.38051 13.6493 4.4124C13.6905 4.45364 13.7318 4.49488 13.773 4.49488C13.8142 4.49488 13.8142 4.49488 13.8555 4.45364C13.8967 4.4124 13.938 4.32993 13.8967 4.24746C13.8555 4.16498 13.8142 4.12374 13.773 4.08251C13.7318 4.04127 13.6905 3.9588 13.6493 3.91756C13.5984 3.87057 13.5564 3.81467 13.5256 3.75261C13.4747 3.70562 13.4327 3.64972 13.4019 3.58766V3.58766L13.2782 3.46395L13.1545 3.34024L13.0307 3.21653L12.907 3.09282L12.7833 2.9691L12.6596 2.84539L12.5359 2.72168L12.4122 2.59797L12.2885 2.47426L12.1648 2.35055C12.1235 2.30931 12.0823 2.26807 12.0411 2.26807C11.9998 2.26807 11.9586 2.1856 11.9173 2.1856C11.8761 2.14436 11.8349 2.10313 11.7936 2.10313C11.7524 2.10313 11.7112 2.06189 11.6699 2.02065C11.6287 1.97941 11.5874 1.97941 11.5462 1.93818C11.505 1.89694 11.4637 1.89694 11.3813 1.8557C11.2988 1.81447 11.2988 1.81447 11.2163 1.77323C11.1338 1.73199 11.1338 1.73199 11.0514 1.69075C10.9689 1.64952 10.9689 1.64952 10.8864 1.60828C10.8039 1.56704 10.8039 1.56704 10.7215 1.52581C10.6802 1.48457 10.5978 1.48457 10.5565 1.44333C10.5153 1.40209 10.4328 1.40209 10.3916 1.36086C10.3503 1.31962 10.2679 1.31962 10.2266 1.31962C10.1854 1.31962 10.1029 1.27838 10.0617 1.27838C10.0204 1.27838 9.93796 1.23715 9.89672 1.23715C9.85548 1.23715 9.77301 1.19591 9.73177 1.19591C9.69054 1.19591 9.60806 1.15467 9.56682 1.15467C9.52559 1.15467 9.44311 1.11343 9.40188 1.11343C9.36064 1.11343 9.27816 1.0722 9.23693 1.0722C9.19569 1.0722 9.11322 1.03096 9.07198 1.03096L9.06457 1.03467C8.90027 0.993589 8.90027 0.993589 8.73596 0.952513L7.34002 0.948486C7.25755 0.948486 7.21631 1.03096 7.21631 1.11343C7.21631 1.19591 7.21631 1.27838 7.29878 1.27838Z" fill="black"/>
    <path d="M15.0104 7.42262C15.0032 7.2414 14.9755 7.06157 14.9279 6.88654C14.8867 6.72159 14.8455 6.51541 14.8042 6.35046C14.7624 6.16797 14.7073 5.9888 14.6393 5.81438C14.598 5.7319 14.5981 5.64943 14.5568 5.56695C14.5156 5.48448 14.5156 5.40201 14.4743 5.31953C14.4286 5.24431 14.4004 5.15973 14.3919 5.07211C14.36 4.99817 14.3184 4.92883 14.2682 4.86592C14.2517 4.82764 14.2208 4.79745 14.1821 4.78198C14.1435 4.76652 14.1002 4.76704 14.062 4.78345C14.0237 4.79985 13.9935 4.83079 13.978 4.86946C13.9626 4.90813 13.9631 4.95136 13.9795 4.98963C14.0207 5.07211 14.062 5.11335 14.062 5.19582C14.1003 5.2597 14.1281 5.32931 14.1444 5.40201C14.1857 5.48448 14.1857 5.56695 14.2269 5.60819C14.2682 5.64943 14.2682 5.77314 14.3094 5.81438L14.4331 6.30922C14.4806 6.4702 14.5083 6.63638 14.5156 6.80407C14.5514 6.98037 14.5653 7.16044 14.5568 7.34015C14.5568 7.5051 14.598 7.71128 14.598 7.87623C14.598 7.89789 14.6023 7.91934 14.6106 7.93936C14.6189 7.95937 14.631 7.97755 14.6464 7.99287C14.6617 8.00818 14.6799 8.02034 14.6999 8.02862C14.7199 8.03691 14.7413 8.04118 14.763 8.04118C14.7847 8.04118 14.8061 8.03691 14.8261 8.02862C14.8461 8.02034 14.8643 8.00818 14.8796 7.99287C14.895 7.97755 14.9071 7.95937 14.9154 7.93936C14.9237 7.91934 14.9279 7.89789 14.9279 7.87623C15.0517 7.79376 15.0517 7.62881 15.0104 7.42262Z" fill="black"/>
    <path d="M2.1858 4.53613C2.26827 4.41242 2.30951 4.32995 2.39198 4.20624C2.47524 4.10605 2.5446 3.99508 2.59817 3.87634C2.63941 3.79386 2.63941 3.71139 2.55693 3.67015C2.47446 3.62892 2.39198 3.62892 2.35075 3.71139C2.30951 3.79386 2.1858 3.91758 2.10332 4.04129C2.02006 4.14147 1.95071 4.25244 1.89714 4.37118V4.37118C1.7352 4.63316 1.59719 4.90919 1.48477 5.19593C1.35014 5.48879 1.2398 5.79221 1.15487 6.10314C1.06226 6.41363 0.993338 6.73069 0.948685 7.0516C0.900744 7.37947 0.873201 7.71 0.866211 8.04129C0.866211 8.08503 0.883589 8.12699 0.914523 8.15792C0.945457 8.18886 0.987412 8.20624 1.03116 8.20624C1.07491 8.20624 1.11686 8.18886 1.1478 8.15792C1.17873 8.12699 1.19611 8.08503 1.19611 8.04129C1.2031 7.72369 1.23065 7.40687 1.27858 7.09283C1.32764 6.78629 1.39651 6.48325 1.48477 6.18562C1.56233 5.89107 1.65874 5.60181 1.77343 5.31964C1.88593 5.04608 2.024 4.78375 2.1858 4.53613V4.53613Z" fill="black"/>
    <path d="M3.01001 3.34035C3.0324 3.34305 3.0551 3.34075 3.07649 3.33362C3.09788 3.32649 3.11743 3.3147 3.13372 3.29912L3.33991 3.09293C3.42238 3.01046 3.50485 2.96922 3.54609 2.88674C3.58733 2.80427 3.71104 2.76303 3.79351 2.68056C3.86581 2.61166 3.94953 2.55584 4.04094 2.51561C4.11917 2.4737 4.18906 2.41779 4.24712 2.35066C4.3296 2.30942 4.37083 2.26819 4.45331 2.22695C4.52724 2.19509 4.59659 2.15348 4.65949 2.10324C4.73343 2.07138 4.80277 2.02977 4.86568 1.97953V1.97953C4.94815 1.93829 4.98939 1.89705 5.07187 1.89705C5.15434 1.89705 5.19558 1.81458 5.27805 1.81458C5.36053 1.81458 5.40176 1.77334 5.48424 1.7321C5.56671 1.69087 5.60795 1.69087 5.69042 1.64963C5.7729 1.60839 5.81413 1.60839 5.89661 1.56716C5.95992 1.53382 6.03153 1.5195 6.10279 1.52592C6.18527 1.52592 6.2265 1.48468 6.30898 1.48468C6.39145 1.48468 6.43269 1.44344 6.51516 1.44344C6.59764 1.44344 6.63888 1.36097 6.63888 1.2785C6.63888 1.19602 6.5564 1.15479 6.47393 1.15479C6.39145 1.15479 6.35022 1.19602 6.26774 1.19602C6.18527 1.19602 6.14403 1.23726 6.06156 1.23726C5.97908 1.23726 5.93784 1.2785 5.85537 1.31973C5.7729 1.36097 5.73166 1.36097 5.64918 1.40221C5.56671 1.44345 5.48424 1.44345 5.443 1.48468C5.40176 1.52592 5.27805 1.52592 5.23681 1.56716C5.17293 1.60549 5.10332 1.63334 5.03063 1.64963C4.94815 1.69087 4.90692 1.7321 4.82444 1.77334L4.57702 1.89705L4.3296 2.02076C4.24465 2.05166 4.1722 2.10962 4.12341 2.18571C4.03846 2.21661 3.96602 2.27457 3.91723 2.35066C3.82502 2.40679 3.74164 2.47628 3.6698 2.55685C3.58733 2.63932 3.50485 2.68056 3.42238 2.76303C3.33991 2.84551 3.25743 2.88674 3.17496 2.96922L2.96877 3.1754C2.94838 3.20592 2.9375 3.2418 2.9375 3.2785C2.9375 3.3152 2.94838 3.35107 2.96877 3.38159C2.92753 3.34035 2.96877 3.34035 3.01001 3.34035Z" fill="black"/>
    <path d="M2.39148 5.48453C2.51304 5.2286 2.65078 4.98068 2.80385 4.74226V4.74226C2.88633 4.65979 2.92756 4.53608 3.01004 4.4536C3.09251 4.37113 3.13375 4.24742 3.21622 4.16494C3.30869 4.07776 3.39163 3.981 3.46365 3.87628L3.71107 3.62886L3.91726 3.42268C3.97532 3.35555 4.0452 3.29964 4.12344 3.25773C4.19991 3.21319 4.26939 3.15761 4.32963 3.09278C4.4121 3.05154 4.49458 2.96907 4.57705 2.92783C4.65952 2.88659 4.65952 2.80412 4.61829 2.72164C4.57705 2.63917 4.49457 2.63917 4.4121 2.68041C4.32963 2.72164 4.24715 2.80412 4.16468 2.84536C4.0822 2.88659 3.99973 2.96907 3.91726 3.0103C3.83478 3.05154 3.75231 3.13402 3.71107 3.21649C3.66983 3.29896 3.54612 3.3402 3.50488 3.42268C3.41242 3.50986 3.32948 3.60662 3.25746 3.71134C3.17499 3.79381 3.09251 3.91752 3.01004 3.99999C2.92756 4.08247 2.84509 4.20618 2.76262 4.28865C2.6847 4.3926 2.61572 4.50296 2.55643 4.61855V4.61855C2.39463 4.86616 2.25656 5.1285 2.14406 5.40206C2.1353 5.42092 2.1305 5.44138 2.12994 5.46217C2.12938 5.48296 2.13307 5.50364 2.14079 5.52295C2.14852 5.54226 2.16011 5.55979 2.17485 5.57445C2.1896 5.58912 2.20718 5.60062 2.22653 5.60824H2.26777C2.35025 5.567 2.39148 5.56701 2.39148 5.48453Z" fill="black"/>
    <path d="M12.8247 4.28858L12.9484 4.41229C12.9896 4.45353 13.0309 4.536 13.0721 4.57724C13.1133 4.61847 13.1546 4.70095 13.1958 4.74219C13.2392 4.78765 13.2679 4.84512 13.2783 4.90713C13.3217 4.9526 13.3504 5.01007 13.3607 5.07208V5.07208C13.402 5.15456 13.4432 5.19579 13.4845 5.27827C13.5257 5.36074 13.5669 5.40198 13.5669 5.48445C13.6053 5.54833 13.6331 5.61794 13.6494 5.69064C13.6906 5.73188 13.7319 5.77311 13.7731 5.77311H13.8144C13.8337 5.76549 13.8513 5.75399 13.866 5.73932C13.8808 5.72466 13.8924 5.70713 13.9001 5.68782C13.9078 5.66851 13.9115 5.64783 13.911 5.62704C13.9104 5.60625 13.9056 5.58579 13.8968 5.56693C13.8511 5.4917 13.8229 5.40713 13.8144 5.31951C13.7825 5.24557 13.7409 5.17623 13.6906 5.11332C13.6588 5.03938 13.6172 4.97004 13.5669 4.90713V4.90713C13.5235 4.86167 13.4948 4.8042 13.4845 4.74219C13.4432 4.70095 13.402 4.61847 13.3607 4.57724C13.3195 4.536 13.2783 4.45353 13.237 4.41229C13.1958 4.37105 13.1546 4.28858 13.1133 4.24734C13.0624 4.20035 13.0205 4.14445 12.9896 4.08239C12.9387 4.0354 12.8968 3.9795 12.8659 3.91744L12.7422 3.79373L12.6185 3.67002L12.4948 3.54631L12.3711 3.4226L12.2473 3.29889L12.1236 3.17518L11.9999 3.05146L11.8762 2.92775L11.7525 2.80404C11.7113 2.7628 11.67 2.72157 11.6288 2.72157C11.5876 2.68033 11.5463 2.63909 11.5051 2.63909C11.4638 2.63909 11.4226 2.59786 11.3814 2.55662C11.3401 2.51538 11.2989 2.51538 11.2164 2.47414C11.1339 2.43291 11.1339 2.43291 11.0515 2.39167C11.0352 2.38084 11.017 2.37332 10.9978 2.36953C10.9787 2.36574 10.959 2.36576 10.9398 2.36959C10.9207 2.37342 10.9025 2.38098 10.8863 2.39184C10.87 2.40271 10.8561 2.41666 10.8453 2.43291C10.8345 2.44915 10.8269 2.46737 10.8231 2.48653C10.8193 2.50568 10.8194 2.52539 10.8232 2.54454C10.827 2.56369 10.8346 2.58189 10.8455 2.59811C10.8563 2.61434 10.8703 2.62826 10.8865 2.63909C10.9278 2.68033 10.969 2.68033 11.0102 2.72157C11.0515 2.7628 11.0927 2.7628 11.1339 2.80404C11.1752 2.84528 11.2164 2.84528 11.2577 2.88652C11.2989 2.92775 11.3401 2.92775 11.3814 2.96899C11.4226 3.01023 11.4638 3.05146 11.5051 3.05146C11.5463 3.05146 11.5876 3.13394 11.6288 3.13394C11.67 3.13394 11.7113 3.21641 11.7525 3.21641L11.8762 3.34012L11.9999 3.46384L12.1236 3.58755L12.2473 3.71126L12.3711 3.83497L12.4948 3.95868L12.6185 4.08239C12.6976 4.13982 12.7672 4.20941 12.8247 4.28858Z" fill="black"/>
    <path d="M6.51541 1.77311C6.43293 1.77311 6.39169 1.81435 6.30922 1.81435C6.22675 1.81435 6.18551 1.85559 6.10303 1.85559C6.02056 1.89682 5.93809 1.89682 5.89685 1.93806C5.85561 1.9793 5.77314 1.9793 5.69066 2.02053C5.60819 2.06177 5.56695 2.06177 5.48448 2.10301C5.402 2.14425 5.36077 2.14425 5.27829 2.18548C5.25894 2.19311 5.24135 2.2046 5.22661 2.21927C5.21187 2.23394 5.20028 2.25147 5.19255 2.27077C5.18483 2.29008 5.18113 2.31077 5.1817 2.33156C5.18226 2.35235 5.18706 2.3728 5.19582 2.39167C5.23705 2.43291 5.27829 2.47414 5.31953 2.47414H5.402C5.48448 2.43291 5.52571 2.43291 5.60819 2.39167C5.69066 2.35043 5.7319 2.35043 5.81437 2.30919C5.89685 2.26796 5.93809 2.26796 6.02056 2.22672C6.10303 2.18548 6.14427 2.18548 6.22675 2.14425C6.30922 2.14425 6.35046 2.10301 6.43293 2.10301C6.51541 2.10301 6.55664 2.06177 6.63912 2.06177C6.72159 2.06177 6.76283 2.02053 6.8453 2.02053C6.92778 2.02053 6.96901 1.9793 7.05149 1.9793C7.10962 1.98547 7.16805 1.97086 7.21644 1.93806C7.27456 1.94423 7.333 1.92962 7.38138 1.89682H8.90716C8.96529 1.89065 9.02372 1.90526 9.07211 1.93806C9.13023 1.93189 9.18867 1.9465 9.23705 1.9793C9.27829 1.9793 9.36077 2.02053 9.402 2.02053C9.44324 2.02053 9.52571 2.06177 9.56695 2.06177C9.60819 2.06177 9.69066 2.10301 9.7319 2.10301C9.77314 2.10301 9.85561 2.14425 9.89685 2.14425C9.93808 2.14425 10.0206 2.18548 10.0618 2.18548C10.103 2.18548 10.1443 2.22672 10.2267 2.22672C10.3092 2.22672 10.3092 2.26796 10.3917 2.26796C10.4742 2.26796 10.4742 2.30919 10.5566 2.30919H10.5979C10.6391 2.30919 10.7216 2.26796 10.7216 2.22672C10.7303 2.20786 10.7352 2.1874 10.7357 2.16661C10.7363 2.14582 10.7326 2.12514 10.7249 2.10583C10.7171 2.08652 10.7055 2.06899 10.6908 2.05432C10.6761 2.03966 10.6585 2.02816 10.6391 2.02053C10.5979 1.9793 10.5154 1.9793 10.4742 1.93806C10.4258 1.90526 10.3673 1.89065 10.3092 1.89682C10.268 1.89682 10.1855 1.85559 10.1443 1.85559C10.103 1.85559 10.0206 1.81435 9.97932 1.81435C9.93809 1.81435 9.85561 1.77311 9.81437 1.77311C9.77314 1.77311 9.69066 1.73187 9.64943 1.73187C9.60819 1.73187 9.52571 1.69064 9.48448 1.69064C9.44324 1.69064 9.36077 1.6494 9.31953 1.6494C9.27829 1.6494 9.19582 1.60816 9.15458 1.60816C9.09645 1.61433 9.03802 1.59972 8.98963 1.56693H7.42262C7.35135 1.56051 7.27975 1.57483 7.21644 1.60816C7.14517 1.60174 7.07357 1.61607 7.01025 1.6494C6.92778 1.6494 6.88654 1.69064 6.80406 1.69064C6.70635 1.7126 6.60997 1.74014 6.51541 1.77311V1.77311Z" fill="black"/>
    <path d="M3.42297 4.98971C3.46421 4.90723 3.54668 4.82476 3.62916 4.70105C3.71163 4.57733 3.67039 4.5361 3.58792 4.49486C3.50545 4.45362 3.42297 4.45362 3.38173 4.5361C3.3405 4.61857 3.25802 4.74228 3.17555 4.82476C3.01414 5.04349 2.87594 5.27844 2.76318 5.52579C2.64232 5.77721 2.54566 6.03956 2.47452 6.30929C2.39584 6.57893 2.34065 6.85488 2.30957 7.13404C2.30957 7.21651 2.35081 7.29898 2.43328 7.29898H2.47452C2.55699 7.29898 2.59823 7.25775 2.63947 7.17527C2.67463 6.91032 2.72977 6.64841 2.80442 6.39177C2.8826 6.1377 2.97907 5.88963 3.09308 5.6495C3.17555 5.44331 3.29926 5.23713 3.42297 4.98971Z" fill="black"/>
    <path d="M8.32968 2.55673H8.65957C8.7177 2.55056 8.77614 2.56516 8.82452 2.59796V2.59796C8.88265 2.59179 8.94109 2.6064 8.98947 2.6392C9.03071 2.6392 9.11318 2.68044 9.15442 2.68044C9.19566 2.68044 9.27813 2.72167 9.31937 2.72167C9.3606 2.72167 9.44308 2.76291 9.48431 2.76291C9.52555 2.76291 9.60803 2.80415 9.64926 2.80415C9.6905 2.80415 9.73174 2.84539 9.81421 2.84539C9.89669 2.84539 9.89669 2.88662 9.97916 2.88662C10.0616 2.88662 10.0616 2.92786 10.1441 2.92786C10.1853 2.92786 10.2266 2.9691 10.3091 3.01033C10.3915 3.05157 10.3915 3.05157 10.474 3.09281C10.5565 3.13405 10.5565 3.13405 10.5977 3.17528C10.639 3.21652 10.6802 3.21652 10.7214 3.25776C10.7627 3.29899 10.8039 3.29899 10.8451 3.34023C10.8864 3.38147 10.9276 3.38147 10.9689 3.42271C11.0101 3.46394 11.0513 3.46394 11.0926 3.50518C11.1338 3.54642 11.175 3.54642 11.2163 3.58765C11.2575 3.62889 11.2987 3.67013 11.34 3.67013L11.4637 3.79384L11.5874 3.91755L11.7111 4.04126L11.8348 4.16497L11.9585 4.28869L12.0823 4.4124L12.206 4.53611C12.2223 4.5517 12.2418 4.56348 12.2632 4.57061C12.2846 4.57774 12.3073 4.58004 12.3297 4.57734C12.3709 4.57734 12.4122 4.57734 12.4122 4.53611C12.4946 4.49487 12.4946 4.4124 12.4122 4.32992L12.2884 4.20621L12.1647 4.0825L12.041 3.95879L11.9173 3.83508L11.7936 3.71137L11.6699 3.58765L11.5462 3.46394L11.4225 3.34023C11.3812 3.29899 11.34 3.25776 11.2987 3.25776C11.2575 3.25776 11.2163 3.17528 11.175 3.17528C11.1338 3.17528 11.0926 3.13405 11.0101 3.09281C10.9276 3.05157 10.9276 3.05157 10.8451 3.01033C10.8039 2.9691 10.7627 2.9691 10.6802 2.92786C10.5977 2.88662 10.5977 2.88662 10.5152 2.84539C10.4328 2.80415 10.4328 2.80415 10.3503 2.76291C10.2678 2.72167 10.2266 2.72168 10.1853 2.68044C10.1441 2.6392 10.0616 2.6392 10.0204 2.59796C9.97916 2.55673 9.89669 2.55673 9.85545 2.55673C9.81421 2.55673 9.73174 2.51549 9.6905 2.51549C9.64926 2.51549 9.56679 2.47425 9.52555 2.47425C9.48432 2.47425 9.40184 2.43302 9.3606 2.43302C9.31937 2.43302 9.23689 2.39178 9.19566 2.39178C9.15442 2.39178 9.07194 2.35054 9.03071 2.35054C8.97258 2.35671 8.91414 2.3421 8.86576 2.3093V2.3093C8.80763 2.31547 8.7492 2.30087 8.70081 2.26807H8.20596C8.12349 2.26807 8.04102 2.3093 8.04102 2.39178C8.04102 2.47425 8.08225 2.55673 8.16473 2.55673H8.32968Z" fill="black"/>
    <path d="M7.42261 2.2681C7.35134 2.26168 7.27974 2.276 7.21643 2.30933C7.14516 2.30292 7.07356 2.31724 7.01024 2.35057C6.92777 2.35057 6.88653 2.39181 6.80405 2.39181C6.72158 2.39181 6.68034 2.43305 6.59787 2.43305C6.51539 2.43305 6.47416 2.47428 6.39168 2.47428C6.30921 2.47428 6.26797 2.51552 6.1855 2.55676C6.10302 2.59799 6.06179 2.59799 5.97931 2.63923C5.89684 2.68047 5.8556 2.68047 5.77313 2.72171C5.70925 2.76004 5.63964 2.78789 5.56694 2.80418C5.48447 2.84542 5.44323 2.88665 5.36076 2.92789C5.27828 2.96913 5.23704 3.01037 5.15457 3.0516C5.0721 3.09284 5.03086 3.13408 4.94838 3.17531C4.85698 3.21555 4.77326 3.27136 4.70096 3.34026C4.62449 3.3848 4.55501 3.44038 4.49478 3.50521C4.4183 3.54975 4.34883 3.60533 4.28859 3.67016C4.20612 3.7114 4.16488 3.79387 4.08241 3.83511L3.83498 4.08253C3.81459 4.11305 3.80371 4.14892 3.80371 4.18562C3.80371 4.22232 3.81459 4.2582 3.83498 4.28872C3.85128 4.27313 3.87082 4.26135 3.89221 4.25422C3.9136 4.24709 3.93631 4.24478 3.95869 4.24748C3.98108 4.25017 4.00379 4.24787 4.02518 4.24074C4.04657 4.23361 4.06611 4.22183 4.08241 4.20624L4.32983 3.95882C4.4123 3.91758 4.45354 3.83511 4.53601 3.79387C4.61849 3.75263 4.65972 3.67016 4.7422 3.62892C4.82467 3.58769 4.86591 3.50521 4.94838 3.46397C5.02232 3.43211 5.09166 3.39051 5.15457 3.34026C5.23704 3.29903 5.27828 3.25779 5.36076 3.21655C5.44323 3.17531 5.48447 3.13408 5.56694 3.09284C5.64942 3.0516 5.69065 3.01037 5.77313 3.01037C5.8556 3.01037 5.89684 2.96913 5.97931 2.92789C6.06179 2.88665 6.10302 2.88665 6.1855 2.84542C6.26797 2.80418 6.30921 2.80418 6.39168 2.76294C6.455 2.72961 6.5266 2.71529 6.59787 2.72171C6.68034 2.72171 6.72158 2.68047 6.80405 2.68047C6.88653 2.68047 6.92777 2.63923 6.969 2.63923C7.01024 2.63923 7.09272 2.59799 7.13395 2.59799C7.20497 2.60074 7.27564 2.58661 7.34014 2.55676C7.4114 2.56318 7.48301 2.54886 7.54632 2.51552C7.6288 2.51552 7.67003 2.43305 7.67003 2.35057C7.54632 2.30933 7.50508 2.2681 7.42261 2.2681Z" fill="black"/>
    <path d="M12.6599 6.96901C12.7075 7.12999 12.7352 7.29617 12.7424 7.46386C12.7424 7.54633 12.8249 7.58757 12.9073 7.58757C12.9898 7.58757 13.0311 7.5051 13.0311 7.42262C13.0238 7.2414 12.9961 7.06157 12.9486 6.88654L12.8249 6.39169C12.7739 6.21989 12.7048 6.05401 12.6187 5.89685C12.5868 5.82291 12.5452 5.75357 12.495 5.69066C12.4537 5.60819 12.4125 5.56695 12.3713 5.48448C12.33 5.402 12.2888 5.36077 12.2476 5.27829C12.2063 5.19582 12.1651 5.15458 12.1238 5.07211C12.0826 4.98963 12.0414 4.9484 12.0001 4.90716C11.9589 4.86592 11.9177 4.78345 11.8764 4.74221C11.8255 4.69522 11.7836 4.63932 11.7527 4.57726C11.7018 4.53027 11.6598 4.47437 11.629 4.41231L11.5053 4.2886L11.3816 4.16489L11.2579 4.04118L11.1342 3.91747C11.0517 3.87623 10.9692 3.87623 10.928 3.9587C10.8867 4.04118 10.8867 4.12365 10.9692 4.16489L11.0929 4.2886L11.2166 4.41231L11.3403 4.53602L11.464 4.65974L11.5878 4.78345L11.7115 4.90716C11.7624 4.95415 11.8043 5.01005 11.8352 5.07211C11.8861 5.1191 11.928 5.175 11.9589 5.23706C12.0091 5.29996 12.0507 5.36931 12.0826 5.44324C12.1238 5.52571 12.1651 5.56695 12.2063 5.64943C12.2476 5.7319 12.2888 5.77314 12.33 5.85561C12.3713 5.93809 12.4125 5.97932 12.4125 6.0618C12.4855 6.20582 12.5409 6.35812 12.5775 6.51541C12.5884 6.66915 12.6161 6.82125 12.6599 6.96901V6.96901Z" fill="black"/>
    <path d="M7.87642 2.92783H7.46405C7.39302 2.92508 7.32236 2.93921 7.25786 2.96906C7.19973 2.96289 7.1413 2.9775 7.09291 3.0103V3.0103C7.01044 3.0103 6.9692 3.05154 6.88673 3.05154C6.80425 3.05154 6.76301 3.09278 6.68054 3.09278C6.59807 3.09278 6.55683 3.13401 6.47435 3.13401C6.39188 3.13401 6.35064 3.17525 6.26817 3.17525C6.18569 3.17525 6.14446 3.21649 6.06198 3.25772C6.04263 3.26535 6.02505 3.27685 6.0103 3.29151C5.99556 3.30618 5.98397 3.32371 5.97624 3.34302C5.96852 3.36233 5.96483 3.38301 5.96539 3.4038C5.96595 3.42459 5.97075 3.44504 5.97951 3.46391C6.02075 3.50515 6.06198 3.54638 6.10322 3.54638H6.14446C6.22693 3.50515 6.26817 3.50515 6.35064 3.46391C6.43312 3.42267 6.47436 3.42267 6.51559 3.42267C6.55683 3.42267 6.6393 3.38144 6.68054 3.38144C6.72178 3.38144 6.80425 3.3402 6.84549 3.3402C6.88673 3.3402 6.9692 3.29896 7.05167 3.29896C7.1098 3.30513 7.16824 3.29052 7.21662 3.25772H8.37126L8.38254 3.26054C8.54137 3.30025 8.54136 3.30025 8.70019 3.33996C8.74239 3.3402 8.82487 3.38144 8.86611 3.38144C8.90734 3.38144 8.98982 3.42267 9.03106 3.42267C9.07229 3.42267 9.15477 3.46391 9.196 3.46391C9.23724 3.46391 9.27848 3.50515 9.36095 3.50515C9.44343 3.50515 9.44343 3.54638 9.5259 3.54638C9.60837 3.54638 9.60837 3.58762 9.69085 3.58762C9.73209 3.58762 9.77332 3.62886 9.8558 3.6701C9.93827 3.71133 9.93827 3.71133 10.0207 3.75257C10.1032 3.79381 10.1032 3.79381 10.1445 3.83504C10.1857 3.87628 10.2269 3.87628 10.2682 3.91752H10.3506C10.3919 3.91752 10.4331 3.87628 10.4744 3.83504C10.4897 3.80065 10.494 3.76232 10.4866 3.72537C10.4793 3.68842 10.4605 3.65469 10.4331 3.62886C10.3919 3.58762 10.3506 3.58762 10.2682 3.54638C10.1857 3.50515 10.1857 3.50515 10.1032 3.46391C10.0207 3.42267 10.0207 3.42267 9.93827 3.38144C9.8558 3.3402 9.81456 3.3402 9.77332 3.29896C9.72494 3.26616 9.6665 3.25155 9.60838 3.25772C9.56714 3.25772 9.48466 3.21649 9.44343 3.21649C9.40219 3.21649 9.31971 3.17525 9.27848 3.17525C9.23724 3.17525 9.15477 3.13401 9.11353 3.13401C9.07229 3.13401 8.98982 3.09278 8.94858 3.09278C8.90734 3.09278 8.82487 3.05154 8.78363 3.05154C8.7424 3.05154 8.65992 3.0103 8.61868 3.0103C8.56056 3.01647 8.50212 3.00186 8.45374 2.96906H7.79394L7.87642 2.92783Z" fill="black"/>
    <path d="M3.05169 8.12369C3.09449 8.1208 3.13478 8.10249 3.16511 8.07216C3.19544 8.04183 3.21375 8.00154 3.21664 7.95875C3.20981 7.71061 3.22361 7.46233 3.25788 7.21648C3.28856 6.97774 3.34384 6.74282 3.42283 6.51545C3.49385 6.28533 3.59069 6.06399 3.71149 5.85565L4.08262 5.2371C4.12386 5.15462 4.20633 5.07215 4.24757 4.98967C4.28881 4.9072 4.37128 4.82472 4.45376 4.74225C4.53623 4.65978 4.57747 4.5773 4.65994 4.53607C4.74242 4.49483 4.82489 4.41235 4.90736 4.32988C4.9676 4.26505 5.03708 4.20947 5.11355 4.16493C5.19602 4.12369 5.23726 4.08246 5.31974 4.04122C5.40221 3.99998 5.44345 3.95875 5.52592 3.91751C5.6084 3.87627 5.64963 3.83503 5.73211 3.7938C5.81458 3.75256 5.81458 3.67009 5.77334 3.58761C5.73211 3.50514 5.64963 3.50514 5.56716 3.54637C5.49322 3.57824 5.42388 3.61984 5.36097 3.67009C5.28704 3.70195 5.21769 3.74355 5.15479 3.7938C5.07655 3.83571 5.00667 3.89162 4.9486 3.95874C4.86613 3.99998 4.82489 4.08246 4.74242 4.12369C4.67058 4.20427 4.5872 4.27375 4.49499 4.32988L4.24757 4.5773C4.167 4.64914 4.09752 4.73252 4.04139 4.82472C3.95891 4.9072 3.91767 4.98967 3.8352 5.07215C3.68739 5.27762 3.56291 5.49892 3.46407 5.73194C3.35035 5.95803 3.25386 6.19237 3.17541 6.43297C3.10086 6.67564 3.04571 6.92384 3.01046 7.17524C2.97617 7.43492 2.96238 7.6969 2.96922 7.95875C2.88675 8.08246 2.96922 8.12369 3.05169 8.12369Z" fill="black"/>
    <path d="M12.0824 7.50527C12.0824 7.67022 12.1236 7.83517 12.1236 8.00012V8.5362C12.1236 8.61867 12.2061 8.65991 12.2886 8.65991C12.371 8.65991 12.4123 8.57743 12.4123 8.49496V8.00012C12.4191 7.82043 12.4053 7.64056 12.371 7.46403C12.3298 7.29908 12.3298 7.13414 12.2886 6.96919C12.2523 6.79858 12.197 6.63258 12.1236 6.47434C12.0802 6.31286 12.0106 6.15962 11.9174 6.02073V6.02073C11.8762 5.93826 11.835 5.89702 11.7937 5.81455C11.7525 5.73207 11.7113 5.69084 11.67 5.60836C11.6288 5.52589 11.5463 5.52589 11.4638 5.56713C11.3814 5.60836 11.3814 5.69084 11.4226 5.77331C11.4728 5.83622 11.5144 5.90556 11.5463 5.9795C11.5875 6.06197 11.6288 6.10321 11.67 6.18568C11.7465 6.33324 11.8153 6.48465 11.8762 6.63929C11.9174 6.80424 11.9587 6.92795 11.9999 7.0929C12.0553 7.22326 12.0834 7.36362 12.0824 7.50527Z" fill="black"/>
    <path d="M7.62891 3.58768H7.42272C7.35146 3.58126 7.27985 3.59558 7.21654 3.62892C7.13406 3.62892 7.09282 3.67015 7.01035 3.67015C6.92788 3.67015 6.88664 3.71139 6.8454 3.71139C6.76293 3.71139 6.72169 3.75263 6.63922 3.75263C6.55674 3.75263 6.51551 3.79386 6.43303 3.8351C6.35056 3.87634 6.30932 3.87634 6.22685 3.91758C6.14437 3.95881 6.10314 3.95881 6.02066 4.00005C5.94673 4.03191 5.87738 4.07352 5.81448 4.12376C5.732 4.165 5.69076 4.20623 5.60829 4.24747C5.52582 4.28871 5.48458 4.32995 5.4021 4.37118C5.31963 4.41242 5.27839 4.45366 5.19592 4.49489C5.10371 4.55103 5.02033 4.62051 4.9485 4.70108C4.90726 4.74232 4.86602 4.86603 4.9485 4.90727C4.96479 4.92285 4.98433 4.93464 5.00572 4.94177C5.02711 4.9489 5.04982 4.9512 5.07221 4.9485C5.11345 4.9485 5.15468 4.9485 5.15468 4.90727C5.21275 4.84014 5.28263 4.78423 5.36087 4.74232C5.4021 4.70108 5.48458 4.65984 5.52582 4.61861C5.58872 4.56836 5.65807 4.52676 5.732 4.49489C5.81448 4.45366 5.85571 4.41242 5.93819 4.37118C6.02066 4.32995 6.0619 4.28871 6.14437 4.28871C6.22685 4.28871 6.26808 4.24747 6.30932 4.20623C6.35056 4.165 6.43303 4.165 6.47427 4.12376C6.52265 4.09096 6.58109 4.07635 6.63922 4.08252C6.72169 4.08252 6.76293 4.04129 6.8454 4.04129C6.88664 4.04129 6.96911 4.00005 7.01035 4.00005C7.05159 4.00005 7.13406 3.95881 7.1753 3.95881C7.23343 3.96498 7.29186 3.95037 7.34025 3.91758H7.5052C7.58767 3.91758 7.62891 3.8351 7.62891 3.75263C7.79386 3.62891 7.71138 3.58768 7.62891 3.58768Z" fill="black"/>
    <path d="M9.85545 4.32989C9.89669 4.37113 9.93792 4.37113 9.97916 4.41237C10.0204 4.4536 10.0616 4.4536 10.1029 4.49484C10.1441 4.53608 10.1853 4.53608 10.2266 4.57731C10.2678 4.61855 10.3091 4.65979 10.3503 4.65979C10.3915 4.65979 10.4328 4.74226 10.474 4.74226L10.5977 4.86597L10.7214 4.98969L10.8451 5.1134L10.9689 5.23711C10.9851 5.2527 11.0047 5.26448 11.0261 5.27161C11.0475 5.27874 11.0702 5.28104 11.0926 5.27835C11.1338 5.27835 11.175 5.27835 11.175 5.23711C11.175 5.19587 11.2575 5.07216 11.175 5.03092L11.0513 4.90721L10.9276 4.7835C10.8806 4.73256 10.8247 4.69064 10.7627 4.65979V4.65979L10.639 4.53608L10.5152 4.41237C10.4683 4.36143 10.4124 4.3195 10.3503 4.28866C10.3307 4.2635 10.3057 4.24305 10.2771 4.22878C10.2486 4.21451 10.2172 4.20679 10.1853 4.20618C10.1441 4.16494 10.1029 4.16494 10.0204 4.12371C9.93792 4.08247 9.93792 4.08247 9.85545 4.04123C9.77297 4 9.73174 3.99999 9.6905 3.95876C9.64926 3.91752 9.56679 3.91752 9.52555 3.87628C9.48432 3.83505 9.40184 3.83505 9.3606 3.79381C9.31937 3.75257 9.23689 3.75257 9.19566 3.75257C9.15442 3.75257 9.07194 3.71134 9.03071 3.71134C8.98947 3.71134 8.90699 3.6701 8.86576 3.6701C8.82452 3.6701 8.74205 3.62886 8.70081 3.62886C8.65957 3.62886 8.5771 3.58762 8.53586 3.58762C8.47773 3.59379 8.4193 3.57919 8.37091 3.54639H8.20596C8.12349 3.54639 8.04102 3.58762 8.04102 3.6701C8.04102 3.75257 8.08225 3.83505 8.16473 3.83505H8.32968L8.32194 3.83263C8.48625 3.87371 8.48625 3.87371 8.65055 3.91478C8.70081 3.91752 8.78328 3.95876 8.82452 3.95876C8.86576 3.95876 8.94823 4 8.98947 4C9.03071 4 9.07194 4.04123 9.15442 4.04123C9.23689 4.04123 9.23689 4.08247 9.31937 4.08247C9.40184 4.08247 9.40184 4.12371 9.48431 4.12371C9.52555 4.16494 9.56679 4.16494 9.64926 4.20618C9.72812 4.22753 9.7995 4.27036 9.85545 4.32989V4.32989Z" fill="black"/>
    <path d="M4.0827 6.68039L4.33012 6.06183C4.41542 5.86909 4.5264 5.68876 4.66002 5.52575C4.70126 5.44328 4.70126 5.3608 4.61878 5.31957C4.53631 5.27833 4.45384 5.27833 4.4126 5.3608C4.28889 5.52575 4.16518 5.73194 4.04146 5.93812C3.92066 6.14646 3.82383 6.3678 3.7528 6.59792C3.67381 6.82529 3.61854 7.06021 3.58786 7.29895C3.55358 7.5448 3.53979 7.79308 3.54662 8.04122V8.78348C3.54662 9.03091 3.58786 9.27833 3.58786 9.48452C3.59495 9.72014 3.62255 9.95471 3.67033 10.1855C3.67033 10.268 3.7528 10.3093 3.83528 10.3093C3.91775 10.3093 3.95899 10.2268 3.95899 10.1443C3.91775 9.89689 3.91775 9.6907 3.87652 9.44328C3.83528 9.19585 3.83528 8.98967 3.83528 8.74225V8.04122C3.82845 7.80678 3.84224 7.5722 3.87652 7.34019C3.95899 7.09276 4.00023 6.88658 4.0827 6.68039Z" fill="black"/>
    <path d="M6.80392 4.74216C6.84516 4.74216 6.92764 4.70092 6.96887 4.70092C7.01011 4.70092 7.09258 4.65969 7.13382 4.65969C7.17506 4.65969 7.25753 4.61845 7.29877 4.61845C7.34001 4.61845 7.42248 4.57721 7.46372 4.57721H8.45341L8.45062 4.57627C8.61674 4.6178 8.61675 4.6178 8.78288 4.65934L8.78331 4.65969C8.82454 4.65969 8.90702 4.70092 8.94825 4.70092C8.98949 4.70092 9.03073 4.74216 9.1132 4.74216C9.19568 4.74216 9.19568 4.7834 9.27815 4.7834C9.36062 4.7834 9.36062 4.82463 9.4431 4.82463H9.48433C9.52557 4.82463 9.60805 4.7834 9.60805 4.74216C9.6168 4.7233 9.62161 4.70284 9.62217 4.68205C9.62273 4.66126 9.61904 4.64058 9.61131 4.62127C9.60359 4.60196 9.592 4.58443 9.57725 4.56976C9.56251 4.5551 9.54492 4.5436 9.52557 4.53597C9.48434 4.49474 9.40186 4.49474 9.36062 4.4535C9.31939 4.41226 9.23691 4.41226 9.19568 4.41226C9.15444 4.41226 9.07196 4.37103 9.03073 4.37103C8.98949 4.37103 8.90702 4.32979 8.86578 4.32979C8.82454 4.32979 8.74207 4.28855 8.70083 4.28855C8.6427 4.29472 8.58427 4.28011 8.53588 4.24731H7.54619C7.46372 4.24731 7.42248 4.28855 7.34001 4.28855C7.25753 4.28855 7.2163 4.32979 7.13382 4.32979C7.05135 4.32979 7.01011 4.37103 6.92764 4.37103C6.86563 4.38135 6.80815 4.41009 6.76269 4.4535V4.4535C6.68021 4.49474 6.63898 4.49474 6.5565 4.53597C6.47403 4.57721 6.43279 4.57721 6.35032 4.61845C6.26784 4.65969 6.2266 4.70092 6.14413 4.74216C6.06166 4.7834 6.02042 4.82463 5.93794 4.86587C5.86147 4.91041 5.79199 4.96599 5.73176 5.03082C5.65529 5.07535 5.58581 5.13094 5.52557 5.19577L5.31939 5.40195C5.25226 5.46002 5.19635 5.5299 5.15444 5.60814C5.02115 5.78001 4.89726 5.95897 4.78331 6.14422C4.66273 6.32349 4.56572 6.51752 4.49465 6.72154C4.48589 6.74041 4.48109 6.76086 4.48052 6.78165C4.47996 6.80244 4.48366 6.82313 4.49138 6.84244C4.49911 6.86174 4.5107 6.87927 4.52544 6.89394C4.54018 6.90861 4.55777 6.9201 4.57712 6.92773H4.61836C4.65959 6.92773 4.74207 6.88649 4.74207 6.84525C4.82454 6.6803 4.90702 6.47412 4.98949 6.30917C5.08496 6.13501 5.19534 5.96944 5.31939 5.81432C5.36063 5.73185 5.4431 5.69061 5.48434 5.60814L5.64928 5.44319C5.73176 5.40195 5.773 5.31948 5.85547 5.27824C5.93794 5.23701 5.97918 5.15453 6.06166 5.11329C6.10289 5.07206 6.18537 5.03082 6.2266 4.98958C6.27207 4.94617 6.32954 4.91743 6.39155 4.90711C6.43279 4.86587 6.51526 4.86587 6.5565 4.82463C6.63173 4.77889 6.7163 4.7507 6.80392 4.74216V4.74216Z" fill="black"/>
    <path d="M9.93824 5.11342L10.062 5.23713L10.1857 5.36084L10.3094 5.48456L10.4331 5.60827C10.484 5.65526 10.5259 5.71116 10.5568 5.77322C10.598 5.81445 10.6393 5.89693 10.6805 5.93816C10.7217 5.9794 10.763 6.06188 10.8042 6.10311C10.8455 6.14435 10.8867 6.22682 10.9279 6.26806C11.0049 6.40125 11.0737 6.53896 11.1341 6.68043C11.1754 6.80414 11.2578 6.96909 11.2991 7.0928C11.3464 7.23971 11.3741 7.39224 11.3815 7.54641C11.4139 7.69533 11.4278 7.84769 11.4228 8.00002V8.49486C11.4228 8.65981 11.464 8.82476 11.464 8.98971C11.4713 9.1574 11.499 9.32358 11.5465 9.48456C11.5877 9.6495 11.5877 9.81445 11.629 9.9794C11.6309 10.0116 11.6446 10.0419 11.6674 10.0647C11.6902 10.0875 11.7205 10.1012 11.7527 10.1031H11.7939C11.8764 10.1031 11.9176 10.0206 11.9176 9.93816C11.8764 9.77322 11.8764 9.60827 11.8351 9.48456C11.8027 9.33563 11.7889 9.18327 11.7939 9.03095C11.7939 8.866 11.7527 8.70105 11.7527 8.5361V8.04126C11.7595 7.87524 11.7456 7.70902 11.7114 7.54641C11.6702 7.38146 11.6702 7.21651 11.629 7.05157C11.5992 6.89234 11.5435 6.73909 11.464 6.59796C11.3815 6.43301 11.3403 6.3093 11.2578 6.14435C11.2166 6.06188 11.1754 6.02064 11.1341 5.93816C11.1033 5.87611 11.0613 5.82021 11.0104 5.77322C10.9692 5.73198 10.9279 5.6495 10.8867 5.60827C10.8455 5.56703 10.8042 5.48456 10.7217 5.44332L10.598 5.31961L10.4743 5.1959C10.4273 5.14496 10.3714 5.10303 10.3094 5.07218C10.2624 5.02125 10.2065 4.97932 10.1444 4.94847C10.062 4.90724 9.97948 4.90724 9.93824 4.98971C9.85577 4.98971 9.897 5.07218 9.93824 5.11342Z" fill="black"/>
    <path d="M5.36078 6.9691C5.41813 6.80549 5.5017 6.65229 5.6082 6.51549C5.69482 6.36088 5.80627 6.22156 5.9381 6.10312L6.10305 5.93817C6.14429 5.89693 6.22676 5.8557 6.268 5.77322C6.3309 5.72298 6.40025 5.68137 6.47418 5.64951C6.55666 5.60827 6.55666 5.5258 6.51542 5.44332C6.47418 5.36085 6.39171 5.36085 6.30923 5.40209C6.231 5.444 6.16111 5.49991 6.10305 5.56704C6.02057 5.60827 5.97934 5.69075 5.89686 5.73198L5.73191 5.89693C5.5993 6.03029 5.48803 6.18329 5.40202 6.35054C5.30324 6.50682 5.22035 6.6726 5.15459 6.84539C5.07529 7.03003 5.01986 7.22403 4.98965 7.42271C4.95681 7.6133 4.943 7.80669 4.94841 8.00003V8.57734C4.94841 8.65982 5.03088 8.70106 5.11336 8.70106C5.19583 8.70106 5.23707 8.61858 5.23707 8.53611V7.95879C5.23026 7.7791 5.2441 7.59923 5.27831 7.42271C5.23707 7.29899 5.31954 7.13405 5.36078 6.9691Z" fill="black"/>
    <path d="M8.90733 5.7319C8.85895 5.6991 8.80051 5.68449 8.74238 5.69066C8.70115 5.69066 8.61867 5.64942 8.57744 5.64942C8.55505 5.65212 8.53234 5.64982 8.51095 5.64269C8.48956 5.63556 8.47002 5.62377 8.45372 5.60819H7.71145C7.64019 5.60177 7.56859 5.61609 7.50527 5.64942C7.46403 5.64942 7.38156 5.69066 7.34032 5.69066C7.29908 5.69066 7.21661 5.7319 7.17537 5.7319C7.0929 5.77313 7.05166 5.77313 6.96919 5.81437C6.88671 5.85561 6.84548 5.89685 6.763 5.93808C6.68053 5.97932 6.63929 6.02056 6.55682 6.06179C6.47434 6.10303 6.4331 6.14427 6.39187 6.22674C6.2706 6.33993 6.16016 6.46418 6.06197 6.59788C5.97087 6.74421 5.88826 6.89567 5.81455 7.05148C5.74118 7.20973 5.68585 7.37572 5.6496 7.54633C5.61376 7.72263 5.59991 7.9027 5.60836 8.08241V8.57726C5.60158 8.74328 5.61544 8.9095 5.6496 9.0721C5.6496 9.23705 5.69084 9.402 5.69084 9.56695C5.69084 9.7319 5.73207 9.89684 5.73207 10.0618C5.73207 10.1443 5.77331 10.2267 5.77331 10.3092C5.77331 10.3917 5.81455 10.4742 5.81455 10.5566C5.81455 10.6391 5.85578 10.7216 5.85578 10.8041C5.85578 10.8865 5.89702 10.969 5.89702 11.0515C5.89898 11.0837 5.91264 11.114 5.93543 11.1368C5.95822 11.1596 5.98856 11.1732 6.02073 11.1752H6.06197C6.14444 11.1752 6.18568 11.0927 6.18568 11.0102C6.18568 10.9278 6.14445 10.8453 6.14445 10.7628C6.14445 10.6804 6.10321 10.5979 6.10321 10.5154C6.10321 10.4329 6.06197 10.3505 6.06197 10.268C6.06197 10.1855 6.02073 10.103 6.02073 10.0206C5.98657 9.85795 5.97272 9.69173 5.9795 9.52571C5.9795 9.36076 5.93826 9.19581 5.93826 9.03087C5.94504 8.86485 5.93119 8.69863 5.89702 8.53602V8.04118C5.8883 7.88877 5.9022 7.73591 5.93826 7.58757C5.9795 7.42262 6.02073 7.29891 6.06197 7.1752C6.11463 7.04322 6.18392 6.9185 6.26816 6.80406C6.35393 6.68538 6.45056 6.57493 6.55682 6.47417C6.60381 6.42323 6.65971 6.3813 6.72177 6.35045C6.763 6.30922 6.84548 6.26798 6.88671 6.22674C6.93218 6.18333 6.98965 6.15459 7.05166 6.14427C7.0929 6.10303 7.17537 6.10303 7.21661 6.06179C7.25785 6.06179 7.29908 6.02056 7.38156 6.02056C7.46403 6.02056 7.50527 5.97932 7.54651 5.97932C7.58774 5.97932 7.67022 5.93808 7.71145 5.93808H8.41249C8.43487 5.93539 8.45758 5.93769 8.47897 5.94482C8.50036 5.95195 8.5199 5.96373 8.5362 5.97932C8.57743 5.97932 8.65991 6.02056 8.70115 6.02056C8.74238 6.02056 8.78362 6.06179 8.86609 6.06179H8.90733C8.94857 6.06179 9.03104 6.02056 9.03104 5.97932C8.98981 5.81437 8.94857 5.7319 8.90733 5.7319Z" fill="black"/>
    <path d="M10.144 7.99993V8.45354C10.1373 8.59228 10.1512 8.73126 10.1853 8.86591C10.1853 8.98963 10.2265 9.15457 10.2265 9.27829C10.2265 9.402 10.2677 9.56695 10.2677 9.69066C10.2677 9.81437 10.309 9.81437 10.309 9.89684C10.309 9.97932 10.3502 10.0206 10.3502 10.103C10.3502 10.1855 10.3915 10.2267 10.3915 10.3092C10.3915 10.3917 10.4327 10.4329 10.4327 10.5154C10.4327 10.5566 10.4739 10.6391 10.4739 10.6803C10.4739 10.7216 10.5152 10.8041 10.5152 10.8453C10.5152 10.8865 10.5564 10.969 10.5564 11.0102C10.5584 11.0424 10.572 11.0728 10.5948 11.0955C10.6176 11.1183 10.6479 11.132 10.6801 11.134H10.7214C10.8038 11.0927 10.8451 11.0102 10.8038 10.969C10.7626 10.9278 10.7626 10.8453 10.7626 10.8041C10.7626 10.7628 10.7214 10.6803 10.7214 10.6391C10.7214 10.5979 10.6801 10.5154 10.6801 10.4742C10.6801 10.3917 10.6389 10.3504 10.6389 10.268C10.6389 10.1855 10.5976 10.1443 10.5976 10.0618C10.5976 9.97932 10.5564 9.93808 10.5564 9.8556C10.5564 9.77313 10.5152 9.73189 10.5152 9.64942C10.4811 9.51476 10.4672 9.37579 10.4739 9.23705C10.4739 9.11334 10.4327 8.94839 10.4327 8.82468C10.4395 8.68594 10.4256 8.54696 10.3915 8.41231V7.99993C10.3982 7.84756 10.3844 7.69498 10.3502 7.54633C10.309 7.42262 10.2677 7.25767 10.2265 7.13396C10.1738 7.00198 10.1046 6.87726 10.0203 6.76282C9.94794 6.64563 9.86513 6.53522 9.7729 6.43292V6.43292C9.72196 6.38593 9.68004 6.33003 9.64919 6.26798C9.6022 6.21704 9.5463 6.17511 9.48424 6.14427C9.4569 6.11692 9.41981 6.10156 9.38115 6.10156C9.34248 6.10156 9.30539 6.11692 9.27805 6.14427C9.25071 6.17161 9.23535 6.20869 9.23535 6.24736C9.23535 6.28603 9.25071 6.32311 9.27805 6.35045L9.40177 6.47416L9.52548 6.59787C9.60771 6.68369 9.67716 6.78091 9.73166 6.88653C9.80282 6.98764 9.85842 7.09884 9.89661 7.21643L10.0203 7.58756C10.0681 7.64415 10.1038 7.70995 10.125 7.78089C10.1463 7.85183 10.1528 7.92639 10.144 7.99993V7.99993Z" fill="black"/>
    <path d="M9.15475 6.59794C9.10776 6.547 9.05186 6.50508 8.9898 6.47423C8.94434 6.43082 8.88686 6.40208 8.82485 6.39176C8.78362 6.35052 8.70114 6.35052 8.65991 6.30928C8.5981 6.27188 8.52515 6.25729 8.45372 6.26804C8.43133 6.27074 8.40863 6.26844 8.38724 6.26131C8.36585 6.25418 8.3463 6.24239 8.33001 6.22681H7.67022C7.58774 6.22681 7.5465 6.26804 7.46403 6.26804C7.38156 6.26804 7.34032 6.30928 7.25784 6.35052C7.17537 6.39176 7.13413 6.39176 7.0929 6.43299C7.05166 6.47423 6.96918 6.51547 6.92795 6.5567C6.88671 6.59794 6.84547 6.68042 6.88671 6.76289C6.92795 6.84536 6.96918 6.84536 7.01042 6.84536C7.05166 6.84536 7.05166 6.84536 7.0929 6.80413C7.13413 6.76289 7.17537 6.76289 7.21661 6.72165C7.25784 6.68042 7.29908 6.68041 7.38156 6.63918C7.46403 6.59794 7.50527 6.59794 7.5465 6.59794C7.58774 6.59794 7.67021 6.5567 7.71145 6.5567H8.16506C8.2063 6.5567 8.24753 6.5567 8.24753 6.59794C8.28877 6.59794 8.37125 6.63918 8.41248 6.63918C8.45372 6.63918 8.49496 6.68042 8.57743 6.72165C8.65991 6.76289 8.65991 6.76289 8.70114 6.80413C8.74238 6.84536 8.78362 6.8866 8.82485 6.8866C8.90543 6.95844 8.97491 7.04182 9.03104 7.13402C9.10961 7.2147 9.16638 7.31403 9.19599 7.42268C9.24401 7.52998 9.28533 7.64016 9.3197 7.75258C9.32165 7.78475 9.33532 7.81509 9.35811 7.83788C9.3809 7.86067 9.41124 7.87434 9.44341 7.87629H9.48465C9.56712 7.87629 9.60836 7.79382 9.60836 7.71134L9.48465 7.34021C9.43108 7.22147 9.36172 7.1105 9.27846 7.01031C9.29783 6.93685 9.29652 6.85947 9.27469 6.7867C9.25286 6.71393 9.21136 6.64861 9.15475 6.59794V6.59794Z" fill="black"/>
    <path d="M8.6596 7.50523C8.70083 7.5877 8.74207 7.62894 8.78331 7.71142C8.8169 7.78933 8.83105 7.87424 8.82455 7.95884V8.61863C8.81785 8.7302 8.83183 8.84204 8.86578 8.94853C8.85909 9.0601 8.87307 9.17194 8.90702 9.27843V9.27843C8.9006 9.34969 8.91492 9.4213 8.94826 9.48461C8.94184 9.55588 8.95616 9.62748 8.9895 9.6908C8.98332 9.74893 8.99793 9.80736 9.03073 9.85574C9.02456 9.91387 9.03917 9.97231 9.07197 10.0207V10.0207C9.0658 10.0788 9.08041 10.1373 9.11321 10.1856C9.11321 10.2269 9.15444 10.3094 9.15444 10.3506C9.15444 10.3918 9.19568 10.4743 9.19568 10.5155C9.19568 10.5568 9.23692 10.6393 9.23692 10.6805C9.23692 10.7217 9.27815 10.8042 9.27815 10.8454C9.27815 10.8867 9.31939 10.9691 9.31939 11.0104C9.31939 11.0516 9.36063 11.1341 9.36063 11.1753C9.36063 11.2166 9.40187 11.299 9.40187 11.3403C9.40187 11.3815 9.4431 11.464 9.4431 11.5052C9.4431 11.5465 9.48434 11.6289 9.48434 11.6702C9.48434 11.7114 9.52558 11.7939 9.52558 11.8351C9.52558 11.8764 9.56681 11.9588 9.56681 12.0001C9.56681 12.0413 9.64929 12.0825 9.69053 12.0825H9.73176C9.75111 12.0749 9.7687 12.0634 9.78344 12.0488C9.79819 12.0341 9.80978 12.0166 9.8175 11.9973C9.82523 11.9779 9.82892 11.9573 9.82836 11.9365C9.8278 11.9157 9.82299 11.8952 9.81424 11.8764C9.81424 11.8351 9.773 11.7527 9.773 11.7114C9.773 11.6702 9.73176 11.5877 9.73176 11.5465C9.73176 11.5052 9.69053 11.4228 9.69053 11.3815C9.69053 11.3403 9.64929 11.2578 9.64929 11.2166C9.64929 11.1753 9.60805 11.0929 9.60805 11.0516C9.60805 11.0104 9.56681 10.9279 9.56681 10.8867C9.56681 10.8454 9.52558 10.763 9.52558 10.7217C9.52558 10.6805 9.48434 10.598 9.48434 10.5568C9.48434 10.5155 9.4431 10.4331 9.4431 10.3918C9.4431 10.3506 9.40187 10.2681 9.40187 10.2269C9.40187 10.1856 9.36063 10.1032 9.36063 10.0619C9.3668 10.0038 9.35219 9.94537 9.31939 9.89698V9.89698C9.32556 9.83886 9.31095 9.78042 9.27815 9.73203C9.28432 9.67391 9.26972 9.61547 9.23692 9.56709C9.24309 9.50896 9.22848 9.45052 9.19568 9.40214V9.23719C9.19995 9.12571 9.18602 9.01429 9.15444 8.90729V7.9176C9.16323 7.80598 9.1492 7.69373 9.11321 7.5877C9.0836 7.47905 9.02683 7.37972 8.94826 7.29904C8.87647 7.20653 8.79335 7.12341 8.70084 7.05162C8.62016 6.97305 8.52083 6.91628 8.41218 6.88667V6.88667C8.38091 6.88232 8.35194 6.86783 8.3297 6.84544C8.28846 6.84544 8.24723 6.84544 8.24723 6.8042H7.75238C7.71115 6.8042 7.71114 6.8042 7.66991 6.84544C7.55232 6.88362 7.44112 6.93923 7.34001 7.01038L7.09259 7.25781C7.01341 7.35391 6.95701 7.4667 6.92764 7.5877C6.89363 7.70832 6.8797 7.8337 6.8864 7.95884V8.28873C6.8864 8.37121 6.96888 8.41245 7.05135 8.41245C7.13383 8.41245 7.2163 8.32997 7.17506 8.2475V7.9176C7.17155 7.8197 7.18552 7.72195 7.2163 7.62894L7.34001 7.38152C7.3888 7.30542 7.46125 7.24747 7.5462 7.21657L7.79362 7.09286H8.3297C8.37094 7.09286 8.37094 7.09286 8.41218 7.1341C8.48611 7.16596 8.55545 7.20756 8.61836 7.25781C8.60066 7.29864 8.59514 7.34371 8.60246 7.38761C8.60977 7.4315 8.62962 7.47235 8.6596 7.50523V7.50523Z" fill="black"/>
    <path d="M7.8762 7.8762L7.91744 7.83496H8.04115C8.05209 7.83496 8.06258 7.83931 8.07031 7.84704C8.07804 7.85478 8.08239 7.86526 8.08239 7.8762L8.12362 7.91744V7.99991C8.12362 8.02157 8.12789 8.04302 8.13618 8.06304C8.14447 8.08305 8.15662 8.10123 8.17194 8.11655C8.18725 8.13187 8.20544 8.14402 8.22545 8.15231C8.24546 8.16059 8.26691 8.16486 8.28857 8.16486C8.31023 8.16486 8.33168 8.16059 8.3517 8.15231C8.37171 8.14402 8.38989 8.13187 8.40521 8.11655C8.42052 8.10123 8.43268 8.08305 8.44097 8.06304C8.44925 8.04302 8.45352 8.02157 8.45352 7.99991C8.45352 7.91744 8.45352 7.8762 8.41228 7.83496C8.37105 7.79373 8.37105 7.71125 8.32981 7.67002C8.31018 7.64486 8.28519 7.62441 8.25665 7.61014C8.22812 7.59587 8.19676 7.58815 8.16486 7.58754C8.11648 7.55474 8.05804 7.54013 7.99991 7.5463C7.91744 7.5463 7.8762 7.5463 7.83496 7.58754C7.79373 7.62878 7.71125 7.62878 7.67002 7.67002C7.64486 7.68964 7.62441 7.71464 7.61014 7.74317C7.59587 7.77171 7.58815 7.80307 7.58754 7.83496C7.55474 7.88335 7.54013 7.94179 7.5463 7.99991V8.9896V9.6494C7.54013 9.70752 7.55474 9.76596 7.58754 9.81435C7.58137 9.87247 7.59598 9.93091 7.62878 9.9793C7.62261 10.0374 7.63722 10.0959 7.67002 10.1442C7.66385 10.2024 7.67845 10.2608 7.71125 10.3092V10.3092C7.70508 10.3673 7.71969 10.4258 7.75249 10.4741C7.75249 10.5154 7.79373 10.5979 7.79373 10.6391C7.79373 10.6803 7.83496 10.7628 7.83496 10.804C7.83496 10.8453 7.8762 10.9277 7.8762 10.969C7.87816 11.0012 7.89182 11.0315 7.91461 11.0543C7.9374 11.0771 7.96774 11.0907 7.99991 11.0927H8.04115C8.12362 11.0927 8.16486 11.0102 8.16486 10.9277C8.16486 10.8453 8.12362 10.804 8.12362 10.7628C8.12362 10.7216 8.08239 10.6391 8.08239 10.5979C8.08239 10.5566 8.04115 10.4741 8.04115 10.4329C8.04732 10.3748 8.03271 10.3163 7.99991 10.268V10.268C8.00608 10.2098 7.99147 10.1514 7.95868 10.103C7.96485 10.0449 7.95024 9.98644 7.91744 9.93806C7.92361 9.87993 7.909 9.82149 7.8762 9.77311C7.88237 9.71498 7.86776 9.65655 7.83496 9.60816V9.60816V8.94837V7.8762C7.83496 7.91744 7.83496 7.8762 7.8762 7.8762Z" fill="black"/>
    <path d="M2.06175 10.6392C2.01386 10.3528 1.9863 10.0634 1.97928 9.7732C1.94401 9.47216 1.93023 9.16898 1.93804 8.86598C1.93804 8.57732 1.8968 8.24743 1.8968 7.95877C1.90383 7.66852 1.93139 7.37914 1.97928 7.09279C2.01035 6.81363 2.06554 6.53768 2.14423 6.26804C2.14949 6.23699 2.14348 6.20508 2.12727 6.17807C2.11107 6.15106 2.08574 6.13075 2.05585 6.12079C2.02597 6.11083 1.99352 6.11188 1.96435 6.12376C1.93518 6.13564 1.91122 6.15757 1.8968 6.18557C1.80866 6.46926 1.73977 6.75858 1.69062 7.05155C1.5945 7.65168 1.58063 8.26211 1.64938 8.86598C1.65639 9.1699 1.68394 9.473 1.73185 9.7732C1.78161 10.0732 1.80917 10.3764 1.81433 10.6804L1.93804 11.5464C1.93999 11.5786 1.95366 11.6089 1.97645 11.6317C1.99924 11.6545 2.02958 11.6682 2.06175 11.6701H2.10299C2.18546 11.6701 2.2267 11.5876 2.2267 11.5052C2.15188 11.2206 2.09677 10.9313 2.06175 10.6392V10.6392Z" fill="black"/>
    <path d="M2.55646 10.6391C2.63893 10.6391 2.68017 10.5566 2.68017 10.4741C2.6323 10.2016 2.60473 9.92597 2.5977 9.64939C2.5634 9.37589 2.54962 9.10021 2.55646 8.82465V7.99991C2.55646 7.95616 2.53908 7.91421 2.50815 7.88327C2.47721 7.85234 2.43526 7.83496 2.39151 7.83496C2.34776 7.83496 2.30581 7.85234 2.27487 7.88327C2.24394 7.91421 2.22656 7.95616 2.22656 7.99991V8.86589C2.22656 9.15455 2.2678 9.44321 2.2678 9.69063C2.2678 9.93805 2.30904 10.2267 2.35027 10.5154C2.43275 10.5978 2.47398 10.6391 2.55646 10.6391Z" fill="black"/>
    <path d="M3.05171 12.3711C3.01047 12.2474 3.01047 12.1237 2.96923 12C2.928 11.8763 2.928 11.7526 2.88676 11.6289C2.84552 11.5052 2.84552 11.3815 2.80428 11.2577C2.76305 11.134 2.72181 11.134 2.63934 11.134C2.55686 11.134 2.51562 11.2165 2.51562 11.299C2.51562 11.3815 2.55686 11.5464 2.5981 11.6701C2.63934 11.7938 2.63934 11.9175 2.68057 12.0413C2.72181 12.165 2.72181 12.2887 2.76305 12.4124C2.80428 12.5361 2.80428 12.6598 2.84552 12.7835C2.84748 12.8157 2.86114 12.846 2.88393 12.8688C2.90672 12.8916 2.93706 12.9053 2.96923 12.9072H3.01047C3.09294 12.866 3.13418 12.8248 3.13418 12.7423C3.12652 12.615 3.09868 12.4897 3.05171 12.3711Z" fill="black"/>
    <path d="M3.9999 13.2782C3.95866 13.1958 3.95866 13.072 3.91742 12.9896C3.87619 12.9071 3.87619 12.7834 3.83495 12.7009C3.79371 12.6184 3.79371 12.4947 3.75248 12.4122C3.71124 12.2885 3.71124 12.1648 3.67 12.0823C3.62876 11.9999 3.62876 11.8349 3.58753 11.7525C3.54629 11.67 3.54629 11.505 3.50505 11.4226C3.50505 11.2576 3.46382 11.1751 3.46382 11.0514L3.34011 10.3092C3.29887 10.0617 3.29887 9.81431 3.25763 9.56688C3.22223 9.30731 3.20844 9.04524 3.21639 8.78338C3.21639 8.7009 3.13392 8.65967 3.05145 8.65967C2.96897 8.65967 2.92773 8.74214 2.92773 8.82462C2.92773 9.07204 2.96897 9.3607 2.96897 9.60812C2.96897 9.85554 3.01021 10.103 3.05145 10.3916L3.17516 11.1339C3.18282 11.2612 3.21066 11.3865 3.25763 11.505C3.29887 11.6287 3.29887 11.7525 3.34011 11.8762C3.38134 11.9999 3.38134 12.1236 3.42258 12.2061C3.46382 12.2885 3.46382 12.4535 3.50505 12.536C3.54629 12.6184 3.54629 12.7421 3.58753 12.8246C3.62876 12.9071 3.62876 13.0308 3.67 13.1133C3.71124 13.1958 3.71124 13.3195 3.75248 13.4019C3.79371 13.4844 3.79371 13.6081 3.83495 13.6906C3.87619 13.7731 3.91743 13.7731 3.95866 13.7731H3.9999C4.08237 13.7318 4.12361 13.6494 4.08237 13.6081C4.04484 13.5009 4.01724 13.3905 3.9999 13.2782Z" fill="black"/>
    <path d="M4.86607 13.8557C4.82483 13.7732 4.82483 13.6907 4.78359 13.6082C4.74235 13.5258 4.74235 13.4433 4.70112 13.3608C4.65988 13.2783 4.65988 13.1959 4.61864 13.1134C4.5774 13.0309 4.5774 12.9484 4.53617 12.866C4.49493 12.7835 4.49493 12.701 4.45369 12.6185C4.41246 12.5361 4.41246 12.4536 4.37122 12.3711C4.33825 12.2766 4.31071 12.1802 4.28875 12.0825C4.24751 11.9587 4.24751 11.8763 4.20627 11.7526C4.16503 11.6289 4.16503 11.5464 4.1238 11.4227C4.08256 11.299 4.08256 11.2165 4.04132 11.0928C4.00009 10.9691 4.00009 10.8866 4.00009 10.7629C4.00009 10.6392 3.91761 10.6392 3.83514 10.6392C3.75266 10.6392 3.71143 10.7216 3.71143 10.8041C3.71143 10.8866 3.75266 11.0103 3.75266 11.134C3.7605 11.248 3.78842 11.3597 3.83514 11.4639C3.87637 11.5876 3.87637 11.6701 3.91761 11.7938C3.95885 11.9175 3.95885 12 4.00009 12.1237C4.03306 12.2183 4.06059 12.3146 4.08256 12.4124C4.11553 12.5069 4.14307 12.6033 4.16503 12.701C4.19801 12.7956 4.22554 12.892 4.24751 12.9897C4.28875 13.0721 4.28874 13.1546 4.32998 13.2371C4.37122 13.3196 4.37122 13.402 4.41246 13.4845C4.45369 13.567 4.45369 13.6495 4.49493 13.7319C4.53617 13.8144 4.53617 13.8969 4.57741 13.9794C4.61864 14.0618 4.61864 14.1443 4.65988 14.2268C4.70112 14.3093 4.74235 14.3093 4.78359 14.3093H4.82483C4.84418 14.3016 4.86176 14.2901 4.87651 14.2755C4.89125 14.2608 4.90284 14.2433 4.91057 14.224C4.91829 14.2047 4.92198 14.184 4.92142 14.1632C4.92086 14.1424 4.91606 14.1219 4.9073 14.1031C4.92078 14.0616 4.92406 14.0174 4.91689 13.9743C4.90971 13.9313 4.89228 13.8906 4.86607 13.8557V13.8557Z" fill="black"/>
    <path d="M5.7321 14.2681C5.69086 14.1857 5.69086 14.1444 5.64963 14.0619C5.60839 13.9795 5.60839 13.9382 5.56715 13.8558C5.52591 13.7733 5.52591 13.732 5.48468 13.6496C5.44344 13.5671 5.44344 13.4846 5.4022 13.4434C5.36097 13.4022 5.36097 13.2784 5.31973 13.2372C5.27849 13.196 5.27849 13.0723 5.23725 13.031C5.19602 12.9898 5.19602 12.8661 5.15478 12.7836C5.11354 12.7011 5.11354 12.6186 5.07231 12.5362C5.03107 12.4537 5.03107 12.3712 4.98983 12.2888C4.94859 12.2063 4.90736 12.165 4.82488 12.165C4.74241 12.165 4.70117 12.2475 4.70117 12.33C4.70117 12.4125 4.74241 12.4949 4.78365 12.5774C4.82488 12.6599 4.82488 12.7424 4.86612 12.8248C4.90736 12.9073 4.90736 12.9898 4.94859 13.0723C4.98983 13.1547 4.98983 13.2372 5.03107 13.3197C5.07231 13.4022 5.07231 13.4846 5.11354 13.5671C5.15478 13.6496 5.15478 13.732 5.19602 13.8145C5.23725 13.897 5.23725 13.9795 5.27849 14.0207C5.31973 14.0619 5.31973 14.1444 5.36097 14.2269C5.4022 14.3094 5.4022 14.3506 5.44344 14.4331C5.48468 14.5156 5.48468 14.5568 5.52591 14.6393C5.56715 14.7217 5.60839 14.7217 5.64963 14.7217H5.69086C5.71021 14.7141 5.7278 14.7026 5.74254 14.688C5.75729 14.6733 5.76888 14.6558 5.7766 14.6364C5.78432 14.6171 5.78802 14.5965 5.78746 14.5757C5.7869 14.5549 5.78209 14.5344 5.77334 14.5156C5.77334 14.3918 5.77334 14.3094 5.7321 14.2681Z" fill="black"/>
    <path d="M4.24752 9.31967C4.24752 9.52585 4.28876 9.73204 4.28876 9.97946C4.28876 10.2269 4.33 10.3918 4.37123 10.598C4.37123 10.6805 4.41247 10.8042 4.41247 10.8867C4.41247 10.9692 4.45371 11.0929 4.45371 11.1753C4.45371 11.2578 4.49495 11.3815 4.49495 11.464C4.4969 11.4962 4.51056 11.5265 4.53335 11.5493C4.55614 11.5721 4.58649 11.5858 4.61866 11.5877H4.65989C4.74237 11.5877 4.78361 11.5052 4.78361 11.4228C4.74978 11.3305 4.73573 11.2321 4.74237 11.1341C4.74237 11.0516 4.70113 10.9279 4.70113 10.8454C4.70113 10.763 4.65989 10.6393 4.65989 10.5568C4.61866 10.3506 4.61866 10.1444 4.57742 9.93822C4.54318 9.73392 4.52937 9.52671 4.53618 9.31967C4.53618 9.11348 4.49495 8.9073 4.49495 8.70111V8.04132C4.48813 7.83428 4.50195 7.62707 4.53618 7.42276C4.53618 7.34029 4.49494 7.25781 4.41247 7.25781C4.33 7.25781 4.24752 7.29905 4.24752 7.38152C4.21326 7.59969 4.19946 7.82058 4.20629 8.04132V8.70111C4.24347 8.90506 4.25731 9.11259 4.24752 9.31967V9.31967Z" fill="black"/>
    <path d="M6.55649 14.5155C6.51525 14.433 6.51525 14.3918 6.47402 14.3093C6.43278 14.2268 6.43278 14.1856 6.39154 14.1031C6.3503 14.0207 6.35031 13.9794 6.30907 13.8969C6.26783 13.8145 6.26783 13.7732 6.22659 13.6908C6.18536 13.6083 6.18536 13.567 6.14412 13.4846C6.10288 13.4021 6.10288 13.3609 6.06164 13.2784C6.02041 13.1959 6.02041 13.1547 5.97917 13.0722C5.93793 12.9897 5.93793 12.9485 5.8967 12.866C5.85546 12.7835 5.85546 12.7423 5.81422 12.6598C5.77299 12.5774 5.77298 12.5361 5.73175 12.4536C5.69841 12.3903 5.68409 12.3187 5.69051 12.2475V12.2475C5.64927 12.165 5.64927 12.0825 5.60804 12C5.5668 11.9176 5.5668 11.8351 5.5668 11.7526C5.5668 11.6701 5.52556 11.5877 5.52556 11.5052C5.52556 11.4227 5.48433 11.3402 5.48433 11.2578C5.48433 11.1753 5.44309 11.0928 5.44309 10.9691C5.44309 10.8454 5.40185 10.8042 5.40185 10.6804C5.40185 10.5567 5.36061 10.5155 5.36061 10.3918C5.36061 10.2681 5.31938 10.2268 5.31938 10.1031C5.27814 9.93818 5.27814 9.732 5.2369 9.52581C5.2369 9.44334 5.15443 9.4021 5.07195 9.4021C4.98948 9.4021 4.94824 9.48457 4.94824 9.56705C4.95544 9.76185 4.98309 9.95535 5.03072 10.1444V10.1444C5.03072 10.2268 5.07195 10.3506 5.07195 10.433C5.07195 10.5155 5.11319 10.6392 5.11319 10.7217C5.11319 10.8042 5.15443 10.8866 5.15443 11.0103C5.15443 11.1341 5.19567 11.1753 5.19567 11.299C5.19567 11.3815 5.2369 11.464 5.2369 11.5464C5.2369 11.6289 5.27814 11.7114 5.27814 11.7939C5.27814 11.8763 5.31938 11.9588 5.31938 12.0413C5.32792 12.1289 5.35611 12.2135 5.40185 12.2887V12.2887C5.40326 12.3652 5.43259 12.4385 5.48433 12.4949C5.52556 12.5774 5.52556 12.6598 5.5668 12.7011C5.60804 12.7423 5.60804 12.8248 5.64927 12.9073C5.69051 12.9897 5.69051 13.031 5.73175 13.1134C5.77298 13.1959 5.77299 13.2372 5.81422 13.3196C5.85546 13.4021 5.85546 13.4433 5.8967 13.5258C5.93793 13.6083 5.93793 13.6495 5.97917 13.732C6.02041 13.8145 6.02041 13.8557 6.06164 13.9382C6.10288 14.0207 6.10288 14.0619 6.14412 14.1444C6.18536 14.2268 6.18536 14.2681 6.22659 14.3506C6.26783 14.433 6.26783 14.4743 6.30907 14.5567C6.35031 14.6392 6.3503 14.6805 6.39154 14.7629C6.43278 14.8454 6.47402 14.8454 6.51525 14.8454H6.55649C6.57584 14.8378 6.59343 14.8263 6.60817 14.8116C6.62291 14.7969 6.6345 14.7794 6.64223 14.7601C6.64995 14.7408 6.65365 14.7201 6.65309 14.6993C6.65252 14.6785 6.64772 14.6581 6.63896 14.6392C6.59773 14.6392 6.59773 14.5567 6.55649 14.5155Z" fill="black"/>
    <path d="M7.34036 14.6392C7.29913 14.598 7.29913 14.5155 7.25789 14.4743C7.21665 14.433 7.21665 14.3506 7.17541 14.3093C7.13418 14.2681 7.13418 14.1856 7.09294 14.1444C7.0517 14.1031 7.0517 14.0207 7.01046 13.9794C6.96923 13.9382 6.96923 13.8557 6.92799 13.8145C6.88675 13.7732 6.88675 13.6908 6.84552 13.6495C6.80428 13.6083 6.80428 13.5258 6.76304 13.4846C6.77645 13.3864 6.76217 13.2864 6.72181 13.1959C6.68057 13.1134 6.68057 13.0722 6.63933 12.9897C6.59809 12.9073 6.59809 12.866 6.55686 12.7835C6.52352 12.7202 6.5092 12.6486 6.51562 12.5774V12.5774C6.48229 12.514 6.46796 12.4424 6.47438 12.3712C6.47438 12.2887 6.43315 12.2475 6.43315 12.165C6.43315 12.0825 6.39191 12.0413 6.39191 11.9588C6.39191 11.8763 6.35067 11.8351 6.35067 11.7526C6.35067 11.6701 6.2682 11.6289 6.18572 11.6289C6.10325 11.6289 6.06201 11.7114 6.06201 11.7939C6.06201 11.8763 6.10325 11.9176 6.10325 12C6.10325 12.0825 6.14449 12.1238 6.14449 12.2062C6.14449 12.2887 6.18572 12.3299 6.18572 12.4124C6.18572 12.4949 6.22696 12.5361 6.2682 12.6186C6.2682 12.7011 6.30943 12.7423 6.35067 12.8248C6.39191 12.9073 6.39191 12.9485 6.43315 13.031C6.47438 13.1134 6.47438 13.1547 6.51562 13.2372C6.55686 13.3196 6.55686 13.3609 6.59809 13.4433C6.63933 13.4846 6.63933 13.567 6.68057 13.6495C6.72181 13.732 6.72181 13.7732 6.76304 13.8145C6.80428 13.8557 6.80428 13.9382 6.84552 13.9794C6.88675 14.0207 6.88675 14.1031 6.92799 14.1444C6.96923 14.1856 6.96923 14.2681 7.01046 14.3093C7.0517 14.3506 7.0517 14.433 7.09294 14.4743C7.13418 14.5155 7.13418 14.598 7.17541 14.6392C7.21665 14.6805 7.21665 14.7629 7.25789 14.8042C7.29913 14.8454 7.34036 14.8866 7.3816 14.8866H7.46407C7.54655 14.8454 7.54655 14.7629 7.54655 14.6805C7.3816 14.7629 7.3816 14.6805 7.34036 14.6392Z" fill="black"/>
    <path d="M8.08239 14.6803C8.04116 14.6391 8.04116 14.5566 7.99992 14.5154C7.95868 14.4741 7.95868 14.3917 7.91744 14.3504C7.87621 14.3092 7.87621 14.2267 7.83497 14.1855C7.79373 14.1442 7.79373 14.0618 7.7525 14.0205C7.71126 13.9793 7.71126 13.8968 7.67002 13.8556C7.62878 13.8143 7.62878 13.7319 7.58755 13.6906C7.54631 13.6494 7.54631 13.5669 7.50507 13.5257C7.46384 13.4844 7.46384 13.402 7.4226 13.3607C7.38136 13.3195 7.38136 13.237 7.34012 13.1958C7.29889 13.1545 7.29889 13.0721 7.25765 13.0308C7.21641 12.9896 7.21641 12.9071 7.17518 12.8659C7.17518 12.8246 7.13394 12.7422 7.13394 12.7009C7.13394 12.6597 7.0927 12.5772 7.0927 12.536C7.0927 12.4948 7.05146 12.4123 7.05146 12.371C7.05146 12.3298 7.01023 12.2473 7.01023 12.2061C7.01023 12.1649 6.96899 12.0824 6.96899 12.0411C6.96899 11.9999 6.92775 11.9174 6.92775 11.8762C6.90997 11.8083 6.8962 11.7395 6.88652 11.67C6.88652 11.5875 6.84528 11.5463 6.84528 11.4638C6.84528 11.3813 6.80404 11.3401 6.80404 11.2576C6.80404 11.1752 6.7628 11.1339 6.7628 11.0515C6.7628 10.969 6.72157 10.9277 6.72157 10.8453C6.72157 10.7628 6.68033 10.7216 6.68033 10.6391C6.67065 10.5696 6.65688 10.5008 6.63909 10.4329C6.62941 10.3634 6.61564 10.2946 6.59786 10.2267C6.58817 10.1572 6.5744 10.0884 6.55662 10.0205C6.56738 9.94909 6.55279 9.87614 6.51538 9.81434V9.81434C6.51538 9.69063 6.47414 9.52568 6.47414 9.40197C6.47414 9.27826 6.43291 9.11331 6.43291 8.9896V8.16485C6.4262 8.03972 6.44013 7.91433 6.47414 7.79372C6.50852 7.6813 6.54983 7.57112 6.59786 7.46382C6.61973 7.43101 6.62767 7.39086 6.61994 7.35219C6.61221 7.31352 6.58943 7.27951 6.55662 7.25764C6.52381 7.23576 6.48365 7.22782 6.44499 7.23555C6.40632 7.24329 6.37231 7.26606 6.35043 7.29887C6.27102 7.42526 6.21514 7.56496 6.18548 7.71125C6.15134 7.8599 6.13747 8.01248 6.14425 8.16485V9.03083C6.13749 9.16957 6.15139 9.30855 6.18548 9.4432C6.18548 9.56692 6.22672 9.73186 6.22672 9.85558C6.22022 9.94017 6.23437 10.0251 6.26796 10.103C6.26146 10.1876 6.27561 10.2725 6.3092 10.3504C6.31888 10.4199 6.33265 10.4887 6.35043 10.5566C6.36012 10.6261 6.37389 10.6949 6.39167 10.7628V10.7628C6.39167 10.8453 6.43291 10.8865 6.43291 10.969C6.43291 11.0515 6.47414 11.0927 6.47414 11.1752C6.47414 11.2576 6.51538 11.2989 6.51538 11.3813C6.51538 11.4638 6.55662 11.5051 6.55662 11.5875C6.55662 11.67 6.59786 11.7112 6.59786 11.7937C6.59786 11.8762 6.63909 11.9174 6.63909 11.9999C6.63909 12.0824 6.68033 12.1236 6.68033 12.2061C6.68033 12.2886 6.72157 12.3298 6.72157 12.4123C6.72157 12.4535 6.7628 12.536 6.7628 12.5772C6.7628 12.6185 6.80404 12.7009 6.80404 12.7422C6.80404 12.7834 6.84528 12.8659 6.84528 12.9071C6.84528 12.9484 6.88652 13.0308 6.88652 13.0721C6.92775 13.1133 6.92775 13.1958 6.96899 13.237C7.01023 13.2783 7.01023 13.3607 7.05146 13.402C7.0927 13.4432 7.0927 13.5257 7.13394 13.5669C7.17518 13.6082 7.17518 13.6906 7.21641 13.7319C7.25765 13.7731 7.25765 13.8556 7.29889 13.8968C7.34012 13.9381 7.34012 14.0205 7.38136 14.0618C7.4226 14.103 7.4226 14.1855 7.46384 14.2267C7.50507 14.2679 7.50507 14.3504 7.54631 14.3917C7.58755 14.4329 7.58755 14.5154 7.62878 14.5566C7.67002 14.5978 7.67002 14.6803 7.71126 14.7216C7.7525 14.7628 7.7525 14.8453 7.79373 14.8865C7.83497 14.9277 7.83497 15.0102 7.87621 15.0515C7.91744 15.0927 7.95868 15.1339 7.99992 15.1339H8.08239C8.16487 15.0927 8.16487 15.0102 8.12363 14.9277C8.14133 14.8869 8.14685 14.8418 8.13953 14.7979C8.13222 14.754 8.11237 14.7132 8.08239 14.6803V14.6803Z" fill="black"/>
    <path d="M7.8352 12.3711C7.8352 12.3299 7.79397 12.2474 7.79397 12.2062C7.79397 12.1649 7.75273 12.0824 7.75273 12.0412C7.75273 12 7.71149 11.9175 7.71149 11.8763C7.71149 11.835 7.67026 11.7525 7.67026 11.7113C7.67026 11.6701 7.62902 11.5876 7.62902 11.5464C7.62902 11.5051 7.58778 11.4226 7.58778 11.3814C7.58778 11.3402 7.54654 11.2577 7.54654 11.2165C7.54654 11.1752 7.50531 11.0928 7.50531 11.0515C7.50531 11.0103 7.46407 10.9278 7.46407 10.8866C7.46407 10.8453 7.42283 10.7629 7.42283 10.7216C7.42283 10.6804 7.3816 10.5979 7.3816 10.5567C7.3816 10.5154 7.34036 10.433 7.34036 10.3917C7.34653 10.3336 7.33192 10.2752 7.29912 10.2268V10.2268C7.30554 10.1555 7.29122 10.0839 7.25788 10.0206C7.2643 9.94932 7.24998 9.87772 7.21665 9.8144C7.22306 9.74314 7.20874 9.67153 7.17541 9.60822V9.40203C7.17541 9.31956 7.09294 9.27832 7.01046 9.27832C6.92799 9.27832 6.88675 9.36079 6.88675 9.44327C6.88033 9.51453 6.89465 9.58614 6.92799 9.64945C6.92157 9.72072 6.93589 9.79232 6.96922 9.85564C6.96281 9.92691 6.97713 9.99851 7.01046 10.0618C7.00404 10.1331 7.01836 10.2047 7.0517 10.268V10.268C7.04553 10.3261 7.06014 10.3846 7.09294 10.433C7.09294 10.4742 7.13417 10.5567 7.13417 10.5979C7.13417 10.6391 7.17541 10.7216 7.17541 10.7629C7.17541 10.8041 7.21665 10.8866 7.21665 10.9278C7.21665 10.969 7.25788 11.0515 7.25788 11.0928C7.25788 11.134 7.29912 11.2165 7.29912 11.2577C7.29912 11.2989 7.34036 11.3814 7.34036 11.4227C7.34036 11.4639 7.3816 11.5464 7.3816 11.5876C7.3816 11.6288 7.42283 11.7113 7.42283 11.7525C7.42283 11.7938 7.46407 11.8763 7.46407 11.9175C7.46407 11.9587 7.50531 12.0412 7.50531 12.0824C7.50531 12.1237 7.54654 12.2062 7.54654 12.2474C7.54654 12.2886 7.58778 12.3711 7.58778 12.4123C7.58778 12.4536 7.62902 12.5361 7.62902 12.5773C7.62902 12.6185 7.67026 12.701 7.67026 12.7422C7.67026 12.7835 7.71149 12.8659 7.71149 12.9072C7.75273 12.9484 7.75273 13.0309 7.79397 13.0721C7.8352 13.1134 7.8352 13.1958 7.87644 13.2371C7.91768 13.2783 7.95892 13.3196 8.00015 13.3196H8.04139C8.06074 13.3119 8.07833 13.3004 8.09307 13.2858C8.10781 13.2711 8.1194 13.2536 8.12713 13.2343C8.13485 13.215 8.13855 13.1943 8.13798 13.1735C8.13742 13.1527 8.13262 13.1322 8.12386 13.1134C8.08263 13.0721 8.08263 12.9897 8.04139 12.9484C8.00015 12.9072 8.00015 12.8247 7.95892 12.7835C7.95892 12.7422 7.91768 12.6598 7.91768 12.6185C7.91768 12.5773 7.87644 12.4948 7.87644 12.4536C7.87644 12.4948 7.87644 12.4536 7.8352 12.3711Z" fill="black"/>
    <path d="M8.82457 14.6392C8.78333 14.5979 8.78333 14.5154 8.74209 14.4742C8.70085 14.433 8.70085 14.3505 8.65962 14.3093C8.61838 14.268 8.61838 14.1855 8.57714 14.1443C8.53591 14.1031 8.53591 14.0206 8.49467 13.9794C8.45343 13.9381 8.45343 13.8556 8.4122 13.8144C8.40407 13.7955 8.3923 13.7783 8.37754 13.7639C8.36278 13.7495 8.34533 13.7381 8.32618 13.7305C8.30704 13.7228 8.28657 13.719 8.26595 13.7192C8.24533 13.7195 8.22496 13.7238 8.20601 13.7319C8.18706 13.7401 8.16989 13.7518 8.15549 13.7666C8.14108 13.7814 8.12973 13.7988 8.12207 13.8179C8.11441 13.8371 8.1106 13.8576 8.11085 13.8782C8.1111 13.8988 8.11541 13.9192 8.12354 13.9381C8.16477 13.9794 8.16477 14.0618 8.20601 14.1031C8.24725 14.1443 8.24725 14.2268 8.28848 14.268C8.32972 14.3093 8.32972 14.3917 8.37096 14.433C8.4122 14.4742 8.41219 14.5567 8.45343 14.5979C8.49467 14.6392 8.49467 14.7216 8.53591 14.7629C8.57714 14.8041 8.57714 14.8866 8.61838 14.9278C8.65962 14.969 8.70085 15.0103 8.74209 15.0103H8.82457C8.90704 14.969 8.90704 14.8866 8.8658 14.8041C8.87197 14.746 8.85737 14.6875 8.82457 14.6392V14.6392Z" fill="black"/>
    <path d="M9.52577 14.5153C9.48454 14.4741 9.48454 14.4329 9.4433 14.3504C9.40206 14.2679 9.40206 14.2679 9.36082 14.1854C9.31959 14.103 9.31959 14.103 9.27835 14.0205C9.23711 13.9793 9.23711 13.938 9.19588 13.8555C9.15464 13.7731 9.15464 13.7731 9.1134 13.6906C9.07217 13.6081 9.07216 13.6081 9.03093 13.5256C8.98969 13.4432 8.98969 13.4432 8.94845 13.3607C8.90722 13.2782 8.90722 13.2782 8.86598 13.1957C8.82474 13.1133 8.82474 13.072 8.78351 13.0308C8.74227 12.9896 8.74227 12.9071 8.70103 12.8658C8.65979 12.8246 8.65979 12.7421 8.61856 12.7009C8.57732 12.6597 8.57732 12.5772 8.57732 12.536C8.57732 12.4947 8.53608 12.4122 8.53608 12.371C8.53608 12.3298 8.49485 12.2473 8.49485 12.2061C8.49485 12.1648 8.45361 12.0823 8.45361 12.0411C8.45361 11.9999 8.41237 11.9174 8.41237 11.8762C8.41237 11.8349 8.37113 11.7524 8.37113 11.7112C8.37113 11.67 8.3299 11.5875 8.3299 11.5463C8.3299 11.505 8.28866 11.4225 8.28866 11.3813C8.28866 11.3401 8.20619 11.2576 8.12371 11.2988C8.06265 11.415 8.02087 11.5404 8 11.67C8 11.7112 8.04124 11.7937 8.04124 11.8349C8.04124 11.8762 8.08247 11.9586 8.08247 11.9999C8.08247 12.0411 8.12371 12.1236 8.12371 12.1648C8.12371 12.2061 8.16495 12.2885 8.16495 12.3298C8.16495 12.371 8.20619 12.4535 8.20619 12.4947C8.20619 12.536 8.24742 12.6184 8.24742 12.6597C8.24742 12.7009 8.28866 12.7834 8.28866 12.8246C8.28866 12.8658 8.3299 12.9483 8.3299 12.9896C8.3299 13.0308 8.37113 13.1133 8.41237 13.1545C8.45361 13.1957 8.45361 13.2782 8.49485 13.3195C8.53608 13.3607 8.53608 13.4432 8.57732 13.4844C8.61856 13.5256 8.61856 13.6081 8.65979 13.6494C8.70103 13.6906 8.70103 13.7731 8.74227 13.8143C8.7835 13.8555 8.78351 13.938 8.82474 13.9792C8.86598 14.0205 8.86598 14.103 8.90722 14.1442C8.94845 14.1854 8.94845 14.2679 8.98969 14.3091C9.03093 14.3504 9.03093 14.4329 9.07216 14.4741C9.1134 14.5153 9.1134 14.5566 9.15464 14.639C9.19588 14.7215 9.19588 14.7215 9.23711 14.804C9.27835 14.8865 9.27835 14.8865 9.31959 14.9689C9.36082 15.0514 9.40206 15.0514 9.4433 15.0514H9.52577C9.60825 15.0102 9.60825 14.9277 9.56701 14.8452C9.56153 14.7344 9.54775 14.6241 9.52577 14.5153V14.5153Z" fill="black"/>
    <path d="M10.1858 14.3505C10.1446 14.3092 10.1446 14.268 10.1034 14.1855C10.0621 14.1031 10.0621 14.1031 10.0209 14.0206C9.97966 13.9381 9.97966 13.9381 9.93842 13.8556C9.89718 13.8144 9.89718 13.7732 9.85595 13.6907C9.81471 13.6082 9.81471 13.6082 9.77347 13.5257C9.73223 13.4433 9.73223 13.4433 9.691 13.3608C9.691 13.4433 9.64976 13.3608 9.64976 13.3195C9.60852 13.2783 9.60852 13.2371 9.56729 13.1546C9.52605 13.0721 9.52605 13.0721 9.48481 12.9897C9.44357 12.9072 9.44357 12.9072 9.40234 12.8247C9.3611 12.7422 9.3611 12.7422 9.31986 12.6598C9.31986 12.6185 9.27863 12.5773 9.27863 12.4948C9.27863 12.4123 9.23739 12.4123 9.23739 12.3299C9.23739 12.2474 9.19615 12.2474 9.19615 12.1649C9.19615 12.0824 9.15491 12.0412 9.15491 12C9.15491 11.9587 9.11368 11.8762 9.11368 11.835C9.11368 11.7938 9.07244 11.7113 9.07244 11.6701C9.07244 11.6288 9.0312 11.5464 9.0312 11.5051C9.0312 11.4639 8.98997 11.3814 8.98997 11.3402C8.98997 11.2989 8.94873 11.2165 8.94873 11.1752C8.94873 11.134 8.90749 11.0515 8.90749 11.0103C8.90749 10.969 8.86625 10.8866 8.86625 10.8453C8.86625 10.8041 8.82502 10.7216 8.82502 10.6804C8.82502 10.6391 8.78378 10.5567 8.78378 10.5154C8.78378 10.4742 8.74254 10.3917 8.74254 10.3505C8.74254 10.3092 8.70131 10.2268 8.70131 10.1855C8.70748 10.1274 8.69287 10.069 8.66007 10.0206C8.66624 9.96245 8.65163 9.90401 8.61883 9.85563C8.625 9.7975 8.61039 9.73907 8.5776 9.69068C8.58377 9.63255 8.56916 9.57412 8.53636 9.52573C8.54253 9.4676 8.52792 9.40917 8.49512 9.36079V9.36079V8.70099V8.4948C8.49512 8.41233 8.41265 8.37109 8.33017 8.37109C8.2477 8.37109 8.20646 8.45357 8.20646 8.53604V8.78346V9.44326C8.20029 9.50139 8.2149 9.55982 8.2477 9.60821C8.24153 9.66633 8.25614 9.72477 8.28894 9.77316C8.28276 9.83128 8.29737 9.88972 8.33017 9.9381C8.324 9.99623 8.33861 10.0547 8.37141 10.1031C8.36524 10.1612 8.37985 10.2196 8.41265 10.268C8.41265 10.3092 8.45388 10.3917 8.45388 10.4329C8.45388 10.4742 8.49512 10.5567 8.49512 10.5979C8.49512 10.6391 8.53636 10.7216 8.53636 10.7628C8.53636 10.8041 8.5776 10.8866 8.5776 10.9278C8.5776 10.969 8.61883 11.0515 8.61883 11.0927C8.61883 11.134 8.66007 11.2165 8.66007 11.2577C8.66007 11.2989 8.70131 11.3814 8.70131 11.4226C8.70131 11.4639 8.74254 11.5464 8.74254 11.5876C8.74254 11.6288 8.78378 11.7113 8.78378 11.7525C8.78378 11.7938 8.82502 11.8762 8.82502 11.9175C8.82502 11.9587 8.86625 12.0412 8.86625 12.0824C8.86625 12.1237 8.90749 12.2061 8.90749 12.2474C8.90749 12.2886 8.94873 12.3711 8.94873 12.4123C8.94873 12.4536 8.98997 12.536 8.98997 12.5773C8.98997 12.6185 9.0312 12.701 9.0312 12.7422C9.07244 12.7835 9.07244 12.8659 9.11368 12.9072C9.15491 12.9484 9.15492 13.0309 9.19615 13.0721C9.23739 13.1134 9.23739 13.1958 9.27863 13.2371C9.31986 13.2783 9.31986 13.3195 9.3611 13.402C9.40234 13.4433 9.40234 13.4845 9.44357 13.567C9.48481 13.6494 9.48481 13.6494 9.52605 13.7319C9.56729 13.8144 9.56729 13.8144 9.60852 13.8969C9.64976 13.9793 9.64976 13.9793 9.691 14.0618C9.73223 14.1031 9.73223 14.1443 9.77347 14.2268C9.81471 14.3092 9.81471 14.3092 9.85595 14.3917C9.89718 14.4742 9.89718 14.4742 9.93842 14.5567C9.97966 14.6391 9.97966 14.6391 10.0209 14.7216C10.0621 14.8041 10.1034 14.8041 10.1446 14.8041C10.1858 14.8041 10.1858 14.8041 10.2271 14.7628C10.2683 14.7216 10.3096 14.6391 10.2683 14.5567C10.2271 14.4742 10.1858 14.3917 10.1858 14.3505Z" fill="black"/>
    <path d="M10.8043 14.1031C10.763 14.0618 10.763 14.0206 10.7218 13.9793C10.6806 13.9381 10.6806 13.8969 10.6393 13.8556C10.5981 13.8144 10.5981 13.7732 10.5569 13.7319C10.5156 13.6907 10.5156 13.6494 10.4744 13.6082C10.4331 13.567 10.4331 13.5257 10.3919 13.4433C10.3507 13.3608 10.3507 13.3608 10.3094 13.2783C10.2682 13.1958 10.2682 13.1958 10.227 13.1134C10.1857 13.0721 10.1857 13.0309 10.1445 12.9484C10.1032 12.8659 10.1032 12.8659 10.062 12.7835C10.0208 12.701 10.0208 12.701 9.97953 12.6185C9.9383 12.536 9.9383 12.536 9.89706 12.4536C9.88894 12.4346 9.87716 12.4174 9.8624 12.403C9.84764 12.3886 9.83019 12.3773 9.81105 12.3696C9.7919 12.362 9.77143 12.3582 9.75081 12.3584C9.7302 12.3587 9.70983 12.363 9.69087 12.3711C9.67192 12.3792 9.65475 12.391 9.64035 12.4058C9.62595 12.4205 9.61459 12.438 9.60693 12.4571C9.59928 12.4763 9.59546 12.4967 9.59571 12.5173C9.59597 12.538 9.60028 12.5583 9.6084 12.5773C9.64964 12.6185 9.64964 12.6598 9.69087 12.7422C9.73211 12.8247 9.73211 12.8247 9.77335 12.9072C9.81458 12.9897 9.81458 12.9897 9.85582 13.0721C9.89706 13.1546 9.89706 13.1546 9.9383 13.2371C9.97953 13.2783 9.97953 13.3195 10.0208 13.402C10.062 13.4845 10.062 13.4845 10.1032 13.567C10.1445 13.6494 10.1445 13.6494 10.1857 13.7319C10.227 13.8144 10.227 13.8144 10.2682 13.8969C10.3094 13.9381 10.3094 13.9793 10.3507 14.0618C10.3919 14.1443 10.3919 14.1443 10.4331 14.2268C10.4744 14.3092 10.4744 14.3092 10.5156 14.3917C10.5569 14.4742 10.5569 14.4742 10.5981 14.5154C10.6393 14.5567 10.6806 14.5979 10.7218 14.5979C10.763 14.5979 10.763 14.5979 10.8043 14.5567C10.8455 14.5154 10.8868 14.433 10.8455 14.3505C10.8043 14.268 10.8455 14.1443 10.8043 14.1031Z" fill="black"/>
    <path d="M9.89719 10.5978C10.0209 10.5566 10.0621 10.5153 10.0209 10.4329C9.97967 10.3504 9.97967 10.3091 9.97967 10.2679C9.97967 10.2267 9.93843 10.1442 9.93843 10.0617C9.93843 9.97925 9.89719 9.93801 9.89719 9.85554C9.89719 9.77306 9.85596 9.73183 9.85596 9.64935C9.86237 9.57809 9.84806 9.50648 9.81472 9.44317V9.44317C9.81472 9.31946 9.77348 9.19575 9.77348 9.07203C9.77348 8.94832 9.73225 8.82461 9.73225 8.7009V8.32977C9.73225 8.24729 9.64977 8.20605 9.5673 8.20605C9.48482 8.20605 9.40235 8.28853 9.44359 8.371V8.74214C9.43688 8.86727 9.45081 8.99266 9.48482 9.11327C9.48482 9.23698 9.52606 9.36069 9.52606 9.48441C9.51964 9.55567 9.53396 9.62727 9.5673 9.69059C9.56088 9.76186 9.5752 9.83346 9.60853 9.89678C9.60853 9.97925 9.64977 10.0205 9.64977 10.103C9.64977 10.1854 9.69101 10.2267 9.69101 10.3091C9.69101 10.3916 9.73225 10.4329 9.73225 10.4741C9.73225 10.5153 9.81472 10.5978 9.89719 10.5978Z" fill="black"/>
    <path d="M11.3816 13.8143C11.3403 13.7731 11.3403 13.7319 11.2991 13.6906C11.2579 13.6494 11.2579 13.6082 11.2166 13.5669C11.1754 13.5257 11.1754 13.4844 11.1341 13.4432C11.0929 13.402 11.0929 13.3607 11.0517 13.3195C11.0104 13.2783 11.0104 13.237 10.9692 13.1545C10.928 13.0721 10.928 13.0721 10.8867 12.9896C10.8455 12.9071 10.8867 12.8659 10.8455 12.8246C10.8042 12.7834 10.8042 12.7422 10.763 12.6597C10.7218 12.5772 10.7218 12.5772 10.6805 12.4948C10.6393 12.4123 10.6393 12.4123 10.5981 12.3298C10.5568 12.2473 10.5568 12.2473 10.5156 12.1649C10.5156 12.1236 10.4743 12.0824 10.4743 11.9999C10.4743 11.9174 10.4331 11.9174 10.4331 11.835C10.4331 11.7525 10.3919 11.7112 10.3919 11.67C10.3919 11.6288 10.3506 11.5463 10.3506 11.5051C10.3506 11.4638 10.3094 11.3814 10.3094 11.3401C10.3094 11.2989 10.2682 11.2164 10.2682 11.1752C10.2682 11.1339 10.2269 11.0515 10.2269 11.0102C10.2269 10.969 10.1032 10.8865 10.062 10.9277C10.0207 10.969 9.93826 11.0515 9.9795 11.0927C10.0207 11.1339 10.0207 11.2164 10.0207 11.2576C10.0207 11.2989 10.062 11.3814 10.062 11.4226C10.062 11.4638 10.1032 11.5463 10.1032 11.5875C10.1032 11.6288 10.1444 11.7112 10.1444 11.7525C10.1444 11.7937 10.1857 11.8762 10.1857 11.9174C10.1857 11.9587 10.2269 12.0411 10.2269 12.0824C10.2373 12.1444 10.266 12.2019 10.3094 12.2473V12.2473C10.3506 12.2886 10.3506 12.371 10.3919 12.4123C10.4331 12.4535 10.4331 12.536 10.4743 12.5772C10.5156 12.6185 10.5156 12.6597 10.5568 12.7422C10.5981 12.8246 10.5981 12.8246 10.6393 12.9071C10.6805 12.9484 10.6805 12.9896 10.7218 13.0721C10.763 13.1545 10.763 13.1545 10.8042 13.237C10.8455 13.3195 10.8455 13.3195 10.8867 13.402C10.928 13.4844 10.928 13.4844 10.9692 13.5669C11.0104 13.6082 11.0104 13.6494 11.0517 13.7319C11.0929 13.8143 11.0929 13.8143 11.1341 13.8968C11.1754 13.9793 11.1754 13.9793 11.2166 14.0205C11.2579 14.0618 11.2579 14.103 11.2991 14.1442C11.3403 14.1855 11.3816 14.2267 11.4228 14.2267C11.464 14.2267 11.464 14.2267 11.5053 14.1855C11.5465 14.1442 11.5877 14.0618 11.5465 13.9793L11.3816 13.8143Z" fill="black"/>
    <path d="M11.9586 13.4845C11.9173 13.4433 11.9173 13.4021 11.8761 13.3608C11.8349 13.3196 11.8349 13.2783 11.7936 13.2371C11.7524 13.1959 11.7524 13.1546 11.7111 13.1134C11.6699 13.0722 11.6699 13.0309 11.6287 12.9484C11.5874 12.866 11.5874 12.866 11.5462 12.7835C11.505 12.701 11.505 12.701 11.4637 12.6186C11.4225 12.5361 11.4225 12.5361 11.3813 12.4536C11.34 12.4124 11.34 12.3711 11.2988 12.2887C11.2575 12.2062 11.2575 12.2062 11.2163 12.1237C11.1751 12.0412 11.1751 12 11.1338 11.9588C11.101 11.9104 11.0864 11.8519 11.0926 11.7938V11.7938C11.0598 11.7454 11.0452 11.687 11.0514 11.6289C11.035 11.5906 11.004 11.5604 10.9653 11.5449C10.9267 11.5295 10.8834 11.53 10.8452 11.5464C10.8069 11.5628 10.7767 11.5937 10.7612 11.6324C10.7458 11.6711 10.7463 11.7143 10.7627 11.7526C10.773 11.8146 10.8018 11.8721 10.8452 11.9175V11.9175C10.8864 11.9588 10.8864 12.0412 10.9276 12.0825C10.9689 12.1237 10.9689 12.2062 11.0101 12.2474C11.0514 12.2887 11.0514 12.3711 11.0926 12.4124C11.1338 12.4536 11.1338 12.5361 11.1751 12.5773C11.2163 12.6186 11.2163 12.6598 11.2575 12.7423C11.2988 12.8247 11.2988 12.8247 11.34 12.9072C11.3813 12.9897 11.3813 12.9897 11.4225 13.0722C11.4637 13.1546 11.4637 13.1546 11.505 13.2371C11.5462 13.2783 11.5462 13.3196 11.5874 13.4021C11.6287 13.4845 11.6287 13.4845 11.6699 13.567C11.7112 13.6495 11.7111 13.6495 11.7524 13.732C11.7936 13.8144 11.7936 13.8144 11.8349 13.8557C11.8761 13.8969 11.9173 13.9381 11.9586 13.9381C11.9998 13.9381 11.9998 13.9381 12.041 13.8969C12.0823 13.8557 12.1235 13.7732 12.0823 13.6907C12.041 13.6082 11.9586 13.5258 11.9586 13.4845Z" fill="black"/>
    <path d="M12.4947 13.0723C12.4535 13.0311 12.4535 12.9898 12.4122 12.9486C12.371 12.9074 12.371 12.8661 12.3298 12.7837C12.2885 12.7012 12.2885 12.7012 12.2473 12.6187C12.2061 12.5775 12.2061 12.5362 12.1648 12.4538C12.1236 12.3713 12.1236 12.3713 12.0823 12.2888C12.0411 12.2063 12.0411 12.2063 11.9999 12.1239C11.9586 12.0414 11.9586 12.0001 11.9174 11.9589C11.8762 11.9177 11.8762 11.8352 11.8349 11.794C11.7937 11.7527 11.7937 11.6703 11.7524 11.629C11.7112 11.5878 11.7112 11.5053 11.67 11.4641C11.6372 11.4157 11.6226 11.3572 11.6287 11.2991V11.2991C11.5959 11.2507 11.5813 11.1923 11.5875 11.1342C11.5875 11.0929 11.5463 11.0105 11.5463 10.9692C11.5463 10.928 11.505 10.8455 11.505 10.8043C11.505 10.763 11.4638 10.6806 11.4638 10.6393C11.4638 10.5981 11.4226 10.5156 11.4226 10.4331C11.4226 10.3507 11.3813 10.3094 11.3813 10.227C11.3813 10.1445 11.3401 10.1032 11.3401 10.0208C11.3401 9.93829 11.2988 9.89706 11.2988 9.81458C11.2576 9.64963 11.2576 9.52592 11.2164 9.36097C11.1751 9.19603 11.1751 9.07231 11.1751 8.90737C11.1751 8.74242 11.1339 8.61871 11.1339 8.45376V8.00015C11.1407 7.83413 11.1268 7.66791 11.0927 7.5053C11.0762 7.34841 11.0344 7.19522 10.9689 7.0517C10.9211 6.91147 10.8661 6.77383 10.804 6.63932C10.7215 6.51561 10.639 6.35066 10.5566 6.22695C10.5153 6.18572 10.4741 6.10324 10.4329 6.06201C10.3916 6.02077 10.3504 5.93829 10.3091 5.89706C10.2679 5.85582 10.2267 5.77335 10.1442 5.73211C10.0617 5.69087 10.0205 5.64963 9.97925 5.6084C9.93226 5.55746 9.87636 5.51554 9.8143 5.48469C9.76731 5.43375 9.71141 5.39182 9.64935 5.36097C9.60389 5.31756 9.54642 5.28883 9.48441 5.2785C9.44317 5.23726 9.3607 5.23726 9.31946 5.19603C9.27822 5.15479 9.19575 5.15479 9.15451 5.11355C9.11327 5.07231 9.0308 5.07231 8.98956 5.03108C8.94832 4.98984 8.86585 4.98984 8.82461 4.98984C8.78338 4.98984 8.7009 4.9486 8.65966 4.9486C8.61843 4.9486 8.53595 4.90737 8.49472 4.90737C8.43659 4.91354 8.37815 4.89893 8.32977 4.86613H7.66997C7.61185 4.85996 7.55341 4.87457 7.50502 4.90737C7.46379 4.90737 7.38131 4.9486 7.34008 4.9486C7.2576 4.9486 7.21637 4.98984 7.13389 4.98984C7.05142 4.98984 7.01018 5.03108 6.92771 5.07231C6.90836 5.07994 6.89077 5.09144 6.87602 5.1061C6.86128 5.12077 6.84969 5.1383 6.84197 5.15761C6.83424 5.17692 6.83055 5.1976 6.83111 5.21839C6.83167 5.23918 6.83648 5.25964 6.84523 5.2785C6.88647 5.31974 6.92771 5.36097 6.96894 5.36097H7.01018C7.05856 5.32818 7.117 5.31357 7.17513 5.31974C7.21637 5.31974 7.29884 5.2785 7.34008 5.2785C7.38131 5.2785 7.46379 5.23726 7.50502 5.23726C7.56315 5.24343 7.62159 5.22882 7.66997 5.19603H8.32977C8.38789 5.18985 8.44633 5.20446 8.49472 5.23726C8.55245 5.23555 8.60953 5.24982 8.65966 5.2785V5.2785C8.7009 5.2785 8.78338 5.31974 8.82461 5.31974C8.86585 5.31974 8.90709 5.36097 8.98956 5.36097C9.07204 5.36097 9.07204 5.40221 9.15451 5.40221C9.23698 5.40221 9.23698 5.44345 9.27822 5.48469C9.31946 5.52592 9.3607 5.52592 9.44317 5.56716C9.52564 5.6084 9.52564 5.6084 9.56688 5.64963C9.60812 5.69087 9.64935 5.69087 9.69059 5.73211C9.73183 5.77335 9.77307 5.81458 9.8143 5.81458C9.8613 5.86552 9.91719 5.90744 9.97925 5.93829L10.103 6.06201C10.1539 6.109 10.1958 6.1649 10.2267 6.22695C10.2679 6.26819 10.3091 6.35067 10.3504 6.3919C10.4346 6.50634 10.5039 6.63106 10.5566 6.76304C10.6959 7.00272 10.7804 7.2703 10.804 7.54654C10.8401 7.69488 10.854 7.84774 10.8452 8.00015V8.45376C10.8365 8.60617 10.8504 8.75903 10.8865 8.90737C10.8865 9.07231 10.9277 9.19603 10.9277 9.36097C10.9351 9.51515 10.9628 9.66767 11.0102 9.81458V9.81458C11.0199 9.88406 11.0336 9.95291 11.0514 10.0208C11.0611 10.0902 11.0749 10.1591 11.0927 10.227C11.1023 10.2964 11.1161 10.3653 11.1339 10.4331C11.1436 10.5026 11.1573 10.5715 11.1751 10.6393C11.1751 10.7218 11.2164 10.763 11.2164 10.8455C11.2164 10.928 11.2576 10.9692 11.2576 11.0517C11.2576 11.1342 11.2988 11.1754 11.2988 11.2166C11.3092 11.2787 11.3379 11.3361 11.3813 11.3816C11.3916 11.4436 11.4204 11.5011 11.4638 11.5465C11.505 11.5878 11.505 11.6703 11.5463 11.7115C11.5875 11.7527 11.5875 11.8352 11.6287 11.8764C11.67 11.9177 11.67 12.0001 11.7112 12.0414C11.7524 12.0826 11.7524 12.1651 11.7937 12.2063C11.8349 12.2476 11.8349 12.33 11.8762 12.3713C11.9174 12.4125 11.9174 12.495 11.9586 12.5362C11.9999 12.5775 11.9999 12.6599 12.0411 12.7012C12.0823 12.7424 12.0823 12.7837 12.1236 12.8661C12.1648 12.9486 12.1648 12.9486 12.2061 13.0311C12.2473 13.1136 12.2473 13.1136 12.2885 13.196C12.3298 13.2785 12.3298 13.2785 12.371 13.361C12.4122 13.4434 12.4535 13.4434 12.4947 13.4434C12.536 13.4434 12.536 13.4434 12.5772 13.4022C12.6184 13.361 12.6597 13.2785 12.6184 13.196C12.5772 13.1136 12.4947 13.1136 12.4947 13.0723Z" fill="black"/>
    <path d="M12.9899 12.6186C12.9486 12.5774 12.9486 12.5361 12.9074 12.4537C12.8662 12.3712 12.8662 12.3712 12.8249 12.2887C12.7837 12.2062 12.7837 12.2062 12.7425 12.1238C12.7012 12.0413 12.7012 12.0001 12.66 11.9588C12.6187 11.9176 12.6187 11.8351 12.5775 11.7939C12.5363 11.7526 12.5363 11.7114 12.495 11.6702C12.4538 11.6289 12.4538 11.5465 12.4126 11.5052C12.3713 11.464 12.3713 11.3815 12.3301 11.3403C12.2888 11.299 12.2888 11.2166 12.2476 11.1753C12.2064 11.1341 12.2064 11.0516 12.1651 11.0104C12.1239 10.9691 12.1239 10.8867 12.1239 10.8454C12.1239 10.8042 12.0002 10.7217 11.9589 10.7629C11.9177 10.8042 11.8352 10.8867 11.8765 10.9279C11.9177 10.9691 11.9177 11.0516 11.9177 11.1341C11.9177 11.2166 11.9589 11.2578 12.0002 11.3403C12.0414 11.4227 12.0414 11.464 12.0827 11.5465C12.1239 11.6289 12.1239 11.6702 12.1651 11.7114C12.2064 11.7526 12.2064 11.8351 12.2476 11.8764C12.2888 11.9176 12.2888 12.0001 12.3301 12.0413C12.3713 12.0825 12.3713 12.165 12.4126 12.2062C12.4538 12.2475 12.4538 12.33 12.495 12.3712C12.5363 12.4124 12.5363 12.4949 12.5775 12.5361C12.6187 12.5774 12.6187 12.6599 12.66 12.7011C12.7012 12.7423 12.7012 12.7836 12.7425 12.866C12.7837 12.9485 12.7837 12.9485 12.8249 13.031C12.8662 13.1135 12.9074 13.1135 12.9486 13.1135H13.0311C13.1136 13.0722 13.1136 12.9898 13.0723 12.9073C13.0311 12.7011 12.9899 12.6599 12.9899 12.6186Z" fill="black"/>
    <path d="M13.4432 12.0825C13.4019 12.0413 13.4019 11.9588 13.3607 11.9176C13.3195 11.8763 13.3195 11.7939 13.2782 11.7526C13.237 11.7114 13.237 11.6289 13.1957 11.5877C13.1545 11.5465 13.1545 11.464 13.1133 11.4227C13.072 11.3815 13.072 11.299 13.0308 11.2578C12.9896 11.2166 12.9896 11.1341 12.9483 11.0928C12.9071 11.0516 12.9071 10.9691 12.8658 10.9279C12.8246 10.8454 12.8246 10.7629 12.7834 10.7217C12.7421 10.6805 12.7421 10.5568 12.7009 10.5155C12.6597 10.4743 12.6597 10.3506 12.6184 10.3093C12.5772 10.2681 12.5772 10.1444 12.5772 10.0619C12.5297 9.90094 12.502 9.73476 12.4947 9.56707C12.4947 9.4846 12.4122 9.44336 12.3298 9.44336C12.2473 9.44336 12.2061 9.52583 12.2061 9.60831C12.2536 9.76929 12.2813 9.93546 12.2885 10.1032V10.1032C12.2885 10.1856 12.3298 10.2681 12.3298 10.3506C12.3383 10.4382 12.3665 10.5228 12.4122 10.598C12.4535 10.6805 12.4535 10.7629 12.4947 10.8454C12.536 10.9279 12.536 11.0104 12.5772 11.0928C12.6184 11.1753 12.6184 11.2166 12.6597 11.299C12.7009 11.3815 12.7009 11.4227 12.7421 11.5052C12.7834 11.5877 12.7834 11.6289 12.8246 11.7114C12.8658 11.7939 12.8658 11.8351 12.9071 11.8763C12.9483 11.9176 12.9483 12.0001 12.9896 12.0413C13.0308 12.0825 13.0308 12.165 13.072 12.2062C13.1133 12.2475 13.1133 12.33 13.1545 12.3712C13.1957 12.4124 13.1957 12.4949 13.237 12.5361C13.2782 12.5774 13.3195 12.6186 13.3607 12.6186H13.4432C13.5256 12.5774 13.5256 12.4949 13.4844 12.4124C13.4825 12.3013 13.4686 12.1907 13.4432 12.0825Z" fill="black"/>
    <path d="M13.8554 11.4639C13.8141 11.4227 13.8141 11.3402 13.7729 11.299C13.7317 11.2577 13.7317 11.1752 13.6904 11.134C13.6492 11.0928 13.6492 11.0103 13.6079 10.9691C13.5667 10.8866 13.5667 10.8041 13.5255 10.7629C13.4842 10.7216 13.4842 10.5979 13.443 10.5567C13.4018 10.5154 13.4018 10.3917 13.3605 10.3505C13.3731 10.2388 13.359 10.1257 13.3193 10.0206V10.0206L13.1956 9.52576C13.1543 9.36081 13.1543 9.19586 13.1131 9.03091C13.0789 8.8683 13.0651 8.70208 13.0719 8.53606C13.0719 8.45359 12.9894 8.41235 12.9069 8.41235C12.8244 8.41235 12.7832 8.49483 12.7832 8.5773C12.7832 8.74225 12.8244 8.94844 12.8244 9.11338C12.8244 9.27833 12.8657 9.44328 12.9069 9.64947L13.0306 10.1443C13.0392 10.2319 13.0674 10.3165 13.1131 10.3917C13.1543 10.4742 13.1543 10.5567 13.1956 10.6392C13.2368 10.7216 13.2368 10.8041 13.278 10.8866C13.3193 10.9691 13.3193 11.0515 13.3605 11.134C13.4018 11.2165 13.4018 11.2577 13.443 11.3402C13.4842 11.4227 13.4842 11.4639 13.5255 11.5464C13.5667 11.6288 13.5667 11.6701 13.6079 11.7526C13.6492 11.835 13.6492 11.8763 13.6904 11.9175C13.7317 11.9587 13.7729 12 13.8141 12H13.8966C13.9791 11.9587 13.9791 11.8763 13.9791 11.7938C13.9599 11.6768 13.9179 11.5647 13.8554 11.4639V11.4639Z" fill="black"/>
    <path d="M14.2681 10.7217C14.2269 10.6392 14.2269 10.5567 14.1857 10.5155C14.1444 10.4743 14.1444 10.3506 14.1032 10.3093C14.062 10.2681 14.062 10.1444 14.0207 10.0619L13.897 9.56705C13.8495 9.40608 13.8218 9.2399 13.8145 9.07221C13.7818 8.89548 13.768 8.71578 13.7733 8.53613V8.00004C13.7801 7.82036 13.7663 7.64049 13.7321 7.46396C13.7248 7.28273 13.6971 7.1029 13.6496 6.92788C13.6084 6.76293 13.5671 6.55674 13.5259 6.3918C13.4846 6.22685 13.4022 6.0619 13.3609 5.89695C13.3152 5.82172 13.287 5.73715 13.2785 5.64953C13.2466 5.57559 13.205 5.50625 13.1547 5.44334C13.1229 5.36941 13.0813 5.30006 13.031 5.23716C12.9898 5.15468 12.9486 5.11344 12.9073 5.03097C12.8661 4.9485 12.7836 4.9485 12.7011 4.98973C12.6187 5.03097 12.6187 5.11344 12.6599 5.19592C12.7011 5.27839 12.7424 5.31963 12.7836 5.4021C12.8248 5.48458 12.8661 5.52582 12.9073 5.60829C12.9486 5.69076 12.9898 5.732 12.9898 5.81448C12.9898 5.89695 13.0723 5.93819 13.0723 6.02066C13.1456 6.1789 13.201 6.3449 13.2372 6.51551L13.3609 7.01035C13.4022 7.1753 13.4022 7.34025 13.4434 7.5052C13.4846 7.67015 13.4846 7.87633 13.4846 8.04128V8.57736C13.4846 8.74231 13.5259 8.9485 13.5259 9.11344C13.5259 9.27839 13.5671 9.48458 13.6084 9.64953C13.6496 9.81448 13.6908 9.97943 13.7321 10.1856C13.7733 10.2681 13.7733 10.3506 13.8145 10.433C13.8558 10.5155 13.8558 10.598 13.897 10.6805C13.9382 10.7629 13.9382 10.8454 13.9795 10.9279C14.0252 11.0031 14.0534 11.0877 14.062 11.1753C14.1032 11.2165 14.1444 11.2578 14.1857 11.2578H14.2269C14.2463 11.2502 14.2638 11.2387 14.2786 11.224C14.2933 11.2093 14.3049 11.1918 14.3126 11.1725C14.3204 11.1532 14.3241 11.1325 14.3235 11.1117C14.3229 11.0909 14.3181 11.0705 14.3094 11.0516C14.3094 10.8866 14.2681 10.8042 14.2681 10.7217Z" fill="black"/>
    <path d="M14.5565 9.56701C14.509 9.40604 14.4813 9.23986 14.474 9.07217C14.4382 8.89586 14.4243 8.7158 14.4328 8.53609C14.4328 8.37114 14.3916 8.16495 14.3916 8C14.3984 7.80664 14.3845 7.61311 14.3503 7.42268C14.3431 7.24146 14.3154 7.06163 14.2678 6.8866C14.2266 6.72165 14.1854 6.51547 14.1441 6.35052C14.1029 6.26804 14.0617 6.22681 13.9792 6.22681C13.8967 6.22681 13.8555 6.30928 13.8555 6.39176L13.9792 6.8866C14.0204 7.05155 14.0204 7.2165 14.0617 7.42268C14.1029 7.62887 14.1029 7.79382 14.1029 7.95877C14.0961 8.15212 14.1099 8.34566 14.1441 8.53609C14.1514 8.71731 14.179 8.89714 14.2266 9.07217C14.2678 9.23712 14.3091 9.4433 14.3503 9.60825C14.3921 9.79073 14.4473 9.96991 14.5153 10.1443C14.5153 10.2268 14.5977 10.2268 14.639 10.2268H14.6802C14.7627 10.1856 14.8039 10.1031 14.7627 10.0619C14.6766 9.9047 14.6075 9.73881 14.5565 9.56701V9.56701Z" fill="black"/>
    <path d="M0.371134 13.2371H0V15.9588H2.72165V15.5876H0.329897V13.2371H0.371134ZM0 0V2.72165H0.371134V0.329897H2.76289V0H0ZM15.6289 15.6289H13.2371V16H15.9588V13.2784H15.5876V15.6289H15.6289ZM13.2371 0V0.371134H15.6289V2.76289H16V0H13.2371Z" fill="black"/>
</svg>
