<svg width="16" height="16" viewBox="0 0 16 16" fill="none" xmlns="http://www.w3.org/2000/svg">
<g clip-path="url(#clip0)">
<path fill-rule="evenodd" clip-rule="evenodd" d="M15.8047 3.52859C16.0651 3.78894 16.0651 4.21105 15.8047 4.4714L9.47141 10.8047C9.21106 11.0651 8.78895 11.0651 8.5286 10.8047L5.66667 7.9428L1.13807 12.4714C0.877722 12.7317 0.455612 12.7317 0.195262 12.4714C-0.0650874 12.2111 -0.0650874 11.7889 0.195262 11.5286L5.19526 6.52859C5.45561 6.26824 5.87772 6.26824 6.13807 6.52859L9 9.39052L14.8619 3.52859C15.1223 3.26824 15.5444 3.26824 15.8047 3.52859Z" fill="#979796"/>
<path fill-rule="evenodd" clip-rule="evenodd" d="M10.6667 3.99999C10.6667 3.63181 10.9651 3.33333 11.3333 3.33333H15.3333C15.7015 3.33333 16 3.63181 16 3.99999V8C16 8.36819 15.7015 8.66666 15.3333 8.66666C14.9651 8.66666 14.6667 8.36819 14.6667 8V4.66666H11.3333C10.9651 4.66666 10.6667 4.36818 10.6667 3.99999Z" fill="#979796"/>
</g>
<defs>
<clipPath id="clip0">
<rect width="16" height="16" fill="white"/>
</clipPath>
</defs>
</svg>
