<svg width="16" height="16" viewBox="0 0 16 16" fill="none" xmlns="http://www.w3.org/2000/svg">
<path d="M12.6668 15.3334H3.3335C2.20016 15.3334 1.3335 14.4667 1.3335 13.3334V8.66675C1.3335 7.53341 2.20016 6.66675 3.3335 6.66675H12.6668C13.8002 6.66675 14.6668 7.53341 14.6668 8.66675V13.3334C14.6668 14.4667 13.8002 15.3334 12.6668 15.3334ZM3.3335 8.00008C2.9335 8.00008 2.66683 8.26675 2.66683 8.66675V13.3334C2.66683 13.7334 2.9335 14.0001 3.3335 14.0001H12.6668C13.0668 14.0001 13.3335 13.7334 13.3335 13.3334V8.66675C13.3335 8.26675 13.0668 8.00008 12.6668 8.00008H3.3335Z" fill="#979796"/>
<path d="M4.66683 8.00008C4.26683 8.00008 4.00016 7.73341 4.00016 7.33341V4.66675C4.00016 3.60008 4.40016 2.60008 5.20016 1.86675C5.9335 1.06675 6.9335 0.666748 8.00016 0.666748C9.86683 0.666748 11.5335 2.00008 11.9335 3.86675C12.0002 4.20008 11.7335 4.60008 11.4002 4.66675C11.0668 4.73341 10.6668 4.53341 10.6002 4.13341C10.3335 2.86675 9.26683 2.00008 8.00016 2.00008C7.26683 2.00008 6.60016 2.26675 6.1335 2.80008C5.60016 3.26675 5.3335 3.93341 5.3335 4.66675V7.33341C5.3335 7.73341 5.06683 8.00008 4.66683 8.00008Z" fill="#979796"/>
</svg>
