<svg width="20" height="20" viewBox="0 0 20 20" fill="none" xmlns="http://www.w3.org/2000/svg">
<g clip-path="url(#clip0)">
<path fill-rule="evenodd" clip-rule="evenodd" d="M1.22045 12.887C2.00185 12.1056 3.06166 11.6666 4.16673 11.6666H10.0001C11.1051 11.6666 12.1649 12.1056 12.9463 12.887C13.7277 13.6684 14.1667 14.7282 14.1667 15.8333V17.5C14.1667 17.9602 13.7936 18.3333 13.3334 18.3333C12.8732 18.3333 12.5001 17.9602 12.5001 17.5V15.8333C12.5001 15.1703 12.2367 14.5344 11.7678 14.0655C11.299 13.5967 10.6631 13.3333 10.0001 13.3333H4.16673C3.50369 13.3333 2.8678 13.5967 2.39896 14.0655C1.93012 14.5344 1.66673 15.1703 1.66673 15.8333V17.5C1.66673 17.9602 1.29363 18.3333 0.833394 18.3333C0.373157 18.3333 6.10352e-05 17.9602 6.10352e-05 17.5V15.8333C6.10352e-05 14.7282 0.439048 13.6684 1.22045 12.887Z" fill="#F9F9F8"/>
<path fill-rule="evenodd" clip-rule="evenodd" d="M7.08339 3.33329C5.70268 3.33329 4.58339 4.45258 4.58339 5.83329C4.58339 7.214 5.70268 8.33329 7.08339 8.33329C8.46411 8.33329 9.58339 7.214 9.58339 5.83329C9.58339 4.45258 8.46411 3.33329 7.08339 3.33329ZM2.91673 5.83329C2.91673 3.53211 4.78221 1.66663 7.08339 1.66663C9.38458 1.66663 11.2501 3.53211 11.2501 5.83329C11.2501 8.13448 9.38458 9.99996 7.08339 9.99996C4.78221 9.99996 2.91673 8.13448 2.91673 5.83329Z" fill="#F9F9F8"/>
<path fill-rule="evenodd" clip-rule="evenodd" d="M16.6667 5.83329C17.127 5.83329 17.5001 6.20639 17.5001 6.66663V11.6666C17.5001 12.1269 17.127 12.5 16.6667 12.5C16.2065 12.5 15.8334 12.1269 15.8334 11.6666V6.66663C15.8334 6.20639 16.2065 5.83329 16.6667 5.83329Z" fill="#F9F9F8"/>
<path fill-rule="evenodd" clip-rule="evenodd" d="M13.3334 9.16663C13.3334 8.70639 13.7065 8.33329 14.1667 8.33329H19.1667C19.627 8.33329 20.0001 8.70639 20.0001 9.16663C20.0001 9.62686 19.627 9.99996 19.1667 9.99996H14.1667C13.7065 9.99996 13.3334 9.62686 13.3334 9.16663Z" fill="#F9F9F8"/>
</g>
<defs>
<clipPath id="clip0">
<rect width="20" height="20" fill="white"/>
</clipPath>
</defs>
</svg>
