<svg width="100" height="100" viewBox="0 0 100 100" fill="none" xmlns="http://www.w3.org/2000/svg">
    <path d="M95.9001 60L87.6001 52.6L74.9001 35.2C74.3001 34.4 73.4001 34 72.5001 34H65.9001L63.5001 26.2C63.1001 24.9 62.0001 24 60.6001 24H53.1001C51.7001 24 50.4001 25 50.2001 26.4L48.7001 34H6.6001C4.9001 34 3.6001 35.3 3.6001 37L3.1001 79.3C3.1001 81 4.4001 82.3 6.1001 82.3H13.9001C15.5001 88.6 21.8001 92.5 28.2001 91C32.5001 90 35.8001 86.6 36.9001 82.3H58.2001C59.8001 88.6 66.1001 92.5 72.5001 91C76.8001 90 80.1001 86.6 81.2001 82.3H93.8001C95.5001 82.3 96.8001 81 96.8001 79.3V62.2C96.9001 61.3 96.4001 60.5 95.9001 60ZM25.4001 85.3C22.2001 85.3 19.6001 82.7 19.6001 79.5C19.6001 76.3 22.2001 73.7 25.4001 73.7C28.6001 73.7 31.2001 76.3 31.2001 79.5C31.2001 82.7 28.6001 85.3 25.4001 85.3ZM40.1001 58H36.9001V61.2C36.9001 62.9 35.6001 64.2 33.9001 64.2C32.2001 64.2 30.9001 62.9 30.9001 61.2V58H27.7001C26.0001 58 24.7001 56.7 24.7001 55C24.7001 53.3 26.0001 52 27.7001 52H30.9001V48.8C30.9001 47.1 32.2001 45.8 33.9001 45.8C35.6001 45.8 36.9001 47.1 36.9001 48.8V52H40.1001C41.8001 52 43.1001 53.3 43.1001 55C43.1001 56.7 41.7001 58 40.1001 58ZM69.6001 85.3C66.4001 85.3 63.8001 82.7 63.8001 79.5C63.8001 76.3 66.4001 73.7 69.6001 73.7C72.8001 73.7 75.4001 76.3 75.4001 79.5C75.4001 82.7 72.9001 85.3 69.6001 85.3ZM60.1001 51.6V40H70.9001L79.4001 51.6H60.1001Z" fill="white"/>
    <path d="M59.9001 8.69995H53.9001V21.2H59.9001V8.69995Z" fill="white"/>
    <path d="M77.2016 17.2504L72.959 13.0078L63.8374 22.1294L68.08 26.372L77.2016 17.2504Z" fill="white"/>
    <path d="M50.1597 22.1531L41.0381 13.0315L36.7955 17.2741L45.9171 26.3957L50.1597 22.1531Z" fill="white"/>
</svg>
