<svg width="21" height="20" viewBox="0 0 21 20" fill="none" xmlns="http://www.w3.org/2000/svg">
<path fill-rule="evenodd" clip-rule="evenodd" d="M9.66699 3.33329C6.44533 3.33329 3.83366 5.94496 3.83366 9.16663C3.83366 12.3883 6.44533 15 9.66699 15C12.8887 15 15.5003 12.3883 15.5003 9.16663C15.5003 5.94496 12.8887 3.33329 9.66699 3.33329ZM2.16699 9.16663C2.16699 5.02449 5.52486 1.66663 9.66699 1.66663C13.8091 1.66663 17.167 5.02449 17.167 9.16663C17.167 13.3088 13.8091 16.6666 9.66699 16.6666C5.52486 16.6666 2.16699 13.3088 2.16699 9.16663Z" fill="#F9F9F8"/>
<path fill-rule="evenodd" clip-rule="evenodd" d="M13.7861 13.2857C14.1115 12.9603 14.6391 12.9603 14.9646 13.2857L18.5896 16.9107C18.915 17.2361 18.915 17.7638 18.5896 18.0892C18.2641 18.4147 17.7365 18.4147 17.4111 18.0892L13.7861 14.4642C13.4606 14.1388 13.4606 13.6111 13.7861 13.2857Z" fill="#F9F9F8"/>
<path fill-rule="evenodd" clip-rule="evenodd" d="M9.66699 5.83329C10.1272 5.83329 10.5003 6.20639 10.5003 6.66663V11.6666C10.5003 12.1269 10.1272 12.5 9.66699 12.5C9.20676 12.5 8.83366 12.1269 8.83366 11.6666V6.66663C8.83366 6.20639 9.20676 5.83329 9.66699 5.83329Z" fill="#F9F9F8"/>
<path fill-rule="evenodd" clip-rule="evenodd" d="M6.33366 9.16663C6.33366 8.70639 6.70676 8.33329 7.16699 8.33329H12.167C12.6272 8.33329 13.0003 8.70639 13.0003 9.16663C13.0003 9.62686 12.6272 9.99996 12.167 9.99996H7.16699C6.70676 9.99996 6.33366 9.62686 6.33366 9.16663Z" fill="#F9F9F8"/>
</svg>
